M48
; DRILL file {KiCad 5.1.9} date Mon Mar  1 17:24:22 2021
; FORMAT={-:-/ absolute / metric / decimal}
; #@! TF.CreationDate,2021-03-01T17:24:22+00:00
; #@! TF.GenerationSoftware,Kicad,Pcbnew,5.1.9
; #@! TF.FileFunction,Plated,1,2,PTH
FMAT,2
METRIC
T1C0.300
T2C0.800
T3C0.850
T4C1.000
T5C2.000
T6C3.200
%
G90
G05
T1
X1.0Y-27.3
X2.0Y-28.0
X2.0Y-30.0
X2.6Y-35.3
X3.4Y-24.3
X3.4Y-33.5
X3.5Y-37.6
X3.5Y-41.5
X4.5Y-40.3
X5.4Y-32.9
X5.4Y-37.6
X5.8Y-27.4
X6.0Y-32.0
X6.0Y-34.9
X6.5Y-40.9
X7.5Y-40.3
X8.3Y-32.9
X8.5Y-26.5
X8.5Y-29.6
X8.5Y-40.3
X9.4Y-37.0
X9.7Y-51.0
X10.0Y-17.7
X11.2Y-17.1
X12.3Y-48.6
X12.3Y-49.8
X12.3Y-51.0
X12.3Y-52.2
X12.3Y-53.4
X13.0Y-39.0
X13.2Y-59.0
X14.05Y-51.95
X14.1Y-50.6
X14.5Y-36.0
X14.7Y-46.9
X14.7Y-52.6
X16.5Y-49.4
X16.6Y-52.6
X17.0Y-64.0
X17.5Y-49.4
X18.0Y-46.9
X18.0Y-51.5
X18.7Y-50.6
X18.9Y-40.7
X20.0Y-36.0
X20.9Y-52.6
X21.0Y-40.5
X21.0Y-64.0
X21.1Y-41.3
X21.1Y-50.6
X21.7Y-46.9
X21.7Y-61.5
X21.9Y-52.6
X23.0Y-46.3
X23.5Y-49.4
X23.6Y-52.6
X23.7Y-63.4
X24.2Y-43.0
X24.3Y-62.8
X24.5Y-49.4
X24.7Y-62.1
X25.0Y-46.9
X25.0Y-51.5
X25.7Y-50.6
X26.2Y-43.0
X27.0Y-39.0
X28.0Y-49.4
X28.6Y-48.8
X29.2Y-40.7
X32.3Y-46.3
X33.7Y-43.0
X33.7Y-53.2
X34.5Y-56.6
X35.0Y-67.0
X35.9Y-59.0
X37.0Y-67.0
X43.65Y-40.15
X43.7Y-43.0
X44.0Y-50.0
X47.1Y-43.0
X49.9Y-41.3
X49.9Y-45.3
X50.0Y-54.0
X51.8Y-54.9
X53.0Y-53.0
X53.0Y-54.0
X53.1Y-51.3
X53.5Y-55.6
X54.0Y-53.0
X54.0Y-54.0
X55.0Y-53.0
X55.0Y-54.0
X58.8Y-58.8
X59.6Y-40.4
X97.4Y-43.7
X98.0Y-42.0
X99.3Y-42.3
X101.0Y-31.0
X101.0Y-32.0
X101.0Y-33.0
X101.0Y-34.0
X101.0Y-35.0
X102.0Y-31.0
X102.0Y-32.0
X102.0Y-33.0
X102.0Y-34.0
X102.0Y-35.0
X102.0Y-38.7
X102.0Y-42.3
X103.0Y-31.0
X103.0Y-32.0
X103.0Y-33.0
X103.0Y-34.0
X103.0Y-35.0
X104.0Y-31.0
X104.0Y-32.0
X104.0Y-33.0
X104.0Y-34.0
X104.0Y-35.0
X105.0Y-31.0
X105.0Y-32.0
X105.0Y-33.0
X106.0Y-31.0
X106.0Y-32.0
X106.0Y-33.0
X106.6Y-34.5
X106.6Y-35.5
X106.6Y-36.5
X106.6Y-37.5
X106.6Y-38.5
X106.6Y-39.5
X106.6Y-40.5
X106.6Y-41.5
X106.6Y-42.5
X106.6Y-43.5
X110.0Y-53.0
X110.2Y-55.8
X111.5Y-64.2
X111.5Y-68.3
X112.0Y-31.0
X112.0Y-32.0
X112.0Y-33.0
X112.0Y-34.0
X112.3Y-60.2
X112.9Y-54.3
X114.4Y-60.2
X114.5Y-55.0
X114.5Y-56.0
X114.5Y-57.0
X115.025Y-51.825
X115.675Y-51.175
X115.7Y-60.2
X116.0Y-55.0
X116.0Y-56.0
X116.0Y-57.0
X116.325Y-50.0
X116.6Y-62.1
X117.5Y-55.0
X117.5Y-56.0
X117.5Y-57.0
X117.6Y-51.6
X118.2Y-51.0
X120.1Y-58.0
X120.8Y-53.0
X121.9Y-60.8
X122.2Y-54.0
X127.2Y-43.1
X129.3Y-49.4
X130.0Y-30.6
X131.0Y-30.6
X131.0Y-42.7
X131.0Y-67.9
X132.0Y-30.6
T2
X18.1Y-56.6
X26.1Y-56.6
X30.1Y-56.6
T3
X16.0Y-66.0
X18.5Y-66.0
X25.0Y-66.0
X27.5Y-66.0
X30.0Y-66.0
X32.5Y-66.0
X39.0Y-66.0
X41.5Y-66.0
X44.0Y-66.0
X50.5Y-66.0
X53.0Y-66.0
X55.5Y-66.0
X58.0Y-66.0
X60.5Y-66.0
X63.0Y-66.0
T4
X2.0Y-23.0
X4.0Y-50.0
X6.0Y-23.0
X37.0Y-47.0
X37.0Y-52.0
X59.0Y-47.0
X70.0Y-2.0
X125.5Y-66.0
X126.0Y-54.0
X126.0Y-57.0
X127.5Y-63.0
X129.0Y-54.0
X129.0Y-57.0
X129.5Y-66.0
X137.0Y-23.0
T5
X23.5Y-10.5
X23.5Y-20.5
X54.5Y-10.5
X54.5Y-20.5
X85.5Y-10.5
X85.5Y-20.5
X116.5Y-10.5
X116.5Y-20.5
T6
X5.0Y-5.0
X5.0Y-65.0
X135.0Y-5.0
X135.0Y-65.0
T0
M30
