G04 #@! TF.GenerationSoftware,KiCad,Pcbnew,5.1.5*
G04 #@! TF.CreationDate,2020-01-27T12:13:59+00:00*
G04 #@! TF.ProjectId,TSAL,5453414c-2e6b-4696-9361-645f70636258,rev?*
G04 #@! TF.SameCoordinates,PX5f5e100PY2625a00*
G04 #@! TF.FileFunction,Soldermask,Bot*
G04 #@! TF.FilePolarity,Negative*
%FSLAX46Y46*%
G04 Gerber Fmt 4.6, Leading zero omitted, Abs format (unit mm)*
G04 Created by KiCad (PCBNEW 5.1.5) date 2020-01-27 12:13:59*
%MOMM*%
%LPD*%
G04 APERTURE LIST*
%ADD10C,0.200000*%
%ADD11C,0.100000*%
G04 APERTURE END LIST*
D10*
G36*
X44250000Y-22750000D02*
G01*
X41750000Y-22750000D01*
X41750000Y-19250000D01*
X44250000Y-19250000D01*
X44250000Y-22750000D01*
G37*
X44250000Y-22750000D02*
X41750000Y-22750000D01*
X41750000Y-19250000D01*
X44250000Y-19250000D01*
X44250000Y-22750000D01*
D11*
G36*
X6000000Y-48000000D02*
G01*
X1000000Y-48000000D01*
X1000000Y-43000000D01*
X6000000Y-43000000D01*
X6000000Y-48000000D01*
G37*
G36*
X135552756Y-61795259D02*
G01*
X135948282Y-61873934D01*
X136539926Y-62119001D01*
X137072392Y-62474784D01*
X137525216Y-62927608D01*
X137880999Y-63460074D01*
X138126066Y-64051718D01*
X138251000Y-64679804D01*
X138251000Y-65320196D01*
X138126066Y-65948282D01*
X137880999Y-66539926D01*
X137525216Y-67072392D01*
X137072392Y-67525216D01*
X136539926Y-67880999D01*
X135948282Y-68126066D01*
X135634239Y-68188533D01*
X135320197Y-68251000D01*
X134679803Y-68251000D01*
X134365761Y-68188533D01*
X134051718Y-68126066D01*
X133460074Y-67880999D01*
X132927608Y-67525216D01*
X132474784Y-67072392D01*
X132119001Y-66539926D01*
X131873934Y-65948282D01*
X131749000Y-65320196D01*
X131749000Y-64679804D01*
X131873934Y-64051718D01*
X132119001Y-63460074D01*
X132474784Y-62927608D01*
X132927608Y-62474784D01*
X133460074Y-62119001D01*
X134051718Y-61873934D01*
X134447244Y-61795259D01*
X134679803Y-61749000D01*
X135320197Y-61749000D01*
X135552756Y-61795259D01*
G37*
G36*
X5552756Y-61795259D02*
G01*
X5948282Y-61873934D01*
X6539926Y-62119001D01*
X7072392Y-62474784D01*
X7525216Y-62927608D01*
X7880999Y-63460074D01*
X8126066Y-64051718D01*
X8251000Y-64679804D01*
X8251000Y-65320196D01*
X8126066Y-65948282D01*
X7880999Y-66539926D01*
X7525216Y-67072392D01*
X7072392Y-67525216D01*
X6539926Y-67880999D01*
X5948282Y-68126066D01*
X5634239Y-68188533D01*
X5320197Y-68251000D01*
X4679803Y-68251000D01*
X4365761Y-68188533D01*
X4051718Y-68126066D01*
X3460074Y-67880999D01*
X2927608Y-67525216D01*
X2474784Y-67072392D01*
X2119001Y-66539926D01*
X1873934Y-65948282D01*
X1749000Y-65320196D01*
X1749000Y-64679804D01*
X1873934Y-64051718D01*
X2119001Y-63460074D01*
X2474784Y-62927608D01*
X2927608Y-62474784D01*
X3460074Y-62119001D01*
X4051718Y-61873934D01*
X4447244Y-61795259D01*
X4679803Y-61749000D01*
X5320197Y-61749000D01*
X5552756Y-61795259D01*
G37*
G36*
X12364903Y-64797075D02*
G01*
X12566894Y-64880742D01*
X12592571Y-64891378D01*
X12797466Y-65028285D01*
X12971715Y-65202534D01*
X13050335Y-65320197D01*
X13108623Y-65407431D01*
X13202925Y-65635097D01*
X13218856Y-65715185D01*
X13251000Y-65876787D01*
X13251000Y-66123213D01*
X13202925Y-66364903D01*
X13108622Y-66592571D01*
X12971715Y-66797466D01*
X12797466Y-66971715D01*
X12592571Y-67108622D01*
X12592570Y-67108623D01*
X12592569Y-67108623D01*
X12364903Y-67202925D01*
X12123214Y-67251000D01*
X11876786Y-67251000D01*
X11635097Y-67202925D01*
X11407431Y-67108623D01*
X11407430Y-67108623D01*
X11407429Y-67108622D01*
X11202534Y-66971715D01*
X11028285Y-66797466D01*
X10891378Y-66592571D01*
X10797075Y-66364903D01*
X10749000Y-66123213D01*
X10749000Y-65876787D01*
X10781145Y-65715185D01*
X10797075Y-65635097D01*
X10891377Y-65407431D01*
X10949665Y-65320197D01*
X11028285Y-65202534D01*
X11202534Y-65028285D01*
X11407429Y-64891378D01*
X11433107Y-64880742D01*
X11635097Y-64797075D01*
X11876786Y-64749000D01*
X12123214Y-64749000D01*
X12364903Y-64797075D01*
G37*
G36*
X30176626Y-64037037D02*
G01*
X30346465Y-64088557D01*
X30346467Y-64088558D01*
X30502989Y-64172221D01*
X30640186Y-64284814D01*
X30713771Y-64374479D01*
X30752778Y-64422009D01*
X30836443Y-64578534D01*
X30887963Y-64748373D01*
X30901000Y-64880742D01*
X30901000Y-65119257D01*
X30887963Y-65251626D01*
X30836443Y-65421465D01*
X30752778Y-65577991D01*
X30723448Y-65613729D01*
X30640186Y-65715186D01*
X30545250Y-65793097D01*
X30502991Y-65827778D01*
X30346466Y-65911443D01*
X30176627Y-65962963D01*
X30000000Y-65980359D01*
X29823374Y-65962963D01*
X29653535Y-65911443D01*
X29497010Y-65827778D01*
X29417711Y-65762699D01*
X29359814Y-65715185D01*
X29291217Y-65631599D01*
X29247222Y-65577991D01*
X29163557Y-65421466D01*
X29112037Y-65251627D01*
X29099000Y-65119258D01*
X29099000Y-64880743D01*
X29112037Y-64748374D01*
X29163557Y-64578535D01*
X29247222Y-64422010D01*
X29264464Y-64401000D01*
X29359814Y-64284814D01*
X29461271Y-64201552D01*
X29497009Y-64172222D01*
X29653534Y-64088557D01*
X29823373Y-64037037D01*
X30000000Y-64019641D01*
X30176626Y-64037037D01*
G37*
G36*
X42676626Y-64037037D02*
G01*
X42846465Y-64088557D01*
X42846467Y-64088558D01*
X43002989Y-64172221D01*
X43140186Y-64284814D01*
X43213771Y-64374479D01*
X43252778Y-64422009D01*
X43336443Y-64578534D01*
X43387963Y-64748373D01*
X43401000Y-64880742D01*
X43401000Y-65119257D01*
X43387963Y-65251626D01*
X43336443Y-65421465D01*
X43252778Y-65577991D01*
X43223448Y-65613729D01*
X43140186Y-65715186D01*
X43045250Y-65793097D01*
X43002991Y-65827778D01*
X42846466Y-65911443D01*
X42676627Y-65962963D01*
X42500000Y-65980359D01*
X42323374Y-65962963D01*
X42153535Y-65911443D01*
X41997010Y-65827778D01*
X41917711Y-65762699D01*
X41859814Y-65715185D01*
X41791217Y-65631599D01*
X41747222Y-65577991D01*
X41663557Y-65421466D01*
X41612037Y-65251627D01*
X41599000Y-65119258D01*
X41599000Y-64880743D01*
X41612037Y-64748374D01*
X41663557Y-64578535D01*
X41747222Y-64422010D01*
X41764464Y-64401000D01*
X41859814Y-64284814D01*
X41961271Y-64201552D01*
X41997009Y-64172222D01*
X42153534Y-64088557D01*
X42323373Y-64037037D01*
X42500000Y-64019641D01*
X42676626Y-64037037D01*
G37*
G36*
X45176626Y-64037037D02*
G01*
X45346465Y-64088557D01*
X45346467Y-64088558D01*
X45502989Y-64172221D01*
X45640186Y-64284814D01*
X45713771Y-64374479D01*
X45752778Y-64422009D01*
X45836443Y-64578534D01*
X45887963Y-64748373D01*
X45901000Y-64880742D01*
X45901000Y-65119257D01*
X45887963Y-65251626D01*
X45836443Y-65421465D01*
X45752778Y-65577991D01*
X45723448Y-65613729D01*
X45640186Y-65715186D01*
X45545250Y-65793097D01*
X45502991Y-65827778D01*
X45346466Y-65911443D01*
X45176627Y-65962963D01*
X45000000Y-65980359D01*
X44823374Y-65962963D01*
X44653535Y-65911443D01*
X44497010Y-65827778D01*
X44417711Y-65762699D01*
X44359814Y-65715185D01*
X44291217Y-65631599D01*
X44247222Y-65577991D01*
X44163557Y-65421466D01*
X44112037Y-65251627D01*
X44099000Y-65119258D01*
X44099000Y-64880743D01*
X44112037Y-64748374D01*
X44163557Y-64578535D01*
X44247222Y-64422010D01*
X44264464Y-64401000D01*
X44359814Y-64284814D01*
X44461271Y-64201552D01*
X44497009Y-64172222D01*
X44653534Y-64088557D01*
X44823373Y-64037037D01*
X45000000Y-64019641D01*
X45176626Y-64037037D01*
G37*
G36*
X102676626Y-64037037D02*
G01*
X102846465Y-64088557D01*
X102846467Y-64088558D01*
X103002989Y-64172221D01*
X103140186Y-64284814D01*
X103213771Y-64374479D01*
X103252778Y-64422009D01*
X103336443Y-64578534D01*
X103387963Y-64748373D01*
X103401000Y-64880742D01*
X103401000Y-65119257D01*
X103387963Y-65251626D01*
X103336443Y-65421465D01*
X103252778Y-65577991D01*
X103223448Y-65613729D01*
X103140186Y-65715186D01*
X103045250Y-65793097D01*
X103002991Y-65827778D01*
X102846466Y-65911443D01*
X102676627Y-65962963D01*
X102500000Y-65980359D01*
X102323374Y-65962963D01*
X102153535Y-65911443D01*
X101997010Y-65827778D01*
X101917711Y-65762699D01*
X101859814Y-65715185D01*
X101791217Y-65631599D01*
X101747222Y-65577991D01*
X101663557Y-65421466D01*
X101612037Y-65251627D01*
X101599000Y-65119258D01*
X101599000Y-64880743D01*
X101612037Y-64748374D01*
X101663557Y-64578535D01*
X101747222Y-64422010D01*
X101764464Y-64401000D01*
X101859814Y-64284814D01*
X101961271Y-64201552D01*
X101997009Y-64172222D01*
X102153534Y-64088557D01*
X102323373Y-64037037D01*
X102500000Y-64019641D01*
X102676626Y-64037037D01*
G37*
G36*
X105176626Y-64037037D02*
G01*
X105346465Y-64088557D01*
X105346467Y-64088558D01*
X105502989Y-64172221D01*
X105640186Y-64284814D01*
X105713771Y-64374479D01*
X105752778Y-64422009D01*
X105836443Y-64578534D01*
X105887963Y-64748373D01*
X105901000Y-64880742D01*
X105901000Y-65119257D01*
X105887963Y-65251626D01*
X105836443Y-65421465D01*
X105752778Y-65577991D01*
X105723448Y-65613729D01*
X105640186Y-65715186D01*
X105545250Y-65793097D01*
X105502991Y-65827778D01*
X105346466Y-65911443D01*
X105176627Y-65962963D01*
X105000000Y-65980359D01*
X104823374Y-65962963D01*
X104653535Y-65911443D01*
X104497010Y-65827778D01*
X104417711Y-65762699D01*
X104359814Y-65715185D01*
X104291217Y-65631599D01*
X104247222Y-65577991D01*
X104163557Y-65421466D01*
X104112037Y-65251627D01*
X104099000Y-65119258D01*
X104099000Y-64880743D01*
X104112037Y-64748374D01*
X104163557Y-64578535D01*
X104247222Y-64422010D01*
X104264464Y-64401000D01*
X104359814Y-64284814D01*
X104461271Y-64201552D01*
X104497009Y-64172222D01*
X104653534Y-64088557D01*
X104823373Y-64037037D01*
X105000000Y-64019641D01*
X105176626Y-64037037D01*
G37*
G36*
X107676626Y-64037037D02*
G01*
X107846465Y-64088557D01*
X107846467Y-64088558D01*
X108002989Y-64172221D01*
X108140186Y-64284814D01*
X108213771Y-64374479D01*
X108252778Y-64422009D01*
X108336443Y-64578534D01*
X108387963Y-64748373D01*
X108401000Y-64880742D01*
X108401000Y-65119257D01*
X108387963Y-65251626D01*
X108336443Y-65421465D01*
X108252778Y-65577991D01*
X108223448Y-65613729D01*
X108140186Y-65715186D01*
X108045250Y-65793097D01*
X108002991Y-65827778D01*
X107846466Y-65911443D01*
X107676627Y-65962963D01*
X107500000Y-65980359D01*
X107323374Y-65962963D01*
X107153535Y-65911443D01*
X106997010Y-65827778D01*
X106917711Y-65762699D01*
X106859814Y-65715185D01*
X106791217Y-65631599D01*
X106747222Y-65577991D01*
X106663557Y-65421466D01*
X106612037Y-65251627D01*
X106599000Y-65119258D01*
X106599000Y-64880743D01*
X106612037Y-64748374D01*
X106663557Y-64578535D01*
X106747222Y-64422010D01*
X106764464Y-64401000D01*
X106859814Y-64284814D01*
X106961271Y-64201552D01*
X106997009Y-64172222D01*
X107153534Y-64088557D01*
X107323373Y-64037037D01*
X107500000Y-64019641D01*
X107676626Y-64037037D01*
G37*
G36*
X117676626Y-64037037D02*
G01*
X117846465Y-64088557D01*
X117846467Y-64088558D01*
X118002989Y-64172221D01*
X118140186Y-64284814D01*
X118213771Y-64374479D01*
X118252778Y-64422009D01*
X118336443Y-64578534D01*
X118387963Y-64748373D01*
X118401000Y-64880742D01*
X118401000Y-65119257D01*
X118387963Y-65251626D01*
X118336443Y-65421465D01*
X118252778Y-65577991D01*
X118223448Y-65613729D01*
X118140186Y-65715186D01*
X118045250Y-65793097D01*
X118002991Y-65827778D01*
X117846466Y-65911443D01*
X117676627Y-65962963D01*
X117500000Y-65980359D01*
X117323374Y-65962963D01*
X117153535Y-65911443D01*
X116997010Y-65827778D01*
X116917711Y-65762699D01*
X116859814Y-65715185D01*
X116791217Y-65631599D01*
X116747222Y-65577991D01*
X116663557Y-65421466D01*
X116612037Y-65251627D01*
X116599000Y-65119258D01*
X116599000Y-64880743D01*
X116612037Y-64748374D01*
X116663557Y-64578535D01*
X116747222Y-64422010D01*
X116764464Y-64401000D01*
X116859814Y-64284814D01*
X116961271Y-64201552D01*
X116997009Y-64172222D01*
X117153534Y-64088557D01*
X117323373Y-64037037D01*
X117500000Y-64019641D01*
X117676626Y-64037037D01*
G37*
G36*
X22676626Y-64037037D02*
G01*
X22846465Y-64088557D01*
X22846467Y-64088558D01*
X23002989Y-64172221D01*
X23140186Y-64284814D01*
X23213771Y-64374479D01*
X23252778Y-64422009D01*
X23336443Y-64578534D01*
X23387963Y-64748373D01*
X23401000Y-64880742D01*
X23401000Y-65119257D01*
X23387963Y-65251626D01*
X23336443Y-65421465D01*
X23252778Y-65577991D01*
X23223448Y-65613729D01*
X23140186Y-65715186D01*
X23045250Y-65793097D01*
X23002991Y-65827778D01*
X22846466Y-65911443D01*
X22676627Y-65962963D01*
X22500000Y-65980359D01*
X22323374Y-65962963D01*
X22153535Y-65911443D01*
X21997010Y-65827778D01*
X21917711Y-65762699D01*
X21859814Y-65715185D01*
X21791217Y-65631599D01*
X21747222Y-65577991D01*
X21663557Y-65421466D01*
X21612037Y-65251627D01*
X21599000Y-65119258D01*
X21599000Y-64880743D01*
X21612037Y-64748374D01*
X21663557Y-64578535D01*
X21747222Y-64422010D01*
X21764464Y-64401000D01*
X21859814Y-64284814D01*
X21961271Y-64201552D01*
X21997009Y-64172222D01*
X22153534Y-64088557D01*
X22323373Y-64037037D01*
X22500000Y-64019641D01*
X22676626Y-64037037D01*
G37*
G36*
X25176626Y-64037037D02*
G01*
X25346465Y-64088557D01*
X25346467Y-64088558D01*
X25502989Y-64172221D01*
X25640186Y-64284814D01*
X25713771Y-64374479D01*
X25752778Y-64422009D01*
X25836443Y-64578534D01*
X25887963Y-64748373D01*
X25901000Y-64880742D01*
X25901000Y-65119257D01*
X25887963Y-65251626D01*
X25836443Y-65421465D01*
X25752778Y-65577991D01*
X25723448Y-65613729D01*
X25640186Y-65715186D01*
X25545250Y-65793097D01*
X25502991Y-65827778D01*
X25346466Y-65911443D01*
X25176627Y-65962963D01*
X25000000Y-65980359D01*
X24823374Y-65962963D01*
X24653535Y-65911443D01*
X24497010Y-65827778D01*
X24417711Y-65762699D01*
X24359814Y-65715185D01*
X24291217Y-65631599D01*
X24247222Y-65577991D01*
X24163557Y-65421466D01*
X24112037Y-65251627D01*
X24099000Y-65119258D01*
X24099000Y-64880743D01*
X24112037Y-64748374D01*
X24163557Y-64578535D01*
X24247222Y-64422010D01*
X24264464Y-64401000D01*
X24359814Y-64284814D01*
X24461271Y-64201552D01*
X24497009Y-64172222D01*
X24653534Y-64088557D01*
X24823373Y-64037037D01*
X25000000Y-64019641D01*
X25176626Y-64037037D01*
G37*
G36*
X32676626Y-64037037D02*
G01*
X32846465Y-64088557D01*
X32846467Y-64088558D01*
X33002989Y-64172221D01*
X33140186Y-64284814D01*
X33213771Y-64374479D01*
X33252778Y-64422009D01*
X33336443Y-64578534D01*
X33387963Y-64748373D01*
X33401000Y-64880742D01*
X33401000Y-65119257D01*
X33387963Y-65251626D01*
X33336443Y-65421465D01*
X33252778Y-65577991D01*
X33223448Y-65613729D01*
X33140186Y-65715186D01*
X33045250Y-65793097D01*
X33002991Y-65827778D01*
X32846466Y-65911443D01*
X32676627Y-65962963D01*
X32500000Y-65980359D01*
X32323374Y-65962963D01*
X32153535Y-65911443D01*
X31997010Y-65827778D01*
X31917711Y-65762699D01*
X31859814Y-65715185D01*
X31791217Y-65631599D01*
X31747222Y-65577991D01*
X31663557Y-65421466D01*
X31612037Y-65251627D01*
X31599000Y-65119258D01*
X31599000Y-64880743D01*
X31612037Y-64748374D01*
X31663557Y-64578535D01*
X31747222Y-64422010D01*
X31764464Y-64401000D01*
X31859814Y-64284814D01*
X31961271Y-64201552D01*
X31997009Y-64172222D01*
X32153534Y-64088557D01*
X32323373Y-64037037D01*
X32500000Y-64019641D01*
X32676626Y-64037037D01*
G37*
G36*
X27676626Y-64037037D02*
G01*
X27846465Y-64088557D01*
X27846467Y-64088558D01*
X28002989Y-64172221D01*
X28140186Y-64284814D01*
X28213771Y-64374479D01*
X28252778Y-64422009D01*
X28336443Y-64578534D01*
X28387963Y-64748373D01*
X28401000Y-64880742D01*
X28401000Y-65119257D01*
X28387963Y-65251626D01*
X28336443Y-65421465D01*
X28252778Y-65577991D01*
X28223448Y-65613729D01*
X28140186Y-65715186D01*
X28045250Y-65793097D01*
X28002991Y-65827778D01*
X27846466Y-65911443D01*
X27676627Y-65962963D01*
X27500000Y-65980359D01*
X27323374Y-65962963D01*
X27153535Y-65911443D01*
X26997010Y-65827778D01*
X26917711Y-65762699D01*
X26859814Y-65715185D01*
X26791217Y-65631599D01*
X26747222Y-65577991D01*
X26663557Y-65421466D01*
X26612037Y-65251627D01*
X26599000Y-65119258D01*
X26599000Y-64880743D01*
X26612037Y-64748374D01*
X26663557Y-64578535D01*
X26747222Y-64422010D01*
X26764464Y-64401000D01*
X26859814Y-64284814D01*
X26961271Y-64201552D01*
X26997009Y-64172222D01*
X27153534Y-64088557D01*
X27323373Y-64037037D01*
X27500000Y-64019641D01*
X27676626Y-64037037D01*
G37*
G36*
X20758600Y-64027989D02*
G01*
X20791652Y-64038015D01*
X20822103Y-64054292D01*
X20848799Y-64076201D01*
X20870708Y-64102897D01*
X20886985Y-64133348D01*
X20897011Y-64166400D01*
X20901000Y-64206903D01*
X20901000Y-65793097D01*
X20897011Y-65833600D01*
X20886985Y-65866652D01*
X20870708Y-65897103D01*
X20848799Y-65923799D01*
X20822103Y-65945708D01*
X20791652Y-65961985D01*
X20758600Y-65972011D01*
X20718097Y-65976000D01*
X19281903Y-65976000D01*
X19241400Y-65972011D01*
X19208348Y-65961985D01*
X19177897Y-65945708D01*
X19151201Y-65923799D01*
X19129292Y-65897103D01*
X19113015Y-65866652D01*
X19102989Y-65833600D01*
X19099000Y-65793097D01*
X19099000Y-64206903D01*
X19102989Y-64166400D01*
X19113015Y-64133348D01*
X19129292Y-64102897D01*
X19151201Y-64076201D01*
X19177897Y-64054292D01*
X19208348Y-64038015D01*
X19241400Y-64027989D01*
X19281903Y-64024000D01*
X20718097Y-64024000D01*
X20758600Y-64027989D01*
G37*
G36*
X115758600Y-64027989D02*
G01*
X115791652Y-64038015D01*
X115822103Y-64054292D01*
X115848799Y-64076201D01*
X115870708Y-64102897D01*
X115886985Y-64133348D01*
X115897011Y-64166400D01*
X115901000Y-64206903D01*
X115901000Y-65793097D01*
X115897011Y-65833600D01*
X115886985Y-65866652D01*
X115870708Y-65897103D01*
X115848799Y-65923799D01*
X115822103Y-65945708D01*
X115791652Y-65961985D01*
X115758600Y-65972011D01*
X115718097Y-65976000D01*
X114281903Y-65976000D01*
X114241400Y-65972011D01*
X114208348Y-65961985D01*
X114177897Y-65945708D01*
X114151201Y-65923799D01*
X114129292Y-65897103D01*
X114113015Y-65866652D01*
X114102989Y-65833600D01*
X114099000Y-65793097D01*
X114099000Y-64206903D01*
X114102989Y-64166400D01*
X114113015Y-64133348D01*
X114129292Y-64102897D01*
X114151201Y-64076201D01*
X114177897Y-64054292D01*
X114208348Y-64038015D01*
X114241400Y-64027989D01*
X114281903Y-64024000D01*
X115718097Y-64024000D01*
X115758600Y-64027989D01*
G37*
G36*
X100758600Y-64027989D02*
G01*
X100791652Y-64038015D01*
X100822103Y-64054292D01*
X100848799Y-64076201D01*
X100870708Y-64102897D01*
X100886985Y-64133348D01*
X100897011Y-64166400D01*
X100901000Y-64206903D01*
X100901000Y-65793097D01*
X100897011Y-65833600D01*
X100886985Y-65866652D01*
X100870708Y-65897103D01*
X100848799Y-65923799D01*
X100822103Y-65945708D01*
X100791652Y-65961985D01*
X100758600Y-65972011D01*
X100718097Y-65976000D01*
X99281903Y-65976000D01*
X99241400Y-65972011D01*
X99208348Y-65961985D01*
X99177897Y-65945708D01*
X99151201Y-65923799D01*
X99129292Y-65897103D01*
X99113015Y-65866652D01*
X99102989Y-65833600D01*
X99099000Y-65793097D01*
X99099000Y-64206903D01*
X99102989Y-64166400D01*
X99113015Y-64133348D01*
X99129292Y-64102897D01*
X99151201Y-64076201D01*
X99177897Y-64054292D01*
X99208348Y-64038015D01*
X99241400Y-64027989D01*
X99281903Y-64024000D01*
X100718097Y-64024000D01*
X100758600Y-64027989D01*
G37*
G36*
X40758600Y-64027989D02*
G01*
X40791652Y-64038015D01*
X40822103Y-64054292D01*
X40848799Y-64076201D01*
X40870708Y-64102897D01*
X40886985Y-64133348D01*
X40897011Y-64166400D01*
X40901000Y-64206903D01*
X40901000Y-65793097D01*
X40897011Y-65833600D01*
X40886985Y-65866652D01*
X40870708Y-65897103D01*
X40848799Y-65923799D01*
X40822103Y-65945708D01*
X40791652Y-65961985D01*
X40758600Y-65972011D01*
X40718097Y-65976000D01*
X39281903Y-65976000D01*
X39241400Y-65972011D01*
X39208348Y-65961985D01*
X39177897Y-65945708D01*
X39151201Y-65923799D01*
X39129292Y-65897103D01*
X39113015Y-65866652D01*
X39102989Y-65833600D01*
X39099000Y-65793097D01*
X39099000Y-64206903D01*
X39102989Y-64166400D01*
X39113015Y-64133348D01*
X39129292Y-64102897D01*
X39151201Y-64076201D01*
X39177897Y-64054292D01*
X39208348Y-64038015D01*
X39241400Y-64027989D01*
X39281903Y-64024000D01*
X40718097Y-64024000D01*
X40758600Y-64027989D01*
G37*
G36*
X55802585Y-61478802D02*
G01*
X55952410Y-61508604D01*
X56234674Y-61625521D01*
X56488705Y-61795259D01*
X56704741Y-62011295D01*
X56874479Y-62265326D01*
X56991396Y-62547590D01*
X57051000Y-62847240D01*
X57051000Y-63152760D01*
X56991396Y-63452410D01*
X56874479Y-63734674D01*
X56704741Y-63988705D01*
X56488705Y-64204741D01*
X56234674Y-64374479D01*
X55952410Y-64491396D01*
X55802585Y-64521198D01*
X55652761Y-64551000D01*
X55347239Y-64551000D01*
X55197415Y-64521198D01*
X55047590Y-64491396D01*
X54765326Y-64374479D01*
X54511295Y-64204741D01*
X54295259Y-63988705D01*
X54125521Y-63734674D01*
X54008604Y-63452410D01*
X53949000Y-63152760D01*
X53949000Y-62847240D01*
X54008604Y-62547590D01*
X54125521Y-62265326D01*
X54295259Y-62011295D01*
X54511295Y-61795259D01*
X54765326Y-61625521D01*
X55047590Y-61508604D01*
X55197415Y-61478802D01*
X55347239Y-61449000D01*
X55652761Y-61449000D01*
X55802585Y-61478802D01*
G37*
G36*
X78302585Y-61478802D02*
G01*
X78452410Y-61508604D01*
X78734674Y-61625521D01*
X78988705Y-61795259D01*
X79204741Y-62011295D01*
X79374479Y-62265326D01*
X79491396Y-62547590D01*
X79551000Y-62847240D01*
X79551000Y-63152760D01*
X79491396Y-63452410D01*
X79374479Y-63734674D01*
X79204741Y-63988705D01*
X78988705Y-64204741D01*
X78734674Y-64374479D01*
X78452410Y-64491396D01*
X78302585Y-64521198D01*
X78152761Y-64551000D01*
X77847239Y-64551000D01*
X77697415Y-64521198D01*
X77547590Y-64491396D01*
X77265326Y-64374479D01*
X77011295Y-64204741D01*
X76795259Y-63988705D01*
X76625521Y-63734674D01*
X76508604Y-63452410D01*
X76449000Y-63152760D01*
X76449000Y-62847240D01*
X76508604Y-62547590D01*
X76625521Y-62265326D01*
X76795259Y-62011295D01*
X77011295Y-61795259D01*
X77265326Y-61625521D01*
X77547590Y-61508604D01*
X77697415Y-61478802D01*
X77847239Y-61449000D01*
X78152761Y-61449000D01*
X78302585Y-61478802D01*
G37*
G36*
X67068433Y-61634893D02*
G01*
X67158657Y-61652839D01*
X67264267Y-61696585D01*
X67413621Y-61758449D01*
X67489763Y-61809325D01*
X67643086Y-61911772D01*
X67838228Y-62106914D01*
X67846304Y-62119001D01*
X67991551Y-62336379D01*
X68048880Y-62474783D01*
X68079038Y-62547590D01*
X68097161Y-62591344D01*
X68151000Y-62862012D01*
X68151000Y-63137988D01*
X68148061Y-63152761D01*
X68097161Y-63408657D01*
X68075863Y-63460074D01*
X67991551Y-63663621D01*
X67991550Y-63663622D01*
X67838228Y-63893086D01*
X67643086Y-64088228D01*
X67517381Y-64172221D01*
X67413621Y-64241551D01*
X67299069Y-64289000D01*
X67158657Y-64347161D01*
X67068433Y-64365107D01*
X66887988Y-64401000D01*
X66612012Y-64401000D01*
X66431567Y-64365107D01*
X66341343Y-64347161D01*
X66200931Y-64289000D01*
X66086379Y-64241551D01*
X65982619Y-64172221D01*
X65856914Y-64088228D01*
X65661772Y-63893086D01*
X65508450Y-63663622D01*
X65508449Y-63663621D01*
X65424137Y-63460074D01*
X65402839Y-63408657D01*
X65351939Y-63152761D01*
X65349000Y-63137988D01*
X65349000Y-62862012D01*
X65402839Y-62591344D01*
X65420963Y-62547590D01*
X65451120Y-62474783D01*
X65508449Y-62336379D01*
X65653696Y-62119001D01*
X65661772Y-62106914D01*
X65856914Y-61911772D01*
X66010237Y-61809325D01*
X66086379Y-61758449D01*
X66235733Y-61696585D01*
X66341343Y-61652839D01*
X66431567Y-61634893D01*
X66612012Y-61599000D01*
X66887988Y-61599000D01*
X67068433Y-61634893D01*
G37*
G36*
X95306564Y-58989389D02*
G01*
X95497833Y-59068615D01*
X95497835Y-59068616D01*
X95669973Y-59183635D01*
X95816365Y-59330027D01*
X95928491Y-59497835D01*
X95931385Y-59502167D01*
X96010611Y-59693436D01*
X96051000Y-59896484D01*
X96051000Y-60103516D01*
X96010611Y-60306564D01*
X95931385Y-60497833D01*
X95931384Y-60497835D01*
X95816365Y-60669973D01*
X95669973Y-60816365D01*
X95497835Y-60931384D01*
X95497834Y-60931385D01*
X95497833Y-60931385D01*
X95306564Y-61010611D01*
X95103516Y-61051000D01*
X94896484Y-61051000D01*
X94693436Y-61010611D01*
X94502167Y-60931385D01*
X94502166Y-60931385D01*
X94502165Y-60931384D01*
X94330027Y-60816365D01*
X94183635Y-60669973D01*
X94068616Y-60497835D01*
X94068615Y-60497833D01*
X93989389Y-60306564D01*
X93949000Y-60103516D01*
X93949000Y-59896484D01*
X93989389Y-59693436D01*
X94068615Y-59502167D01*
X94071510Y-59497835D01*
X94183635Y-59330027D01*
X94330027Y-59183635D01*
X94502165Y-59068616D01*
X94502167Y-59068615D01*
X94693436Y-58989389D01*
X94896484Y-58949000D01*
X95103516Y-58949000D01*
X95306564Y-58989389D01*
G37*
G36*
X125306564Y-57989389D02*
G01*
X125497833Y-58068615D01*
X125497835Y-58068616D01*
X125669973Y-58183635D01*
X125816365Y-58330027D01*
X125931385Y-58502167D01*
X126010611Y-58693436D01*
X126051000Y-58896484D01*
X126051000Y-59103516D01*
X126010611Y-59306564D01*
X126000892Y-59330027D01*
X125931384Y-59497835D01*
X125816365Y-59669973D01*
X125669973Y-59816365D01*
X125497835Y-59931384D01*
X125497834Y-59931385D01*
X125497833Y-59931385D01*
X125306564Y-60010611D01*
X125103516Y-60051000D01*
X124896484Y-60051000D01*
X124693436Y-60010611D01*
X124502167Y-59931385D01*
X124502166Y-59931385D01*
X124502165Y-59931384D01*
X124330027Y-59816365D01*
X124183635Y-59669973D01*
X124068616Y-59497835D01*
X123999108Y-59330027D01*
X123989389Y-59306564D01*
X123949000Y-59103516D01*
X123949000Y-58896484D01*
X123989389Y-58693436D01*
X124068615Y-58502167D01*
X124183635Y-58330027D01*
X124330027Y-58183635D01*
X124502165Y-58068616D01*
X124502167Y-58068615D01*
X124693436Y-57989389D01*
X124896484Y-57949000D01*
X125103516Y-57949000D01*
X125306564Y-57989389D01*
G37*
G36*
X5113512Y-55643927D02*
G01*
X5262812Y-55673624D01*
X5426784Y-55741544D01*
X5574354Y-55840147D01*
X5699853Y-55965646D01*
X5798456Y-56113216D01*
X5866376Y-56277188D01*
X5901000Y-56451259D01*
X5901000Y-56628741D01*
X5866376Y-56802812D01*
X5798456Y-56966784D01*
X5699853Y-57114354D01*
X5574354Y-57239853D01*
X5426784Y-57338456D01*
X5262812Y-57406376D01*
X5113512Y-57436073D01*
X5088742Y-57441000D01*
X4911258Y-57441000D01*
X4886488Y-57436073D01*
X4737188Y-57406376D01*
X4573216Y-57338456D01*
X4425646Y-57239853D01*
X4300147Y-57114354D01*
X4201544Y-56966784D01*
X4133624Y-56802812D01*
X4099000Y-56628741D01*
X4099000Y-56451259D01*
X4133624Y-56277188D01*
X4201544Y-56113216D01*
X4300147Y-55965646D01*
X4425646Y-55840147D01*
X4573216Y-55741544D01*
X4737188Y-55673624D01*
X4886488Y-55643927D01*
X4911258Y-55639000D01*
X5088742Y-55639000D01*
X5113512Y-55643927D01*
G37*
G36*
X5901000Y-54901000D02*
G01*
X4099000Y-54901000D01*
X4099000Y-53099000D01*
X5901000Y-53099000D01*
X5901000Y-54901000D01*
G37*
G36*
X87306564Y-48989389D02*
G01*
X87497833Y-49068615D01*
X87497835Y-49068616D01*
X87669973Y-49183635D01*
X87816365Y-49330027D01*
X87931385Y-49502167D01*
X88010611Y-49693436D01*
X88051000Y-49896484D01*
X88051000Y-50103516D01*
X88010611Y-50306564D01*
X87931385Y-50497833D01*
X87931384Y-50497835D01*
X87816365Y-50669973D01*
X87669973Y-50816365D01*
X87497835Y-50931384D01*
X87497834Y-50931385D01*
X87497833Y-50931385D01*
X87306564Y-51010611D01*
X87103516Y-51051000D01*
X86896484Y-51051000D01*
X86693436Y-51010611D01*
X86502167Y-50931385D01*
X86502166Y-50931385D01*
X86502165Y-50931384D01*
X86330027Y-50816365D01*
X86183635Y-50669973D01*
X86068616Y-50497835D01*
X86068615Y-50497833D01*
X85989389Y-50306564D01*
X85949000Y-50103516D01*
X85949000Y-49896484D01*
X85989389Y-49693436D01*
X86068615Y-49502167D01*
X86183635Y-49330027D01*
X86330027Y-49183635D01*
X86502165Y-49068616D01*
X86502167Y-49068615D01*
X86693436Y-48989389D01*
X86896484Y-48949000D01*
X87103516Y-48949000D01*
X87306564Y-48989389D01*
G37*
G36*
X68306564Y-44989389D02*
G01*
X68497833Y-45068615D01*
X68497835Y-45068616D01*
X68669973Y-45183635D01*
X68816365Y-45330027D01*
X68931385Y-45502167D01*
X69010611Y-45693436D01*
X69051000Y-45896484D01*
X69051000Y-46103516D01*
X69010611Y-46306564D01*
X68939822Y-46477464D01*
X68931384Y-46497835D01*
X68816365Y-46669973D01*
X68669973Y-46816365D01*
X68497835Y-46931384D01*
X68497834Y-46931385D01*
X68497833Y-46931385D01*
X68306564Y-47010611D01*
X68103516Y-47051000D01*
X67896484Y-47051000D01*
X67693436Y-47010611D01*
X67502167Y-46931385D01*
X67502166Y-46931385D01*
X67502165Y-46931384D01*
X67330027Y-46816365D01*
X67183635Y-46669973D01*
X67068616Y-46497835D01*
X67060178Y-46477464D01*
X66989389Y-46306564D01*
X66949000Y-46103516D01*
X66949000Y-45896484D01*
X66989389Y-45693436D01*
X67068615Y-45502167D01*
X67183635Y-45330027D01*
X67330027Y-45183635D01*
X67502165Y-45068616D01*
X67502167Y-45068615D01*
X67693436Y-44989389D01*
X67896484Y-44949000D01*
X68103516Y-44949000D01*
X68306564Y-44989389D01*
G37*
G36*
X12364903Y-44477075D02*
G01*
X12592571Y-44571378D01*
X12797466Y-44708285D01*
X12971715Y-44882534D01*
X13108622Y-45087429D01*
X13108623Y-45087431D01*
X13202925Y-45315097D01*
X13240136Y-45502167D01*
X13251000Y-45556787D01*
X13251000Y-45803213D01*
X13202925Y-46044903D01*
X13108622Y-46272571D01*
X12971715Y-46477466D01*
X12797466Y-46651715D01*
X12592571Y-46788622D01*
X12592570Y-46788623D01*
X12592569Y-46788623D01*
X12364903Y-46882925D01*
X12123214Y-46931000D01*
X11876786Y-46931000D01*
X11635097Y-46882925D01*
X11407431Y-46788623D01*
X11407430Y-46788623D01*
X11407429Y-46788622D01*
X11202534Y-46651715D01*
X11028285Y-46477466D01*
X10891378Y-46272571D01*
X10797075Y-46044903D01*
X10749000Y-45803213D01*
X10749000Y-45556787D01*
X10759865Y-45502167D01*
X10797075Y-45315097D01*
X10891377Y-45087431D01*
X10891378Y-45087429D01*
X11028285Y-44882534D01*
X11202534Y-44708285D01*
X11407429Y-44571378D01*
X11635097Y-44477075D01*
X11876786Y-44429000D01*
X12123214Y-44429000D01*
X12364903Y-44477075D01*
G37*
G36*
X25302585Y-32728802D02*
G01*
X25452410Y-32758604D01*
X25734674Y-32875521D01*
X25988705Y-33045259D01*
X26204741Y-33261295D01*
X26374479Y-33515326D01*
X26491396Y-33797590D01*
X26551000Y-34097240D01*
X26551000Y-34402760D01*
X26491396Y-34702410D01*
X26374479Y-34984674D01*
X26204741Y-35238705D01*
X25988705Y-35454741D01*
X25734674Y-35624479D01*
X25452410Y-35741396D01*
X25302585Y-35771198D01*
X25152761Y-35801000D01*
X24847239Y-35801000D01*
X24697415Y-35771198D01*
X24547590Y-35741396D01*
X24265326Y-35624479D01*
X24011295Y-35454741D01*
X23795259Y-35238705D01*
X23625521Y-34984674D01*
X23508604Y-34702410D01*
X23449000Y-34402760D01*
X23449000Y-34097240D01*
X23508604Y-33797590D01*
X23625521Y-33515326D01*
X23795259Y-33261295D01*
X24011295Y-33045259D01*
X24265326Y-32875521D01*
X24547590Y-32758604D01*
X24697415Y-32728802D01*
X24847239Y-32699000D01*
X25152761Y-32699000D01*
X25302585Y-32728802D01*
G37*
G36*
X9274031Y-32302621D02*
G01*
X9303486Y-32311556D01*
X9330623Y-32326062D01*
X9354414Y-32345586D01*
X9373938Y-32369377D01*
X9388444Y-32396514D01*
X9397379Y-32425969D01*
X9401000Y-32462734D01*
X9401000Y-35537266D01*
X9397379Y-35574031D01*
X9388444Y-35603486D01*
X9373938Y-35630623D01*
X9354414Y-35654414D01*
X9330623Y-35673938D01*
X9303486Y-35688444D01*
X9274031Y-35697379D01*
X9237266Y-35701000D01*
X6762734Y-35701000D01*
X6725969Y-35697379D01*
X6696514Y-35688444D01*
X6669377Y-35673938D01*
X6645586Y-35654414D01*
X6626062Y-35630623D01*
X6611556Y-35603486D01*
X6602621Y-35574031D01*
X6599000Y-35537266D01*
X6599000Y-32462734D01*
X6602621Y-32425969D01*
X6611556Y-32396514D01*
X6626062Y-32369377D01*
X6645586Y-32345586D01*
X6669377Y-32326062D01*
X6696514Y-32311556D01*
X6725969Y-32302621D01*
X6762734Y-32299000D01*
X9237266Y-32299000D01*
X9274031Y-32302621D01*
G37*
G36*
X85364903Y-30297075D02*
G01*
X85592571Y-30391378D01*
X85797466Y-30528285D01*
X85971715Y-30702534D01*
X86108622Y-30907429D01*
X86202925Y-31135097D01*
X86251000Y-31376787D01*
X86251000Y-31623213D01*
X86202925Y-31864903D01*
X86108622Y-32092571D01*
X85971715Y-32297466D01*
X85797466Y-32471715D01*
X85592571Y-32608622D01*
X85592570Y-32608623D01*
X85592569Y-32608623D01*
X85364903Y-32702925D01*
X85123214Y-32751000D01*
X84876786Y-32751000D01*
X84635097Y-32702925D01*
X84407431Y-32608623D01*
X84407430Y-32608623D01*
X84407429Y-32608622D01*
X84202534Y-32471715D01*
X84028285Y-32297466D01*
X83891378Y-32092571D01*
X83797075Y-31864903D01*
X83749000Y-31623213D01*
X83749000Y-31376787D01*
X83797075Y-31135097D01*
X83891378Y-30907429D01*
X84028285Y-30702534D01*
X84202534Y-30528285D01*
X84407429Y-30391378D01*
X84635097Y-30297075D01*
X84876786Y-30249000D01*
X85123214Y-30249000D01*
X85364903Y-30297075D01*
G37*
G36*
X103364903Y-30297075D02*
G01*
X103592571Y-30391378D01*
X103797466Y-30528285D01*
X103971715Y-30702534D01*
X104108622Y-30907429D01*
X104202925Y-31135097D01*
X104251000Y-31376787D01*
X104251000Y-31623213D01*
X104202925Y-31864903D01*
X104108622Y-32092571D01*
X103971715Y-32297466D01*
X103797466Y-32471715D01*
X103592571Y-32608622D01*
X103592570Y-32608623D01*
X103592569Y-32608623D01*
X103364903Y-32702925D01*
X103123214Y-32751000D01*
X102876786Y-32751000D01*
X102635097Y-32702925D01*
X102407431Y-32608623D01*
X102407430Y-32608623D01*
X102407429Y-32608622D01*
X102202534Y-32471715D01*
X102028285Y-32297466D01*
X101891378Y-32092571D01*
X101797075Y-31864903D01*
X101749000Y-31623213D01*
X101749000Y-31376787D01*
X101797075Y-31135097D01*
X101891378Y-30907429D01*
X102028285Y-30702534D01*
X102202534Y-30528285D01*
X102407429Y-30391378D01*
X102635097Y-30297075D01*
X102876786Y-30249000D01*
X103123214Y-30249000D01*
X103364903Y-30297075D01*
G37*
G36*
X121364903Y-30297075D02*
G01*
X121592571Y-30391378D01*
X121797466Y-30528285D01*
X121971715Y-30702534D01*
X122108622Y-30907429D01*
X122202925Y-31135097D01*
X122251000Y-31376787D01*
X122251000Y-31623213D01*
X122202925Y-31864903D01*
X122108622Y-32092571D01*
X121971715Y-32297466D01*
X121797466Y-32471715D01*
X121592571Y-32608622D01*
X121592570Y-32608623D01*
X121592569Y-32608623D01*
X121364903Y-32702925D01*
X121123214Y-32751000D01*
X120876786Y-32751000D01*
X120635097Y-32702925D01*
X120407431Y-32608623D01*
X120407430Y-32608623D01*
X120407429Y-32608622D01*
X120202534Y-32471715D01*
X120028285Y-32297466D01*
X119891378Y-32092571D01*
X119797075Y-31864903D01*
X119749000Y-31623213D01*
X119749000Y-31376787D01*
X119797075Y-31135097D01*
X119891378Y-30907429D01*
X120028285Y-30702534D01*
X120202534Y-30528285D01*
X120407429Y-30391378D01*
X120635097Y-30297075D01*
X120876786Y-30249000D01*
X121123214Y-30249000D01*
X121364903Y-30297075D01*
G37*
G36*
X8274644Y-26819272D02*
G01*
X8470017Y-26878538D01*
X8538737Y-26899384D01*
X8768202Y-27022036D01*
X8782120Y-27029475D01*
X8837691Y-27075082D01*
X8995450Y-27204550D01*
X9124918Y-27362309D01*
X9170525Y-27417880D01*
X9170526Y-27417882D01*
X9300616Y-27661263D01*
X9300617Y-27661267D01*
X9380728Y-27925357D01*
X9401000Y-28131183D01*
X9401000Y-28868818D01*
X9380728Y-29074644D01*
X9321462Y-29270017D01*
X9300616Y-29338737D01*
X9177964Y-29568202D01*
X9170525Y-29582120D01*
X9138092Y-29621640D01*
X8995450Y-29795450D01*
X8823797Y-29936320D01*
X8782119Y-29970525D01*
X8782117Y-29970526D01*
X8538736Y-30100616D01*
X8470016Y-30121462D01*
X8274643Y-30180728D01*
X8000000Y-30207778D01*
X7725356Y-30180728D01*
X7529983Y-30121462D01*
X7461263Y-30100616D01*
X7217882Y-29970526D01*
X7217880Y-29970525D01*
X7178360Y-29938092D01*
X7004550Y-29795450D01*
X6829476Y-29582120D01*
X6829475Y-29582119D01*
X6822036Y-29568201D01*
X6699384Y-29338736D01*
X6678538Y-29270016D01*
X6619272Y-29074643D01*
X6599000Y-28868817D01*
X6599000Y-28131182D01*
X6619272Y-27925356D01*
X6699383Y-27661267D01*
X6699384Y-27661263D01*
X6829474Y-27417882D01*
X6829475Y-27417880D01*
X6861908Y-27378360D01*
X7004550Y-27204550D01*
X7176203Y-27063680D01*
X7217881Y-27029475D01*
X7231799Y-27022036D01*
X7461264Y-26899384D01*
X7529984Y-26878538D01*
X7725357Y-26819272D01*
X8000000Y-26792222D01*
X8274644Y-26819272D01*
G37*
G36*
X86251000Y-25251000D02*
G01*
X83749000Y-25251000D01*
X83749000Y-22749000D01*
X86251000Y-22749000D01*
X86251000Y-25251000D01*
G37*
G36*
X104251000Y-25251000D02*
G01*
X101749000Y-25251000D01*
X101749000Y-22749000D01*
X104251000Y-22749000D01*
X104251000Y-25251000D01*
G37*
G36*
X122251000Y-25251000D02*
G01*
X119749000Y-25251000D01*
X119749000Y-22749000D01*
X122251000Y-22749000D01*
X122251000Y-25251000D01*
G37*
G36*
X134306564Y-22989389D02*
G01*
X134497833Y-23068615D01*
X134497835Y-23068616D01*
X134601654Y-23137986D01*
X134669973Y-23183635D01*
X134816365Y-23330027D01*
X134931385Y-23502167D01*
X135010611Y-23693436D01*
X135051000Y-23896484D01*
X135051000Y-24103516D01*
X135010611Y-24306564D01*
X134993795Y-24347161D01*
X134931384Y-24497835D01*
X134816365Y-24669973D01*
X134669973Y-24816365D01*
X134497835Y-24931384D01*
X134497834Y-24931385D01*
X134497833Y-24931385D01*
X134306564Y-25010611D01*
X134103516Y-25051000D01*
X133896484Y-25051000D01*
X133693436Y-25010611D01*
X133502167Y-24931385D01*
X133502166Y-24931385D01*
X133502165Y-24931384D01*
X133330027Y-24816365D01*
X133183635Y-24669973D01*
X133068616Y-24497835D01*
X133006205Y-24347161D01*
X132989389Y-24306564D01*
X132949000Y-24103516D01*
X132949000Y-23896484D01*
X132989389Y-23693436D01*
X133068615Y-23502167D01*
X133183635Y-23330027D01*
X133330027Y-23183635D01*
X133398346Y-23137986D01*
X133502165Y-23068616D01*
X133502167Y-23068615D01*
X133693436Y-22989389D01*
X133896484Y-22949000D01*
X134103516Y-22949000D01*
X134306564Y-22989389D01*
G37*
G36*
X25318433Y-21634893D02*
G01*
X25408657Y-21652839D01*
X25514267Y-21696585D01*
X25663621Y-21758449D01*
X25663622Y-21758450D01*
X25893086Y-21911772D01*
X26088228Y-22106914D01*
X26190675Y-22260237D01*
X26241551Y-22336379D01*
X26347161Y-22591344D01*
X26378521Y-22749000D01*
X26401000Y-22862014D01*
X26401000Y-23137986D01*
X26347161Y-23408657D01*
X26303415Y-23514267D01*
X26241551Y-23663621D01*
X26241550Y-23663622D01*
X26088228Y-23893086D01*
X25893086Y-24088228D01*
X25739763Y-24190675D01*
X25663621Y-24241551D01*
X25514267Y-24303415D01*
X25408657Y-24347161D01*
X25318433Y-24365107D01*
X25137988Y-24401000D01*
X24862012Y-24401000D01*
X24681567Y-24365107D01*
X24591343Y-24347161D01*
X24485733Y-24303415D01*
X24336379Y-24241551D01*
X24260237Y-24190675D01*
X24106914Y-24088228D01*
X23911772Y-23893086D01*
X23758450Y-23663622D01*
X23758449Y-23663621D01*
X23696585Y-23514267D01*
X23652839Y-23408657D01*
X23599000Y-23137986D01*
X23599000Y-22862014D01*
X23621480Y-22749000D01*
X23652839Y-22591344D01*
X23758449Y-22336379D01*
X23809325Y-22260237D01*
X23911772Y-22106914D01*
X24106914Y-21911772D01*
X24336378Y-21758450D01*
X24336379Y-21758449D01*
X24485733Y-21696585D01*
X24591343Y-21652839D01*
X24681567Y-21634893D01*
X24862012Y-21599000D01*
X25137988Y-21599000D01*
X25318433Y-21634893D01*
G37*
G36*
X134306564Y-17989389D02*
G01*
X134497833Y-18068615D01*
X134497835Y-18068616D01*
X134669973Y-18183635D01*
X134816365Y-18330027D01*
X134931385Y-18502167D01*
X135010611Y-18693436D01*
X135051000Y-18896484D01*
X135051000Y-19103516D01*
X135010611Y-19306564D01*
X134931385Y-19497833D01*
X134931384Y-19497835D01*
X134816365Y-19669973D01*
X134669973Y-19816365D01*
X134497835Y-19931384D01*
X134497834Y-19931385D01*
X134497833Y-19931385D01*
X134306564Y-20010611D01*
X134103516Y-20051000D01*
X133896484Y-20051000D01*
X133693436Y-20010611D01*
X133502167Y-19931385D01*
X133502166Y-19931385D01*
X133502165Y-19931384D01*
X133330027Y-19816365D01*
X133183635Y-19669973D01*
X133068616Y-19497835D01*
X133068615Y-19497833D01*
X132989389Y-19306564D01*
X132949000Y-19103516D01*
X132949000Y-18896484D01*
X132989389Y-18693436D01*
X133068615Y-18502167D01*
X133183635Y-18330027D01*
X133330027Y-18183635D01*
X133502165Y-18068616D01*
X133502167Y-18068615D01*
X133693436Y-17989389D01*
X133896484Y-17949000D01*
X134103516Y-17949000D01*
X134306564Y-17989389D01*
G37*
G36*
X15248228Y-14681703D02*
G01*
X15403100Y-14745853D01*
X15542481Y-14838985D01*
X15661015Y-14957519D01*
X15754147Y-15096900D01*
X15818297Y-15251772D01*
X15851000Y-15416184D01*
X15851000Y-15583816D01*
X15818297Y-15748228D01*
X15754147Y-15903100D01*
X15661015Y-16042481D01*
X15542481Y-16161015D01*
X15403100Y-16254147D01*
X15248228Y-16318297D01*
X15083816Y-16351000D01*
X14916184Y-16351000D01*
X14751772Y-16318297D01*
X14596900Y-16254147D01*
X14457519Y-16161015D01*
X14338985Y-16042481D01*
X14245853Y-15903100D01*
X14181703Y-15748228D01*
X14149000Y-15583816D01*
X14149000Y-15416184D01*
X14181703Y-15251772D01*
X14245853Y-15096900D01*
X14338985Y-14957519D01*
X14457519Y-14838985D01*
X14596900Y-14745853D01*
X14751772Y-14681703D01*
X14916184Y-14649000D01*
X15083816Y-14649000D01*
X15248228Y-14681703D01*
G37*
G36*
X134306564Y-12989389D02*
G01*
X134497833Y-13068615D01*
X134497835Y-13068616D01*
X134581440Y-13124479D01*
X134669973Y-13183635D01*
X134816365Y-13330027D01*
X134931385Y-13502167D01*
X135010611Y-13693436D01*
X135051000Y-13896484D01*
X135051000Y-14103516D01*
X135010611Y-14306564D01*
X134942203Y-14471715D01*
X134931384Y-14497835D01*
X134816365Y-14669973D01*
X134669973Y-14816365D01*
X134497835Y-14931384D01*
X134497834Y-14931385D01*
X134497833Y-14931385D01*
X134306564Y-15010611D01*
X134103516Y-15051000D01*
X133896484Y-15051000D01*
X133693436Y-15010611D01*
X133502167Y-14931385D01*
X133502166Y-14931385D01*
X133502165Y-14931384D01*
X133330027Y-14816365D01*
X133183635Y-14669973D01*
X133068616Y-14497835D01*
X133057797Y-14471715D01*
X132989389Y-14306564D01*
X132949000Y-14103516D01*
X132949000Y-13896484D01*
X132989389Y-13693436D01*
X133068615Y-13502167D01*
X133183635Y-13330027D01*
X133330027Y-13183635D01*
X133418560Y-13124479D01*
X133502165Y-13068616D01*
X133502167Y-13068615D01*
X133693436Y-12989389D01*
X133896484Y-12949000D01*
X134103516Y-12949000D01*
X134306564Y-12989389D01*
G37*
G36*
X85364903Y-12297075D02*
G01*
X85592571Y-12391378D01*
X85797466Y-12528285D01*
X85971715Y-12702534D01*
X86108622Y-12907429D01*
X86202925Y-13135097D01*
X86251000Y-13376787D01*
X86251000Y-13623213D01*
X86202925Y-13864903D01*
X86108622Y-14092571D01*
X85971715Y-14297466D01*
X85797466Y-14471715D01*
X85592571Y-14608622D01*
X85592570Y-14608623D01*
X85592569Y-14608623D01*
X85364903Y-14702925D01*
X85123214Y-14751000D01*
X84876786Y-14751000D01*
X84635097Y-14702925D01*
X84407431Y-14608623D01*
X84407430Y-14608623D01*
X84407429Y-14608622D01*
X84202534Y-14471715D01*
X84028285Y-14297466D01*
X83891378Y-14092571D01*
X83797075Y-13864903D01*
X83749000Y-13623213D01*
X83749000Y-13376787D01*
X83797075Y-13135097D01*
X83891378Y-12907429D01*
X84028285Y-12702534D01*
X84202534Y-12528285D01*
X84407429Y-12391378D01*
X84635097Y-12297075D01*
X84876786Y-12249000D01*
X85123214Y-12249000D01*
X85364903Y-12297075D01*
G37*
G36*
X103364903Y-12297075D02*
G01*
X103592571Y-12391378D01*
X103797466Y-12528285D01*
X103971715Y-12702534D01*
X104108622Y-12907429D01*
X104202925Y-13135097D01*
X104251000Y-13376787D01*
X104251000Y-13623213D01*
X104202925Y-13864903D01*
X104108622Y-14092571D01*
X103971715Y-14297466D01*
X103797466Y-14471715D01*
X103592571Y-14608622D01*
X103592570Y-14608623D01*
X103592569Y-14608623D01*
X103364903Y-14702925D01*
X103123214Y-14751000D01*
X102876786Y-14751000D01*
X102635097Y-14702925D01*
X102407431Y-14608623D01*
X102407430Y-14608623D01*
X102407429Y-14608622D01*
X102202534Y-14471715D01*
X102028285Y-14297466D01*
X101891378Y-14092571D01*
X101797075Y-13864903D01*
X101749000Y-13623213D01*
X101749000Y-13376787D01*
X101797075Y-13135097D01*
X101891378Y-12907429D01*
X102028285Y-12702534D01*
X102202534Y-12528285D01*
X102407429Y-12391378D01*
X102635097Y-12297075D01*
X102876786Y-12249000D01*
X103123214Y-12249000D01*
X103364903Y-12297075D01*
G37*
G36*
X121364903Y-12297075D02*
G01*
X121592571Y-12391378D01*
X121797466Y-12528285D01*
X121971715Y-12702534D01*
X122108622Y-12907429D01*
X122202925Y-13135097D01*
X122251000Y-13376787D01*
X122251000Y-13623213D01*
X122202925Y-13864903D01*
X122108622Y-14092571D01*
X121971715Y-14297466D01*
X121797466Y-14471715D01*
X121592571Y-14608622D01*
X121592570Y-14608623D01*
X121592569Y-14608623D01*
X121364903Y-14702925D01*
X121123214Y-14751000D01*
X120876786Y-14751000D01*
X120635097Y-14702925D01*
X120407431Y-14608623D01*
X120407430Y-14608623D01*
X120407429Y-14608622D01*
X120202534Y-14471715D01*
X120028285Y-14297466D01*
X119891378Y-14092571D01*
X119797075Y-13864903D01*
X119749000Y-13623213D01*
X119749000Y-13376787D01*
X119797075Y-13135097D01*
X119891378Y-12907429D01*
X120028285Y-12702534D01*
X120202534Y-12528285D01*
X120407429Y-12391378D01*
X120635097Y-12297075D01*
X120876786Y-12249000D01*
X121123214Y-12249000D01*
X121364903Y-12297075D01*
G37*
G36*
X15851000Y-13851000D02*
G01*
X14149000Y-13851000D01*
X14149000Y-12149000D01*
X15851000Y-12149000D01*
X15851000Y-13851000D01*
G37*
G36*
X25302585Y-10228802D02*
G01*
X25452410Y-10258604D01*
X25734674Y-10375521D01*
X25988705Y-10545259D01*
X26204741Y-10761295D01*
X26374479Y-11015326D01*
X26491396Y-11297590D01*
X26551000Y-11597240D01*
X26551000Y-11902760D01*
X26491396Y-12202410D01*
X26374479Y-12484674D01*
X26204741Y-12738705D01*
X25988705Y-12954741D01*
X25734674Y-13124479D01*
X25452410Y-13241396D01*
X25302585Y-13271198D01*
X25152761Y-13301000D01*
X24847239Y-13301000D01*
X24697415Y-13271198D01*
X24547590Y-13241396D01*
X24265326Y-13124479D01*
X24011295Y-12954741D01*
X23795259Y-12738705D01*
X23625521Y-12484674D01*
X23508604Y-12202410D01*
X23449000Y-11902760D01*
X23449000Y-11597240D01*
X23508604Y-11297590D01*
X23625521Y-11015326D01*
X23795259Y-10761295D01*
X24011295Y-10545259D01*
X24265326Y-10375521D01*
X24547590Y-10258604D01*
X24697415Y-10228802D01*
X24847239Y-10199000D01*
X25152761Y-10199000D01*
X25302585Y-10228802D01*
G37*
G36*
X135634239Y-1811467D02*
G01*
X135948282Y-1873934D01*
X136539926Y-2119001D01*
X137072392Y-2474784D01*
X137525216Y-2927608D01*
X137880999Y-3460074D01*
X138126066Y-4051718D01*
X138251000Y-4679804D01*
X138251000Y-5320196D01*
X138126066Y-5948282D01*
X137880999Y-6539926D01*
X137525216Y-7072392D01*
X137072392Y-7525216D01*
X136539926Y-7880999D01*
X135948282Y-8126066D01*
X135634239Y-8188533D01*
X135320197Y-8251000D01*
X134679803Y-8251000D01*
X134365761Y-8188533D01*
X134051718Y-8126066D01*
X133460074Y-7880999D01*
X132927608Y-7525216D01*
X132474784Y-7072392D01*
X132119001Y-6539926D01*
X131873934Y-5948282D01*
X131749000Y-5320196D01*
X131749000Y-4679804D01*
X131873934Y-4051718D01*
X132119001Y-3460074D01*
X132474784Y-2927608D01*
X132927608Y-2474784D01*
X133460074Y-2119001D01*
X134051718Y-1873934D01*
X134365761Y-1811467D01*
X134679803Y-1749000D01*
X135320197Y-1749000D01*
X135634239Y-1811467D01*
G37*
G36*
X5634239Y-1811467D02*
G01*
X5948282Y-1873934D01*
X6539926Y-2119001D01*
X7072392Y-2474784D01*
X7525216Y-2927608D01*
X7880999Y-3460074D01*
X8126066Y-4051718D01*
X8251000Y-4679804D01*
X8251000Y-5320196D01*
X8126066Y-5948282D01*
X7880999Y-6539926D01*
X7525216Y-7072392D01*
X7072392Y-7525216D01*
X6539926Y-7880999D01*
X5948282Y-8126066D01*
X5634239Y-8188533D01*
X5320197Y-8251000D01*
X4679803Y-8251000D01*
X4365761Y-8188533D01*
X4051718Y-8126066D01*
X3460074Y-7880999D01*
X2927608Y-7525216D01*
X2474784Y-7072392D01*
X2119001Y-6539926D01*
X1873934Y-5948282D01*
X1749000Y-5320196D01*
X1749000Y-4679804D01*
X1873934Y-4051718D01*
X2119001Y-3460074D01*
X2474784Y-2927608D01*
X2927608Y-2474784D01*
X3460074Y-2119001D01*
X4051718Y-1873934D01*
X4365761Y-1811467D01*
X4679803Y-1749000D01*
X5320197Y-1749000D01*
X5634239Y-1811467D01*
G37*
G36*
X122251000Y-7251000D02*
G01*
X119749000Y-7251000D01*
X119749000Y-4749000D01*
X122251000Y-4749000D01*
X122251000Y-7251000D01*
G37*
G36*
X104251000Y-7251000D02*
G01*
X101749000Y-7251000D01*
X101749000Y-4749000D01*
X104251000Y-4749000D01*
X104251000Y-7251000D01*
G37*
G36*
X86251000Y-7251000D02*
G01*
X83749000Y-7251000D01*
X83749000Y-4749000D01*
X86251000Y-4749000D01*
X86251000Y-7251000D01*
G37*
G36*
X72561000Y-4901000D02*
G01*
X70759000Y-4901000D01*
X70759000Y-3099000D01*
X72561000Y-3099000D01*
X72561000Y-4901000D01*
G37*
G36*
X74313512Y-3103927D02*
G01*
X74462812Y-3133624D01*
X74626784Y-3201544D01*
X74774354Y-3300147D01*
X74899853Y-3425646D01*
X74998456Y-3573216D01*
X75066376Y-3737188D01*
X75101000Y-3911259D01*
X75101000Y-4088741D01*
X75066376Y-4262812D01*
X74998456Y-4426784D01*
X74899853Y-4574354D01*
X74774354Y-4699853D01*
X74626784Y-4798456D01*
X74462812Y-4866376D01*
X74313512Y-4896073D01*
X74288742Y-4901000D01*
X74111258Y-4901000D01*
X74086488Y-4896073D01*
X73937188Y-4866376D01*
X73773216Y-4798456D01*
X73625646Y-4699853D01*
X73500147Y-4574354D01*
X73401544Y-4426784D01*
X73333624Y-4262812D01*
X73299000Y-4088741D01*
X73299000Y-3911259D01*
X73333624Y-3737188D01*
X73401544Y-3573216D01*
X73500147Y-3425646D01*
X73625646Y-3300147D01*
X73773216Y-3201544D01*
X73937188Y-3133624D01*
X74086488Y-3103927D01*
X74111258Y-3099000D01*
X74288742Y-3099000D01*
X74313512Y-3103927D01*
G37*
M02*
