M48
; DRILL file {KiCad 5.1.5} date Mon 27 Jan 2020 12:14:30 GMT
; FORMAT={-:-/ absolute / metric / decimal}
; #@! TF.CreationDate,2020-01-27T12:14:30+00:00
; #@! TF.GenerationSoftware,Kicad,Pcbnew,5.1.5
; #@! TF.FileFunction,Plated,1,2,PTH
FMAT,2
METRIC
T1C0.400
T2C0.800
T3C0.850
T4C1.000
T5C1.200
T6C1.300
T7C1.400
T8C3.200
%
G90
G05
T1
X19.6Y-52.0
X21.0Y-41.0
X21.0Y-48.7
X23.2Y-56.3
X23.2Y-63.0
X25.0Y-56.3
X25.0Y-62.3
X25.7Y-47.7
X27.0Y-41.9
X27.0Y-47.7
X27.5Y-61.6
X28.3Y-56.3
X29.5Y-56.3
X30.2Y-47.3
X31.3Y-56.3
X32.5Y-45.0
X32.5Y-48.0
X33.6Y-52.0
X35.0Y-41.0
X35.0Y-48.7
X37.2Y-56.3
X37.2Y-63.0
X38.4Y-56.3
X38.4Y-62.3
X39.25Y-16.0
X39.8Y-51.1
X41.0Y-42.6
X41.0Y-51.1
X42.25Y-19.75
X42.25Y-21.0
X42.25Y-22.25
X42.3Y-56.3
X42.3Y-61.6
X43.5Y-56.3
X43.75Y-19.75
X43.75Y-21.0
X43.75Y-22.25
X44.8Y-56.3
X45.0Y-16.0
X45.0Y-28.4
X51.0Y-29.0
X51.0Y-31.0
X53.0Y-29.0
X53.0Y-31.0
X55.0Y-29.0
X55.0Y-31.0
X61.5Y-41.0
X61.5Y-55.0
X62.0Y-19.0
X65.5Y-16.2
X66.3Y-47.0
X66.3Y-55.0
X73.0Y-41.0
X73.0Y-45.7
X77.0Y-42.6
X77.0Y-45.8
X78.0Y-41.0
X82.0Y-64.5
X88.7Y-65.7
X91.9Y-62.5
X92.0Y-64.5
X97.9Y-54.5
X99.5Y-46.0
X101.2Y-57.5
X103.0Y-52.8
X105.0Y-42.6
X105.0Y-52.8
X107.0Y-41.0
X107.0Y-44.7
X108.0Y-59.2
X108.6Y-48.0
X110.2Y-41.9
X110.2Y-54.5
X115.0Y-49.8
X120.0Y-37.7
X120.0Y-54.7
X131.0Y-41.0
X131.0Y-56.0
X133.5Y-37.5
X134.5Y-37.5
X135.5Y-37.5
T2
X15.0Y-13.0
X15.0Y-15.5
T3
X20.0Y-65.0
X22.5Y-65.0
X25.0Y-65.0
X27.5Y-65.0
X30.0Y-65.0
X32.5Y-65.0
X40.0Y-65.0
X42.5Y-65.0
X45.0Y-65.0
X115.0Y-65.0
X117.5Y-65.0
X100.0Y-65.0
X102.5Y-65.0
X105.0Y-65.0
X107.5Y-65.0
T4
X68.0Y-46.0
X95.0Y-60.0
X87.0Y-50.0
X134.0Y-19.0
X125.0Y-59.0
X134.0Y-14.0
X134.0Y-24.0
X71.66Y-4.0
X74.2Y-4.0
X5.0Y-54.0
X5.0Y-56.54
T5
X121.0Y-6.0
X121.0Y-13.5
X103.0Y-6.0
X103.0Y-13.5
X121.0Y-24.0
X121.0Y-31.5
X85.0Y-6.0
X85.0Y-13.5
X103.0Y-24.0
X103.0Y-31.5
X12.0Y-45.68
X12.0Y-66.0
X85.0Y-24.0
X85.0Y-31.5
T6
X25.0Y-11.75
X25.0Y-34.25
X55.5Y-63.0
X78.0Y-63.0
T7
X8.0Y-28.5
X8.0Y-34.0
T8
X5.0Y-65.0
X5.0Y-5.0
X135.0Y-65.0
X135.0Y-5.0
T0
M30
