G04 #@! TF.GenerationSoftware,KiCad,Pcbnew,5.1.5*
G04 #@! TF.CreationDate,2020-01-27T12:13:59+00:00*
G04 #@! TF.ProjectId,TSAL,5453414c-2e6b-4696-9361-645f70636258,rev?*
G04 #@! TF.SameCoordinates,PX5f5e100PY2625a00*
G04 #@! TF.FileFunction,Copper,L2,Bot*
G04 #@! TF.FilePolarity,Positive*
%FSLAX46Y46*%
G04 Gerber Fmt 4.6, Leading zero omitted, Abs format (unit mm)*
G04 Created by KiCad (PCBNEW 5.1.5) date 2020-01-27 12:13:59*
%MOMM*%
%LPD*%
G04 APERTURE LIST*
%ADD10C,2.000000*%
%ADD11C,1.600000*%
%ADD12R,1.600000X1.600000*%
%ADD13O,1.700000X1.850000*%
%ADD14C,0.100000*%
%ADD15O,2.400000X2.400000*%
%ADD16C,2.400000*%
%ADD17O,2.700000X3.300000*%
%ADD18C,3.000000*%
%ADD19C,6.400000*%
%ADD20O,1.700000X1.700000*%
%ADD21R,1.700000X1.700000*%
%ADD22R,2.400000X2.400000*%
%ADD23C,0.800000*%
%ADD24C,0.200000*%
%ADD25C,0.600000*%
%ADD26C,0.400000*%
G04 APERTURE END LIST*
D10*
X134000000Y-24000000D03*
X134000000Y-19000000D03*
X134000000Y-14000000D03*
X95000000Y-60000000D03*
X125000000Y-59000000D03*
X87000000Y-50000000D03*
X68000000Y-46000000D03*
D11*
X15000000Y-15500000D03*
D12*
X15000000Y-13000000D03*
D13*
X32500000Y-65000000D03*
X30000000Y-65000000D03*
X27500000Y-65000000D03*
X25000000Y-65000000D03*
X22500000Y-65000000D03*
G04 #@! TA.AperFunction,ComponentPad*
D14*
G36*
X20624504Y-64076204D02*
G01*
X20648773Y-64079804D01*
X20672571Y-64085765D01*
X20695671Y-64094030D01*
X20717849Y-64104520D01*
X20738893Y-64117133D01*
X20758598Y-64131747D01*
X20776777Y-64148223D01*
X20793253Y-64166402D01*
X20807867Y-64186107D01*
X20820480Y-64207151D01*
X20830970Y-64229329D01*
X20839235Y-64252429D01*
X20845196Y-64276227D01*
X20848796Y-64300496D01*
X20850000Y-64325000D01*
X20850000Y-65675000D01*
X20848796Y-65699504D01*
X20845196Y-65723773D01*
X20839235Y-65747571D01*
X20830970Y-65770671D01*
X20820480Y-65792849D01*
X20807867Y-65813893D01*
X20793253Y-65833598D01*
X20776777Y-65851777D01*
X20758598Y-65868253D01*
X20738893Y-65882867D01*
X20717849Y-65895480D01*
X20695671Y-65905970D01*
X20672571Y-65914235D01*
X20648773Y-65920196D01*
X20624504Y-65923796D01*
X20600000Y-65925000D01*
X19400000Y-65925000D01*
X19375496Y-65923796D01*
X19351227Y-65920196D01*
X19327429Y-65914235D01*
X19304329Y-65905970D01*
X19282151Y-65895480D01*
X19261107Y-65882867D01*
X19241402Y-65868253D01*
X19223223Y-65851777D01*
X19206747Y-65833598D01*
X19192133Y-65813893D01*
X19179520Y-65792849D01*
X19169030Y-65770671D01*
X19160765Y-65747571D01*
X19154804Y-65723773D01*
X19151204Y-65699504D01*
X19150000Y-65675000D01*
X19150000Y-64325000D01*
X19151204Y-64300496D01*
X19154804Y-64276227D01*
X19160765Y-64252429D01*
X19169030Y-64229329D01*
X19179520Y-64207151D01*
X19192133Y-64186107D01*
X19206747Y-64166402D01*
X19223223Y-64148223D01*
X19241402Y-64131747D01*
X19261107Y-64117133D01*
X19282151Y-64104520D01*
X19304329Y-64094030D01*
X19327429Y-64085765D01*
X19351227Y-64079804D01*
X19375496Y-64076204D01*
X19400000Y-64075000D01*
X20600000Y-64075000D01*
X20624504Y-64076204D01*
G37*
G04 #@! TD.AperFunction*
D15*
X12000000Y-45680000D03*
D16*
X12000000Y-66000000D03*
D17*
X8000000Y-28500000D03*
G04 #@! TA.AperFunction,ComponentPad*
D14*
G36*
X9124503Y-32351204D02*
G01*
X9148772Y-32354804D01*
X9172570Y-32360765D01*
X9195670Y-32369030D01*
X9217849Y-32379520D01*
X9238892Y-32392133D01*
X9258598Y-32406748D01*
X9276776Y-32423224D01*
X9293252Y-32441402D01*
X9307867Y-32461108D01*
X9320480Y-32482151D01*
X9330970Y-32504330D01*
X9339235Y-32527430D01*
X9345196Y-32551228D01*
X9348796Y-32575497D01*
X9350000Y-32600001D01*
X9350000Y-35399999D01*
X9348796Y-35424503D01*
X9345196Y-35448772D01*
X9339235Y-35472570D01*
X9330970Y-35495670D01*
X9320480Y-35517849D01*
X9307867Y-35538892D01*
X9293252Y-35558598D01*
X9276776Y-35576776D01*
X9258598Y-35593252D01*
X9238892Y-35607867D01*
X9217849Y-35620480D01*
X9195670Y-35630970D01*
X9172570Y-35639235D01*
X9148772Y-35645196D01*
X9124503Y-35648796D01*
X9099999Y-35650000D01*
X6900001Y-35650000D01*
X6875497Y-35648796D01*
X6851228Y-35645196D01*
X6827430Y-35639235D01*
X6804330Y-35630970D01*
X6782151Y-35620480D01*
X6761108Y-35607867D01*
X6741402Y-35593252D01*
X6723224Y-35576776D01*
X6706748Y-35558598D01*
X6692133Y-35538892D01*
X6679520Y-35517849D01*
X6669030Y-35495670D01*
X6660765Y-35472570D01*
X6654804Y-35448772D01*
X6651204Y-35424503D01*
X6650000Y-35399999D01*
X6650000Y-32600001D01*
X6651204Y-32575497D01*
X6654804Y-32551228D01*
X6660765Y-32527430D01*
X6669030Y-32504330D01*
X6679520Y-32482151D01*
X6692133Y-32461108D01*
X6706748Y-32441402D01*
X6723224Y-32423224D01*
X6741402Y-32406748D01*
X6761108Y-32392133D01*
X6782151Y-32379520D01*
X6804330Y-32369030D01*
X6827430Y-32360765D01*
X6851228Y-32354804D01*
X6875497Y-32351204D01*
X6900001Y-32350000D01*
X9099999Y-32350000D01*
X9124503Y-32351204D01*
G37*
G04 #@! TD.AperFunction*
D18*
X55500000Y-63000000D03*
X78000000Y-63000000D03*
D19*
X135000000Y-65000000D03*
X5000000Y-65000000D03*
X135000000Y-5000000D03*
X5000000Y-5000000D03*
D20*
X74200000Y-4000000D03*
D21*
X71660000Y-4000000D03*
D16*
X85000000Y-31500000D03*
D22*
X85000000Y-24000000D03*
D16*
X85000000Y-13500000D03*
D22*
X85000000Y-6000000D03*
D16*
X103000000Y-31500000D03*
D22*
X103000000Y-24000000D03*
D16*
X103000000Y-13500000D03*
D22*
X103000000Y-6000000D03*
D16*
X121000000Y-31500000D03*
D22*
X121000000Y-24000000D03*
D16*
X121000000Y-13500000D03*
D22*
X121000000Y-6000000D03*
D20*
X5000000Y-56540000D03*
D21*
X5000000Y-54000000D03*
D13*
X117500000Y-65000000D03*
G04 #@! TA.AperFunction,ComponentPad*
D14*
G36*
X115624504Y-64076204D02*
G01*
X115648773Y-64079804D01*
X115672571Y-64085765D01*
X115695671Y-64094030D01*
X115717849Y-64104520D01*
X115738893Y-64117133D01*
X115758598Y-64131747D01*
X115776777Y-64148223D01*
X115793253Y-64166402D01*
X115807867Y-64186107D01*
X115820480Y-64207151D01*
X115830970Y-64229329D01*
X115839235Y-64252429D01*
X115845196Y-64276227D01*
X115848796Y-64300496D01*
X115850000Y-64325000D01*
X115850000Y-65675000D01*
X115848796Y-65699504D01*
X115845196Y-65723773D01*
X115839235Y-65747571D01*
X115830970Y-65770671D01*
X115820480Y-65792849D01*
X115807867Y-65813893D01*
X115793253Y-65833598D01*
X115776777Y-65851777D01*
X115758598Y-65868253D01*
X115738893Y-65882867D01*
X115717849Y-65895480D01*
X115695671Y-65905970D01*
X115672571Y-65914235D01*
X115648773Y-65920196D01*
X115624504Y-65923796D01*
X115600000Y-65925000D01*
X114400000Y-65925000D01*
X114375496Y-65923796D01*
X114351227Y-65920196D01*
X114327429Y-65914235D01*
X114304329Y-65905970D01*
X114282151Y-65895480D01*
X114261107Y-65882867D01*
X114241402Y-65868253D01*
X114223223Y-65851777D01*
X114206747Y-65833598D01*
X114192133Y-65813893D01*
X114179520Y-65792849D01*
X114169030Y-65770671D01*
X114160765Y-65747571D01*
X114154804Y-65723773D01*
X114151204Y-65699504D01*
X114150000Y-65675000D01*
X114150000Y-64325000D01*
X114151204Y-64300496D01*
X114154804Y-64276227D01*
X114160765Y-64252429D01*
X114169030Y-64229329D01*
X114179520Y-64207151D01*
X114192133Y-64186107D01*
X114206747Y-64166402D01*
X114223223Y-64148223D01*
X114241402Y-64131747D01*
X114261107Y-64117133D01*
X114282151Y-64104520D01*
X114304329Y-64094030D01*
X114327429Y-64085765D01*
X114351227Y-64079804D01*
X114375496Y-64076204D01*
X114400000Y-64075000D01*
X115600000Y-64075000D01*
X115624504Y-64076204D01*
G37*
G04 #@! TD.AperFunction*
D13*
X107500000Y-65000000D03*
X105000000Y-65000000D03*
X102500000Y-65000000D03*
G04 #@! TA.AperFunction,ComponentPad*
D14*
G36*
X100624504Y-64076204D02*
G01*
X100648773Y-64079804D01*
X100672571Y-64085765D01*
X100695671Y-64094030D01*
X100717849Y-64104520D01*
X100738893Y-64117133D01*
X100758598Y-64131747D01*
X100776777Y-64148223D01*
X100793253Y-64166402D01*
X100807867Y-64186107D01*
X100820480Y-64207151D01*
X100830970Y-64229329D01*
X100839235Y-64252429D01*
X100845196Y-64276227D01*
X100848796Y-64300496D01*
X100850000Y-64325000D01*
X100850000Y-65675000D01*
X100848796Y-65699504D01*
X100845196Y-65723773D01*
X100839235Y-65747571D01*
X100830970Y-65770671D01*
X100820480Y-65792849D01*
X100807867Y-65813893D01*
X100793253Y-65833598D01*
X100776777Y-65851777D01*
X100758598Y-65868253D01*
X100738893Y-65882867D01*
X100717849Y-65895480D01*
X100695671Y-65905970D01*
X100672571Y-65914235D01*
X100648773Y-65920196D01*
X100624504Y-65923796D01*
X100600000Y-65925000D01*
X99400000Y-65925000D01*
X99375496Y-65923796D01*
X99351227Y-65920196D01*
X99327429Y-65914235D01*
X99304329Y-65905970D01*
X99282151Y-65895480D01*
X99261107Y-65882867D01*
X99241402Y-65868253D01*
X99223223Y-65851777D01*
X99206747Y-65833598D01*
X99192133Y-65813893D01*
X99179520Y-65792849D01*
X99169030Y-65770671D01*
X99160765Y-65747571D01*
X99154804Y-65723773D01*
X99151204Y-65699504D01*
X99150000Y-65675000D01*
X99150000Y-64325000D01*
X99151204Y-64300496D01*
X99154804Y-64276227D01*
X99160765Y-64252429D01*
X99169030Y-64229329D01*
X99179520Y-64207151D01*
X99192133Y-64186107D01*
X99206747Y-64166402D01*
X99223223Y-64148223D01*
X99241402Y-64131747D01*
X99261107Y-64117133D01*
X99282151Y-64104520D01*
X99304329Y-64094030D01*
X99327429Y-64085765D01*
X99351227Y-64079804D01*
X99375496Y-64076204D01*
X99400000Y-64075000D01*
X100600000Y-64075000D01*
X100624504Y-64076204D01*
G37*
G04 #@! TD.AperFunction*
D13*
X45000000Y-65000000D03*
X42500000Y-65000000D03*
G04 #@! TA.AperFunction,ComponentPad*
D14*
G36*
X40624504Y-64076204D02*
G01*
X40648773Y-64079804D01*
X40672571Y-64085765D01*
X40695671Y-64094030D01*
X40717849Y-64104520D01*
X40738893Y-64117133D01*
X40758598Y-64131747D01*
X40776777Y-64148223D01*
X40793253Y-64166402D01*
X40807867Y-64186107D01*
X40820480Y-64207151D01*
X40830970Y-64229329D01*
X40839235Y-64252429D01*
X40845196Y-64276227D01*
X40848796Y-64300496D01*
X40850000Y-64325000D01*
X40850000Y-65675000D01*
X40848796Y-65699504D01*
X40845196Y-65723773D01*
X40839235Y-65747571D01*
X40830970Y-65770671D01*
X40820480Y-65792849D01*
X40807867Y-65813893D01*
X40793253Y-65833598D01*
X40776777Y-65851777D01*
X40758598Y-65868253D01*
X40738893Y-65882867D01*
X40717849Y-65895480D01*
X40695671Y-65905970D01*
X40672571Y-65914235D01*
X40648773Y-65920196D01*
X40624504Y-65923796D01*
X40600000Y-65925000D01*
X39400000Y-65925000D01*
X39375496Y-65923796D01*
X39351227Y-65920196D01*
X39327429Y-65914235D01*
X39304329Y-65905970D01*
X39282151Y-65895480D01*
X39261107Y-65882867D01*
X39241402Y-65868253D01*
X39223223Y-65851777D01*
X39206747Y-65833598D01*
X39192133Y-65813893D01*
X39179520Y-65792849D01*
X39169030Y-65770671D01*
X39160765Y-65747571D01*
X39154804Y-65723773D01*
X39151204Y-65699504D01*
X39150000Y-65675000D01*
X39150000Y-64325000D01*
X39151204Y-64300496D01*
X39154804Y-64276227D01*
X39160765Y-64252429D01*
X39169030Y-64229329D01*
X39179520Y-64207151D01*
X39192133Y-64186107D01*
X39206747Y-64166402D01*
X39223223Y-64148223D01*
X39241402Y-64131747D01*
X39261107Y-64117133D01*
X39282151Y-64104520D01*
X39304329Y-64094030D01*
X39327429Y-64085765D01*
X39351227Y-64079804D01*
X39375496Y-64076204D01*
X39400000Y-64075000D01*
X40600000Y-64075000D01*
X40624504Y-64076204D01*
G37*
G04 #@! TD.AperFunction*
D18*
X25000000Y-11750000D03*
X25000000Y-34250000D03*
D23*
X43750000Y-19750000D03*
X43750000Y-21000000D03*
X42250000Y-21000000D03*
X42250000Y-19750000D03*
X43750000Y-22250000D03*
X42250000Y-22250000D03*
X55000000Y-29000000D03*
X53000000Y-29000000D03*
X53000000Y-31000000D03*
X55000000Y-31000000D03*
X51000000Y-31000000D03*
X51000000Y-29000000D03*
X135500000Y-37500000D03*
X134500000Y-37500000D03*
X133500000Y-37500000D03*
X19600000Y-52000000D03*
X33600000Y-52000000D03*
X66300000Y-47000000D03*
X66300000Y-55000000D03*
X97900000Y-54500000D03*
X103000000Y-52800000D03*
X108600000Y-48000000D03*
X99500000Y-46000000D03*
X82000000Y-64500000D03*
X92000000Y-64500000D03*
X44800000Y-56300000D03*
X31300000Y-56300000D03*
X35000000Y-48700000D03*
X61500000Y-55000000D03*
X73000000Y-45700000D03*
X107000000Y-44700000D03*
X21000000Y-48700000D03*
X21000000Y-41000000D03*
X35000000Y-41000000D03*
X61500000Y-41000000D03*
X73000000Y-41000000D03*
X78000000Y-41000000D03*
X107000000Y-41000000D03*
X131000000Y-41000000D03*
X131000000Y-56000000D03*
X115000000Y-49800000D03*
X65500000Y-16200000D03*
X120000000Y-54700000D03*
X120000000Y-37700000D03*
X39250000Y-16000000D03*
X45000000Y-16000000D03*
X91900000Y-62500000D03*
X88700000Y-65700000D03*
X37200000Y-56300000D03*
X23200000Y-56300000D03*
X23200000Y-63000000D03*
X37200000Y-63000000D03*
X32500000Y-48000000D03*
X32500000Y-45000000D03*
X30200000Y-47300000D03*
X28300000Y-56300000D03*
X27500000Y-61600000D03*
X42300000Y-61600000D03*
X42300000Y-56300000D03*
X25000000Y-56300000D03*
X38400000Y-56300000D03*
X38400000Y-62300000D03*
X25000000Y-62300000D03*
X108000000Y-59200000D03*
X101200000Y-57500000D03*
X27000000Y-47700000D03*
X110200000Y-54500000D03*
X27000000Y-41900000D03*
X110200000Y-41900000D03*
X41000000Y-51100000D03*
X41000000Y-42600000D03*
X77000000Y-42600000D03*
X77000000Y-45800000D03*
X105000000Y-52800000D03*
X105000000Y-42600000D03*
X29500000Y-56300000D03*
X25700000Y-47700000D03*
X39800000Y-51100000D03*
X43500000Y-56300000D03*
X45000000Y-28400000D03*
X62000000Y-19000000D03*
D24*
X21000000Y-41000000D02*
X21000000Y-48700000D01*
X35000000Y-41000000D02*
X35000000Y-48700000D01*
X61500000Y-55000000D02*
X61500000Y-41000000D01*
X73000000Y-45700000D02*
X73000000Y-41000000D01*
D25*
X78000000Y-63000000D02*
X78000000Y-41000000D01*
D26*
X107000000Y-44700000D02*
X107000000Y-41000000D01*
D25*
X131000000Y-41000000D02*
X131000000Y-56000000D01*
D26*
X115000000Y-65000000D02*
X115000000Y-49800000D01*
D24*
X26750000Y-10000000D02*
X25000000Y-11750000D01*
X65500000Y-16200000D02*
X65500000Y-10500000D01*
X65500000Y-10500000D02*
X65000000Y-10000000D01*
X26750000Y-10000000D02*
X65000000Y-10000000D01*
D25*
X120000000Y-54700000D02*
X120000000Y-37700000D01*
D24*
X39250000Y-16000000D02*
X45000000Y-16000000D01*
X91900000Y-62500000D02*
X88700000Y-65700000D01*
X37200000Y-63000000D02*
X37200000Y-56300000D01*
X23200000Y-56300000D02*
X23200000Y-63000000D01*
X32500000Y-65000000D02*
X32500000Y-48000000D01*
X32500000Y-45000000D02*
X32500000Y-48000000D01*
X30000000Y-65000000D02*
X30000000Y-56800000D01*
X30000000Y-56800000D02*
X30200000Y-56600000D01*
X30200000Y-56600000D02*
X30200000Y-47300000D01*
X28300000Y-56300000D02*
X27500000Y-57100000D01*
X27500000Y-65000000D02*
X27500000Y-61600000D01*
X27500000Y-61600000D02*
X27500000Y-57100000D01*
X42300000Y-61600000D02*
X42300000Y-56300000D01*
X25000000Y-65000000D02*
X25000000Y-62300000D01*
X25000000Y-62300000D02*
X25000000Y-56300000D01*
X38400000Y-62300000D02*
X38400000Y-56300000D01*
D25*
X107500000Y-59700000D02*
X107500000Y-65000000D01*
X108000000Y-59200000D02*
X107500000Y-59700000D01*
X102500000Y-58800000D02*
X102500000Y-65000000D01*
X101200000Y-57500000D02*
X102500000Y-58800000D01*
D24*
X27000000Y-47700000D02*
X27000000Y-41900000D01*
X110200000Y-54500000D02*
X110200000Y-41900000D01*
X41000000Y-51100000D02*
X41000000Y-42600000D01*
X77000000Y-42600000D02*
X77000000Y-45800000D01*
X105000000Y-52800000D02*
X105000000Y-42600000D01*
X29500000Y-56300000D02*
X29500000Y-51500000D01*
X29500000Y-51500000D02*
X25700000Y-47700000D01*
X39800000Y-51100000D02*
X43500000Y-54800000D01*
X43500000Y-54800000D02*
X43500000Y-56300000D01*
X46400000Y-27000000D02*
X45000000Y-28400000D01*
X62000000Y-19000000D02*
X62000000Y-26000000D01*
X61000000Y-27000000D02*
X46400000Y-27000000D01*
X62000000Y-26000000D02*
X61000000Y-27000000D01*
D26*
G36*
X72600000Y-2555961D02*
G01*
X72510000Y-2547097D01*
X70810000Y-2547097D01*
X70692379Y-2558682D01*
X70579279Y-2592990D01*
X70475045Y-2648704D01*
X70383683Y-2723683D01*
X70308704Y-2815045D01*
X70252990Y-2919279D01*
X70218682Y-3032379D01*
X70207097Y-3150000D01*
X70207097Y-4850000D01*
X70218682Y-4967621D01*
X70252990Y-5080721D01*
X70308704Y-5184955D01*
X70383683Y-5276317D01*
X70475045Y-5351296D01*
X70579279Y-5407010D01*
X70692379Y-5441318D01*
X70810000Y-5452903D01*
X72510000Y-5452903D01*
X72600000Y-5444039D01*
X72600000Y-10000000D01*
X72611529Y-10117054D01*
X72645672Y-10229610D01*
X72701118Y-10333342D01*
X72775736Y-10424264D01*
X72866658Y-10498882D01*
X72970390Y-10554328D01*
X73082946Y-10588471D01*
X73200000Y-10600000D01*
X81400000Y-10600000D01*
X81400000Y-28000000D01*
X81411529Y-28117054D01*
X81445672Y-28229610D01*
X81501118Y-28333342D01*
X81575736Y-28424264D01*
X81666658Y-28498882D01*
X81770390Y-28554328D01*
X81882946Y-28588471D01*
X82000000Y-28600000D01*
X124000000Y-28600000D01*
X124117054Y-28588471D01*
X124229610Y-28554328D01*
X124333342Y-28498882D01*
X124424264Y-28424264D01*
X124498882Y-28333342D01*
X124554328Y-28229610D01*
X124588471Y-28117054D01*
X124600000Y-28000000D01*
X124600000Y-25099062D01*
X133042360Y-25099062D01*
X133137724Y-25356951D01*
X133419021Y-25499099D01*
X133722644Y-25583638D01*
X134036926Y-25607318D01*
X134349789Y-25569230D01*
X134649209Y-25470837D01*
X134862276Y-25356951D01*
X134957640Y-25099062D01*
X134000000Y-24141421D01*
X133042360Y-25099062D01*
X124600000Y-25099062D01*
X124600000Y-24036926D01*
X132392682Y-24036926D01*
X132430770Y-24349789D01*
X132529163Y-24649209D01*
X132643049Y-24862276D01*
X132900938Y-24957640D01*
X133858579Y-24000000D01*
X134141421Y-24000000D01*
X135099062Y-24957640D01*
X135356951Y-24862276D01*
X135499099Y-24580979D01*
X135583638Y-24277356D01*
X135607318Y-23963074D01*
X135569230Y-23650211D01*
X135470837Y-23350791D01*
X135356951Y-23137724D01*
X135099062Y-23042360D01*
X134141421Y-24000000D01*
X133858579Y-24000000D01*
X132900938Y-23042360D01*
X132643049Y-23137724D01*
X132500901Y-23419021D01*
X132416362Y-23722644D01*
X132392682Y-24036926D01*
X124600000Y-24036926D01*
X124600000Y-22900938D01*
X133042360Y-22900938D01*
X134000000Y-23858579D01*
X134957640Y-22900938D01*
X134862276Y-22643049D01*
X134580979Y-22500901D01*
X134277356Y-22416362D01*
X133963074Y-22392682D01*
X133650211Y-22430770D01*
X133350791Y-22529163D01*
X133137724Y-22643049D01*
X133042360Y-22900938D01*
X124600000Y-22900938D01*
X124600000Y-18842414D01*
X132400000Y-18842414D01*
X132400000Y-19157586D01*
X132461487Y-19466703D01*
X132582098Y-19757884D01*
X132757199Y-20019941D01*
X132980059Y-20242801D01*
X133242116Y-20417902D01*
X133533297Y-20538513D01*
X133842414Y-20600000D01*
X134157586Y-20600000D01*
X134466703Y-20538513D01*
X134757884Y-20417902D01*
X135019941Y-20242801D01*
X135242801Y-20019941D01*
X135417902Y-19757884D01*
X135538513Y-19466703D01*
X135600000Y-19157586D01*
X135600000Y-18842414D01*
X135538513Y-18533297D01*
X135417902Y-18242116D01*
X135242801Y-17980059D01*
X135019941Y-17757199D01*
X134757884Y-17582098D01*
X134466703Y-17461487D01*
X134157586Y-17400000D01*
X133842414Y-17400000D01*
X133533297Y-17461487D01*
X133242116Y-17582098D01*
X132980059Y-17757199D01*
X132757199Y-17980059D01*
X132582098Y-18242116D01*
X132461487Y-18533297D01*
X132400000Y-18842414D01*
X124600000Y-18842414D01*
X124600000Y-13842414D01*
X132400000Y-13842414D01*
X132400000Y-14157586D01*
X132461487Y-14466703D01*
X132582098Y-14757884D01*
X132757199Y-15019941D01*
X132980059Y-15242801D01*
X133242116Y-15417902D01*
X133533297Y-15538513D01*
X133842414Y-15600000D01*
X134157586Y-15600000D01*
X134466703Y-15538513D01*
X134757884Y-15417902D01*
X135019941Y-15242801D01*
X135242801Y-15019941D01*
X135417902Y-14757884D01*
X135538513Y-14466703D01*
X135600000Y-14157586D01*
X135600000Y-13842414D01*
X135538513Y-13533297D01*
X135417902Y-13242116D01*
X135242801Y-12980059D01*
X135019941Y-12757199D01*
X134757884Y-12582098D01*
X134466703Y-12461487D01*
X134157586Y-12400000D01*
X133842414Y-12400000D01*
X133533297Y-12461487D01*
X133242116Y-12582098D01*
X132980059Y-12757199D01*
X132757199Y-12980059D01*
X132582098Y-13242116D01*
X132461487Y-13533297D01*
X132400000Y-13842414D01*
X124600000Y-13842414D01*
X124600000Y-1200000D01*
X132767310Y-1200000D01*
X132195163Y-1582297D01*
X131582297Y-2195163D01*
X131100770Y-2915818D01*
X130769089Y-3716567D01*
X130600000Y-4566638D01*
X130600000Y-5433362D01*
X130769089Y-6283433D01*
X131100770Y-7084182D01*
X131582297Y-7804837D01*
X132195163Y-8417703D01*
X132915818Y-8899230D01*
X133716567Y-9230911D01*
X134566638Y-9400000D01*
X135433362Y-9400000D01*
X136283433Y-9230911D01*
X137084182Y-8899230D01*
X137804837Y-8417703D01*
X138417703Y-7804837D01*
X138800000Y-7232690D01*
X138800000Y-36800000D01*
X120440335Y-36800000D01*
X120291689Y-36738429D01*
X120098491Y-36700000D01*
X119901509Y-36700000D01*
X119708311Y-36738429D01*
X119559665Y-36800000D01*
X30600000Y-36800000D01*
X30600000Y-32741462D01*
X83899960Y-32741462D01*
X84019396Y-33019816D01*
X84334739Y-33181919D01*
X84675649Y-33279388D01*
X85029022Y-33308475D01*
X85381280Y-33268064D01*
X85718886Y-33159708D01*
X85980604Y-33019816D01*
X86100040Y-32741462D01*
X101899960Y-32741462D01*
X102019396Y-33019816D01*
X102334739Y-33181919D01*
X102675649Y-33279388D01*
X103029022Y-33308475D01*
X103381280Y-33268064D01*
X103718886Y-33159708D01*
X103980604Y-33019816D01*
X104100040Y-32741462D01*
X119899960Y-32741462D01*
X120019396Y-33019816D01*
X120334739Y-33181919D01*
X120675649Y-33279388D01*
X121029022Y-33308475D01*
X121381280Y-33268064D01*
X121718886Y-33159708D01*
X121980604Y-33019816D01*
X122100040Y-32741462D01*
X121000000Y-31641421D01*
X119899960Y-32741462D01*
X104100040Y-32741462D01*
X103000000Y-31641421D01*
X101899960Y-32741462D01*
X86100040Y-32741462D01*
X85000000Y-31641421D01*
X83899960Y-32741462D01*
X30600000Y-32741462D01*
X30600000Y-31529022D01*
X83191525Y-31529022D01*
X83231936Y-31881280D01*
X83340292Y-32218886D01*
X83480184Y-32480604D01*
X83758538Y-32600040D01*
X84858579Y-31500000D01*
X85141421Y-31500000D01*
X86241462Y-32600040D01*
X86519816Y-32480604D01*
X86681919Y-32165261D01*
X86779388Y-31824351D01*
X86803697Y-31529022D01*
X101191525Y-31529022D01*
X101231936Y-31881280D01*
X101340292Y-32218886D01*
X101480184Y-32480604D01*
X101758538Y-32600040D01*
X102858579Y-31500000D01*
X103141421Y-31500000D01*
X104241462Y-32600040D01*
X104519816Y-32480604D01*
X104681919Y-32165261D01*
X104779388Y-31824351D01*
X104803697Y-31529022D01*
X119191525Y-31529022D01*
X119231936Y-31881280D01*
X119340292Y-32218886D01*
X119480184Y-32480604D01*
X119758538Y-32600040D01*
X120858579Y-31500000D01*
X121141421Y-31500000D01*
X122241462Y-32600040D01*
X122519816Y-32480604D01*
X122681919Y-32165261D01*
X122779388Y-31824351D01*
X122808475Y-31470978D01*
X122768064Y-31118720D01*
X122659708Y-30781114D01*
X122519816Y-30519396D01*
X122241462Y-30399960D01*
X121141421Y-31500000D01*
X120858579Y-31500000D01*
X119758538Y-30399960D01*
X119480184Y-30519396D01*
X119318081Y-30834739D01*
X119220612Y-31175649D01*
X119191525Y-31529022D01*
X104803697Y-31529022D01*
X104808475Y-31470978D01*
X104768064Y-31118720D01*
X104659708Y-30781114D01*
X104519816Y-30519396D01*
X104241462Y-30399960D01*
X103141421Y-31500000D01*
X102858579Y-31500000D01*
X101758538Y-30399960D01*
X101480184Y-30519396D01*
X101318081Y-30834739D01*
X101220612Y-31175649D01*
X101191525Y-31529022D01*
X86803697Y-31529022D01*
X86808475Y-31470978D01*
X86768064Y-31118720D01*
X86659708Y-30781114D01*
X86519816Y-30519396D01*
X86241462Y-30399960D01*
X85141421Y-31500000D01*
X84858579Y-31500000D01*
X83758538Y-30399960D01*
X83480184Y-30519396D01*
X83318081Y-30834739D01*
X83220612Y-31175649D01*
X83191525Y-31529022D01*
X30600000Y-31529022D01*
X30600000Y-31000000D01*
X30588471Y-30882946D01*
X30554328Y-30770390D01*
X30498882Y-30666658D01*
X30424264Y-30575736D01*
X30333342Y-30501118D01*
X30229610Y-30445672D01*
X30117054Y-30411529D01*
X30000000Y-30400000D01*
X9104400Y-30400000D01*
X9295999Y-30258538D01*
X83899960Y-30258538D01*
X85000000Y-31358579D01*
X86100040Y-30258538D01*
X101899960Y-30258538D01*
X103000000Y-31358579D01*
X104100040Y-30258538D01*
X119899960Y-30258538D01*
X121000000Y-31358579D01*
X122100040Y-30258538D01*
X121980604Y-29980184D01*
X121665261Y-29818081D01*
X121324351Y-29720612D01*
X120970978Y-29691525D01*
X120618720Y-29731936D01*
X120281114Y-29840292D01*
X120019396Y-29980184D01*
X119899960Y-30258538D01*
X104100040Y-30258538D01*
X103980604Y-29980184D01*
X103665261Y-29818081D01*
X103324351Y-29720612D01*
X102970978Y-29691525D01*
X102618720Y-29731936D01*
X102281114Y-29840292D01*
X102019396Y-29980184D01*
X101899960Y-30258538D01*
X86100040Y-30258538D01*
X85980604Y-29980184D01*
X85665261Y-29818081D01*
X85324351Y-29720612D01*
X84970978Y-29691525D01*
X84618720Y-29731936D01*
X84281114Y-29840292D01*
X84019396Y-29980184D01*
X83899960Y-30258538D01*
X9295999Y-30258538D01*
X9308147Y-30249569D01*
X9565808Y-29966509D01*
X9763296Y-29638621D01*
X9893022Y-29278505D01*
X9950000Y-28900000D01*
X9950000Y-28600000D01*
X8100000Y-28600000D01*
X8100000Y-28620000D01*
X7900000Y-28620000D01*
X7900000Y-28600000D01*
X6050000Y-28600000D01*
X6050000Y-28900000D01*
X6106978Y-29278505D01*
X6236704Y-29638621D01*
X6434192Y-29966509D01*
X6691853Y-30249569D01*
X6895600Y-30400000D01*
X1200000Y-30400000D01*
X1200000Y-28100000D01*
X6050000Y-28100000D01*
X6050000Y-28400000D01*
X7900000Y-28400000D01*
X7900000Y-26402780D01*
X8100000Y-26402780D01*
X8100000Y-28400000D01*
X9950000Y-28400000D01*
X9950000Y-28301509D01*
X44000000Y-28301509D01*
X44000000Y-28498491D01*
X44038429Y-28691689D01*
X44113811Y-28873678D01*
X44223249Y-29037463D01*
X44362537Y-29176751D01*
X44526322Y-29286189D01*
X44708311Y-29361571D01*
X44901509Y-29400000D01*
X45098491Y-29400000D01*
X45291689Y-29361571D01*
X45473678Y-29286189D01*
X45637463Y-29176751D01*
X45776751Y-29037463D01*
X45886189Y-28873678D01*
X45961571Y-28691689D01*
X46000000Y-28498491D01*
X46000000Y-28389949D01*
X46689950Y-27700000D01*
X60965613Y-27700000D01*
X61000000Y-27703387D01*
X61034387Y-27700000D01*
X61034390Y-27700000D01*
X61137224Y-27689872D01*
X61269175Y-27649845D01*
X61390781Y-27584845D01*
X61497370Y-27497370D01*
X61519296Y-27470653D01*
X62470658Y-26519292D01*
X62497370Y-26497370D01*
X62584845Y-26390781D01*
X62649845Y-26269175D01*
X62689872Y-26137224D01*
X62700000Y-26034390D01*
X62703387Y-26000000D01*
X62700000Y-25965610D01*
X62700000Y-19714214D01*
X62776751Y-19637463D01*
X62886189Y-19473678D01*
X62961571Y-19291689D01*
X63000000Y-19098491D01*
X63000000Y-18901509D01*
X62961571Y-18708311D01*
X62886189Y-18526322D01*
X62776751Y-18362537D01*
X62637463Y-18223249D01*
X62473678Y-18113811D01*
X62291689Y-18038429D01*
X62098491Y-18000000D01*
X61901509Y-18000000D01*
X61708311Y-18038429D01*
X61526322Y-18113811D01*
X61362537Y-18223249D01*
X61223249Y-18362537D01*
X61113811Y-18526322D01*
X61038429Y-18708311D01*
X61000000Y-18901509D01*
X61000000Y-19098491D01*
X61038429Y-19291689D01*
X61113811Y-19473678D01*
X61223249Y-19637463D01*
X61300000Y-19714214D01*
X61300001Y-25710049D01*
X60710051Y-26300000D01*
X46434387Y-26300000D01*
X46400000Y-26296613D01*
X46365613Y-26300000D01*
X46365610Y-26300000D01*
X46262776Y-26310128D01*
X46130825Y-26350155D01*
X46009218Y-26415155D01*
X45941588Y-26470658D01*
X45902630Y-26502630D01*
X45880708Y-26529342D01*
X45010051Y-27400000D01*
X44901509Y-27400000D01*
X44708311Y-27438429D01*
X44526322Y-27513811D01*
X44362537Y-27623249D01*
X44223249Y-27762537D01*
X44113811Y-27926322D01*
X44038429Y-28108311D01*
X44000000Y-28301509D01*
X9950000Y-28301509D01*
X9950000Y-28100000D01*
X9893022Y-27721495D01*
X9763296Y-27361379D01*
X9565808Y-27033491D01*
X9308147Y-26750431D01*
X9000214Y-26523077D01*
X8653844Y-26360167D01*
X8403415Y-26292186D01*
X8100000Y-26402780D01*
X7900000Y-26402780D01*
X7596585Y-26292186D01*
X7346156Y-26360167D01*
X6999786Y-26523077D01*
X6691853Y-26750431D01*
X6434192Y-27033491D01*
X6236704Y-27361379D01*
X6106978Y-27721495D01*
X6050000Y-28100000D01*
X1200000Y-28100000D01*
X1200000Y-22807942D01*
X23050000Y-22807942D01*
X23050000Y-23192058D01*
X23124938Y-23568794D01*
X23271933Y-23923671D01*
X23485336Y-24243052D01*
X23756948Y-24514664D01*
X24076329Y-24728067D01*
X24431206Y-24875062D01*
X24807942Y-24950000D01*
X25192058Y-24950000D01*
X25568794Y-24875062D01*
X25923671Y-24728067D01*
X26243052Y-24514664D01*
X26514664Y-24243052D01*
X26728067Y-23923671D01*
X26875062Y-23568794D01*
X26950000Y-23192058D01*
X26950000Y-22807942D01*
X26875062Y-22431206D01*
X26728067Y-22076329D01*
X26514664Y-21756948D01*
X26243052Y-21485336D01*
X25923671Y-21271933D01*
X25568794Y-21124938D01*
X25192058Y-21050000D01*
X24807942Y-21050000D01*
X24431206Y-21124938D01*
X24076329Y-21271933D01*
X23756948Y-21485336D01*
X23485336Y-21756948D01*
X23271933Y-22076329D01*
X23124938Y-22431206D01*
X23050000Y-22807942D01*
X1200000Y-22807942D01*
X1200000Y-16456566D01*
X14184855Y-16456566D01*
X14256112Y-16694004D01*
X14503344Y-16816187D01*
X14769663Y-16887789D01*
X15044833Y-16906060D01*
X15318280Y-16870297D01*
X15579496Y-16781874D01*
X15743888Y-16694004D01*
X15815145Y-16456566D01*
X15000000Y-15641421D01*
X14184855Y-16456566D01*
X1200000Y-16456566D01*
X1200000Y-15544833D01*
X13593940Y-15544833D01*
X13629703Y-15818280D01*
X13718126Y-16079496D01*
X13805996Y-16243888D01*
X14043434Y-16315145D01*
X14858579Y-15500000D01*
X15141421Y-15500000D01*
X15956566Y-16315145D01*
X16194004Y-16243888D01*
X16316187Y-15996656D01*
X16341768Y-15901509D01*
X38250000Y-15901509D01*
X38250000Y-16098491D01*
X38288429Y-16291689D01*
X38363811Y-16473678D01*
X38473249Y-16637463D01*
X38612537Y-16776751D01*
X38776322Y-16886189D01*
X38958311Y-16961571D01*
X39151509Y-17000000D01*
X39348491Y-17000000D01*
X39541689Y-16961571D01*
X39723678Y-16886189D01*
X39887463Y-16776751D01*
X39964214Y-16700000D01*
X44285786Y-16700000D01*
X44362537Y-16776751D01*
X44526322Y-16886189D01*
X44708311Y-16961571D01*
X44901509Y-17000000D01*
X45098491Y-17000000D01*
X45291689Y-16961571D01*
X45473678Y-16886189D01*
X45637463Y-16776751D01*
X45776751Y-16637463D01*
X45886189Y-16473678D01*
X45961571Y-16291689D01*
X46000000Y-16098491D01*
X46000000Y-15901509D01*
X45961571Y-15708311D01*
X45886189Y-15526322D01*
X45776751Y-15362537D01*
X45637463Y-15223249D01*
X45473678Y-15113811D01*
X45291689Y-15038429D01*
X45098491Y-15000000D01*
X44901509Y-15000000D01*
X44708311Y-15038429D01*
X44526322Y-15113811D01*
X44362537Y-15223249D01*
X44285786Y-15300000D01*
X39964214Y-15300000D01*
X39887463Y-15223249D01*
X39723678Y-15113811D01*
X39541689Y-15038429D01*
X39348491Y-15000000D01*
X39151509Y-15000000D01*
X38958311Y-15038429D01*
X38776322Y-15113811D01*
X38612537Y-15223249D01*
X38473249Y-15362537D01*
X38363811Y-15526322D01*
X38288429Y-15708311D01*
X38250000Y-15901509D01*
X16341768Y-15901509D01*
X16387789Y-15730337D01*
X16406060Y-15455167D01*
X16370297Y-15181720D01*
X16281874Y-14920504D01*
X16194004Y-14756112D01*
X15956566Y-14684855D01*
X15141421Y-15500000D01*
X14858579Y-15500000D01*
X14043434Y-14684855D01*
X13805996Y-14756112D01*
X13683813Y-15003344D01*
X13612211Y-15269663D01*
X13593940Y-15544833D01*
X1200000Y-15544833D01*
X1200000Y-12200000D01*
X13597097Y-12200000D01*
X13597097Y-13800000D01*
X13608682Y-13917621D01*
X13642990Y-14030721D01*
X13698704Y-14134955D01*
X13773683Y-14226317D01*
X13865045Y-14301296D01*
X13969279Y-14357010D01*
X14082379Y-14391318D01*
X14200000Y-14402903D01*
X14227029Y-14402903D01*
X14184855Y-14543434D01*
X15000000Y-15358579D01*
X15815145Y-14543434D01*
X15772971Y-14402903D01*
X15800000Y-14402903D01*
X15917621Y-14391318D01*
X16030721Y-14357010D01*
X16134955Y-14301296D01*
X16226317Y-14226317D01*
X16301296Y-14134955D01*
X16357010Y-14030721D01*
X16391318Y-13917621D01*
X16402903Y-13800000D01*
X16402903Y-12200000D01*
X16391318Y-12082379D01*
X16357010Y-11969279D01*
X16301296Y-11865045D01*
X16226317Y-11773683D01*
X16134955Y-11698704D01*
X16030721Y-11642990D01*
X15917621Y-11608682D01*
X15800000Y-11597097D01*
X14200000Y-11597097D01*
X14082379Y-11608682D01*
X13969279Y-11642990D01*
X13865045Y-11698704D01*
X13773683Y-11773683D01*
X13698704Y-11865045D01*
X13642990Y-11969279D01*
X13608682Y-12082379D01*
X13597097Y-12200000D01*
X1200000Y-12200000D01*
X1200000Y-11543168D01*
X22900000Y-11543168D01*
X22900000Y-11956832D01*
X22980702Y-12362547D01*
X23139004Y-12744723D01*
X23368823Y-13088672D01*
X23661328Y-13381177D01*
X24005277Y-13610996D01*
X24387453Y-13769298D01*
X24793168Y-13850000D01*
X25206832Y-13850000D01*
X25612547Y-13769298D01*
X25994723Y-13610996D01*
X26338672Y-13381177D01*
X26631177Y-13088672D01*
X26860996Y-12744723D01*
X27019298Y-12362547D01*
X27100000Y-11956832D01*
X27100000Y-11543168D01*
X27019298Y-11137453D01*
X26897220Y-10842730D01*
X27039950Y-10700000D01*
X64710051Y-10700000D01*
X64800001Y-10789951D01*
X64800000Y-15485786D01*
X64723249Y-15562537D01*
X64613811Y-15726322D01*
X64538429Y-15908311D01*
X64500000Y-16101509D01*
X64500000Y-16298491D01*
X64538429Y-16491689D01*
X64613811Y-16673678D01*
X64723249Y-16837463D01*
X64862537Y-16976751D01*
X65026322Y-17086189D01*
X65208311Y-17161571D01*
X65401509Y-17200000D01*
X65598491Y-17200000D01*
X65791689Y-17161571D01*
X65973678Y-17086189D01*
X66137463Y-16976751D01*
X66276751Y-16837463D01*
X66386189Y-16673678D01*
X66461571Y-16491689D01*
X66500000Y-16298491D01*
X66500000Y-16101509D01*
X66461571Y-15908311D01*
X66386189Y-15726322D01*
X66276751Y-15562537D01*
X66200000Y-15485786D01*
X66200000Y-10534387D01*
X66203387Y-10500000D01*
X66200000Y-10465610D01*
X66189872Y-10362776D01*
X66149845Y-10230825D01*
X66084845Y-10109219D01*
X65997370Y-10002630D01*
X65970658Y-9980708D01*
X65519296Y-9529346D01*
X65497370Y-9502630D01*
X65390781Y-9415155D01*
X65269175Y-9350155D01*
X65137224Y-9310128D01*
X65034390Y-9300000D01*
X65034387Y-9300000D01*
X65000000Y-9296613D01*
X64965613Y-9300000D01*
X26784387Y-9300000D01*
X26750000Y-9296613D01*
X26715613Y-9300000D01*
X26715610Y-9300000D01*
X26612776Y-9310128D01*
X26480825Y-9350155D01*
X26359219Y-9415155D01*
X26252630Y-9502630D01*
X26230708Y-9529342D01*
X25907270Y-9852780D01*
X25612547Y-9730702D01*
X25206832Y-9650000D01*
X24793168Y-9650000D01*
X24387453Y-9730702D01*
X24005277Y-9889004D01*
X23661328Y-10118823D01*
X23368823Y-10411328D01*
X23139004Y-10755277D01*
X22980702Y-11137453D01*
X22900000Y-11543168D01*
X1200000Y-11543168D01*
X1200000Y-7232690D01*
X1582297Y-7804837D01*
X2195163Y-8417703D01*
X2915818Y-8899230D01*
X3716567Y-9230911D01*
X4566638Y-9400000D01*
X5433362Y-9400000D01*
X6283433Y-9230911D01*
X7084182Y-8899230D01*
X7804837Y-8417703D01*
X8417703Y-7804837D01*
X8899230Y-7084182D01*
X9230911Y-6283433D01*
X9400000Y-5433362D01*
X9400000Y-4566638D01*
X9230911Y-3716567D01*
X8899230Y-2915818D01*
X8417703Y-2195163D01*
X7804837Y-1582297D01*
X7232690Y-1200000D01*
X72600000Y-1200000D01*
X72600000Y-2555961D01*
G37*
X72600000Y-2555961D02*
X72510000Y-2547097D01*
X70810000Y-2547097D01*
X70692379Y-2558682D01*
X70579279Y-2592990D01*
X70475045Y-2648704D01*
X70383683Y-2723683D01*
X70308704Y-2815045D01*
X70252990Y-2919279D01*
X70218682Y-3032379D01*
X70207097Y-3150000D01*
X70207097Y-4850000D01*
X70218682Y-4967621D01*
X70252990Y-5080721D01*
X70308704Y-5184955D01*
X70383683Y-5276317D01*
X70475045Y-5351296D01*
X70579279Y-5407010D01*
X70692379Y-5441318D01*
X70810000Y-5452903D01*
X72510000Y-5452903D01*
X72600000Y-5444039D01*
X72600000Y-10000000D01*
X72611529Y-10117054D01*
X72645672Y-10229610D01*
X72701118Y-10333342D01*
X72775736Y-10424264D01*
X72866658Y-10498882D01*
X72970390Y-10554328D01*
X73082946Y-10588471D01*
X73200000Y-10600000D01*
X81400000Y-10600000D01*
X81400000Y-28000000D01*
X81411529Y-28117054D01*
X81445672Y-28229610D01*
X81501118Y-28333342D01*
X81575736Y-28424264D01*
X81666658Y-28498882D01*
X81770390Y-28554328D01*
X81882946Y-28588471D01*
X82000000Y-28600000D01*
X124000000Y-28600000D01*
X124117054Y-28588471D01*
X124229610Y-28554328D01*
X124333342Y-28498882D01*
X124424264Y-28424264D01*
X124498882Y-28333342D01*
X124554328Y-28229610D01*
X124588471Y-28117054D01*
X124600000Y-28000000D01*
X124600000Y-25099062D01*
X133042360Y-25099062D01*
X133137724Y-25356951D01*
X133419021Y-25499099D01*
X133722644Y-25583638D01*
X134036926Y-25607318D01*
X134349789Y-25569230D01*
X134649209Y-25470837D01*
X134862276Y-25356951D01*
X134957640Y-25099062D01*
X134000000Y-24141421D01*
X133042360Y-25099062D01*
X124600000Y-25099062D01*
X124600000Y-24036926D01*
X132392682Y-24036926D01*
X132430770Y-24349789D01*
X132529163Y-24649209D01*
X132643049Y-24862276D01*
X132900938Y-24957640D01*
X133858579Y-24000000D01*
X134141421Y-24000000D01*
X135099062Y-24957640D01*
X135356951Y-24862276D01*
X135499099Y-24580979D01*
X135583638Y-24277356D01*
X135607318Y-23963074D01*
X135569230Y-23650211D01*
X135470837Y-23350791D01*
X135356951Y-23137724D01*
X135099062Y-23042360D01*
X134141421Y-24000000D01*
X133858579Y-24000000D01*
X132900938Y-23042360D01*
X132643049Y-23137724D01*
X132500901Y-23419021D01*
X132416362Y-23722644D01*
X132392682Y-24036926D01*
X124600000Y-24036926D01*
X124600000Y-22900938D01*
X133042360Y-22900938D01*
X134000000Y-23858579D01*
X134957640Y-22900938D01*
X134862276Y-22643049D01*
X134580979Y-22500901D01*
X134277356Y-22416362D01*
X133963074Y-22392682D01*
X133650211Y-22430770D01*
X133350791Y-22529163D01*
X133137724Y-22643049D01*
X133042360Y-22900938D01*
X124600000Y-22900938D01*
X124600000Y-18842414D01*
X132400000Y-18842414D01*
X132400000Y-19157586D01*
X132461487Y-19466703D01*
X132582098Y-19757884D01*
X132757199Y-20019941D01*
X132980059Y-20242801D01*
X133242116Y-20417902D01*
X133533297Y-20538513D01*
X133842414Y-20600000D01*
X134157586Y-20600000D01*
X134466703Y-20538513D01*
X134757884Y-20417902D01*
X135019941Y-20242801D01*
X135242801Y-20019941D01*
X135417902Y-19757884D01*
X135538513Y-19466703D01*
X135600000Y-19157586D01*
X135600000Y-18842414D01*
X135538513Y-18533297D01*
X135417902Y-18242116D01*
X135242801Y-17980059D01*
X135019941Y-17757199D01*
X134757884Y-17582098D01*
X134466703Y-17461487D01*
X134157586Y-17400000D01*
X133842414Y-17400000D01*
X133533297Y-17461487D01*
X133242116Y-17582098D01*
X132980059Y-17757199D01*
X132757199Y-17980059D01*
X132582098Y-18242116D01*
X132461487Y-18533297D01*
X132400000Y-18842414D01*
X124600000Y-18842414D01*
X124600000Y-13842414D01*
X132400000Y-13842414D01*
X132400000Y-14157586D01*
X132461487Y-14466703D01*
X132582098Y-14757884D01*
X132757199Y-15019941D01*
X132980059Y-15242801D01*
X133242116Y-15417902D01*
X133533297Y-15538513D01*
X133842414Y-15600000D01*
X134157586Y-15600000D01*
X134466703Y-15538513D01*
X134757884Y-15417902D01*
X135019941Y-15242801D01*
X135242801Y-15019941D01*
X135417902Y-14757884D01*
X135538513Y-14466703D01*
X135600000Y-14157586D01*
X135600000Y-13842414D01*
X135538513Y-13533297D01*
X135417902Y-13242116D01*
X135242801Y-12980059D01*
X135019941Y-12757199D01*
X134757884Y-12582098D01*
X134466703Y-12461487D01*
X134157586Y-12400000D01*
X133842414Y-12400000D01*
X133533297Y-12461487D01*
X133242116Y-12582098D01*
X132980059Y-12757199D01*
X132757199Y-12980059D01*
X132582098Y-13242116D01*
X132461487Y-13533297D01*
X132400000Y-13842414D01*
X124600000Y-13842414D01*
X124600000Y-1200000D01*
X132767310Y-1200000D01*
X132195163Y-1582297D01*
X131582297Y-2195163D01*
X131100770Y-2915818D01*
X130769089Y-3716567D01*
X130600000Y-4566638D01*
X130600000Y-5433362D01*
X130769089Y-6283433D01*
X131100770Y-7084182D01*
X131582297Y-7804837D01*
X132195163Y-8417703D01*
X132915818Y-8899230D01*
X133716567Y-9230911D01*
X134566638Y-9400000D01*
X135433362Y-9400000D01*
X136283433Y-9230911D01*
X137084182Y-8899230D01*
X137804837Y-8417703D01*
X138417703Y-7804837D01*
X138800000Y-7232690D01*
X138800000Y-36800000D01*
X120440335Y-36800000D01*
X120291689Y-36738429D01*
X120098491Y-36700000D01*
X119901509Y-36700000D01*
X119708311Y-36738429D01*
X119559665Y-36800000D01*
X30600000Y-36800000D01*
X30600000Y-32741462D01*
X83899960Y-32741462D01*
X84019396Y-33019816D01*
X84334739Y-33181919D01*
X84675649Y-33279388D01*
X85029022Y-33308475D01*
X85381280Y-33268064D01*
X85718886Y-33159708D01*
X85980604Y-33019816D01*
X86100040Y-32741462D01*
X101899960Y-32741462D01*
X102019396Y-33019816D01*
X102334739Y-33181919D01*
X102675649Y-33279388D01*
X103029022Y-33308475D01*
X103381280Y-33268064D01*
X103718886Y-33159708D01*
X103980604Y-33019816D01*
X104100040Y-32741462D01*
X119899960Y-32741462D01*
X120019396Y-33019816D01*
X120334739Y-33181919D01*
X120675649Y-33279388D01*
X121029022Y-33308475D01*
X121381280Y-33268064D01*
X121718886Y-33159708D01*
X121980604Y-33019816D01*
X122100040Y-32741462D01*
X121000000Y-31641421D01*
X119899960Y-32741462D01*
X104100040Y-32741462D01*
X103000000Y-31641421D01*
X101899960Y-32741462D01*
X86100040Y-32741462D01*
X85000000Y-31641421D01*
X83899960Y-32741462D01*
X30600000Y-32741462D01*
X30600000Y-31529022D01*
X83191525Y-31529022D01*
X83231936Y-31881280D01*
X83340292Y-32218886D01*
X83480184Y-32480604D01*
X83758538Y-32600040D01*
X84858579Y-31500000D01*
X85141421Y-31500000D01*
X86241462Y-32600040D01*
X86519816Y-32480604D01*
X86681919Y-32165261D01*
X86779388Y-31824351D01*
X86803697Y-31529022D01*
X101191525Y-31529022D01*
X101231936Y-31881280D01*
X101340292Y-32218886D01*
X101480184Y-32480604D01*
X101758538Y-32600040D01*
X102858579Y-31500000D01*
X103141421Y-31500000D01*
X104241462Y-32600040D01*
X104519816Y-32480604D01*
X104681919Y-32165261D01*
X104779388Y-31824351D01*
X104803697Y-31529022D01*
X119191525Y-31529022D01*
X119231936Y-31881280D01*
X119340292Y-32218886D01*
X119480184Y-32480604D01*
X119758538Y-32600040D01*
X120858579Y-31500000D01*
X121141421Y-31500000D01*
X122241462Y-32600040D01*
X122519816Y-32480604D01*
X122681919Y-32165261D01*
X122779388Y-31824351D01*
X122808475Y-31470978D01*
X122768064Y-31118720D01*
X122659708Y-30781114D01*
X122519816Y-30519396D01*
X122241462Y-30399960D01*
X121141421Y-31500000D01*
X120858579Y-31500000D01*
X119758538Y-30399960D01*
X119480184Y-30519396D01*
X119318081Y-30834739D01*
X119220612Y-31175649D01*
X119191525Y-31529022D01*
X104803697Y-31529022D01*
X104808475Y-31470978D01*
X104768064Y-31118720D01*
X104659708Y-30781114D01*
X104519816Y-30519396D01*
X104241462Y-30399960D01*
X103141421Y-31500000D01*
X102858579Y-31500000D01*
X101758538Y-30399960D01*
X101480184Y-30519396D01*
X101318081Y-30834739D01*
X101220612Y-31175649D01*
X101191525Y-31529022D01*
X86803697Y-31529022D01*
X86808475Y-31470978D01*
X86768064Y-31118720D01*
X86659708Y-30781114D01*
X86519816Y-30519396D01*
X86241462Y-30399960D01*
X85141421Y-31500000D01*
X84858579Y-31500000D01*
X83758538Y-30399960D01*
X83480184Y-30519396D01*
X83318081Y-30834739D01*
X83220612Y-31175649D01*
X83191525Y-31529022D01*
X30600000Y-31529022D01*
X30600000Y-31000000D01*
X30588471Y-30882946D01*
X30554328Y-30770390D01*
X30498882Y-30666658D01*
X30424264Y-30575736D01*
X30333342Y-30501118D01*
X30229610Y-30445672D01*
X30117054Y-30411529D01*
X30000000Y-30400000D01*
X9104400Y-30400000D01*
X9295999Y-30258538D01*
X83899960Y-30258538D01*
X85000000Y-31358579D01*
X86100040Y-30258538D01*
X101899960Y-30258538D01*
X103000000Y-31358579D01*
X104100040Y-30258538D01*
X119899960Y-30258538D01*
X121000000Y-31358579D01*
X122100040Y-30258538D01*
X121980604Y-29980184D01*
X121665261Y-29818081D01*
X121324351Y-29720612D01*
X120970978Y-29691525D01*
X120618720Y-29731936D01*
X120281114Y-29840292D01*
X120019396Y-29980184D01*
X119899960Y-30258538D01*
X104100040Y-30258538D01*
X103980604Y-29980184D01*
X103665261Y-29818081D01*
X103324351Y-29720612D01*
X102970978Y-29691525D01*
X102618720Y-29731936D01*
X102281114Y-29840292D01*
X102019396Y-29980184D01*
X101899960Y-30258538D01*
X86100040Y-30258538D01*
X85980604Y-29980184D01*
X85665261Y-29818081D01*
X85324351Y-29720612D01*
X84970978Y-29691525D01*
X84618720Y-29731936D01*
X84281114Y-29840292D01*
X84019396Y-29980184D01*
X83899960Y-30258538D01*
X9295999Y-30258538D01*
X9308147Y-30249569D01*
X9565808Y-29966509D01*
X9763296Y-29638621D01*
X9893022Y-29278505D01*
X9950000Y-28900000D01*
X9950000Y-28600000D01*
X8100000Y-28600000D01*
X8100000Y-28620000D01*
X7900000Y-28620000D01*
X7900000Y-28600000D01*
X6050000Y-28600000D01*
X6050000Y-28900000D01*
X6106978Y-29278505D01*
X6236704Y-29638621D01*
X6434192Y-29966509D01*
X6691853Y-30249569D01*
X6895600Y-30400000D01*
X1200000Y-30400000D01*
X1200000Y-28100000D01*
X6050000Y-28100000D01*
X6050000Y-28400000D01*
X7900000Y-28400000D01*
X7900000Y-26402780D01*
X8100000Y-26402780D01*
X8100000Y-28400000D01*
X9950000Y-28400000D01*
X9950000Y-28301509D01*
X44000000Y-28301509D01*
X44000000Y-28498491D01*
X44038429Y-28691689D01*
X44113811Y-28873678D01*
X44223249Y-29037463D01*
X44362537Y-29176751D01*
X44526322Y-29286189D01*
X44708311Y-29361571D01*
X44901509Y-29400000D01*
X45098491Y-29400000D01*
X45291689Y-29361571D01*
X45473678Y-29286189D01*
X45637463Y-29176751D01*
X45776751Y-29037463D01*
X45886189Y-28873678D01*
X45961571Y-28691689D01*
X46000000Y-28498491D01*
X46000000Y-28389949D01*
X46689950Y-27700000D01*
X60965613Y-27700000D01*
X61000000Y-27703387D01*
X61034387Y-27700000D01*
X61034390Y-27700000D01*
X61137224Y-27689872D01*
X61269175Y-27649845D01*
X61390781Y-27584845D01*
X61497370Y-27497370D01*
X61519296Y-27470653D01*
X62470658Y-26519292D01*
X62497370Y-26497370D01*
X62584845Y-26390781D01*
X62649845Y-26269175D01*
X62689872Y-26137224D01*
X62700000Y-26034390D01*
X62703387Y-26000000D01*
X62700000Y-25965610D01*
X62700000Y-19714214D01*
X62776751Y-19637463D01*
X62886189Y-19473678D01*
X62961571Y-19291689D01*
X63000000Y-19098491D01*
X63000000Y-18901509D01*
X62961571Y-18708311D01*
X62886189Y-18526322D01*
X62776751Y-18362537D01*
X62637463Y-18223249D01*
X62473678Y-18113811D01*
X62291689Y-18038429D01*
X62098491Y-18000000D01*
X61901509Y-18000000D01*
X61708311Y-18038429D01*
X61526322Y-18113811D01*
X61362537Y-18223249D01*
X61223249Y-18362537D01*
X61113811Y-18526322D01*
X61038429Y-18708311D01*
X61000000Y-18901509D01*
X61000000Y-19098491D01*
X61038429Y-19291689D01*
X61113811Y-19473678D01*
X61223249Y-19637463D01*
X61300000Y-19714214D01*
X61300001Y-25710049D01*
X60710051Y-26300000D01*
X46434387Y-26300000D01*
X46400000Y-26296613D01*
X46365613Y-26300000D01*
X46365610Y-26300000D01*
X46262776Y-26310128D01*
X46130825Y-26350155D01*
X46009218Y-26415155D01*
X45941588Y-26470658D01*
X45902630Y-26502630D01*
X45880708Y-26529342D01*
X45010051Y-27400000D01*
X44901509Y-27400000D01*
X44708311Y-27438429D01*
X44526322Y-27513811D01*
X44362537Y-27623249D01*
X44223249Y-27762537D01*
X44113811Y-27926322D01*
X44038429Y-28108311D01*
X44000000Y-28301509D01*
X9950000Y-28301509D01*
X9950000Y-28100000D01*
X9893022Y-27721495D01*
X9763296Y-27361379D01*
X9565808Y-27033491D01*
X9308147Y-26750431D01*
X9000214Y-26523077D01*
X8653844Y-26360167D01*
X8403415Y-26292186D01*
X8100000Y-26402780D01*
X7900000Y-26402780D01*
X7596585Y-26292186D01*
X7346156Y-26360167D01*
X6999786Y-26523077D01*
X6691853Y-26750431D01*
X6434192Y-27033491D01*
X6236704Y-27361379D01*
X6106978Y-27721495D01*
X6050000Y-28100000D01*
X1200000Y-28100000D01*
X1200000Y-22807942D01*
X23050000Y-22807942D01*
X23050000Y-23192058D01*
X23124938Y-23568794D01*
X23271933Y-23923671D01*
X23485336Y-24243052D01*
X23756948Y-24514664D01*
X24076329Y-24728067D01*
X24431206Y-24875062D01*
X24807942Y-24950000D01*
X25192058Y-24950000D01*
X25568794Y-24875062D01*
X25923671Y-24728067D01*
X26243052Y-24514664D01*
X26514664Y-24243052D01*
X26728067Y-23923671D01*
X26875062Y-23568794D01*
X26950000Y-23192058D01*
X26950000Y-22807942D01*
X26875062Y-22431206D01*
X26728067Y-22076329D01*
X26514664Y-21756948D01*
X26243052Y-21485336D01*
X25923671Y-21271933D01*
X25568794Y-21124938D01*
X25192058Y-21050000D01*
X24807942Y-21050000D01*
X24431206Y-21124938D01*
X24076329Y-21271933D01*
X23756948Y-21485336D01*
X23485336Y-21756948D01*
X23271933Y-22076329D01*
X23124938Y-22431206D01*
X23050000Y-22807942D01*
X1200000Y-22807942D01*
X1200000Y-16456566D01*
X14184855Y-16456566D01*
X14256112Y-16694004D01*
X14503344Y-16816187D01*
X14769663Y-16887789D01*
X15044833Y-16906060D01*
X15318280Y-16870297D01*
X15579496Y-16781874D01*
X15743888Y-16694004D01*
X15815145Y-16456566D01*
X15000000Y-15641421D01*
X14184855Y-16456566D01*
X1200000Y-16456566D01*
X1200000Y-15544833D01*
X13593940Y-15544833D01*
X13629703Y-15818280D01*
X13718126Y-16079496D01*
X13805996Y-16243888D01*
X14043434Y-16315145D01*
X14858579Y-15500000D01*
X15141421Y-15500000D01*
X15956566Y-16315145D01*
X16194004Y-16243888D01*
X16316187Y-15996656D01*
X16341768Y-15901509D01*
X38250000Y-15901509D01*
X38250000Y-16098491D01*
X38288429Y-16291689D01*
X38363811Y-16473678D01*
X38473249Y-16637463D01*
X38612537Y-16776751D01*
X38776322Y-16886189D01*
X38958311Y-16961571D01*
X39151509Y-17000000D01*
X39348491Y-17000000D01*
X39541689Y-16961571D01*
X39723678Y-16886189D01*
X39887463Y-16776751D01*
X39964214Y-16700000D01*
X44285786Y-16700000D01*
X44362537Y-16776751D01*
X44526322Y-16886189D01*
X44708311Y-16961571D01*
X44901509Y-17000000D01*
X45098491Y-17000000D01*
X45291689Y-16961571D01*
X45473678Y-16886189D01*
X45637463Y-16776751D01*
X45776751Y-16637463D01*
X45886189Y-16473678D01*
X45961571Y-16291689D01*
X46000000Y-16098491D01*
X46000000Y-15901509D01*
X45961571Y-15708311D01*
X45886189Y-15526322D01*
X45776751Y-15362537D01*
X45637463Y-15223249D01*
X45473678Y-15113811D01*
X45291689Y-15038429D01*
X45098491Y-15000000D01*
X44901509Y-15000000D01*
X44708311Y-15038429D01*
X44526322Y-15113811D01*
X44362537Y-15223249D01*
X44285786Y-15300000D01*
X39964214Y-15300000D01*
X39887463Y-15223249D01*
X39723678Y-15113811D01*
X39541689Y-15038429D01*
X39348491Y-15000000D01*
X39151509Y-15000000D01*
X38958311Y-15038429D01*
X38776322Y-15113811D01*
X38612537Y-15223249D01*
X38473249Y-15362537D01*
X38363811Y-15526322D01*
X38288429Y-15708311D01*
X38250000Y-15901509D01*
X16341768Y-15901509D01*
X16387789Y-15730337D01*
X16406060Y-15455167D01*
X16370297Y-15181720D01*
X16281874Y-14920504D01*
X16194004Y-14756112D01*
X15956566Y-14684855D01*
X15141421Y-15500000D01*
X14858579Y-15500000D01*
X14043434Y-14684855D01*
X13805996Y-14756112D01*
X13683813Y-15003344D01*
X13612211Y-15269663D01*
X13593940Y-15544833D01*
X1200000Y-15544833D01*
X1200000Y-12200000D01*
X13597097Y-12200000D01*
X13597097Y-13800000D01*
X13608682Y-13917621D01*
X13642990Y-14030721D01*
X13698704Y-14134955D01*
X13773683Y-14226317D01*
X13865045Y-14301296D01*
X13969279Y-14357010D01*
X14082379Y-14391318D01*
X14200000Y-14402903D01*
X14227029Y-14402903D01*
X14184855Y-14543434D01*
X15000000Y-15358579D01*
X15815145Y-14543434D01*
X15772971Y-14402903D01*
X15800000Y-14402903D01*
X15917621Y-14391318D01*
X16030721Y-14357010D01*
X16134955Y-14301296D01*
X16226317Y-14226317D01*
X16301296Y-14134955D01*
X16357010Y-14030721D01*
X16391318Y-13917621D01*
X16402903Y-13800000D01*
X16402903Y-12200000D01*
X16391318Y-12082379D01*
X16357010Y-11969279D01*
X16301296Y-11865045D01*
X16226317Y-11773683D01*
X16134955Y-11698704D01*
X16030721Y-11642990D01*
X15917621Y-11608682D01*
X15800000Y-11597097D01*
X14200000Y-11597097D01*
X14082379Y-11608682D01*
X13969279Y-11642990D01*
X13865045Y-11698704D01*
X13773683Y-11773683D01*
X13698704Y-11865045D01*
X13642990Y-11969279D01*
X13608682Y-12082379D01*
X13597097Y-12200000D01*
X1200000Y-12200000D01*
X1200000Y-11543168D01*
X22900000Y-11543168D01*
X22900000Y-11956832D01*
X22980702Y-12362547D01*
X23139004Y-12744723D01*
X23368823Y-13088672D01*
X23661328Y-13381177D01*
X24005277Y-13610996D01*
X24387453Y-13769298D01*
X24793168Y-13850000D01*
X25206832Y-13850000D01*
X25612547Y-13769298D01*
X25994723Y-13610996D01*
X26338672Y-13381177D01*
X26631177Y-13088672D01*
X26860996Y-12744723D01*
X27019298Y-12362547D01*
X27100000Y-11956832D01*
X27100000Y-11543168D01*
X27019298Y-11137453D01*
X26897220Y-10842730D01*
X27039950Y-10700000D01*
X64710051Y-10700000D01*
X64800001Y-10789951D01*
X64800000Y-15485786D01*
X64723249Y-15562537D01*
X64613811Y-15726322D01*
X64538429Y-15908311D01*
X64500000Y-16101509D01*
X64500000Y-16298491D01*
X64538429Y-16491689D01*
X64613811Y-16673678D01*
X64723249Y-16837463D01*
X64862537Y-16976751D01*
X65026322Y-17086189D01*
X65208311Y-17161571D01*
X65401509Y-17200000D01*
X65598491Y-17200000D01*
X65791689Y-17161571D01*
X65973678Y-17086189D01*
X66137463Y-16976751D01*
X66276751Y-16837463D01*
X66386189Y-16673678D01*
X66461571Y-16491689D01*
X66500000Y-16298491D01*
X66500000Y-16101509D01*
X66461571Y-15908311D01*
X66386189Y-15726322D01*
X66276751Y-15562537D01*
X66200000Y-15485786D01*
X66200000Y-10534387D01*
X66203387Y-10500000D01*
X66200000Y-10465610D01*
X66189872Y-10362776D01*
X66149845Y-10230825D01*
X66084845Y-10109219D01*
X65997370Y-10002630D01*
X65970658Y-9980708D01*
X65519296Y-9529346D01*
X65497370Y-9502630D01*
X65390781Y-9415155D01*
X65269175Y-9350155D01*
X65137224Y-9310128D01*
X65034390Y-9300000D01*
X65034387Y-9300000D01*
X65000000Y-9296613D01*
X64965613Y-9300000D01*
X26784387Y-9300000D01*
X26750000Y-9296613D01*
X26715613Y-9300000D01*
X26715610Y-9300000D01*
X26612776Y-9310128D01*
X26480825Y-9350155D01*
X26359219Y-9415155D01*
X26252630Y-9502630D01*
X26230708Y-9529342D01*
X25907270Y-9852780D01*
X25612547Y-9730702D01*
X25206832Y-9650000D01*
X24793168Y-9650000D01*
X24387453Y-9730702D01*
X24005277Y-9889004D01*
X23661328Y-10118823D01*
X23368823Y-10411328D01*
X23139004Y-10755277D01*
X22980702Y-11137453D01*
X22900000Y-11543168D01*
X1200000Y-11543168D01*
X1200000Y-7232690D01*
X1582297Y-7804837D01*
X2195163Y-8417703D01*
X2915818Y-8899230D01*
X3716567Y-9230911D01*
X4566638Y-9400000D01*
X5433362Y-9400000D01*
X6283433Y-9230911D01*
X7084182Y-8899230D01*
X7804837Y-8417703D01*
X8417703Y-7804837D01*
X8899230Y-7084182D01*
X9230911Y-6283433D01*
X9400000Y-5433362D01*
X9400000Y-4566638D01*
X9230911Y-3716567D01*
X8899230Y-2915818D01*
X8417703Y-2195163D01*
X7804837Y-1582297D01*
X7232690Y-1200000D01*
X72600000Y-1200000D01*
X72600000Y-2555961D01*
G36*
X123800000Y-27800000D02*
G01*
X82200000Y-27800000D01*
X82200000Y-25200000D01*
X83197097Y-25200000D01*
X83208682Y-25317621D01*
X83242990Y-25430721D01*
X83298704Y-25534955D01*
X83373683Y-25626317D01*
X83465045Y-25701296D01*
X83569279Y-25757010D01*
X83682379Y-25791318D01*
X83800000Y-25802903D01*
X84750000Y-25800000D01*
X84900000Y-25650000D01*
X84900000Y-24100000D01*
X85100000Y-24100000D01*
X85100000Y-25650000D01*
X85250000Y-25800000D01*
X86200000Y-25802903D01*
X86317621Y-25791318D01*
X86430721Y-25757010D01*
X86534955Y-25701296D01*
X86626317Y-25626317D01*
X86701296Y-25534955D01*
X86757010Y-25430721D01*
X86791318Y-25317621D01*
X86802903Y-25200000D01*
X101197097Y-25200000D01*
X101208682Y-25317621D01*
X101242990Y-25430721D01*
X101298704Y-25534955D01*
X101373683Y-25626317D01*
X101465045Y-25701296D01*
X101569279Y-25757010D01*
X101682379Y-25791318D01*
X101800000Y-25802903D01*
X102750000Y-25800000D01*
X102900000Y-25650000D01*
X102900000Y-24100000D01*
X103100000Y-24100000D01*
X103100000Y-25650000D01*
X103250000Y-25800000D01*
X104200000Y-25802903D01*
X104317621Y-25791318D01*
X104430721Y-25757010D01*
X104534955Y-25701296D01*
X104626317Y-25626317D01*
X104701296Y-25534955D01*
X104757010Y-25430721D01*
X104791318Y-25317621D01*
X104802903Y-25200000D01*
X119197097Y-25200000D01*
X119208682Y-25317621D01*
X119242990Y-25430721D01*
X119298704Y-25534955D01*
X119373683Y-25626317D01*
X119465045Y-25701296D01*
X119569279Y-25757010D01*
X119682379Y-25791318D01*
X119800000Y-25802903D01*
X120750000Y-25800000D01*
X120900000Y-25650000D01*
X120900000Y-24100000D01*
X121100000Y-24100000D01*
X121100000Y-25650000D01*
X121250000Y-25800000D01*
X122200000Y-25802903D01*
X122317621Y-25791318D01*
X122430721Y-25757010D01*
X122534955Y-25701296D01*
X122626317Y-25626317D01*
X122701296Y-25534955D01*
X122757010Y-25430721D01*
X122791318Y-25317621D01*
X122802903Y-25200000D01*
X122800000Y-24250000D01*
X122650000Y-24100000D01*
X121100000Y-24100000D01*
X120900000Y-24100000D01*
X119350000Y-24100000D01*
X119200000Y-24250000D01*
X119197097Y-25200000D01*
X104802903Y-25200000D01*
X104800000Y-24250000D01*
X104650000Y-24100000D01*
X103100000Y-24100000D01*
X102900000Y-24100000D01*
X101350000Y-24100000D01*
X101200000Y-24250000D01*
X101197097Y-25200000D01*
X86802903Y-25200000D01*
X86800000Y-24250000D01*
X86650000Y-24100000D01*
X85100000Y-24100000D01*
X84900000Y-24100000D01*
X83350000Y-24100000D01*
X83200000Y-24250000D01*
X83197097Y-25200000D01*
X82200000Y-25200000D01*
X82200000Y-22800000D01*
X83197097Y-22800000D01*
X83200000Y-23750000D01*
X83350000Y-23900000D01*
X84900000Y-23900000D01*
X84900000Y-22350000D01*
X85100000Y-22350000D01*
X85100000Y-23900000D01*
X86650000Y-23900000D01*
X86800000Y-23750000D01*
X86802903Y-22800000D01*
X101197097Y-22800000D01*
X101200000Y-23750000D01*
X101350000Y-23900000D01*
X102900000Y-23900000D01*
X102900000Y-22350000D01*
X103100000Y-22350000D01*
X103100000Y-23900000D01*
X104650000Y-23900000D01*
X104800000Y-23750000D01*
X104802903Y-22800000D01*
X119197097Y-22800000D01*
X119200000Y-23750000D01*
X119350000Y-23900000D01*
X120900000Y-23900000D01*
X120900000Y-22350000D01*
X121100000Y-22350000D01*
X121100000Y-23900000D01*
X122650000Y-23900000D01*
X122800000Y-23750000D01*
X122802903Y-22800000D01*
X122791318Y-22682379D01*
X122757010Y-22569279D01*
X122701296Y-22465045D01*
X122626317Y-22373683D01*
X122534955Y-22298704D01*
X122430721Y-22242990D01*
X122317621Y-22208682D01*
X122200000Y-22197097D01*
X121250000Y-22200000D01*
X121100000Y-22350000D01*
X120900000Y-22350000D01*
X120750000Y-22200000D01*
X119800000Y-22197097D01*
X119682379Y-22208682D01*
X119569279Y-22242990D01*
X119465045Y-22298704D01*
X119373683Y-22373683D01*
X119298704Y-22465045D01*
X119242990Y-22569279D01*
X119208682Y-22682379D01*
X119197097Y-22800000D01*
X104802903Y-22800000D01*
X104791318Y-22682379D01*
X104757010Y-22569279D01*
X104701296Y-22465045D01*
X104626317Y-22373683D01*
X104534955Y-22298704D01*
X104430721Y-22242990D01*
X104317621Y-22208682D01*
X104200000Y-22197097D01*
X103250000Y-22200000D01*
X103100000Y-22350000D01*
X102900000Y-22350000D01*
X102750000Y-22200000D01*
X101800000Y-22197097D01*
X101682379Y-22208682D01*
X101569279Y-22242990D01*
X101465045Y-22298704D01*
X101373683Y-22373683D01*
X101298704Y-22465045D01*
X101242990Y-22569279D01*
X101208682Y-22682379D01*
X101197097Y-22800000D01*
X86802903Y-22800000D01*
X86791318Y-22682379D01*
X86757010Y-22569279D01*
X86701296Y-22465045D01*
X86626317Y-22373683D01*
X86534955Y-22298704D01*
X86430721Y-22242990D01*
X86317621Y-22208682D01*
X86200000Y-22197097D01*
X85250000Y-22200000D01*
X85100000Y-22350000D01*
X84900000Y-22350000D01*
X84750000Y-22200000D01*
X83800000Y-22197097D01*
X83682379Y-22208682D01*
X83569279Y-22242990D01*
X83465045Y-22298704D01*
X83373683Y-22373683D01*
X83298704Y-22465045D01*
X83242990Y-22569279D01*
X83208682Y-22682379D01*
X83197097Y-22800000D01*
X82200000Y-22800000D01*
X82200000Y-14741462D01*
X83899960Y-14741462D01*
X84019396Y-15019816D01*
X84334739Y-15181919D01*
X84675649Y-15279388D01*
X85029022Y-15308475D01*
X85381280Y-15268064D01*
X85718886Y-15159708D01*
X85980604Y-15019816D01*
X86100040Y-14741462D01*
X101899960Y-14741462D01*
X102019396Y-15019816D01*
X102334739Y-15181919D01*
X102675649Y-15279388D01*
X103029022Y-15308475D01*
X103381280Y-15268064D01*
X103718886Y-15159708D01*
X103980604Y-15019816D01*
X104100040Y-14741462D01*
X119899960Y-14741462D01*
X120019396Y-15019816D01*
X120334739Y-15181919D01*
X120675649Y-15279388D01*
X121029022Y-15308475D01*
X121381280Y-15268064D01*
X121718886Y-15159708D01*
X121980604Y-15019816D01*
X122100040Y-14741462D01*
X121000000Y-13641421D01*
X119899960Y-14741462D01*
X104100040Y-14741462D01*
X103000000Y-13641421D01*
X101899960Y-14741462D01*
X86100040Y-14741462D01*
X85000000Y-13641421D01*
X83899960Y-14741462D01*
X82200000Y-14741462D01*
X82200000Y-13529022D01*
X83191525Y-13529022D01*
X83231936Y-13881280D01*
X83340292Y-14218886D01*
X83480184Y-14480604D01*
X83758538Y-14600040D01*
X84858579Y-13500000D01*
X85141421Y-13500000D01*
X86241462Y-14600040D01*
X86519816Y-14480604D01*
X86681919Y-14165261D01*
X86779388Y-13824351D01*
X86803697Y-13529022D01*
X101191525Y-13529022D01*
X101231936Y-13881280D01*
X101340292Y-14218886D01*
X101480184Y-14480604D01*
X101758538Y-14600040D01*
X102858579Y-13500000D01*
X103141421Y-13500000D01*
X104241462Y-14600040D01*
X104519816Y-14480604D01*
X104681919Y-14165261D01*
X104779388Y-13824351D01*
X104803697Y-13529022D01*
X119191525Y-13529022D01*
X119231936Y-13881280D01*
X119340292Y-14218886D01*
X119480184Y-14480604D01*
X119758538Y-14600040D01*
X120858579Y-13500000D01*
X121141421Y-13500000D01*
X122241462Y-14600040D01*
X122519816Y-14480604D01*
X122681919Y-14165261D01*
X122779388Y-13824351D01*
X122808475Y-13470978D01*
X122768064Y-13118720D01*
X122659708Y-12781114D01*
X122519816Y-12519396D01*
X122241462Y-12399960D01*
X121141421Y-13500000D01*
X120858579Y-13500000D01*
X119758538Y-12399960D01*
X119480184Y-12519396D01*
X119318081Y-12834739D01*
X119220612Y-13175649D01*
X119191525Y-13529022D01*
X104803697Y-13529022D01*
X104808475Y-13470978D01*
X104768064Y-13118720D01*
X104659708Y-12781114D01*
X104519816Y-12519396D01*
X104241462Y-12399960D01*
X103141421Y-13500000D01*
X102858579Y-13500000D01*
X101758538Y-12399960D01*
X101480184Y-12519396D01*
X101318081Y-12834739D01*
X101220612Y-13175649D01*
X101191525Y-13529022D01*
X86803697Y-13529022D01*
X86808475Y-13470978D01*
X86768064Y-13118720D01*
X86659708Y-12781114D01*
X86519816Y-12519396D01*
X86241462Y-12399960D01*
X85141421Y-13500000D01*
X84858579Y-13500000D01*
X83758538Y-12399960D01*
X83480184Y-12519396D01*
X83318081Y-12834739D01*
X83220612Y-13175649D01*
X83191525Y-13529022D01*
X82200000Y-13529022D01*
X82200000Y-12258538D01*
X83899960Y-12258538D01*
X85000000Y-13358579D01*
X86100040Y-12258538D01*
X101899960Y-12258538D01*
X103000000Y-13358579D01*
X104100040Y-12258538D01*
X119899960Y-12258538D01*
X121000000Y-13358579D01*
X122100040Y-12258538D01*
X121980604Y-11980184D01*
X121665261Y-11818081D01*
X121324351Y-11720612D01*
X120970978Y-11691525D01*
X120618720Y-11731936D01*
X120281114Y-11840292D01*
X120019396Y-11980184D01*
X119899960Y-12258538D01*
X104100040Y-12258538D01*
X103980604Y-11980184D01*
X103665261Y-11818081D01*
X103324351Y-11720612D01*
X102970978Y-11691525D01*
X102618720Y-11731936D01*
X102281114Y-11840292D01*
X102019396Y-11980184D01*
X101899960Y-12258538D01*
X86100040Y-12258538D01*
X85980604Y-11980184D01*
X85665261Y-11818081D01*
X85324351Y-11720612D01*
X84970978Y-11691525D01*
X84618720Y-11731936D01*
X84281114Y-11840292D01*
X84019396Y-11980184D01*
X83899960Y-12258538D01*
X82200000Y-12258538D01*
X82200000Y-10600000D01*
X123800000Y-10600000D01*
X123800000Y-27800000D01*
G37*
X123800000Y-27800000D02*
X82200000Y-27800000D01*
X82200000Y-25200000D01*
X83197097Y-25200000D01*
X83208682Y-25317621D01*
X83242990Y-25430721D01*
X83298704Y-25534955D01*
X83373683Y-25626317D01*
X83465045Y-25701296D01*
X83569279Y-25757010D01*
X83682379Y-25791318D01*
X83800000Y-25802903D01*
X84750000Y-25800000D01*
X84900000Y-25650000D01*
X84900000Y-24100000D01*
X85100000Y-24100000D01*
X85100000Y-25650000D01*
X85250000Y-25800000D01*
X86200000Y-25802903D01*
X86317621Y-25791318D01*
X86430721Y-25757010D01*
X86534955Y-25701296D01*
X86626317Y-25626317D01*
X86701296Y-25534955D01*
X86757010Y-25430721D01*
X86791318Y-25317621D01*
X86802903Y-25200000D01*
X101197097Y-25200000D01*
X101208682Y-25317621D01*
X101242990Y-25430721D01*
X101298704Y-25534955D01*
X101373683Y-25626317D01*
X101465045Y-25701296D01*
X101569279Y-25757010D01*
X101682379Y-25791318D01*
X101800000Y-25802903D01*
X102750000Y-25800000D01*
X102900000Y-25650000D01*
X102900000Y-24100000D01*
X103100000Y-24100000D01*
X103100000Y-25650000D01*
X103250000Y-25800000D01*
X104200000Y-25802903D01*
X104317621Y-25791318D01*
X104430721Y-25757010D01*
X104534955Y-25701296D01*
X104626317Y-25626317D01*
X104701296Y-25534955D01*
X104757010Y-25430721D01*
X104791318Y-25317621D01*
X104802903Y-25200000D01*
X119197097Y-25200000D01*
X119208682Y-25317621D01*
X119242990Y-25430721D01*
X119298704Y-25534955D01*
X119373683Y-25626317D01*
X119465045Y-25701296D01*
X119569279Y-25757010D01*
X119682379Y-25791318D01*
X119800000Y-25802903D01*
X120750000Y-25800000D01*
X120900000Y-25650000D01*
X120900000Y-24100000D01*
X121100000Y-24100000D01*
X121100000Y-25650000D01*
X121250000Y-25800000D01*
X122200000Y-25802903D01*
X122317621Y-25791318D01*
X122430721Y-25757010D01*
X122534955Y-25701296D01*
X122626317Y-25626317D01*
X122701296Y-25534955D01*
X122757010Y-25430721D01*
X122791318Y-25317621D01*
X122802903Y-25200000D01*
X122800000Y-24250000D01*
X122650000Y-24100000D01*
X121100000Y-24100000D01*
X120900000Y-24100000D01*
X119350000Y-24100000D01*
X119200000Y-24250000D01*
X119197097Y-25200000D01*
X104802903Y-25200000D01*
X104800000Y-24250000D01*
X104650000Y-24100000D01*
X103100000Y-24100000D01*
X102900000Y-24100000D01*
X101350000Y-24100000D01*
X101200000Y-24250000D01*
X101197097Y-25200000D01*
X86802903Y-25200000D01*
X86800000Y-24250000D01*
X86650000Y-24100000D01*
X85100000Y-24100000D01*
X84900000Y-24100000D01*
X83350000Y-24100000D01*
X83200000Y-24250000D01*
X83197097Y-25200000D01*
X82200000Y-25200000D01*
X82200000Y-22800000D01*
X83197097Y-22800000D01*
X83200000Y-23750000D01*
X83350000Y-23900000D01*
X84900000Y-23900000D01*
X84900000Y-22350000D01*
X85100000Y-22350000D01*
X85100000Y-23900000D01*
X86650000Y-23900000D01*
X86800000Y-23750000D01*
X86802903Y-22800000D01*
X101197097Y-22800000D01*
X101200000Y-23750000D01*
X101350000Y-23900000D01*
X102900000Y-23900000D01*
X102900000Y-22350000D01*
X103100000Y-22350000D01*
X103100000Y-23900000D01*
X104650000Y-23900000D01*
X104800000Y-23750000D01*
X104802903Y-22800000D01*
X119197097Y-22800000D01*
X119200000Y-23750000D01*
X119350000Y-23900000D01*
X120900000Y-23900000D01*
X120900000Y-22350000D01*
X121100000Y-22350000D01*
X121100000Y-23900000D01*
X122650000Y-23900000D01*
X122800000Y-23750000D01*
X122802903Y-22800000D01*
X122791318Y-22682379D01*
X122757010Y-22569279D01*
X122701296Y-22465045D01*
X122626317Y-22373683D01*
X122534955Y-22298704D01*
X122430721Y-22242990D01*
X122317621Y-22208682D01*
X122200000Y-22197097D01*
X121250000Y-22200000D01*
X121100000Y-22350000D01*
X120900000Y-22350000D01*
X120750000Y-22200000D01*
X119800000Y-22197097D01*
X119682379Y-22208682D01*
X119569279Y-22242990D01*
X119465045Y-22298704D01*
X119373683Y-22373683D01*
X119298704Y-22465045D01*
X119242990Y-22569279D01*
X119208682Y-22682379D01*
X119197097Y-22800000D01*
X104802903Y-22800000D01*
X104791318Y-22682379D01*
X104757010Y-22569279D01*
X104701296Y-22465045D01*
X104626317Y-22373683D01*
X104534955Y-22298704D01*
X104430721Y-22242990D01*
X104317621Y-22208682D01*
X104200000Y-22197097D01*
X103250000Y-22200000D01*
X103100000Y-22350000D01*
X102900000Y-22350000D01*
X102750000Y-22200000D01*
X101800000Y-22197097D01*
X101682379Y-22208682D01*
X101569279Y-22242990D01*
X101465045Y-22298704D01*
X101373683Y-22373683D01*
X101298704Y-22465045D01*
X101242990Y-22569279D01*
X101208682Y-22682379D01*
X101197097Y-22800000D01*
X86802903Y-22800000D01*
X86791318Y-22682379D01*
X86757010Y-22569279D01*
X86701296Y-22465045D01*
X86626317Y-22373683D01*
X86534955Y-22298704D01*
X86430721Y-22242990D01*
X86317621Y-22208682D01*
X86200000Y-22197097D01*
X85250000Y-22200000D01*
X85100000Y-22350000D01*
X84900000Y-22350000D01*
X84750000Y-22200000D01*
X83800000Y-22197097D01*
X83682379Y-22208682D01*
X83569279Y-22242990D01*
X83465045Y-22298704D01*
X83373683Y-22373683D01*
X83298704Y-22465045D01*
X83242990Y-22569279D01*
X83208682Y-22682379D01*
X83197097Y-22800000D01*
X82200000Y-22800000D01*
X82200000Y-14741462D01*
X83899960Y-14741462D01*
X84019396Y-15019816D01*
X84334739Y-15181919D01*
X84675649Y-15279388D01*
X85029022Y-15308475D01*
X85381280Y-15268064D01*
X85718886Y-15159708D01*
X85980604Y-15019816D01*
X86100040Y-14741462D01*
X101899960Y-14741462D01*
X102019396Y-15019816D01*
X102334739Y-15181919D01*
X102675649Y-15279388D01*
X103029022Y-15308475D01*
X103381280Y-15268064D01*
X103718886Y-15159708D01*
X103980604Y-15019816D01*
X104100040Y-14741462D01*
X119899960Y-14741462D01*
X120019396Y-15019816D01*
X120334739Y-15181919D01*
X120675649Y-15279388D01*
X121029022Y-15308475D01*
X121381280Y-15268064D01*
X121718886Y-15159708D01*
X121980604Y-15019816D01*
X122100040Y-14741462D01*
X121000000Y-13641421D01*
X119899960Y-14741462D01*
X104100040Y-14741462D01*
X103000000Y-13641421D01*
X101899960Y-14741462D01*
X86100040Y-14741462D01*
X85000000Y-13641421D01*
X83899960Y-14741462D01*
X82200000Y-14741462D01*
X82200000Y-13529022D01*
X83191525Y-13529022D01*
X83231936Y-13881280D01*
X83340292Y-14218886D01*
X83480184Y-14480604D01*
X83758538Y-14600040D01*
X84858579Y-13500000D01*
X85141421Y-13500000D01*
X86241462Y-14600040D01*
X86519816Y-14480604D01*
X86681919Y-14165261D01*
X86779388Y-13824351D01*
X86803697Y-13529022D01*
X101191525Y-13529022D01*
X101231936Y-13881280D01*
X101340292Y-14218886D01*
X101480184Y-14480604D01*
X101758538Y-14600040D01*
X102858579Y-13500000D01*
X103141421Y-13500000D01*
X104241462Y-14600040D01*
X104519816Y-14480604D01*
X104681919Y-14165261D01*
X104779388Y-13824351D01*
X104803697Y-13529022D01*
X119191525Y-13529022D01*
X119231936Y-13881280D01*
X119340292Y-14218886D01*
X119480184Y-14480604D01*
X119758538Y-14600040D01*
X120858579Y-13500000D01*
X121141421Y-13500000D01*
X122241462Y-14600040D01*
X122519816Y-14480604D01*
X122681919Y-14165261D01*
X122779388Y-13824351D01*
X122808475Y-13470978D01*
X122768064Y-13118720D01*
X122659708Y-12781114D01*
X122519816Y-12519396D01*
X122241462Y-12399960D01*
X121141421Y-13500000D01*
X120858579Y-13500000D01*
X119758538Y-12399960D01*
X119480184Y-12519396D01*
X119318081Y-12834739D01*
X119220612Y-13175649D01*
X119191525Y-13529022D01*
X104803697Y-13529022D01*
X104808475Y-13470978D01*
X104768064Y-13118720D01*
X104659708Y-12781114D01*
X104519816Y-12519396D01*
X104241462Y-12399960D01*
X103141421Y-13500000D01*
X102858579Y-13500000D01*
X101758538Y-12399960D01*
X101480184Y-12519396D01*
X101318081Y-12834739D01*
X101220612Y-13175649D01*
X101191525Y-13529022D01*
X86803697Y-13529022D01*
X86808475Y-13470978D01*
X86768064Y-13118720D01*
X86659708Y-12781114D01*
X86519816Y-12519396D01*
X86241462Y-12399960D01*
X85141421Y-13500000D01*
X84858579Y-13500000D01*
X83758538Y-12399960D01*
X83480184Y-12519396D01*
X83318081Y-12834739D01*
X83220612Y-13175649D01*
X83191525Y-13529022D01*
X82200000Y-13529022D01*
X82200000Y-12258538D01*
X83899960Y-12258538D01*
X85000000Y-13358579D01*
X86100040Y-12258538D01*
X101899960Y-12258538D01*
X103000000Y-13358579D01*
X104100040Y-12258538D01*
X119899960Y-12258538D01*
X121000000Y-13358579D01*
X122100040Y-12258538D01*
X121980604Y-11980184D01*
X121665261Y-11818081D01*
X121324351Y-11720612D01*
X120970978Y-11691525D01*
X120618720Y-11731936D01*
X120281114Y-11840292D01*
X120019396Y-11980184D01*
X119899960Y-12258538D01*
X104100040Y-12258538D01*
X103980604Y-11980184D01*
X103665261Y-11818081D01*
X103324351Y-11720612D01*
X102970978Y-11691525D01*
X102618720Y-11731936D01*
X102281114Y-11840292D01*
X102019396Y-11980184D01*
X101899960Y-12258538D01*
X86100040Y-12258538D01*
X85980604Y-11980184D01*
X85665261Y-11818081D01*
X85324351Y-11720612D01*
X84970978Y-11691525D01*
X84618720Y-11731936D01*
X84281114Y-11840292D01*
X84019396Y-11980184D01*
X83899960Y-12258538D01*
X82200000Y-12258538D01*
X82200000Y-10600000D01*
X123800000Y-10600000D01*
X123800000Y-27800000D01*
G36*
X123800000Y-9800000D02*
G01*
X73400000Y-9800000D01*
X73400000Y-7200000D01*
X83197097Y-7200000D01*
X83208682Y-7317621D01*
X83242990Y-7430721D01*
X83298704Y-7534955D01*
X83373683Y-7626317D01*
X83465045Y-7701296D01*
X83569279Y-7757010D01*
X83682379Y-7791318D01*
X83800000Y-7802903D01*
X84750000Y-7800000D01*
X84900000Y-7650000D01*
X84900000Y-6100000D01*
X85100000Y-6100000D01*
X85100000Y-7650000D01*
X85250000Y-7800000D01*
X86200000Y-7802903D01*
X86317621Y-7791318D01*
X86430721Y-7757010D01*
X86534955Y-7701296D01*
X86626317Y-7626317D01*
X86701296Y-7534955D01*
X86757010Y-7430721D01*
X86791318Y-7317621D01*
X86802903Y-7200000D01*
X101197097Y-7200000D01*
X101208682Y-7317621D01*
X101242990Y-7430721D01*
X101298704Y-7534955D01*
X101373683Y-7626317D01*
X101465045Y-7701296D01*
X101569279Y-7757010D01*
X101682379Y-7791318D01*
X101800000Y-7802903D01*
X102750000Y-7800000D01*
X102900000Y-7650000D01*
X102900000Y-6100000D01*
X103100000Y-6100000D01*
X103100000Y-7650000D01*
X103250000Y-7800000D01*
X104200000Y-7802903D01*
X104317621Y-7791318D01*
X104430721Y-7757010D01*
X104534955Y-7701296D01*
X104626317Y-7626317D01*
X104701296Y-7534955D01*
X104757010Y-7430721D01*
X104791318Y-7317621D01*
X104802903Y-7200000D01*
X119197097Y-7200000D01*
X119208682Y-7317621D01*
X119242990Y-7430721D01*
X119298704Y-7534955D01*
X119373683Y-7626317D01*
X119465045Y-7701296D01*
X119569279Y-7757010D01*
X119682379Y-7791318D01*
X119800000Y-7802903D01*
X120750000Y-7800000D01*
X120900000Y-7650000D01*
X120900000Y-6100000D01*
X121100000Y-6100000D01*
X121100000Y-7650000D01*
X121250000Y-7800000D01*
X122200000Y-7802903D01*
X122317621Y-7791318D01*
X122430721Y-7757010D01*
X122534955Y-7701296D01*
X122626317Y-7626317D01*
X122701296Y-7534955D01*
X122757010Y-7430721D01*
X122791318Y-7317621D01*
X122802903Y-7200000D01*
X122800000Y-6250000D01*
X122650000Y-6100000D01*
X121100000Y-6100000D01*
X120900000Y-6100000D01*
X119350000Y-6100000D01*
X119200000Y-6250000D01*
X119197097Y-7200000D01*
X104802903Y-7200000D01*
X104800000Y-6250000D01*
X104650000Y-6100000D01*
X103100000Y-6100000D01*
X102900000Y-6100000D01*
X101350000Y-6100000D01*
X101200000Y-6250000D01*
X101197097Y-7200000D01*
X86802903Y-7200000D01*
X86800000Y-6250000D01*
X86650000Y-6100000D01*
X85100000Y-6100000D01*
X84900000Y-6100000D01*
X83350000Y-6100000D01*
X83200000Y-6250000D01*
X83197097Y-7200000D01*
X73400000Y-7200000D01*
X73400000Y-5205409D01*
X73430639Y-5229064D01*
X73685201Y-5355543D01*
X73874941Y-5413095D01*
X74100000Y-5296148D01*
X74100000Y-4100000D01*
X74300000Y-4100000D01*
X74300000Y-5296148D01*
X74525059Y-5413095D01*
X74714799Y-5355543D01*
X74969361Y-5229064D01*
X75194356Y-5055353D01*
X75381139Y-4841085D01*
X75404696Y-4800000D01*
X83197097Y-4800000D01*
X83200000Y-5750000D01*
X83350000Y-5900000D01*
X84900000Y-5900000D01*
X84900000Y-4350000D01*
X85100000Y-4350000D01*
X85100000Y-5900000D01*
X86650000Y-5900000D01*
X86800000Y-5750000D01*
X86802903Y-4800000D01*
X101197097Y-4800000D01*
X101200000Y-5750000D01*
X101350000Y-5900000D01*
X102900000Y-5900000D01*
X102900000Y-4350000D01*
X103100000Y-4350000D01*
X103100000Y-5900000D01*
X104650000Y-5900000D01*
X104800000Y-5750000D01*
X104802903Y-4800000D01*
X119197097Y-4800000D01*
X119200000Y-5750000D01*
X119350000Y-5900000D01*
X120900000Y-5900000D01*
X120900000Y-4350000D01*
X121100000Y-4350000D01*
X121100000Y-5900000D01*
X122650000Y-5900000D01*
X122800000Y-5750000D01*
X122802903Y-4800000D01*
X122791318Y-4682379D01*
X122757010Y-4569279D01*
X122701296Y-4465045D01*
X122626317Y-4373683D01*
X122534955Y-4298704D01*
X122430721Y-4242990D01*
X122317621Y-4208682D01*
X122200000Y-4197097D01*
X121250000Y-4200000D01*
X121100000Y-4350000D01*
X120900000Y-4350000D01*
X120750000Y-4200000D01*
X119800000Y-4197097D01*
X119682379Y-4208682D01*
X119569279Y-4242990D01*
X119465045Y-4298704D01*
X119373683Y-4373683D01*
X119298704Y-4465045D01*
X119242990Y-4569279D01*
X119208682Y-4682379D01*
X119197097Y-4800000D01*
X104802903Y-4800000D01*
X104791318Y-4682379D01*
X104757010Y-4569279D01*
X104701296Y-4465045D01*
X104626317Y-4373683D01*
X104534955Y-4298704D01*
X104430721Y-4242990D01*
X104317621Y-4208682D01*
X104200000Y-4197097D01*
X103250000Y-4200000D01*
X103100000Y-4350000D01*
X102900000Y-4350000D01*
X102750000Y-4200000D01*
X101800000Y-4197097D01*
X101682379Y-4208682D01*
X101569279Y-4242990D01*
X101465045Y-4298704D01*
X101373683Y-4373683D01*
X101298704Y-4465045D01*
X101242990Y-4569279D01*
X101208682Y-4682379D01*
X101197097Y-4800000D01*
X86802903Y-4800000D01*
X86791318Y-4682379D01*
X86757010Y-4569279D01*
X86701296Y-4465045D01*
X86626317Y-4373683D01*
X86534955Y-4298704D01*
X86430721Y-4242990D01*
X86317621Y-4208682D01*
X86200000Y-4197097D01*
X85250000Y-4200000D01*
X85100000Y-4350000D01*
X84900000Y-4350000D01*
X84750000Y-4200000D01*
X83800000Y-4197097D01*
X83682379Y-4208682D01*
X83569279Y-4242990D01*
X83465045Y-4298704D01*
X83373683Y-4373683D01*
X83298704Y-4465045D01*
X83242990Y-4569279D01*
X83208682Y-4682379D01*
X83197097Y-4800000D01*
X75404696Y-4800000D01*
X75522531Y-4594495D01*
X75613099Y-4325059D01*
X75496552Y-4100000D01*
X74300000Y-4100000D01*
X74100000Y-4100000D01*
X74080000Y-4100000D01*
X74080000Y-3900000D01*
X74100000Y-3900000D01*
X74100000Y-2703852D01*
X74300000Y-2703852D01*
X74300000Y-3900000D01*
X75496552Y-3900000D01*
X75613099Y-3674941D01*
X75522531Y-3405505D01*
X75381139Y-3158915D01*
X75194356Y-2944647D01*
X74969361Y-2770936D01*
X74714799Y-2644457D01*
X74525059Y-2586905D01*
X74300000Y-2703852D01*
X74100000Y-2703852D01*
X73874941Y-2586905D01*
X73685201Y-2644457D01*
X73430639Y-2770936D01*
X73400000Y-2794591D01*
X73400000Y-1200000D01*
X123800000Y-1200000D01*
X123800000Y-9800000D01*
G37*
X123800000Y-9800000D02*
X73400000Y-9800000D01*
X73400000Y-7200000D01*
X83197097Y-7200000D01*
X83208682Y-7317621D01*
X83242990Y-7430721D01*
X83298704Y-7534955D01*
X83373683Y-7626317D01*
X83465045Y-7701296D01*
X83569279Y-7757010D01*
X83682379Y-7791318D01*
X83800000Y-7802903D01*
X84750000Y-7800000D01*
X84900000Y-7650000D01*
X84900000Y-6100000D01*
X85100000Y-6100000D01*
X85100000Y-7650000D01*
X85250000Y-7800000D01*
X86200000Y-7802903D01*
X86317621Y-7791318D01*
X86430721Y-7757010D01*
X86534955Y-7701296D01*
X86626317Y-7626317D01*
X86701296Y-7534955D01*
X86757010Y-7430721D01*
X86791318Y-7317621D01*
X86802903Y-7200000D01*
X101197097Y-7200000D01*
X101208682Y-7317621D01*
X101242990Y-7430721D01*
X101298704Y-7534955D01*
X101373683Y-7626317D01*
X101465045Y-7701296D01*
X101569279Y-7757010D01*
X101682379Y-7791318D01*
X101800000Y-7802903D01*
X102750000Y-7800000D01*
X102900000Y-7650000D01*
X102900000Y-6100000D01*
X103100000Y-6100000D01*
X103100000Y-7650000D01*
X103250000Y-7800000D01*
X104200000Y-7802903D01*
X104317621Y-7791318D01*
X104430721Y-7757010D01*
X104534955Y-7701296D01*
X104626317Y-7626317D01*
X104701296Y-7534955D01*
X104757010Y-7430721D01*
X104791318Y-7317621D01*
X104802903Y-7200000D01*
X119197097Y-7200000D01*
X119208682Y-7317621D01*
X119242990Y-7430721D01*
X119298704Y-7534955D01*
X119373683Y-7626317D01*
X119465045Y-7701296D01*
X119569279Y-7757010D01*
X119682379Y-7791318D01*
X119800000Y-7802903D01*
X120750000Y-7800000D01*
X120900000Y-7650000D01*
X120900000Y-6100000D01*
X121100000Y-6100000D01*
X121100000Y-7650000D01*
X121250000Y-7800000D01*
X122200000Y-7802903D01*
X122317621Y-7791318D01*
X122430721Y-7757010D01*
X122534955Y-7701296D01*
X122626317Y-7626317D01*
X122701296Y-7534955D01*
X122757010Y-7430721D01*
X122791318Y-7317621D01*
X122802903Y-7200000D01*
X122800000Y-6250000D01*
X122650000Y-6100000D01*
X121100000Y-6100000D01*
X120900000Y-6100000D01*
X119350000Y-6100000D01*
X119200000Y-6250000D01*
X119197097Y-7200000D01*
X104802903Y-7200000D01*
X104800000Y-6250000D01*
X104650000Y-6100000D01*
X103100000Y-6100000D01*
X102900000Y-6100000D01*
X101350000Y-6100000D01*
X101200000Y-6250000D01*
X101197097Y-7200000D01*
X86802903Y-7200000D01*
X86800000Y-6250000D01*
X86650000Y-6100000D01*
X85100000Y-6100000D01*
X84900000Y-6100000D01*
X83350000Y-6100000D01*
X83200000Y-6250000D01*
X83197097Y-7200000D01*
X73400000Y-7200000D01*
X73400000Y-5205409D01*
X73430639Y-5229064D01*
X73685201Y-5355543D01*
X73874941Y-5413095D01*
X74100000Y-5296148D01*
X74100000Y-4100000D01*
X74300000Y-4100000D01*
X74300000Y-5296148D01*
X74525059Y-5413095D01*
X74714799Y-5355543D01*
X74969361Y-5229064D01*
X75194356Y-5055353D01*
X75381139Y-4841085D01*
X75404696Y-4800000D01*
X83197097Y-4800000D01*
X83200000Y-5750000D01*
X83350000Y-5900000D01*
X84900000Y-5900000D01*
X84900000Y-4350000D01*
X85100000Y-4350000D01*
X85100000Y-5900000D01*
X86650000Y-5900000D01*
X86800000Y-5750000D01*
X86802903Y-4800000D01*
X101197097Y-4800000D01*
X101200000Y-5750000D01*
X101350000Y-5900000D01*
X102900000Y-5900000D01*
X102900000Y-4350000D01*
X103100000Y-4350000D01*
X103100000Y-5900000D01*
X104650000Y-5900000D01*
X104800000Y-5750000D01*
X104802903Y-4800000D01*
X119197097Y-4800000D01*
X119200000Y-5750000D01*
X119350000Y-5900000D01*
X120900000Y-5900000D01*
X120900000Y-4350000D01*
X121100000Y-4350000D01*
X121100000Y-5900000D01*
X122650000Y-5900000D01*
X122800000Y-5750000D01*
X122802903Y-4800000D01*
X122791318Y-4682379D01*
X122757010Y-4569279D01*
X122701296Y-4465045D01*
X122626317Y-4373683D01*
X122534955Y-4298704D01*
X122430721Y-4242990D01*
X122317621Y-4208682D01*
X122200000Y-4197097D01*
X121250000Y-4200000D01*
X121100000Y-4350000D01*
X120900000Y-4350000D01*
X120750000Y-4200000D01*
X119800000Y-4197097D01*
X119682379Y-4208682D01*
X119569279Y-4242990D01*
X119465045Y-4298704D01*
X119373683Y-4373683D01*
X119298704Y-4465045D01*
X119242990Y-4569279D01*
X119208682Y-4682379D01*
X119197097Y-4800000D01*
X104802903Y-4800000D01*
X104791318Y-4682379D01*
X104757010Y-4569279D01*
X104701296Y-4465045D01*
X104626317Y-4373683D01*
X104534955Y-4298704D01*
X104430721Y-4242990D01*
X104317621Y-4208682D01*
X104200000Y-4197097D01*
X103250000Y-4200000D01*
X103100000Y-4350000D01*
X102900000Y-4350000D01*
X102750000Y-4200000D01*
X101800000Y-4197097D01*
X101682379Y-4208682D01*
X101569279Y-4242990D01*
X101465045Y-4298704D01*
X101373683Y-4373683D01*
X101298704Y-4465045D01*
X101242990Y-4569279D01*
X101208682Y-4682379D01*
X101197097Y-4800000D01*
X86802903Y-4800000D01*
X86791318Y-4682379D01*
X86757010Y-4569279D01*
X86701296Y-4465045D01*
X86626317Y-4373683D01*
X86534955Y-4298704D01*
X86430721Y-4242990D01*
X86317621Y-4208682D01*
X86200000Y-4197097D01*
X85250000Y-4200000D01*
X85100000Y-4350000D01*
X84900000Y-4350000D01*
X84750000Y-4200000D01*
X83800000Y-4197097D01*
X83682379Y-4208682D01*
X83569279Y-4242990D01*
X83465045Y-4298704D01*
X83373683Y-4373683D01*
X83298704Y-4465045D01*
X83242990Y-4569279D01*
X83208682Y-4682379D01*
X83197097Y-4800000D01*
X75404696Y-4800000D01*
X75522531Y-4594495D01*
X75613099Y-4325059D01*
X75496552Y-4100000D01*
X74300000Y-4100000D01*
X74100000Y-4100000D01*
X74080000Y-4100000D01*
X74080000Y-3900000D01*
X74100000Y-3900000D01*
X74100000Y-2703852D01*
X74300000Y-2703852D01*
X74300000Y-3900000D01*
X75496552Y-3900000D01*
X75613099Y-3674941D01*
X75522531Y-3405505D01*
X75381139Y-3158915D01*
X75194356Y-2944647D01*
X74969361Y-2770936D01*
X74714799Y-2644457D01*
X74525059Y-2586905D01*
X74300000Y-2703852D01*
X74100000Y-2703852D01*
X73874941Y-2586905D01*
X73685201Y-2644457D01*
X73430639Y-2770936D01*
X73400000Y-2794591D01*
X73400000Y-1200000D01*
X123800000Y-1200000D01*
X123800000Y-9800000D01*
G36*
X29800000Y-36800000D02*
G01*
X1200000Y-36800000D01*
X1200000Y-35650000D01*
X6047097Y-35650000D01*
X6058682Y-35767621D01*
X6092990Y-35880721D01*
X6148704Y-35984955D01*
X6223683Y-36076317D01*
X6315045Y-36151296D01*
X6419279Y-36207010D01*
X6532379Y-36241318D01*
X6650000Y-36252903D01*
X7750000Y-36250000D01*
X7900000Y-36100000D01*
X7900000Y-34100000D01*
X8100000Y-34100000D01*
X8100000Y-36100000D01*
X8250000Y-36250000D01*
X9350000Y-36252903D01*
X9467621Y-36241318D01*
X9580721Y-36207010D01*
X9684955Y-36151296D01*
X9776317Y-36076317D01*
X9851296Y-35984955D01*
X9907010Y-35880721D01*
X9941318Y-35767621D01*
X9947490Y-35704949D01*
X23686472Y-35704949D01*
X23841974Y-36014016D01*
X24208368Y-36206040D01*
X24605183Y-36322896D01*
X25017171Y-36360090D01*
X25428500Y-36316196D01*
X25823361Y-36192898D01*
X26158026Y-36014016D01*
X26313528Y-35704949D01*
X25000000Y-34391421D01*
X23686472Y-35704949D01*
X9947490Y-35704949D01*
X9952903Y-35650000D01*
X9950036Y-34267171D01*
X22889910Y-34267171D01*
X22933804Y-34678500D01*
X23057102Y-35073361D01*
X23235984Y-35408026D01*
X23545051Y-35563528D01*
X24858579Y-34250000D01*
X25141421Y-34250000D01*
X26454949Y-35563528D01*
X26764016Y-35408026D01*
X26956040Y-35041632D01*
X27072896Y-34644817D01*
X27110090Y-34232829D01*
X27066196Y-33821500D01*
X26942898Y-33426639D01*
X26764016Y-33091974D01*
X26454949Y-32936472D01*
X25141421Y-34250000D01*
X24858579Y-34250000D01*
X23545051Y-32936472D01*
X23235984Y-33091974D01*
X23043960Y-33458368D01*
X22927104Y-33855183D01*
X22889910Y-34267171D01*
X9950036Y-34267171D01*
X9950000Y-34250000D01*
X9800000Y-34100000D01*
X8100000Y-34100000D01*
X7900000Y-34100000D01*
X6200000Y-34100000D01*
X6050000Y-34250000D01*
X6047097Y-35650000D01*
X1200000Y-35650000D01*
X1200000Y-32350000D01*
X6047097Y-32350000D01*
X6050000Y-33750000D01*
X6200000Y-33900000D01*
X7900000Y-33900000D01*
X7900000Y-31900000D01*
X8100000Y-31900000D01*
X8100000Y-33900000D01*
X9800000Y-33900000D01*
X9950000Y-33750000D01*
X9951980Y-32795051D01*
X23686472Y-32795051D01*
X25000000Y-34108579D01*
X26313528Y-32795051D01*
X26158026Y-32485984D01*
X25791632Y-32293960D01*
X25394817Y-32177104D01*
X24982829Y-32139910D01*
X24571500Y-32183804D01*
X24176639Y-32307102D01*
X23841974Y-32485984D01*
X23686472Y-32795051D01*
X9951980Y-32795051D01*
X9952903Y-32350000D01*
X9941318Y-32232379D01*
X9907010Y-32119279D01*
X9851296Y-32015045D01*
X9776317Y-31923683D01*
X9684955Y-31848704D01*
X9580721Y-31792990D01*
X9467621Y-31758682D01*
X9350000Y-31747097D01*
X8250000Y-31750000D01*
X8100000Y-31900000D01*
X7900000Y-31900000D01*
X7750000Y-31750000D01*
X6650000Y-31747097D01*
X6532379Y-31758682D01*
X6419279Y-31792990D01*
X6315045Y-31848704D01*
X6223683Y-31923683D01*
X6148704Y-32015045D01*
X6092990Y-32119279D01*
X6058682Y-32232379D01*
X6047097Y-32350000D01*
X1200000Y-32350000D01*
X1200000Y-31200000D01*
X29800000Y-31200000D01*
X29800000Y-36800000D01*
G37*
X29800000Y-36800000D02*
X1200000Y-36800000D01*
X1200000Y-35650000D01*
X6047097Y-35650000D01*
X6058682Y-35767621D01*
X6092990Y-35880721D01*
X6148704Y-35984955D01*
X6223683Y-36076317D01*
X6315045Y-36151296D01*
X6419279Y-36207010D01*
X6532379Y-36241318D01*
X6650000Y-36252903D01*
X7750000Y-36250000D01*
X7900000Y-36100000D01*
X7900000Y-34100000D01*
X8100000Y-34100000D01*
X8100000Y-36100000D01*
X8250000Y-36250000D01*
X9350000Y-36252903D01*
X9467621Y-36241318D01*
X9580721Y-36207010D01*
X9684955Y-36151296D01*
X9776317Y-36076317D01*
X9851296Y-35984955D01*
X9907010Y-35880721D01*
X9941318Y-35767621D01*
X9947490Y-35704949D01*
X23686472Y-35704949D01*
X23841974Y-36014016D01*
X24208368Y-36206040D01*
X24605183Y-36322896D01*
X25017171Y-36360090D01*
X25428500Y-36316196D01*
X25823361Y-36192898D01*
X26158026Y-36014016D01*
X26313528Y-35704949D01*
X25000000Y-34391421D01*
X23686472Y-35704949D01*
X9947490Y-35704949D01*
X9952903Y-35650000D01*
X9950036Y-34267171D01*
X22889910Y-34267171D01*
X22933804Y-34678500D01*
X23057102Y-35073361D01*
X23235984Y-35408026D01*
X23545051Y-35563528D01*
X24858579Y-34250000D01*
X25141421Y-34250000D01*
X26454949Y-35563528D01*
X26764016Y-35408026D01*
X26956040Y-35041632D01*
X27072896Y-34644817D01*
X27110090Y-34232829D01*
X27066196Y-33821500D01*
X26942898Y-33426639D01*
X26764016Y-33091974D01*
X26454949Y-32936472D01*
X25141421Y-34250000D01*
X24858579Y-34250000D01*
X23545051Y-32936472D01*
X23235984Y-33091974D01*
X23043960Y-33458368D01*
X22927104Y-33855183D01*
X22889910Y-34267171D01*
X9950036Y-34267171D01*
X9950000Y-34250000D01*
X9800000Y-34100000D01*
X8100000Y-34100000D01*
X7900000Y-34100000D01*
X6200000Y-34100000D01*
X6050000Y-34250000D01*
X6047097Y-35650000D01*
X1200000Y-35650000D01*
X1200000Y-32350000D01*
X6047097Y-32350000D01*
X6050000Y-33750000D01*
X6200000Y-33900000D01*
X7900000Y-33900000D01*
X7900000Y-31900000D01*
X8100000Y-31900000D01*
X8100000Y-33900000D01*
X9800000Y-33900000D01*
X9950000Y-33750000D01*
X9951980Y-32795051D01*
X23686472Y-32795051D01*
X25000000Y-34108579D01*
X26313528Y-32795051D01*
X26158026Y-32485984D01*
X25791632Y-32293960D01*
X25394817Y-32177104D01*
X24982829Y-32139910D01*
X24571500Y-32183804D01*
X24176639Y-32307102D01*
X23841974Y-32485984D01*
X23686472Y-32795051D01*
X9951980Y-32795051D01*
X9952903Y-32350000D01*
X9941318Y-32232379D01*
X9907010Y-32119279D01*
X9851296Y-32015045D01*
X9776317Y-31923683D01*
X9684955Y-31848704D01*
X9580721Y-31792990D01*
X9467621Y-31758682D01*
X9350000Y-31747097D01*
X8250000Y-31750000D01*
X8100000Y-31900000D01*
X7900000Y-31900000D01*
X7750000Y-31750000D01*
X6650000Y-31747097D01*
X6532379Y-31758682D01*
X6419279Y-31792990D01*
X6315045Y-31848704D01*
X6223683Y-31923683D01*
X6148704Y-32015045D01*
X6092990Y-32119279D01*
X6058682Y-32232379D01*
X6047097Y-32350000D01*
X1200000Y-32350000D01*
X1200000Y-31200000D01*
X29800000Y-31200000D01*
X29800000Y-36800000D01*
G36*
X135800000Y-38000000D02*
G01*
X135803843Y-38039018D01*
X135815224Y-38076537D01*
X135833706Y-38111114D01*
X135858579Y-38141421D01*
X135888886Y-38166294D01*
X135923463Y-38184776D01*
X135960982Y-38196157D01*
X136000000Y-38200000D01*
X138800000Y-38200000D01*
X138800000Y-62767310D01*
X138417703Y-62195163D01*
X137804837Y-61582297D01*
X137084182Y-61100770D01*
X136283433Y-60769089D01*
X135433362Y-60600000D01*
X134566638Y-60600000D01*
X133716567Y-60769089D01*
X132915818Y-61100770D01*
X132195163Y-61582297D01*
X131582297Y-62195163D01*
X131100770Y-62915818D01*
X130769089Y-63716567D01*
X130600000Y-64566638D01*
X130600000Y-65433362D01*
X130769089Y-66283433D01*
X131100770Y-67084182D01*
X131582297Y-67804837D01*
X132195163Y-68417703D01*
X132767310Y-68800000D01*
X7232690Y-68800000D01*
X7804837Y-68417703D01*
X8417703Y-67804837D01*
X8899230Y-67084182D01*
X9230911Y-66283433D01*
X9318634Y-65842414D01*
X10400000Y-65842414D01*
X10400000Y-66157586D01*
X10461487Y-66466703D01*
X10582098Y-66757884D01*
X10757199Y-67019941D01*
X10980059Y-67242801D01*
X11242116Y-67417902D01*
X11533297Y-67538513D01*
X11842414Y-67600000D01*
X12157586Y-67600000D01*
X12466703Y-67538513D01*
X12757884Y-67417902D01*
X13019941Y-67242801D01*
X13242801Y-67019941D01*
X13417902Y-66757884D01*
X13538513Y-66466703D01*
X13600000Y-66157586D01*
X13600000Y-65842414D01*
X13538513Y-65533297D01*
X13417902Y-65242116D01*
X13242801Y-64980059D01*
X13019941Y-64757199D01*
X12757884Y-64582098D01*
X12466703Y-64461487D01*
X12157586Y-64400000D01*
X11842414Y-64400000D01*
X11533297Y-64461487D01*
X11242116Y-64582098D01*
X10980059Y-64757199D01*
X10757199Y-64980059D01*
X10582098Y-65242116D01*
X10461487Y-65533297D01*
X10400000Y-65842414D01*
X9318634Y-65842414D01*
X9400000Y-65433362D01*
X9400000Y-64566638D01*
X9351936Y-64325000D01*
X18748065Y-64325000D01*
X18748065Y-65675000D01*
X18760592Y-65802186D01*
X18797691Y-65924485D01*
X18857936Y-66037196D01*
X18939012Y-66135988D01*
X19037804Y-66217064D01*
X19150515Y-66277309D01*
X19272814Y-66314408D01*
X19400000Y-66326935D01*
X20600000Y-66326935D01*
X20727186Y-66314408D01*
X20849485Y-66277309D01*
X20962196Y-66217064D01*
X21060988Y-66135988D01*
X21142064Y-66037196D01*
X21202309Y-65924485D01*
X21239408Y-65802186D01*
X21240546Y-65790632D01*
X21250242Y-65811532D01*
X21417946Y-66041195D01*
X21627233Y-66233728D01*
X21870060Y-66381732D01*
X22137095Y-66479519D01*
X22223920Y-66498475D01*
X22450000Y-66374038D01*
X22450000Y-65050000D01*
X22430000Y-65050000D01*
X22430000Y-64950000D01*
X22450000Y-64950000D01*
X22450000Y-63625962D01*
X22223920Y-63501525D01*
X22137095Y-63520481D01*
X21870060Y-63618268D01*
X21627233Y-63766272D01*
X21417946Y-63958805D01*
X21250242Y-64188468D01*
X21240546Y-64209368D01*
X21239408Y-64197814D01*
X21202309Y-64075515D01*
X21142064Y-63962804D01*
X21060988Y-63864012D01*
X20962196Y-63782936D01*
X20849485Y-63722691D01*
X20727186Y-63685592D01*
X20600000Y-63673065D01*
X19400000Y-63673065D01*
X19272814Y-63685592D01*
X19150515Y-63722691D01*
X19037804Y-63782936D01*
X18939012Y-63864012D01*
X18857936Y-63962804D01*
X18797691Y-64075515D01*
X18760592Y-64197814D01*
X18748065Y-64325000D01*
X9351936Y-64325000D01*
X9230911Y-63716567D01*
X8899230Y-62915818D01*
X8417703Y-62195163D01*
X7804837Y-61582297D01*
X7084182Y-61100770D01*
X6283433Y-60769089D01*
X5433362Y-60600000D01*
X4566638Y-60600000D01*
X3716567Y-60769089D01*
X2915818Y-61100770D01*
X2195163Y-61582297D01*
X1582297Y-62195163D01*
X1200000Y-62767310D01*
X1200000Y-56816080D01*
X3576525Y-56816080D01*
X3579227Y-56829676D01*
X3663040Y-57101289D01*
X3798231Y-57351332D01*
X3979606Y-57570196D01*
X4200194Y-57749470D01*
X4451518Y-57882265D01*
X4723920Y-57963477D01*
X4950000Y-57839140D01*
X4950000Y-56590000D01*
X5050000Y-56590000D01*
X5050000Y-57839140D01*
X5276080Y-57963477D01*
X5548482Y-57882265D01*
X5799806Y-57749470D01*
X6020394Y-57570196D01*
X6201769Y-57351332D01*
X6336960Y-57101289D01*
X6420773Y-56829676D01*
X6423475Y-56816080D01*
X6299038Y-56590000D01*
X5050000Y-56590000D01*
X4950000Y-56590000D01*
X3700962Y-56590000D01*
X3576525Y-56816080D01*
X1200000Y-56816080D01*
X1200000Y-56263920D01*
X3576525Y-56263920D01*
X3700962Y-56490000D01*
X4950000Y-56490000D01*
X4950000Y-56470000D01*
X5050000Y-56470000D01*
X5050000Y-56490000D01*
X6299038Y-56490000D01*
X6423475Y-56263920D01*
X6420773Y-56250324D01*
X6411789Y-56221207D01*
X22400000Y-56221207D01*
X22400000Y-56378793D01*
X22430743Y-56533351D01*
X22491049Y-56678942D01*
X22578599Y-56809970D01*
X22690030Y-56921401D01*
X22700000Y-56928063D01*
X22700001Y-62371937D01*
X22690030Y-62378599D01*
X22578599Y-62490030D01*
X22491049Y-62621058D01*
X22430743Y-62766649D01*
X22400000Y-62921207D01*
X22400000Y-63078793D01*
X22430743Y-63233351D01*
X22491049Y-63378942D01*
X22578599Y-63509970D01*
X22643260Y-63574631D01*
X22550000Y-63625962D01*
X22550000Y-64950000D01*
X22570000Y-64950000D01*
X22570000Y-65050000D01*
X22550000Y-65050000D01*
X22550000Y-66374038D01*
X22776080Y-66498475D01*
X22862905Y-66479519D01*
X23129940Y-66381732D01*
X23372767Y-66233728D01*
X23582054Y-66041195D01*
X23749758Y-65811532D01*
X23855032Y-65584609D01*
X23955634Y-65772823D01*
X24111841Y-65963160D01*
X24302178Y-66119366D01*
X24519332Y-66235437D01*
X24754958Y-66306913D01*
X25000000Y-66331048D01*
X25245043Y-66306913D01*
X25480669Y-66235437D01*
X25697823Y-66119366D01*
X25888160Y-65963160D01*
X26044366Y-65772822D01*
X26160437Y-65555668D01*
X26231913Y-65320042D01*
X26250000Y-65136405D01*
X26268087Y-65320043D01*
X26339563Y-65555669D01*
X26455634Y-65772823D01*
X26611841Y-65963160D01*
X26802178Y-66119366D01*
X27019332Y-66235437D01*
X27254958Y-66306913D01*
X27500000Y-66331048D01*
X27745043Y-66306913D01*
X27980669Y-66235437D01*
X28197823Y-66119366D01*
X28388160Y-65963160D01*
X28544366Y-65772822D01*
X28660437Y-65555668D01*
X28731913Y-65320042D01*
X28750000Y-65136405D01*
X28768087Y-65320043D01*
X28839563Y-65555669D01*
X28955634Y-65772823D01*
X29111841Y-65963160D01*
X29302178Y-66119366D01*
X29519332Y-66235437D01*
X29754958Y-66306913D01*
X30000000Y-66331048D01*
X30245043Y-66306913D01*
X30480669Y-66235437D01*
X30697823Y-66119366D01*
X30888160Y-65963160D01*
X31044366Y-65772822D01*
X31160437Y-65555668D01*
X31231913Y-65320042D01*
X31250000Y-65136405D01*
X31268087Y-65320043D01*
X31339563Y-65555669D01*
X31455634Y-65772823D01*
X31611841Y-65963160D01*
X31802178Y-66119366D01*
X32019332Y-66235437D01*
X32254958Y-66306913D01*
X32500000Y-66331048D01*
X32745043Y-66306913D01*
X32980669Y-66235437D01*
X33197823Y-66119366D01*
X33388160Y-65963160D01*
X33544366Y-65772822D01*
X33660437Y-65555668D01*
X33731913Y-65320042D01*
X33750000Y-65136404D01*
X33750000Y-64863595D01*
X33731913Y-64679957D01*
X33660437Y-64444331D01*
X33596654Y-64325000D01*
X38748065Y-64325000D01*
X38748065Y-65675000D01*
X38760592Y-65802186D01*
X38797691Y-65924485D01*
X38857936Y-66037196D01*
X38939012Y-66135988D01*
X39037804Y-66217064D01*
X39150515Y-66277309D01*
X39272814Y-66314408D01*
X39400000Y-66326935D01*
X40600000Y-66326935D01*
X40727186Y-66314408D01*
X40849485Y-66277309D01*
X40962196Y-66217064D01*
X41060988Y-66135988D01*
X41142064Y-66037196D01*
X41202309Y-65924485D01*
X41239408Y-65802186D01*
X41251935Y-65675000D01*
X41251935Y-65156051D01*
X41268087Y-65320043D01*
X41339563Y-65555669D01*
X41455634Y-65772823D01*
X41611841Y-65963160D01*
X41802178Y-66119366D01*
X42019332Y-66235437D01*
X42254958Y-66306913D01*
X42500000Y-66331048D01*
X42745043Y-66306913D01*
X42980669Y-66235437D01*
X43197823Y-66119366D01*
X43388160Y-65963160D01*
X43544366Y-65772822D01*
X43644968Y-65584608D01*
X43750242Y-65811532D01*
X43917946Y-66041195D01*
X44127233Y-66233728D01*
X44370060Y-66381732D01*
X44637095Y-66479519D01*
X44723920Y-66498475D01*
X44950000Y-66374038D01*
X44950000Y-65050000D01*
X45050000Y-65050000D01*
X45050000Y-66374038D01*
X45276080Y-66498475D01*
X45362905Y-66479519D01*
X45629940Y-66381732D01*
X45872767Y-66233728D01*
X46082054Y-66041195D01*
X46249758Y-65811532D01*
X46338053Y-65621207D01*
X87900000Y-65621207D01*
X87900000Y-65778793D01*
X87930743Y-65933351D01*
X87991049Y-66078942D01*
X88078599Y-66209970D01*
X88190030Y-66321401D01*
X88321058Y-66408951D01*
X88466649Y-66469257D01*
X88621207Y-66500000D01*
X88778793Y-66500000D01*
X88933351Y-66469257D01*
X89078942Y-66408951D01*
X89209970Y-66321401D01*
X89321401Y-66209970D01*
X89408951Y-66078942D01*
X89469257Y-65933351D01*
X89500000Y-65778793D01*
X89500000Y-65621207D01*
X89497660Y-65609445D01*
X90782106Y-64325000D01*
X98748065Y-64325000D01*
X98748065Y-65675000D01*
X98760592Y-65802186D01*
X98797691Y-65924485D01*
X98857936Y-66037196D01*
X98939012Y-66135988D01*
X99037804Y-66217064D01*
X99150515Y-66277309D01*
X99272814Y-66314408D01*
X99400000Y-66326935D01*
X100600000Y-66326935D01*
X100727186Y-66314408D01*
X100849485Y-66277309D01*
X100962196Y-66217064D01*
X101060988Y-66135988D01*
X101142064Y-66037196D01*
X101202309Y-65924485D01*
X101239408Y-65802186D01*
X101251935Y-65675000D01*
X101251935Y-65156051D01*
X101268087Y-65320043D01*
X101339563Y-65555669D01*
X101455634Y-65772823D01*
X101611841Y-65963160D01*
X101802178Y-66119366D01*
X102019332Y-66235437D01*
X102254958Y-66306913D01*
X102500000Y-66331048D01*
X102745043Y-66306913D01*
X102980669Y-66235437D01*
X103197823Y-66119366D01*
X103388160Y-65963160D01*
X103544366Y-65772822D01*
X103660437Y-65555668D01*
X103731913Y-65320042D01*
X103750000Y-65136405D01*
X103768087Y-65320043D01*
X103839563Y-65555669D01*
X103955634Y-65772823D01*
X104111841Y-65963160D01*
X104302178Y-66119366D01*
X104519332Y-66235437D01*
X104754958Y-66306913D01*
X105000000Y-66331048D01*
X105245043Y-66306913D01*
X105480669Y-66235437D01*
X105697823Y-66119366D01*
X105888160Y-65963160D01*
X106044366Y-65772822D01*
X106160437Y-65555668D01*
X106231913Y-65320042D01*
X106250000Y-65136405D01*
X106268087Y-65320043D01*
X106339563Y-65555669D01*
X106455634Y-65772823D01*
X106611841Y-65963160D01*
X106802178Y-66119366D01*
X107019332Y-66235437D01*
X107254958Y-66306913D01*
X107500000Y-66331048D01*
X107745043Y-66306913D01*
X107980669Y-66235437D01*
X108197823Y-66119366D01*
X108388160Y-65963160D01*
X108544366Y-65772822D01*
X108660437Y-65555668D01*
X108731913Y-65320042D01*
X108750000Y-65136404D01*
X108750000Y-64863595D01*
X108731913Y-64679957D01*
X108660437Y-64444331D01*
X108596654Y-64325000D01*
X113748065Y-64325000D01*
X113748065Y-65675000D01*
X113760592Y-65802186D01*
X113797691Y-65924485D01*
X113857936Y-66037196D01*
X113939012Y-66135988D01*
X114037804Y-66217064D01*
X114150515Y-66277309D01*
X114272814Y-66314408D01*
X114400000Y-66326935D01*
X115600000Y-66326935D01*
X115727186Y-66314408D01*
X115849485Y-66277309D01*
X115962196Y-66217064D01*
X116060988Y-66135988D01*
X116142064Y-66037196D01*
X116202309Y-65924485D01*
X116239408Y-65802186D01*
X116240546Y-65790632D01*
X116250242Y-65811532D01*
X116417946Y-66041195D01*
X116627233Y-66233728D01*
X116870060Y-66381732D01*
X117137095Y-66479519D01*
X117223920Y-66498475D01*
X117450000Y-66374038D01*
X117450000Y-65050000D01*
X117550000Y-65050000D01*
X117550000Y-66374038D01*
X117776080Y-66498475D01*
X117862905Y-66479519D01*
X118129940Y-66381732D01*
X118372767Y-66233728D01*
X118582054Y-66041195D01*
X118749758Y-65811532D01*
X118869434Y-65553564D01*
X118936484Y-65277205D01*
X118800430Y-65050000D01*
X117550000Y-65050000D01*
X117450000Y-65050000D01*
X117430000Y-65050000D01*
X117430000Y-64950000D01*
X117450000Y-64950000D01*
X117450000Y-63625962D01*
X117550000Y-63625962D01*
X117550000Y-64950000D01*
X118800430Y-64950000D01*
X118936484Y-64722795D01*
X118869434Y-64446436D01*
X118749758Y-64188468D01*
X118582054Y-63958805D01*
X118372767Y-63766272D01*
X118129940Y-63618268D01*
X117862905Y-63520481D01*
X117776080Y-63501525D01*
X117550000Y-63625962D01*
X117450000Y-63625962D01*
X117223920Y-63501525D01*
X117137095Y-63520481D01*
X116870060Y-63618268D01*
X116627233Y-63766272D01*
X116417946Y-63958805D01*
X116250242Y-64188468D01*
X116240546Y-64209368D01*
X116239408Y-64197814D01*
X116202309Y-64075515D01*
X116142064Y-63962804D01*
X116060988Y-63864012D01*
X115962196Y-63782936D01*
X115849485Y-63722691D01*
X115727186Y-63685592D01*
X115600000Y-63673065D01*
X115600000Y-58862112D01*
X123600000Y-58862112D01*
X123600000Y-59137888D01*
X123653801Y-59408365D01*
X123759336Y-59663149D01*
X123912549Y-59892448D01*
X124107552Y-60087451D01*
X124336851Y-60240664D01*
X124591635Y-60346199D01*
X124862112Y-60400000D01*
X125137888Y-60400000D01*
X125408365Y-60346199D01*
X125663149Y-60240664D01*
X125892448Y-60087451D01*
X126087451Y-59892448D01*
X126240664Y-59663149D01*
X126346199Y-59408365D01*
X126400000Y-59137888D01*
X126400000Y-58862112D01*
X126346199Y-58591635D01*
X126240664Y-58336851D01*
X126087451Y-58107552D01*
X125892448Y-57912549D01*
X125663149Y-57759336D01*
X125408365Y-57653801D01*
X125137888Y-57600000D01*
X124862112Y-57600000D01*
X124591635Y-57653801D01*
X124336851Y-57759336D01*
X124107552Y-57912549D01*
X123912549Y-58107552D01*
X123759336Y-58336851D01*
X123653801Y-58591635D01*
X123600000Y-58862112D01*
X115600000Y-58862112D01*
X115600000Y-50331371D01*
X115621401Y-50309970D01*
X115708951Y-50178942D01*
X115769257Y-50033351D01*
X115800000Y-49878793D01*
X115800000Y-49721207D01*
X115769257Y-49566649D01*
X115708951Y-49421058D01*
X115621401Y-49290030D01*
X115509970Y-49178599D01*
X115378942Y-49091049D01*
X115233351Y-49030743D01*
X115078793Y-49000000D01*
X114921207Y-49000000D01*
X114766649Y-49030743D01*
X114621058Y-49091049D01*
X114490030Y-49178599D01*
X114378599Y-49290030D01*
X114291049Y-49421058D01*
X114230743Y-49566649D01*
X114200000Y-49721207D01*
X114200000Y-49878793D01*
X114230743Y-50033351D01*
X114291049Y-50178942D01*
X114378599Y-50309970D01*
X114400001Y-50331372D01*
X114400000Y-63673065D01*
X114272814Y-63685592D01*
X114150515Y-63722691D01*
X114037804Y-63782936D01*
X113939012Y-63864012D01*
X113857936Y-63962804D01*
X113797691Y-64075515D01*
X113760592Y-64197814D01*
X113748065Y-64325000D01*
X108596654Y-64325000D01*
X108544366Y-64227177D01*
X108388160Y-64036840D01*
X108200000Y-63882421D01*
X108200000Y-59989949D01*
X108217549Y-59972400D01*
X108233351Y-59969257D01*
X108378942Y-59908951D01*
X108509970Y-59821401D01*
X108621401Y-59709970D01*
X108708951Y-59578942D01*
X108769257Y-59433351D01*
X108800000Y-59278793D01*
X108800000Y-59121207D01*
X108769257Y-58966649D01*
X108708951Y-58821058D01*
X108621401Y-58690030D01*
X108509970Y-58578599D01*
X108378942Y-58491049D01*
X108233351Y-58430743D01*
X108078793Y-58400000D01*
X107921207Y-58400000D01*
X107766649Y-58430743D01*
X107621058Y-58491049D01*
X107490030Y-58578599D01*
X107378599Y-58690030D01*
X107291049Y-58821058D01*
X107230743Y-58966649D01*
X107227600Y-58982451D01*
X107029342Y-59180709D01*
X107002630Y-59202631D01*
X106980709Y-59229342D01*
X106980708Y-59229343D01*
X106915155Y-59309219D01*
X106900186Y-59337224D01*
X106850155Y-59430826D01*
X106810128Y-59562777D01*
X106800000Y-59665610D01*
X106796613Y-59700000D01*
X106800000Y-59734387D01*
X106800001Y-63882420D01*
X106611840Y-64036840D01*
X106455634Y-64227178D01*
X106339563Y-64444332D01*
X106268087Y-64679958D01*
X106250000Y-64863595D01*
X106231913Y-64679957D01*
X106160437Y-64444331D01*
X106044366Y-64227177D01*
X105888160Y-64036840D01*
X105697822Y-63880634D01*
X105480668Y-63764563D01*
X105245042Y-63693087D01*
X105000000Y-63668952D01*
X104754957Y-63693087D01*
X104519331Y-63764563D01*
X104302177Y-63880634D01*
X104111840Y-64036840D01*
X103955634Y-64227178D01*
X103839563Y-64444332D01*
X103768087Y-64679958D01*
X103750000Y-64863595D01*
X103731913Y-64679957D01*
X103660437Y-64444331D01*
X103544366Y-64227177D01*
X103388160Y-64036840D01*
X103200000Y-63882421D01*
X103200000Y-58834390D01*
X103203387Y-58800000D01*
X103189872Y-58662776D01*
X103149845Y-58530825D01*
X103084845Y-58409219D01*
X103019292Y-58329342D01*
X103019287Y-58329337D01*
X102997369Y-58302630D01*
X102970663Y-58280713D01*
X101972400Y-57282451D01*
X101969257Y-57266649D01*
X101908951Y-57121058D01*
X101821401Y-56990030D01*
X101709970Y-56878599D01*
X101578942Y-56791049D01*
X101433351Y-56730743D01*
X101278793Y-56700000D01*
X101121207Y-56700000D01*
X100966649Y-56730743D01*
X100821058Y-56791049D01*
X100690030Y-56878599D01*
X100578599Y-56990030D01*
X100491049Y-57121058D01*
X100430743Y-57266649D01*
X100400000Y-57421207D01*
X100400000Y-57578793D01*
X100430743Y-57733351D01*
X100491049Y-57878942D01*
X100578599Y-58009970D01*
X100690030Y-58121401D01*
X100821058Y-58208951D01*
X100966649Y-58269257D01*
X100982451Y-58272400D01*
X101800000Y-59089950D01*
X101800001Y-63882420D01*
X101611840Y-64036840D01*
X101455634Y-64227178D01*
X101339563Y-64444332D01*
X101268087Y-64679958D01*
X101251935Y-64843950D01*
X101251935Y-64325000D01*
X101239408Y-64197814D01*
X101202309Y-64075515D01*
X101142064Y-63962804D01*
X101060988Y-63864012D01*
X100962196Y-63782936D01*
X100849485Y-63722691D01*
X100727186Y-63685592D01*
X100600000Y-63673065D01*
X99400000Y-63673065D01*
X99272814Y-63685592D01*
X99150515Y-63722691D01*
X99037804Y-63782936D01*
X98939012Y-63864012D01*
X98857936Y-63962804D01*
X98797691Y-64075515D01*
X98760592Y-64197814D01*
X98748065Y-64325000D01*
X90782106Y-64325000D01*
X91809446Y-63297661D01*
X91821207Y-63300000D01*
X91978793Y-63300000D01*
X92133351Y-63269257D01*
X92278942Y-63208951D01*
X92409970Y-63121401D01*
X92521401Y-63009970D01*
X92608951Y-62878942D01*
X92669257Y-62733351D01*
X92700000Y-62578793D01*
X92700000Y-62421207D01*
X92669257Y-62266649D01*
X92608951Y-62121058D01*
X92521401Y-61990030D01*
X92409970Y-61878599D01*
X92278942Y-61791049D01*
X92133351Y-61730743D01*
X91978793Y-61700000D01*
X91821207Y-61700000D01*
X91666649Y-61730743D01*
X91521058Y-61791049D01*
X91390030Y-61878599D01*
X91278599Y-61990030D01*
X91191049Y-62121058D01*
X91130743Y-62266649D01*
X91100000Y-62421207D01*
X91100000Y-62578793D01*
X91102339Y-62590554D01*
X88790555Y-64902340D01*
X88778793Y-64900000D01*
X88621207Y-64900000D01*
X88466649Y-64930743D01*
X88321058Y-64991049D01*
X88190030Y-65078599D01*
X88078599Y-65190030D01*
X87991049Y-65321058D01*
X87930743Y-65466649D01*
X87900000Y-65621207D01*
X46338053Y-65621207D01*
X46369434Y-65553564D01*
X46436484Y-65277205D01*
X46300430Y-65050000D01*
X45050000Y-65050000D01*
X44950000Y-65050000D01*
X44930000Y-65050000D01*
X44930000Y-64950000D01*
X44950000Y-64950000D01*
X44950000Y-63625962D01*
X45050000Y-63625962D01*
X45050000Y-64950000D01*
X46300430Y-64950000D01*
X46436484Y-64722795D01*
X46369434Y-64446436D01*
X46249758Y-64188468D01*
X46082054Y-63958805D01*
X45872767Y-63766272D01*
X45629940Y-63618268D01*
X45362905Y-63520481D01*
X45276080Y-63501525D01*
X45050000Y-63625962D01*
X44950000Y-63625962D01*
X44723920Y-63501525D01*
X44637095Y-63520481D01*
X44370060Y-63618268D01*
X44127233Y-63766272D01*
X43917946Y-63958805D01*
X43750242Y-64188468D01*
X43644968Y-64415391D01*
X43544366Y-64227177D01*
X43388160Y-64036840D01*
X43197822Y-63880634D01*
X42980668Y-63764563D01*
X42745042Y-63693087D01*
X42500000Y-63668952D01*
X42254957Y-63693087D01*
X42019331Y-63764563D01*
X41802177Y-63880634D01*
X41611840Y-64036840D01*
X41455634Y-64227178D01*
X41339563Y-64444332D01*
X41268087Y-64679958D01*
X41251935Y-64843950D01*
X41251935Y-64325000D01*
X41239408Y-64197814D01*
X41202309Y-64075515D01*
X41142064Y-63962804D01*
X41060988Y-63864012D01*
X40962196Y-63782936D01*
X40849485Y-63722691D01*
X40727186Y-63685592D01*
X40600000Y-63673065D01*
X39400000Y-63673065D01*
X39272814Y-63685592D01*
X39150515Y-63722691D01*
X39037804Y-63782936D01*
X38939012Y-63864012D01*
X38857936Y-63962804D01*
X38797691Y-64075515D01*
X38760592Y-64197814D01*
X38748065Y-64325000D01*
X33596654Y-64325000D01*
X33544366Y-64227177D01*
X33388160Y-64036840D01*
X33197822Y-63880634D01*
X33000000Y-63774896D01*
X33000000Y-56221207D01*
X36400000Y-56221207D01*
X36400000Y-56378793D01*
X36430743Y-56533351D01*
X36491049Y-56678942D01*
X36578599Y-56809970D01*
X36690030Y-56921401D01*
X36700001Y-56928063D01*
X36700000Y-62371937D01*
X36690030Y-62378599D01*
X36578599Y-62490030D01*
X36491049Y-62621058D01*
X36430743Y-62766649D01*
X36400000Y-62921207D01*
X36400000Y-63078793D01*
X36430743Y-63233351D01*
X36491049Y-63378942D01*
X36578599Y-63509970D01*
X36690030Y-63621401D01*
X36821058Y-63708951D01*
X36966649Y-63769257D01*
X37121207Y-63800000D01*
X37278793Y-63800000D01*
X37433351Y-63769257D01*
X37578942Y-63708951D01*
X37709970Y-63621401D01*
X37821401Y-63509970D01*
X37908951Y-63378942D01*
X37969257Y-63233351D01*
X38000000Y-63078793D01*
X38000000Y-62994881D01*
X38021058Y-63008951D01*
X38166649Y-63069257D01*
X38321207Y-63100000D01*
X38478793Y-63100000D01*
X38633351Y-63069257D01*
X38778942Y-63008951D01*
X38909970Y-62921401D01*
X39018505Y-62812866D01*
X53600000Y-62812866D01*
X53600000Y-63187134D01*
X53673016Y-63554209D01*
X53816242Y-63899987D01*
X54024174Y-64211179D01*
X54288821Y-64475826D01*
X54600013Y-64683758D01*
X54945791Y-64826984D01*
X55312866Y-64900000D01*
X55687134Y-64900000D01*
X56054209Y-64826984D01*
X56399987Y-64683758D01*
X56711179Y-64475826D01*
X56975826Y-64211179D01*
X57183758Y-63899987D01*
X57326984Y-63554209D01*
X57400000Y-63187134D01*
X57400000Y-62827640D01*
X65000000Y-62827640D01*
X65000000Y-63172360D01*
X65067251Y-63510456D01*
X65199170Y-63828936D01*
X65390686Y-64115560D01*
X65634440Y-64359314D01*
X65921064Y-64550830D01*
X66239544Y-64682749D01*
X66577640Y-64750000D01*
X66922360Y-64750000D01*
X67260456Y-64682749D01*
X67578936Y-64550830D01*
X67865560Y-64359314D01*
X68109314Y-64115560D01*
X68300830Y-63828936D01*
X68432749Y-63510456D01*
X68500000Y-63172360D01*
X68500000Y-62827640D01*
X68497062Y-62812866D01*
X76100000Y-62812866D01*
X76100000Y-63187134D01*
X76173016Y-63554209D01*
X76316242Y-63899987D01*
X76524174Y-64211179D01*
X76788821Y-64475826D01*
X77100013Y-64683758D01*
X77445791Y-64826984D01*
X77812866Y-64900000D01*
X78187134Y-64900000D01*
X78554209Y-64826984D01*
X78899987Y-64683758D01*
X79211179Y-64475826D01*
X79475826Y-64211179D01*
X79683758Y-63899987D01*
X79826984Y-63554209D01*
X79900000Y-63187134D01*
X79900000Y-62812866D01*
X79826984Y-62445791D01*
X79683758Y-62100013D01*
X79475826Y-61788821D01*
X79211179Y-61524174D01*
X78899987Y-61316242D01*
X78700000Y-61233405D01*
X78700000Y-59862112D01*
X93600000Y-59862112D01*
X93600000Y-60137888D01*
X93653801Y-60408365D01*
X93759336Y-60663149D01*
X93912549Y-60892448D01*
X94107552Y-61087451D01*
X94336851Y-61240664D01*
X94591635Y-61346199D01*
X94862112Y-61400000D01*
X95137888Y-61400000D01*
X95408365Y-61346199D01*
X95663149Y-61240664D01*
X95892448Y-61087451D01*
X96087451Y-60892448D01*
X96240664Y-60663149D01*
X96346199Y-60408365D01*
X96400000Y-60137888D01*
X96400000Y-59862112D01*
X96346199Y-59591635D01*
X96240664Y-59336851D01*
X96087451Y-59107552D01*
X95892448Y-58912549D01*
X95663149Y-58759336D01*
X95408365Y-58653801D01*
X95137888Y-58600000D01*
X94862112Y-58600000D01*
X94591635Y-58653801D01*
X94336851Y-58759336D01*
X94107552Y-58912549D01*
X93912549Y-59107552D01*
X93759336Y-59336851D01*
X93653801Y-59591635D01*
X93600000Y-59862112D01*
X78700000Y-59862112D01*
X78700000Y-49862112D01*
X85600000Y-49862112D01*
X85600000Y-50137888D01*
X85653801Y-50408365D01*
X85759336Y-50663149D01*
X85912549Y-50892448D01*
X86107552Y-51087451D01*
X86336851Y-51240664D01*
X86591635Y-51346199D01*
X86862112Y-51400000D01*
X87137888Y-51400000D01*
X87408365Y-51346199D01*
X87663149Y-51240664D01*
X87892448Y-51087451D01*
X88087451Y-50892448D01*
X88240664Y-50663149D01*
X88346199Y-50408365D01*
X88400000Y-50137888D01*
X88400000Y-49862112D01*
X88346199Y-49591635D01*
X88240664Y-49336851D01*
X88087451Y-49107552D01*
X87892448Y-48912549D01*
X87663149Y-48759336D01*
X87408365Y-48653801D01*
X87137888Y-48600000D01*
X86862112Y-48600000D01*
X86591635Y-48653801D01*
X86336851Y-48759336D01*
X86107552Y-48912549D01*
X85912549Y-49107552D01*
X85759336Y-49336851D01*
X85653801Y-49591635D01*
X85600000Y-49862112D01*
X78700000Y-49862112D01*
X78700000Y-42521207D01*
X104200000Y-42521207D01*
X104200000Y-42678793D01*
X104230743Y-42833351D01*
X104291049Y-42978942D01*
X104378599Y-43109970D01*
X104490030Y-43221401D01*
X104500001Y-43228063D01*
X104500000Y-52171937D01*
X104490030Y-52178599D01*
X104378599Y-52290030D01*
X104291049Y-52421058D01*
X104230743Y-52566649D01*
X104200000Y-52721207D01*
X104200000Y-52878793D01*
X104230743Y-53033351D01*
X104291049Y-53178942D01*
X104378599Y-53309970D01*
X104490030Y-53421401D01*
X104621058Y-53508951D01*
X104766649Y-53569257D01*
X104921207Y-53600000D01*
X105078793Y-53600000D01*
X105233351Y-53569257D01*
X105378942Y-53508951D01*
X105509970Y-53421401D01*
X105621401Y-53309970D01*
X105708951Y-53178942D01*
X105769257Y-53033351D01*
X105800000Y-52878793D01*
X105800000Y-52721207D01*
X105769257Y-52566649D01*
X105708951Y-52421058D01*
X105621401Y-52290030D01*
X105509970Y-52178599D01*
X105500000Y-52171937D01*
X105500000Y-43228063D01*
X105509970Y-43221401D01*
X105621401Y-43109970D01*
X105708951Y-42978942D01*
X105769257Y-42833351D01*
X105800000Y-42678793D01*
X105800000Y-42521207D01*
X105769257Y-42366649D01*
X105708951Y-42221058D01*
X105621401Y-42090030D01*
X105509970Y-41978599D01*
X105378942Y-41891049D01*
X105233351Y-41830743D01*
X105078793Y-41800000D01*
X104921207Y-41800000D01*
X104766649Y-41830743D01*
X104621058Y-41891049D01*
X104490030Y-41978599D01*
X104378599Y-42090030D01*
X104291049Y-42221058D01*
X104230743Y-42366649D01*
X104200000Y-42521207D01*
X78700000Y-42521207D01*
X78700000Y-41392338D01*
X78708951Y-41378942D01*
X78769257Y-41233351D01*
X78800000Y-41078793D01*
X78800000Y-40921207D01*
X106200000Y-40921207D01*
X106200000Y-41078793D01*
X106230743Y-41233351D01*
X106291049Y-41378942D01*
X106378599Y-41509970D01*
X106400001Y-41531372D01*
X106400000Y-44168629D01*
X106378599Y-44190030D01*
X106291049Y-44321058D01*
X106230743Y-44466649D01*
X106200000Y-44621207D01*
X106200000Y-44778793D01*
X106230743Y-44933351D01*
X106291049Y-45078942D01*
X106378599Y-45209970D01*
X106490030Y-45321401D01*
X106621058Y-45408951D01*
X106766649Y-45469257D01*
X106921207Y-45500000D01*
X107078793Y-45500000D01*
X107233351Y-45469257D01*
X107378942Y-45408951D01*
X107509970Y-45321401D01*
X107621401Y-45209970D01*
X107708951Y-45078942D01*
X107769257Y-44933351D01*
X107800000Y-44778793D01*
X107800000Y-44621207D01*
X107769257Y-44466649D01*
X107708951Y-44321058D01*
X107621401Y-44190030D01*
X107600000Y-44168629D01*
X107600000Y-41821207D01*
X109400000Y-41821207D01*
X109400000Y-41978793D01*
X109430743Y-42133351D01*
X109491049Y-42278942D01*
X109578599Y-42409970D01*
X109690030Y-42521401D01*
X109700001Y-42528063D01*
X109700000Y-53871937D01*
X109690030Y-53878599D01*
X109578599Y-53990030D01*
X109491049Y-54121058D01*
X109430743Y-54266649D01*
X109400000Y-54421207D01*
X109400000Y-54578793D01*
X109430743Y-54733351D01*
X109491049Y-54878942D01*
X109578599Y-55009970D01*
X109690030Y-55121401D01*
X109821058Y-55208951D01*
X109966649Y-55269257D01*
X110121207Y-55300000D01*
X110278793Y-55300000D01*
X110433351Y-55269257D01*
X110578942Y-55208951D01*
X110709970Y-55121401D01*
X110821401Y-55009970D01*
X110908951Y-54878942D01*
X110969257Y-54733351D01*
X111000000Y-54578793D01*
X111000000Y-54421207D01*
X110969257Y-54266649D01*
X110908951Y-54121058D01*
X110821401Y-53990030D01*
X110709970Y-53878599D01*
X110700000Y-53871937D01*
X110700000Y-42528063D01*
X110709970Y-42521401D01*
X110821401Y-42409970D01*
X110908951Y-42278942D01*
X110969257Y-42133351D01*
X111000000Y-41978793D01*
X111000000Y-41821207D01*
X110969257Y-41666649D01*
X110908951Y-41521058D01*
X110821401Y-41390030D01*
X110709970Y-41278599D01*
X110578942Y-41191049D01*
X110433351Y-41130743D01*
X110278793Y-41100000D01*
X110121207Y-41100000D01*
X109966649Y-41130743D01*
X109821058Y-41191049D01*
X109690030Y-41278599D01*
X109578599Y-41390030D01*
X109491049Y-41521058D01*
X109430743Y-41666649D01*
X109400000Y-41821207D01*
X107600000Y-41821207D01*
X107600000Y-41531371D01*
X107621401Y-41509970D01*
X107708951Y-41378942D01*
X107769257Y-41233351D01*
X107800000Y-41078793D01*
X107800000Y-40921207D01*
X107769257Y-40766649D01*
X107708951Y-40621058D01*
X107621401Y-40490030D01*
X107509970Y-40378599D01*
X107378942Y-40291049D01*
X107233351Y-40230743D01*
X107078793Y-40200000D01*
X106921207Y-40200000D01*
X106766649Y-40230743D01*
X106621058Y-40291049D01*
X106490030Y-40378599D01*
X106378599Y-40490030D01*
X106291049Y-40621058D01*
X106230743Y-40766649D01*
X106200000Y-40921207D01*
X78800000Y-40921207D01*
X78769257Y-40766649D01*
X78708951Y-40621058D01*
X78621401Y-40490030D01*
X78509970Y-40378599D01*
X78378942Y-40291049D01*
X78233351Y-40230743D01*
X78078793Y-40200000D01*
X77921207Y-40200000D01*
X77766649Y-40230743D01*
X77621058Y-40291049D01*
X77490030Y-40378599D01*
X77378599Y-40490030D01*
X77291049Y-40621058D01*
X77230743Y-40766649D01*
X77200000Y-40921207D01*
X77200000Y-41078793D01*
X77230743Y-41233351D01*
X77291049Y-41378942D01*
X77300001Y-41392340D01*
X77300001Y-41858350D01*
X77233351Y-41830743D01*
X77078793Y-41800000D01*
X76921207Y-41800000D01*
X76766649Y-41830743D01*
X76621058Y-41891049D01*
X76490030Y-41978599D01*
X76378599Y-42090030D01*
X76291049Y-42221058D01*
X76230743Y-42366649D01*
X76200000Y-42521207D01*
X76200000Y-42678793D01*
X76230743Y-42833351D01*
X76291049Y-42978942D01*
X76378599Y-43109970D01*
X76490030Y-43221401D01*
X76500000Y-43228063D01*
X76500001Y-45171937D01*
X76490030Y-45178599D01*
X76378599Y-45290030D01*
X76291049Y-45421058D01*
X76230743Y-45566649D01*
X76200000Y-45721207D01*
X76200000Y-45878793D01*
X76230743Y-46033351D01*
X76291049Y-46178942D01*
X76378599Y-46309970D01*
X76490030Y-46421401D01*
X76621058Y-46508951D01*
X76766649Y-46569257D01*
X76921207Y-46600000D01*
X77078793Y-46600000D01*
X77233351Y-46569257D01*
X77300001Y-46541650D01*
X77300000Y-61233405D01*
X77100013Y-61316242D01*
X76788821Y-61524174D01*
X76524174Y-61788821D01*
X76316242Y-62100013D01*
X76173016Y-62445791D01*
X76100000Y-62812866D01*
X68497062Y-62812866D01*
X68432749Y-62489544D01*
X68300830Y-62171064D01*
X68109314Y-61884440D01*
X67865560Y-61640686D01*
X67578936Y-61449170D01*
X67260456Y-61317251D01*
X66922360Y-61250000D01*
X66577640Y-61250000D01*
X66239544Y-61317251D01*
X65921064Y-61449170D01*
X65634440Y-61640686D01*
X65390686Y-61884440D01*
X65199170Y-62171064D01*
X65067251Y-62489544D01*
X65000000Y-62827640D01*
X57400000Y-62827640D01*
X57400000Y-62812866D01*
X57326984Y-62445791D01*
X57183758Y-62100013D01*
X56975826Y-61788821D01*
X56711179Y-61524174D01*
X56399987Y-61316242D01*
X56054209Y-61173016D01*
X55687134Y-61100000D01*
X55312866Y-61100000D01*
X54945791Y-61173016D01*
X54600013Y-61316242D01*
X54288821Y-61524174D01*
X54024174Y-61788821D01*
X53816242Y-62100013D01*
X53673016Y-62445791D01*
X53600000Y-62812866D01*
X39018505Y-62812866D01*
X39021401Y-62809970D01*
X39108951Y-62678942D01*
X39169257Y-62533351D01*
X39200000Y-62378793D01*
X39200000Y-62221207D01*
X39169257Y-62066649D01*
X39108951Y-61921058D01*
X39021401Y-61790030D01*
X38909970Y-61678599D01*
X38900000Y-61671937D01*
X38900000Y-56928063D01*
X38909970Y-56921401D01*
X39021401Y-56809970D01*
X39108951Y-56678942D01*
X39169257Y-56533351D01*
X39200000Y-56378793D01*
X39200000Y-56221207D01*
X39169257Y-56066649D01*
X39108951Y-55921058D01*
X39021401Y-55790030D01*
X38909970Y-55678599D01*
X38778942Y-55591049D01*
X38633351Y-55530743D01*
X38478793Y-55500000D01*
X38321207Y-55500000D01*
X38166649Y-55530743D01*
X38021058Y-55591049D01*
X37890030Y-55678599D01*
X37800000Y-55768629D01*
X37709970Y-55678599D01*
X37578942Y-55591049D01*
X37433351Y-55530743D01*
X37278793Y-55500000D01*
X37121207Y-55500000D01*
X36966649Y-55530743D01*
X36821058Y-55591049D01*
X36690030Y-55678599D01*
X36578599Y-55790030D01*
X36491049Y-55921058D01*
X36430743Y-56066649D01*
X36400000Y-56221207D01*
X33000000Y-56221207D01*
X33000000Y-51021207D01*
X39000000Y-51021207D01*
X39000000Y-51178793D01*
X39030743Y-51333351D01*
X39091049Y-51478942D01*
X39178599Y-51609970D01*
X39290030Y-51721401D01*
X39421058Y-51808951D01*
X39566649Y-51869257D01*
X39721207Y-51900000D01*
X39878793Y-51900000D01*
X39890555Y-51897660D01*
X43000000Y-55007106D01*
X43000001Y-55671937D01*
X42990030Y-55678599D01*
X42900000Y-55768629D01*
X42809970Y-55678599D01*
X42678942Y-55591049D01*
X42533351Y-55530743D01*
X42378793Y-55500000D01*
X42221207Y-55500000D01*
X42066649Y-55530743D01*
X41921058Y-55591049D01*
X41790030Y-55678599D01*
X41678599Y-55790030D01*
X41591049Y-55921058D01*
X41530743Y-56066649D01*
X41500000Y-56221207D01*
X41500000Y-56378793D01*
X41530743Y-56533351D01*
X41591049Y-56678942D01*
X41678599Y-56809970D01*
X41790030Y-56921401D01*
X41800001Y-56928063D01*
X41800000Y-60971937D01*
X41790030Y-60978599D01*
X41678599Y-61090030D01*
X41591049Y-61221058D01*
X41530743Y-61366649D01*
X41500000Y-61521207D01*
X41500000Y-61678793D01*
X41530743Y-61833351D01*
X41591049Y-61978942D01*
X41678599Y-62109970D01*
X41790030Y-62221401D01*
X41921058Y-62308951D01*
X42066649Y-62369257D01*
X42221207Y-62400000D01*
X42378793Y-62400000D01*
X42533351Y-62369257D01*
X42678942Y-62308951D01*
X42809970Y-62221401D01*
X42921401Y-62109970D01*
X43008951Y-61978942D01*
X43069257Y-61833351D01*
X43100000Y-61678793D01*
X43100000Y-61521207D01*
X43069257Y-61366649D01*
X43008951Y-61221058D01*
X42921401Y-61090030D01*
X42809970Y-60978599D01*
X42800000Y-60971937D01*
X42800000Y-56928063D01*
X42809970Y-56921401D01*
X42900000Y-56831371D01*
X42990030Y-56921401D01*
X43121058Y-57008951D01*
X43266649Y-57069257D01*
X43421207Y-57100000D01*
X43578793Y-57100000D01*
X43733351Y-57069257D01*
X43878942Y-57008951D01*
X44009970Y-56921401D01*
X44121401Y-56809970D01*
X44208951Y-56678942D01*
X44269257Y-56533351D01*
X44300000Y-56378793D01*
X44300000Y-56221207D01*
X44269257Y-56066649D01*
X44208951Y-55921058D01*
X44121401Y-55790030D01*
X44009970Y-55678599D01*
X44000000Y-55671937D01*
X44000000Y-54824557D01*
X44002419Y-54799999D01*
X43999134Y-54766649D01*
X43992765Y-54701983D01*
X43964175Y-54607733D01*
X43917746Y-54520871D01*
X43855264Y-54444736D01*
X43836181Y-54429075D01*
X41263765Y-51856659D01*
X41378942Y-51808951D01*
X41509970Y-51721401D01*
X41621401Y-51609970D01*
X41708951Y-51478942D01*
X41769257Y-51333351D01*
X41800000Y-51178793D01*
X41800000Y-51021207D01*
X41769257Y-50866649D01*
X41708951Y-50721058D01*
X41621401Y-50590030D01*
X41509970Y-50478599D01*
X41500000Y-50471937D01*
X41500000Y-43228063D01*
X41509970Y-43221401D01*
X41621401Y-43109970D01*
X41708951Y-42978942D01*
X41769257Y-42833351D01*
X41800000Y-42678793D01*
X41800000Y-42521207D01*
X41769257Y-42366649D01*
X41708951Y-42221058D01*
X41621401Y-42090030D01*
X41509970Y-41978599D01*
X41378942Y-41891049D01*
X41233351Y-41830743D01*
X41078793Y-41800000D01*
X40921207Y-41800000D01*
X40766649Y-41830743D01*
X40621058Y-41891049D01*
X40490030Y-41978599D01*
X40378599Y-42090030D01*
X40291049Y-42221058D01*
X40230743Y-42366649D01*
X40200000Y-42521207D01*
X40200000Y-42678793D01*
X40230743Y-42833351D01*
X40291049Y-42978942D01*
X40378599Y-43109970D01*
X40490030Y-43221401D01*
X40500001Y-43228063D01*
X40500000Y-50471937D01*
X40490030Y-50478599D01*
X40400000Y-50568629D01*
X40309970Y-50478599D01*
X40178942Y-50391049D01*
X40033351Y-50330743D01*
X39878793Y-50300000D01*
X39721207Y-50300000D01*
X39566649Y-50330743D01*
X39421058Y-50391049D01*
X39290030Y-50478599D01*
X39178599Y-50590030D01*
X39091049Y-50721058D01*
X39030743Y-50866649D01*
X39000000Y-51021207D01*
X33000000Y-51021207D01*
X33000000Y-48628063D01*
X33009970Y-48621401D01*
X33121401Y-48509970D01*
X33208951Y-48378942D01*
X33269257Y-48233351D01*
X33300000Y-48078793D01*
X33300000Y-47921207D01*
X33269257Y-47766649D01*
X33208951Y-47621058D01*
X33121401Y-47490030D01*
X33009970Y-47378599D01*
X33000000Y-47371937D01*
X33000000Y-45628063D01*
X33009970Y-45621401D01*
X33121401Y-45509970D01*
X33208951Y-45378942D01*
X33269257Y-45233351D01*
X33300000Y-45078793D01*
X33300000Y-44921207D01*
X33269257Y-44766649D01*
X33208951Y-44621058D01*
X33121401Y-44490030D01*
X33009970Y-44378599D01*
X32878942Y-44291049D01*
X32733351Y-44230743D01*
X32578793Y-44200000D01*
X32421207Y-44200000D01*
X32266649Y-44230743D01*
X32121058Y-44291049D01*
X31990030Y-44378599D01*
X31878599Y-44490030D01*
X31791049Y-44621058D01*
X31730743Y-44766649D01*
X31700000Y-44921207D01*
X31700000Y-45078793D01*
X31730743Y-45233351D01*
X31791049Y-45378942D01*
X31878599Y-45509970D01*
X31990030Y-45621401D01*
X32000000Y-45628063D01*
X32000001Y-47371937D01*
X31990030Y-47378599D01*
X31878599Y-47490030D01*
X31791049Y-47621058D01*
X31730743Y-47766649D01*
X31700000Y-47921207D01*
X31700000Y-48078793D01*
X31730743Y-48233351D01*
X31791049Y-48378942D01*
X31878599Y-48509970D01*
X31990030Y-48621401D01*
X32000001Y-48628063D01*
X32000000Y-63774896D01*
X31802177Y-63880634D01*
X31611840Y-64036840D01*
X31455634Y-64227178D01*
X31339563Y-64444332D01*
X31268087Y-64679958D01*
X31250000Y-64863595D01*
X31231913Y-64679957D01*
X31160437Y-64444331D01*
X31044366Y-64227177D01*
X30888160Y-64036840D01*
X30697822Y-63880634D01*
X30500000Y-63774896D01*
X30500000Y-57007106D01*
X30536181Y-56970925D01*
X30555264Y-56955264D01*
X30617746Y-56879129D01*
X30664175Y-56792267D01*
X30692765Y-56698017D01*
X30700000Y-56624560D01*
X30700000Y-56624559D01*
X30702419Y-56600000D01*
X30700000Y-56575440D01*
X30700000Y-47928063D01*
X30709970Y-47921401D01*
X30821401Y-47809970D01*
X30908951Y-47678942D01*
X30969257Y-47533351D01*
X31000000Y-47378793D01*
X31000000Y-47221207D01*
X30969257Y-47066649D01*
X30908951Y-46921058D01*
X30821401Y-46790030D01*
X30709970Y-46678599D01*
X30578942Y-46591049D01*
X30433351Y-46530743D01*
X30278793Y-46500000D01*
X30121207Y-46500000D01*
X29966649Y-46530743D01*
X29821058Y-46591049D01*
X29690030Y-46678599D01*
X29578599Y-46790030D01*
X29491049Y-46921058D01*
X29430743Y-47066649D01*
X29400000Y-47221207D01*
X29400000Y-47378793D01*
X29430743Y-47533351D01*
X29491049Y-47678942D01*
X29578599Y-47809970D01*
X29690030Y-47921401D01*
X29700001Y-47928063D01*
X29700001Y-50992894D01*
X27185817Y-48478712D01*
X27233351Y-48469257D01*
X27378942Y-48408951D01*
X27509970Y-48321401D01*
X27621401Y-48209970D01*
X27708951Y-48078942D01*
X27769257Y-47933351D01*
X27800000Y-47778793D01*
X27800000Y-47621207D01*
X27769257Y-47466649D01*
X27708951Y-47321058D01*
X27621401Y-47190030D01*
X27509970Y-47078599D01*
X27500000Y-47071937D01*
X27500000Y-42528063D01*
X27509970Y-42521401D01*
X27621401Y-42409970D01*
X27708951Y-42278942D01*
X27769257Y-42133351D01*
X27800000Y-41978793D01*
X27800000Y-41821207D01*
X27769257Y-41666649D01*
X27708951Y-41521058D01*
X27621401Y-41390030D01*
X27509970Y-41278599D01*
X27378942Y-41191049D01*
X27233351Y-41130743D01*
X27078793Y-41100000D01*
X26921207Y-41100000D01*
X26766649Y-41130743D01*
X26621058Y-41191049D01*
X26490030Y-41278599D01*
X26378599Y-41390030D01*
X26291049Y-41521058D01*
X26230743Y-41666649D01*
X26200000Y-41821207D01*
X26200000Y-41978793D01*
X26230743Y-42133351D01*
X26291049Y-42278942D01*
X26378599Y-42409970D01*
X26490030Y-42521401D01*
X26500001Y-42528063D01*
X26500000Y-47071937D01*
X26490030Y-47078599D01*
X26378599Y-47190030D01*
X26350000Y-47232831D01*
X26321401Y-47190030D01*
X26209970Y-47078599D01*
X26078942Y-46991049D01*
X25933351Y-46930743D01*
X25778793Y-46900000D01*
X25621207Y-46900000D01*
X25466649Y-46930743D01*
X25321058Y-46991049D01*
X25190030Y-47078599D01*
X25078599Y-47190030D01*
X24991049Y-47321058D01*
X24930743Y-47466649D01*
X24900000Y-47621207D01*
X24900000Y-47778793D01*
X24930743Y-47933351D01*
X24991049Y-48078942D01*
X25078599Y-48209970D01*
X25190030Y-48321401D01*
X25321058Y-48408951D01*
X25466649Y-48469257D01*
X25621207Y-48500000D01*
X25778793Y-48500000D01*
X25790555Y-48497660D01*
X29000001Y-51707108D01*
X29000000Y-55671937D01*
X28990030Y-55678599D01*
X28900000Y-55768629D01*
X28809970Y-55678599D01*
X28678942Y-55591049D01*
X28533351Y-55530743D01*
X28378793Y-55500000D01*
X28221207Y-55500000D01*
X28066649Y-55530743D01*
X27921058Y-55591049D01*
X27790030Y-55678599D01*
X27678599Y-55790030D01*
X27591049Y-55921058D01*
X27530743Y-56066649D01*
X27500000Y-56221207D01*
X27500000Y-56378793D01*
X27502339Y-56390555D01*
X27163819Y-56729076D01*
X27144737Y-56744736D01*
X27082255Y-56820871D01*
X27051399Y-56878599D01*
X27035826Y-56907733D01*
X27007235Y-57001983D01*
X26997581Y-57100000D01*
X27000001Y-57124570D01*
X27000000Y-60971937D01*
X26990030Y-60978599D01*
X26878599Y-61090030D01*
X26791049Y-61221058D01*
X26730743Y-61366649D01*
X26700000Y-61521207D01*
X26700000Y-61678793D01*
X26730743Y-61833351D01*
X26791049Y-61978942D01*
X26878599Y-62109970D01*
X26990030Y-62221401D01*
X27000001Y-62228063D01*
X27000000Y-63774895D01*
X26802177Y-63880634D01*
X26611840Y-64036840D01*
X26455634Y-64227178D01*
X26339563Y-64444332D01*
X26268087Y-64679958D01*
X26250000Y-64863595D01*
X26231913Y-64679957D01*
X26160437Y-64444331D01*
X26044366Y-64227177D01*
X25888160Y-64036840D01*
X25697822Y-63880634D01*
X25500000Y-63774896D01*
X25500000Y-62928063D01*
X25509970Y-62921401D01*
X25621401Y-62809970D01*
X25708951Y-62678942D01*
X25769257Y-62533351D01*
X25800000Y-62378793D01*
X25800000Y-62221207D01*
X25769257Y-62066649D01*
X25708951Y-61921058D01*
X25621401Y-61790030D01*
X25509970Y-61678599D01*
X25500000Y-61671937D01*
X25500000Y-56928063D01*
X25509970Y-56921401D01*
X25621401Y-56809970D01*
X25708951Y-56678942D01*
X25769257Y-56533351D01*
X25800000Y-56378793D01*
X25800000Y-56221207D01*
X25769257Y-56066649D01*
X25708951Y-55921058D01*
X25621401Y-55790030D01*
X25509970Y-55678599D01*
X25378942Y-55591049D01*
X25233351Y-55530743D01*
X25078793Y-55500000D01*
X24921207Y-55500000D01*
X24766649Y-55530743D01*
X24621058Y-55591049D01*
X24490030Y-55678599D01*
X24378599Y-55790030D01*
X24291049Y-55921058D01*
X24230743Y-56066649D01*
X24200000Y-56221207D01*
X24200000Y-56378793D01*
X24230743Y-56533351D01*
X24291049Y-56678942D01*
X24378599Y-56809970D01*
X24490030Y-56921401D01*
X24500001Y-56928063D01*
X24500000Y-61671937D01*
X24490030Y-61678599D01*
X24378599Y-61790030D01*
X24291049Y-61921058D01*
X24230743Y-62066649D01*
X24200000Y-62221207D01*
X24200000Y-62378793D01*
X24230743Y-62533351D01*
X24291049Y-62678942D01*
X24378599Y-62809970D01*
X24490030Y-62921401D01*
X24500001Y-62928063D01*
X24500000Y-63774895D01*
X24302177Y-63880634D01*
X24111840Y-64036840D01*
X23955634Y-64227178D01*
X23855032Y-64415392D01*
X23749758Y-64188468D01*
X23582054Y-63958805D01*
X23386205Y-63778635D01*
X23433351Y-63769257D01*
X23578942Y-63708951D01*
X23709970Y-63621401D01*
X23821401Y-63509970D01*
X23908951Y-63378942D01*
X23969257Y-63233351D01*
X24000000Y-63078793D01*
X24000000Y-62921207D01*
X23969257Y-62766649D01*
X23908951Y-62621058D01*
X23821401Y-62490030D01*
X23709970Y-62378599D01*
X23700000Y-62371937D01*
X23700000Y-56928063D01*
X23709970Y-56921401D01*
X23821401Y-56809970D01*
X23908951Y-56678942D01*
X23969257Y-56533351D01*
X24000000Y-56378793D01*
X24000000Y-56221207D01*
X23969257Y-56066649D01*
X23908951Y-55921058D01*
X23821401Y-55790030D01*
X23709970Y-55678599D01*
X23578942Y-55591049D01*
X23433351Y-55530743D01*
X23278793Y-55500000D01*
X23121207Y-55500000D01*
X22966649Y-55530743D01*
X22821058Y-55591049D01*
X22690030Y-55678599D01*
X22578599Y-55790030D01*
X22491049Y-55921058D01*
X22430743Y-56066649D01*
X22400000Y-56221207D01*
X6411789Y-56221207D01*
X6336960Y-55978711D01*
X6201769Y-55728668D01*
X6020394Y-55509804D01*
X5799806Y-55330530D01*
X5651059Y-55251935D01*
X5850000Y-55251935D01*
X5928414Y-55244212D01*
X6003814Y-55221340D01*
X6073303Y-55184197D01*
X6134211Y-55134211D01*
X6184197Y-55073303D01*
X6221340Y-55003814D01*
X6244212Y-54928414D01*
X6251935Y-54850000D01*
X6251935Y-53150000D01*
X6244212Y-53071586D01*
X6221340Y-52996186D01*
X6184197Y-52926697D01*
X6134211Y-52865789D01*
X6073303Y-52815803D01*
X6003814Y-52778660D01*
X5928414Y-52755788D01*
X5850000Y-52748065D01*
X4150000Y-52748065D01*
X4071586Y-52755788D01*
X3996186Y-52778660D01*
X3926697Y-52815803D01*
X3865789Y-52865789D01*
X3815803Y-52926697D01*
X3778660Y-52996186D01*
X3755788Y-53071586D01*
X3748065Y-53150000D01*
X3748065Y-54850000D01*
X3755788Y-54928414D01*
X3778660Y-55003814D01*
X3815803Y-55073303D01*
X3865789Y-55134211D01*
X3926697Y-55184197D01*
X3996186Y-55221340D01*
X4071586Y-55244212D01*
X4150000Y-55251935D01*
X4348941Y-55251935D01*
X4200194Y-55330530D01*
X3979606Y-55509804D01*
X3798231Y-55728668D01*
X3663040Y-55978711D01*
X3579227Y-56250324D01*
X3576525Y-56263920D01*
X1200000Y-56263920D01*
X1200000Y-45522414D01*
X10400000Y-45522414D01*
X10400000Y-45837586D01*
X10461487Y-46146703D01*
X10582098Y-46437884D01*
X10757199Y-46699941D01*
X10980059Y-46922801D01*
X11242116Y-47097902D01*
X11533297Y-47218513D01*
X11842414Y-47280000D01*
X12157586Y-47280000D01*
X12466703Y-47218513D01*
X12757884Y-47097902D01*
X13019941Y-46922801D01*
X13242801Y-46699941D01*
X13417902Y-46437884D01*
X13538513Y-46146703D01*
X13600000Y-45837586D01*
X13600000Y-45522414D01*
X13538513Y-45213297D01*
X13417902Y-44922116D01*
X13242801Y-44660059D01*
X13019941Y-44437199D01*
X12757884Y-44262098D01*
X12466703Y-44141487D01*
X12157586Y-44080000D01*
X11842414Y-44080000D01*
X11533297Y-44141487D01*
X11242116Y-44262098D01*
X10980059Y-44437199D01*
X10757199Y-44660059D01*
X10582098Y-44922116D01*
X10461487Y-45213297D01*
X10400000Y-45522414D01*
X1200000Y-45522414D01*
X1200000Y-40921207D01*
X20200000Y-40921207D01*
X20200000Y-41078793D01*
X20230743Y-41233351D01*
X20291049Y-41378942D01*
X20378599Y-41509970D01*
X20490030Y-41621401D01*
X20500000Y-41628063D01*
X20500001Y-48071937D01*
X20490030Y-48078599D01*
X20378599Y-48190030D01*
X20291049Y-48321058D01*
X20230743Y-48466649D01*
X20200000Y-48621207D01*
X20200000Y-48778793D01*
X20230743Y-48933351D01*
X20291049Y-49078942D01*
X20378599Y-49209970D01*
X20490030Y-49321401D01*
X20621058Y-49408951D01*
X20766649Y-49469257D01*
X20921207Y-49500000D01*
X21078793Y-49500000D01*
X21233351Y-49469257D01*
X21378942Y-49408951D01*
X21509970Y-49321401D01*
X21621401Y-49209970D01*
X21708951Y-49078942D01*
X21769257Y-48933351D01*
X21800000Y-48778793D01*
X21800000Y-48621207D01*
X21769257Y-48466649D01*
X21708951Y-48321058D01*
X21621401Y-48190030D01*
X21509970Y-48078599D01*
X21500000Y-48071937D01*
X21500000Y-41628063D01*
X21509970Y-41621401D01*
X21621401Y-41509970D01*
X21708951Y-41378942D01*
X21769257Y-41233351D01*
X21800000Y-41078793D01*
X21800000Y-40921207D01*
X34200000Y-40921207D01*
X34200000Y-41078793D01*
X34230743Y-41233351D01*
X34291049Y-41378942D01*
X34378599Y-41509970D01*
X34490030Y-41621401D01*
X34500000Y-41628063D01*
X34500001Y-48071937D01*
X34490030Y-48078599D01*
X34378599Y-48190030D01*
X34291049Y-48321058D01*
X34230743Y-48466649D01*
X34200000Y-48621207D01*
X34200000Y-48778793D01*
X34230743Y-48933351D01*
X34291049Y-49078942D01*
X34378599Y-49209970D01*
X34490030Y-49321401D01*
X34621058Y-49408951D01*
X34766649Y-49469257D01*
X34921207Y-49500000D01*
X35078793Y-49500000D01*
X35233351Y-49469257D01*
X35378942Y-49408951D01*
X35509970Y-49321401D01*
X35621401Y-49209970D01*
X35708951Y-49078942D01*
X35769257Y-48933351D01*
X35800000Y-48778793D01*
X35800000Y-48621207D01*
X35769257Y-48466649D01*
X35708951Y-48321058D01*
X35621401Y-48190030D01*
X35509970Y-48078599D01*
X35500000Y-48071937D01*
X35500000Y-41628063D01*
X35509970Y-41621401D01*
X35621401Y-41509970D01*
X35708951Y-41378942D01*
X35769257Y-41233351D01*
X35800000Y-41078793D01*
X35800000Y-40921207D01*
X60700000Y-40921207D01*
X60700000Y-41078793D01*
X60730743Y-41233351D01*
X60791049Y-41378942D01*
X60878599Y-41509970D01*
X60990030Y-41621401D01*
X61000001Y-41628063D01*
X61000000Y-54371937D01*
X60990030Y-54378599D01*
X60878599Y-54490030D01*
X60791049Y-54621058D01*
X60730743Y-54766649D01*
X60700000Y-54921207D01*
X60700000Y-55078793D01*
X60730743Y-55233351D01*
X60791049Y-55378942D01*
X60878599Y-55509970D01*
X60990030Y-55621401D01*
X61121058Y-55708951D01*
X61266649Y-55769257D01*
X61421207Y-55800000D01*
X61578793Y-55800000D01*
X61733351Y-55769257D01*
X61878942Y-55708951D01*
X62009970Y-55621401D01*
X62121401Y-55509970D01*
X62208951Y-55378942D01*
X62269257Y-55233351D01*
X62300000Y-55078793D01*
X62300000Y-54921207D01*
X62269257Y-54766649D01*
X62208951Y-54621058D01*
X62121401Y-54490030D01*
X62009970Y-54378599D01*
X62000000Y-54371937D01*
X62000000Y-45862112D01*
X66600000Y-45862112D01*
X66600000Y-46137888D01*
X66653801Y-46408365D01*
X66759336Y-46663149D01*
X66912549Y-46892448D01*
X67107552Y-47087451D01*
X67336851Y-47240664D01*
X67591635Y-47346199D01*
X67862112Y-47400000D01*
X68137888Y-47400000D01*
X68408365Y-47346199D01*
X68663149Y-47240664D01*
X68892448Y-47087451D01*
X69087451Y-46892448D01*
X69240664Y-46663149D01*
X69346199Y-46408365D01*
X69400000Y-46137888D01*
X69400000Y-45862112D01*
X69346199Y-45591635D01*
X69240664Y-45336851D01*
X69087451Y-45107552D01*
X68892448Y-44912549D01*
X68663149Y-44759336D01*
X68408365Y-44653801D01*
X68137888Y-44600000D01*
X67862112Y-44600000D01*
X67591635Y-44653801D01*
X67336851Y-44759336D01*
X67107552Y-44912549D01*
X66912549Y-45107552D01*
X66759336Y-45336851D01*
X66653801Y-45591635D01*
X66600000Y-45862112D01*
X62000000Y-45862112D01*
X62000000Y-41628063D01*
X62009970Y-41621401D01*
X62121401Y-41509970D01*
X62208951Y-41378942D01*
X62269257Y-41233351D01*
X62300000Y-41078793D01*
X62300000Y-40921207D01*
X72200000Y-40921207D01*
X72200000Y-41078793D01*
X72230743Y-41233351D01*
X72291049Y-41378942D01*
X72378599Y-41509970D01*
X72490030Y-41621401D01*
X72500001Y-41628063D01*
X72500000Y-45071937D01*
X72490030Y-45078599D01*
X72378599Y-45190030D01*
X72291049Y-45321058D01*
X72230743Y-45466649D01*
X72200000Y-45621207D01*
X72200000Y-45778793D01*
X72230743Y-45933351D01*
X72291049Y-46078942D01*
X72378599Y-46209970D01*
X72490030Y-46321401D01*
X72621058Y-46408951D01*
X72766649Y-46469257D01*
X72921207Y-46500000D01*
X73078793Y-46500000D01*
X73233351Y-46469257D01*
X73378942Y-46408951D01*
X73509970Y-46321401D01*
X73621401Y-46209970D01*
X73708951Y-46078942D01*
X73769257Y-45933351D01*
X73800000Y-45778793D01*
X73800000Y-45621207D01*
X73769257Y-45466649D01*
X73708951Y-45321058D01*
X73621401Y-45190030D01*
X73509970Y-45078599D01*
X73500000Y-45071937D01*
X73500000Y-41628063D01*
X73509970Y-41621401D01*
X73621401Y-41509970D01*
X73708951Y-41378942D01*
X73769257Y-41233351D01*
X73800000Y-41078793D01*
X73800000Y-40921207D01*
X73769257Y-40766649D01*
X73708951Y-40621058D01*
X73621401Y-40490030D01*
X73509970Y-40378599D01*
X73378942Y-40291049D01*
X73233351Y-40230743D01*
X73078793Y-40200000D01*
X72921207Y-40200000D01*
X72766649Y-40230743D01*
X72621058Y-40291049D01*
X72490030Y-40378599D01*
X72378599Y-40490030D01*
X72291049Y-40621058D01*
X72230743Y-40766649D01*
X72200000Y-40921207D01*
X62300000Y-40921207D01*
X62269257Y-40766649D01*
X62208951Y-40621058D01*
X62121401Y-40490030D01*
X62009970Y-40378599D01*
X61878942Y-40291049D01*
X61733351Y-40230743D01*
X61578793Y-40200000D01*
X61421207Y-40200000D01*
X61266649Y-40230743D01*
X61121058Y-40291049D01*
X60990030Y-40378599D01*
X60878599Y-40490030D01*
X60791049Y-40621058D01*
X60730743Y-40766649D01*
X60700000Y-40921207D01*
X35800000Y-40921207D01*
X35769257Y-40766649D01*
X35708951Y-40621058D01*
X35621401Y-40490030D01*
X35509970Y-40378599D01*
X35378942Y-40291049D01*
X35233351Y-40230743D01*
X35078793Y-40200000D01*
X34921207Y-40200000D01*
X34766649Y-40230743D01*
X34621058Y-40291049D01*
X34490030Y-40378599D01*
X34378599Y-40490030D01*
X34291049Y-40621058D01*
X34230743Y-40766649D01*
X34200000Y-40921207D01*
X21800000Y-40921207D01*
X21769257Y-40766649D01*
X21708951Y-40621058D01*
X21621401Y-40490030D01*
X21509970Y-40378599D01*
X21378942Y-40291049D01*
X21233351Y-40230743D01*
X21078793Y-40200000D01*
X20921207Y-40200000D01*
X20766649Y-40230743D01*
X20621058Y-40291049D01*
X20490030Y-40378599D01*
X20378599Y-40490030D01*
X20291049Y-40621058D01*
X20230743Y-40766649D01*
X20200000Y-40921207D01*
X1200000Y-40921207D01*
X1200000Y-38200000D01*
X119300001Y-38200000D01*
X119300000Y-54307662D01*
X119291049Y-54321058D01*
X119230743Y-54466649D01*
X119200000Y-54621207D01*
X119200000Y-54778793D01*
X119230743Y-54933351D01*
X119291049Y-55078942D01*
X119378599Y-55209970D01*
X119490030Y-55321401D01*
X119621058Y-55408951D01*
X119766649Y-55469257D01*
X119921207Y-55500000D01*
X120078793Y-55500000D01*
X120233351Y-55469257D01*
X120378942Y-55408951D01*
X120509970Y-55321401D01*
X120621401Y-55209970D01*
X120708951Y-55078942D01*
X120769257Y-54933351D01*
X120800000Y-54778793D01*
X120800000Y-54621207D01*
X120769257Y-54466649D01*
X120708951Y-54321058D01*
X120700000Y-54307662D01*
X120700000Y-40921207D01*
X130200000Y-40921207D01*
X130200000Y-41078793D01*
X130230743Y-41233351D01*
X130291049Y-41378942D01*
X130300000Y-41392338D01*
X130300001Y-55607660D01*
X130291049Y-55621058D01*
X130230743Y-55766649D01*
X130200000Y-55921207D01*
X130200000Y-56078793D01*
X130230743Y-56233351D01*
X130291049Y-56378942D01*
X130378599Y-56509970D01*
X130490030Y-56621401D01*
X130621058Y-56708951D01*
X130766649Y-56769257D01*
X130921207Y-56800000D01*
X131078793Y-56800000D01*
X131233351Y-56769257D01*
X131378942Y-56708951D01*
X131509970Y-56621401D01*
X131621401Y-56509970D01*
X131708951Y-56378942D01*
X131769257Y-56233351D01*
X131800000Y-56078793D01*
X131800000Y-55921207D01*
X131769257Y-55766649D01*
X131708951Y-55621058D01*
X131700000Y-55607662D01*
X131700000Y-41392338D01*
X131708951Y-41378942D01*
X131769257Y-41233351D01*
X131800000Y-41078793D01*
X131800000Y-40921207D01*
X131769257Y-40766649D01*
X131708951Y-40621058D01*
X131621401Y-40490030D01*
X131509970Y-40378599D01*
X131378942Y-40291049D01*
X131233351Y-40230743D01*
X131078793Y-40200000D01*
X130921207Y-40200000D01*
X130766649Y-40230743D01*
X130621058Y-40291049D01*
X130490030Y-40378599D01*
X130378599Y-40490030D01*
X130291049Y-40621058D01*
X130230743Y-40766649D01*
X130200000Y-40921207D01*
X120700000Y-40921207D01*
X120700000Y-38200000D01*
X133000000Y-38200000D01*
X133039018Y-38196157D01*
X133076537Y-38184776D01*
X133111114Y-38166294D01*
X133141421Y-38141421D01*
X133166294Y-38111114D01*
X133184776Y-38076537D01*
X133196157Y-38039018D01*
X133200000Y-38000000D01*
X133200000Y-36200000D01*
X135800000Y-36200000D01*
X135800000Y-38000000D01*
G37*
X135800000Y-38000000D02*
X135803843Y-38039018D01*
X135815224Y-38076537D01*
X135833706Y-38111114D01*
X135858579Y-38141421D01*
X135888886Y-38166294D01*
X135923463Y-38184776D01*
X135960982Y-38196157D01*
X136000000Y-38200000D01*
X138800000Y-38200000D01*
X138800000Y-62767310D01*
X138417703Y-62195163D01*
X137804837Y-61582297D01*
X137084182Y-61100770D01*
X136283433Y-60769089D01*
X135433362Y-60600000D01*
X134566638Y-60600000D01*
X133716567Y-60769089D01*
X132915818Y-61100770D01*
X132195163Y-61582297D01*
X131582297Y-62195163D01*
X131100770Y-62915818D01*
X130769089Y-63716567D01*
X130600000Y-64566638D01*
X130600000Y-65433362D01*
X130769089Y-66283433D01*
X131100770Y-67084182D01*
X131582297Y-67804837D01*
X132195163Y-68417703D01*
X132767310Y-68800000D01*
X7232690Y-68800000D01*
X7804837Y-68417703D01*
X8417703Y-67804837D01*
X8899230Y-67084182D01*
X9230911Y-66283433D01*
X9318634Y-65842414D01*
X10400000Y-65842414D01*
X10400000Y-66157586D01*
X10461487Y-66466703D01*
X10582098Y-66757884D01*
X10757199Y-67019941D01*
X10980059Y-67242801D01*
X11242116Y-67417902D01*
X11533297Y-67538513D01*
X11842414Y-67600000D01*
X12157586Y-67600000D01*
X12466703Y-67538513D01*
X12757884Y-67417902D01*
X13019941Y-67242801D01*
X13242801Y-67019941D01*
X13417902Y-66757884D01*
X13538513Y-66466703D01*
X13600000Y-66157586D01*
X13600000Y-65842414D01*
X13538513Y-65533297D01*
X13417902Y-65242116D01*
X13242801Y-64980059D01*
X13019941Y-64757199D01*
X12757884Y-64582098D01*
X12466703Y-64461487D01*
X12157586Y-64400000D01*
X11842414Y-64400000D01*
X11533297Y-64461487D01*
X11242116Y-64582098D01*
X10980059Y-64757199D01*
X10757199Y-64980059D01*
X10582098Y-65242116D01*
X10461487Y-65533297D01*
X10400000Y-65842414D01*
X9318634Y-65842414D01*
X9400000Y-65433362D01*
X9400000Y-64566638D01*
X9351936Y-64325000D01*
X18748065Y-64325000D01*
X18748065Y-65675000D01*
X18760592Y-65802186D01*
X18797691Y-65924485D01*
X18857936Y-66037196D01*
X18939012Y-66135988D01*
X19037804Y-66217064D01*
X19150515Y-66277309D01*
X19272814Y-66314408D01*
X19400000Y-66326935D01*
X20600000Y-66326935D01*
X20727186Y-66314408D01*
X20849485Y-66277309D01*
X20962196Y-66217064D01*
X21060988Y-66135988D01*
X21142064Y-66037196D01*
X21202309Y-65924485D01*
X21239408Y-65802186D01*
X21240546Y-65790632D01*
X21250242Y-65811532D01*
X21417946Y-66041195D01*
X21627233Y-66233728D01*
X21870060Y-66381732D01*
X22137095Y-66479519D01*
X22223920Y-66498475D01*
X22450000Y-66374038D01*
X22450000Y-65050000D01*
X22430000Y-65050000D01*
X22430000Y-64950000D01*
X22450000Y-64950000D01*
X22450000Y-63625962D01*
X22223920Y-63501525D01*
X22137095Y-63520481D01*
X21870060Y-63618268D01*
X21627233Y-63766272D01*
X21417946Y-63958805D01*
X21250242Y-64188468D01*
X21240546Y-64209368D01*
X21239408Y-64197814D01*
X21202309Y-64075515D01*
X21142064Y-63962804D01*
X21060988Y-63864012D01*
X20962196Y-63782936D01*
X20849485Y-63722691D01*
X20727186Y-63685592D01*
X20600000Y-63673065D01*
X19400000Y-63673065D01*
X19272814Y-63685592D01*
X19150515Y-63722691D01*
X19037804Y-63782936D01*
X18939012Y-63864012D01*
X18857936Y-63962804D01*
X18797691Y-64075515D01*
X18760592Y-64197814D01*
X18748065Y-64325000D01*
X9351936Y-64325000D01*
X9230911Y-63716567D01*
X8899230Y-62915818D01*
X8417703Y-62195163D01*
X7804837Y-61582297D01*
X7084182Y-61100770D01*
X6283433Y-60769089D01*
X5433362Y-60600000D01*
X4566638Y-60600000D01*
X3716567Y-60769089D01*
X2915818Y-61100770D01*
X2195163Y-61582297D01*
X1582297Y-62195163D01*
X1200000Y-62767310D01*
X1200000Y-56816080D01*
X3576525Y-56816080D01*
X3579227Y-56829676D01*
X3663040Y-57101289D01*
X3798231Y-57351332D01*
X3979606Y-57570196D01*
X4200194Y-57749470D01*
X4451518Y-57882265D01*
X4723920Y-57963477D01*
X4950000Y-57839140D01*
X4950000Y-56590000D01*
X5050000Y-56590000D01*
X5050000Y-57839140D01*
X5276080Y-57963477D01*
X5548482Y-57882265D01*
X5799806Y-57749470D01*
X6020394Y-57570196D01*
X6201769Y-57351332D01*
X6336960Y-57101289D01*
X6420773Y-56829676D01*
X6423475Y-56816080D01*
X6299038Y-56590000D01*
X5050000Y-56590000D01*
X4950000Y-56590000D01*
X3700962Y-56590000D01*
X3576525Y-56816080D01*
X1200000Y-56816080D01*
X1200000Y-56263920D01*
X3576525Y-56263920D01*
X3700962Y-56490000D01*
X4950000Y-56490000D01*
X4950000Y-56470000D01*
X5050000Y-56470000D01*
X5050000Y-56490000D01*
X6299038Y-56490000D01*
X6423475Y-56263920D01*
X6420773Y-56250324D01*
X6411789Y-56221207D01*
X22400000Y-56221207D01*
X22400000Y-56378793D01*
X22430743Y-56533351D01*
X22491049Y-56678942D01*
X22578599Y-56809970D01*
X22690030Y-56921401D01*
X22700000Y-56928063D01*
X22700001Y-62371937D01*
X22690030Y-62378599D01*
X22578599Y-62490030D01*
X22491049Y-62621058D01*
X22430743Y-62766649D01*
X22400000Y-62921207D01*
X22400000Y-63078793D01*
X22430743Y-63233351D01*
X22491049Y-63378942D01*
X22578599Y-63509970D01*
X22643260Y-63574631D01*
X22550000Y-63625962D01*
X22550000Y-64950000D01*
X22570000Y-64950000D01*
X22570000Y-65050000D01*
X22550000Y-65050000D01*
X22550000Y-66374038D01*
X22776080Y-66498475D01*
X22862905Y-66479519D01*
X23129940Y-66381732D01*
X23372767Y-66233728D01*
X23582054Y-66041195D01*
X23749758Y-65811532D01*
X23855032Y-65584609D01*
X23955634Y-65772823D01*
X24111841Y-65963160D01*
X24302178Y-66119366D01*
X24519332Y-66235437D01*
X24754958Y-66306913D01*
X25000000Y-66331048D01*
X25245043Y-66306913D01*
X25480669Y-66235437D01*
X25697823Y-66119366D01*
X25888160Y-65963160D01*
X26044366Y-65772822D01*
X26160437Y-65555668D01*
X26231913Y-65320042D01*
X26250000Y-65136405D01*
X26268087Y-65320043D01*
X26339563Y-65555669D01*
X26455634Y-65772823D01*
X26611841Y-65963160D01*
X26802178Y-66119366D01*
X27019332Y-66235437D01*
X27254958Y-66306913D01*
X27500000Y-66331048D01*
X27745043Y-66306913D01*
X27980669Y-66235437D01*
X28197823Y-66119366D01*
X28388160Y-65963160D01*
X28544366Y-65772822D01*
X28660437Y-65555668D01*
X28731913Y-65320042D01*
X28750000Y-65136405D01*
X28768087Y-65320043D01*
X28839563Y-65555669D01*
X28955634Y-65772823D01*
X29111841Y-65963160D01*
X29302178Y-66119366D01*
X29519332Y-66235437D01*
X29754958Y-66306913D01*
X30000000Y-66331048D01*
X30245043Y-66306913D01*
X30480669Y-66235437D01*
X30697823Y-66119366D01*
X30888160Y-65963160D01*
X31044366Y-65772822D01*
X31160437Y-65555668D01*
X31231913Y-65320042D01*
X31250000Y-65136405D01*
X31268087Y-65320043D01*
X31339563Y-65555669D01*
X31455634Y-65772823D01*
X31611841Y-65963160D01*
X31802178Y-66119366D01*
X32019332Y-66235437D01*
X32254958Y-66306913D01*
X32500000Y-66331048D01*
X32745043Y-66306913D01*
X32980669Y-66235437D01*
X33197823Y-66119366D01*
X33388160Y-65963160D01*
X33544366Y-65772822D01*
X33660437Y-65555668D01*
X33731913Y-65320042D01*
X33750000Y-65136404D01*
X33750000Y-64863595D01*
X33731913Y-64679957D01*
X33660437Y-64444331D01*
X33596654Y-64325000D01*
X38748065Y-64325000D01*
X38748065Y-65675000D01*
X38760592Y-65802186D01*
X38797691Y-65924485D01*
X38857936Y-66037196D01*
X38939012Y-66135988D01*
X39037804Y-66217064D01*
X39150515Y-66277309D01*
X39272814Y-66314408D01*
X39400000Y-66326935D01*
X40600000Y-66326935D01*
X40727186Y-66314408D01*
X40849485Y-66277309D01*
X40962196Y-66217064D01*
X41060988Y-66135988D01*
X41142064Y-66037196D01*
X41202309Y-65924485D01*
X41239408Y-65802186D01*
X41251935Y-65675000D01*
X41251935Y-65156051D01*
X41268087Y-65320043D01*
X41339563Y-65555669D01*
X41455634Y-65772823D01*
X41611841Y-65963160D01*
X41802178Y-66119366D01*
X42019332Y-66235437D01*
X42254958Y-66306913D01*
X42500000Y-66331048D01*
X42745043Y-66306913D01*
X42980669Y-66235437D01*
X43197823Y-66119366D01*
X43388160Y-65963160D01*
X43544366Y-65772822D01*
X43644968Y-65584608D01*
X43750242Y-65811532D01*
X43917946Y-66041195D01*
X44127233Y-66233728D01*
X44370060Y-66381732D01*
X44637095Y-66479519D01*
X44723920Y-66498475D01*
X44950000Y-66374038D01*
X44950000Y-65050000D01*
X45050000Y-65050000D01*
X45050000Y-66374038D01*
X45276080Y-66498475D01*
X45362905Y-66479519D01*
X45629940Y-66381732D01*
X45872767Y-66233728D01*
X46082054Y-66041195D01*
X46249758Y-65811532D01*
X46338053Y-65621207D01*
X87900000Y-65621207D01*
X87900000Y-65778793D01*
X87930743Y-65933351D01*
X87991049Y-66078942D01*
X88078599Y-66209970D01*
X88190030Y-66321401D01*
X88321058Y-66408951D01*
X88466649Y-66469257D01*
X88621207Y-66500000D01*
X88778793Y-66500000D01*
X88933351Y-66469257D01*
X89078942Y-66408951D01*
X89209970Y-66321401D01*
X89321401Y-66209970D01*
X89408951Y-66078942D01*
X89469257Y-65933351D01*
X89500000Y-65778793D01*
X89500000Y-65621207D01*
X89497660Y-65609445D01*
X90782106Y-64325000D01*
X98748065Y-64325000D01*
X98748065Y-65675000D01*
X98760592Y-65802186D01*
X98797691Y-65924485D01*
X98857936Y-66037196D01*
X98939012Y-66135988D01*
X99037804Y-66217064D01*
X99150515Y-66277309D01*
X99272814Y-66314408D01*
X99400000Y-66326935D01*
X100600000Y-66326935D01*
X100727186Y-66314408D01*
X100849485Y-66277309D01*
X100962196Y-66217064D01*
X101060988Y-66135988D01*
X101142064Y-66037196D01*
X101202309Y-65924485D01*
X101239408Y-65802186D01*
X101251935Y-65675000D01*
X101251935Y-65156051D01*
X101268087Y-65320043D01*
X101339563Y-65555669D01*
X101455634Y-65772823D01*
X101611841Y-65963160D01*
X101802178Y-66119366D01*
X102019332Y-66235437D01*
X102254958Y-66306913D01*
X102500000Y-66331048D01*
X102745043Y-66306913D01*
X102980669Y-66235437D01*
X103197823Y-66119366D01*
X103388160Y-65963160D01*
X103544366Y-65772822D01*
X103660437Y-65555668D01*
X103731913Y-65320042D01*
X103750000Y-65136405D01*
X103768087Y-65320043D01*
X103839563Y-65555669D01*
X103955634Y-65772823D01*
X104111841Y-65963160D01*
X104302178Y-66119366D01*
X104519332Y-66235437D01*
X104754958Y-66306913D01*
X105000000Y-66331048D01*
X105245043Y-66306913D01*
X105480669Y-66235437D01*
X105697823Y-66119366D01*
X105888160Y-65963160D01*
X106044366Y-65772822D01*
X106160437Y-65555668D01*
X106231913Y-65320042D01*
X106250000Y-65136405D01*
X106268087Y-65320043D01*
X106339563Y-65555669D01*
X106455634Y-65772823D01*
X106611841Y-65963160D01*
X106802178Y-66119366D01*
X107019332Y-66235437D01*
X107254958Y-66306913D01*
X107500000Y-66331048D01*
X107745043Y-66306913D01*
X107980669Y-66235437D01*
X108197823Y-66119366D01*
X108388160Y-65963160D01*
X108544366Y-65772822D01*
X108660437Y-65555668D01*
X108731913Y-65320042D01*
X108750000Y-65136404D01*
X108750000Y-64863595D01*
X108731913Y-64679957D01*
X108660437Y-64444331D01*
X108596654Y-64325000D01*
X113748065Y-64325000D01*
X113748065Y-65675000D01*
X113760592Y-65802186D01*
X113797691Y-65924485D01*
X113857936Y-66037196D01*
X113939012Y-66135988D01*
X114037804Y-66217064D01*
X114150515Y-66277309D01*
X114272814Y-66314408D01*
X114400000Y-66326935D01*
X115600000Y-66326935D01*
X115727186Y-66314408D01*
X115849485Y-66277309D01*
X115962196Y-66217064D01*
X116060988Y-66135988D01*
X116142064Y-66037196D01*
X116202309Y-65924485D01*
X116239408Y-65802186D01*
X116240546Y-65790632D01*
X116250242Y-65811532D01*
X116417946Y-66041195D01*
X116627233Y-66233728D01*
X116870060Y-66381732D01*
X117137095Y-66479519D01*
X117223920Y-66498475D01*
X117450000Y-66374038D01*
X117450000Y-65050000D01*
X117550000Y-65050000D01*
X117550000Y-66374038D01*
X117776080Y-66498475D01*
X117862905Y-66479519D01*
X118129940Y-66381732D01*
X118372767Y-66233728D01*
X118582054Y-66041195D01*
X118749758Y-65811532D01*
X118869434Y-65553564D01*
X118936484Y-65277205D01*
X118800430Y-65050000D01*
X117550000Y-65050000D01*
X117450000Y-65050000D01*
X117430000Y-65050000D01*
X117430000Y-64950000D01*
X117450000Y-64950000D01*
X117450000Y-63625962D01*
X117550000Y-63625962D01*
X117550000Y-64950000D01*
X118800430Y-64950000D01*
X118936484Y-64722795D01*
X118869434Y-64446436D01*
X118749758Y-64188468D01*
X118582054Y-63958805D01*
X118372767Y-63766272D01*
X118129940Y-63618268D01*
X117862905Y-63520481D01*
X117776080Y-63501525D01*
X117550000Y-63625962D01*
X117450000Y-63625962D01*
X117223920Y-63501525D01*
X117137095Y-63520481D01*
X116870060Y-63618268D01*
X116627233Y-63766272D01*
X116417946Y-63958805D01*
X116250242Y-64188468D01*
X116240546Y-64209368D01*
X116239408Y-64197814D01*
X116202309Y-64075515D01*
X116142064Y-63962804D01*
X116060988Y-63864012D01*
X115962196Y-63782936D01*
X115849485Y-63722691D01*
X115727186Y-63685592D01*
X115600000Y-63673065D01*
X115600000Y-58862112D01*
X123600000Y-58862112D01*
X123600000Y-59137888D01*
X123653801Y-59408365D01*
X123759336Y-59663149D01*
X123912549Y-59892448D01*
X124107552Y-60087451D01*
X124336851Y-60240664D01*
X124591635Y-60346199D01*
X124862112Y-60400000D01*
X125137888Y-60400000D01*
X125408365Y-60346199D01*
X125663149Y-60240664D01*
X125892448Y-60087451D01*
X126087451Y-59892448D01*
X126240664Y-59663149D01*
X126346199Y-59408365D01*
X126400000Y-59137888D01*
X126400000Y-58862112D01*
X126346199Y-58591635D01*
X126240664Y-58336851D01*
X126087451Y-58107552D01*
X125892448Y-57912549D01*
X125663149Y-57759336D01*
X125408365Y-57653801D01*
X125137888Y-57600000D01*
X124862112Y-57600000D01*
X124591635Y-57653801D01*
X124336851Y-57759336D01*
X124107552Y-57912549D01*
X123912549Y-58107552D01*
X123759336Y-58336851D01*
X123653801Y-58591635D01*
X123600000Y-58862112D01*
X115600000Y-58862112D01*
X115600000Y-50331371D01*
X115621401Y-50309970D01*
X115708951Y-50178942D01*
X115769257Y-50033351D01*
X115800000Y-49878793D01*
X115800000Y-49721207D01*
X115769257Y-49566649D01*
X115708951Y-49421058D01*
X115621401Y-49290030D01*
X115509970Y-49178599D01*
X115378942Y-49091049D01*
X115233351Y-49030743D01*
X115078793Y-49000000D01*
X114921207Y-49000000D01*
X114766649Y-49030743D01*
X114621058Y-49091049D01*
X114490030Y-49178599D01*
X114378599Y-49290030D01*
X114291049Y-49421058D01*
X114230743Y-49566649D01*
X114200000Y-49721207D01*
X114200000Y-49878793D01*
X114230743Y-50033351D01*
X114291049Y-50178942D01*
X114378599Y-50309970D01*
X114400001Y-50331372D01*
X114400000Y-63673065D01*
X114272814Y-63685592D01*
X114150515Y-63722691D01*
X114037804Y-63782936D01*
X113939012Y-63864012D01*
X113857936Y-63962804D01*
X113797691Y-64075515D01*
X113760592Y-64197814D01*
X113748065Y-64325000D01*
X108596654Y-64325000D01*
X108544366Y-64227177D01*
X108388160Y-64036840D01*
X108200000Y-63882421D01*
X108200000Y-59989949D01*
X108217549Y-59972400D01*
X108233351Y-59969257D01*
X108378942Y-59908951D01*
X108509970Y-59821401D01*
X108621401Y-59709970D01*
X108708951Y-59578942D01*
X108769257Y-59433351D01*
X108800000Y-59278793D01*
X108800000Y-59121207D01*
X108769257Y-58966649D01*
X108708951Y-58821058D01*
X108621401Y-58690030D01*
X108509970Y-58578599D01*
X108378942Y-58491049D01*
X108233351Y-58430743D01*
X108078793Y-58400000D01*
X107921207Y-58400000D01*
X107766649Y-58430743D01*
X107621058Y-58491049D01*
X107490030Y-58578599D01*
X107378599Y-58690030D01*
X107291049Y-58821058D01*
X107230743Y-58966649D01*
X107227600Y-58982451D01*
X107029342Y-59180709D01*
X107002630Y-59202631D01*
X106980709Y-59229342D01*
X106980708Y-59229343D01*
X106915155Y-59309219D01*
X106900186Y-59337224D01*
X106850155Y-59430826D01*
X106810128Y-59562777D01*
X106800000Y-59665610D01*
X106796613Y-59700000D01*
X106800000Y-59734387D01*
X106800001Y-63882420D01*
X106611840Y-64036840D01*
X106455634Y-64227178D01*
X106339563Y-64444332D01*
X106268087Y-64679958D01*
X106250000Y-64863595D01*
X106231913Y-64679957D01*
X106160437Y-64444331D01*
X106044366Y-64227177D01*
X105888160Y-64036840D01*
X105697822Y-63880634D01*
X105480668Y-63764563D01*
X105245042Y-63693087D01*
X105000000Y-63668952D01*
X104754957Y-63693087D01*
X104519331Y-63764563D01*
X104302177Y-63880634D01*
X104111840Y-64036840D01*
X103955634Y-64227178D01*
X103839563Y-64444332D01*
X103768087Y-64679958D01*
X103750000Y-64863595D01*
X103731913Y-64679957D01*
X103660437Y-64444331D01*
X103544366Y-64227177D01*
X103388160Y-64036840D01*
X103200000Y-63882421D01*
X103200000Y-58834390D01*
X103203387Y-58800000D01*
X103189872Y-58662776D01*
X103149845Y-58530825D01*
X103084845Y-58409219D01*
X103019292Y-58329342D01*
X103019287Y-58329337D01*
X102997369Y-58302630D01*
X102970663Y-58280713D01*
X101972400Y-57282451D01*
X101969257Y-57266649D01*
X101908951Y-57121058D01*
X101821401Y-56990030D01*
X101709970Y-56878599D01*
X101578942Y-56791049D01*
X101433351Y-56730743D01*
X101278793Y-56700000D01*
X101121207Y-56700000D01*
X100966649Y-56730743D01*
X100821058Y-56791049D01*
X100690030Y-56878599D01*
X100578599Y-56990030D01*
X100491049Y-57121058D01*
X100430743Y-57266649D01*
X100400000Y-57421207D01*
X100400000Y-57578793D01*
X100430743Y-57733351D01*
X100491049Y-57878942D01*
X100578599Y-58009970D01*
X100690030Y-58121401D01*
X100821058Y-58208951D01*
X100966649Y-58269257D01*
X100982451Y-58272400D01*
X101800000Y-59089950D01*
X101800001Y-63882420D01*
X101611840Y-64036840D01*
X101455634Y-64227178D01*
X101339563Y-64444332D01*
X101268087Y-64679958D01*
X101251935Y-64843950D01*
X101251935Y-64325000D01*
X101239408Y-64197814D01*
X101202309Y-64075515D01*
X101142064Y-63962804D01*
X101060988Y-63864012D01*
X100962196Y-63782936D01*
X100849485Y-63722691D01*
X100727186Y-63685592D01*
X100600000Y-63673065D01*
X99400000Y-63673065D01*
X99272814Y-63685592D01*
X99150515Y-63722691D01*
X99037804Y-63782936D01*
X98939012Y-63864012D01*
X98857936Y-63962804D01*
X98797691Y-64075515D01*
X98760592Y-64197814D01*
X98748065Y-64325000D01*
X90782106Y-64325000D01*
X91809446Y-63297661D01*
X91821207Y-63300000D01*
X91978793Y-63300000D01*
X92133351Y-63269257D01*
X92278942Y-63208951D01*
X92409970Y-63121401D01*
X92521401Y-63009970D01*
X92608951Y-62878942D01*
X92669257Y-62733351D01*
X92700000Y-62578793D01*
X92700000Y-62421207D01*
X92669257Y-62266649D01*
X92608951Y-62121058D01*
X92521401Y-61990030D01*
X92409970Y-61878599D01*
X92278942Y-61791049D01*
X92133351Y-61730743D01*
X91978793Y-61700000D01*
X91821207Y-61700000D01*
X91666649Y-61730743D01*
X91521058Y-61791049D01*
X91390030Y-61878599D01*
X91278599Y-61990030D01*
X91191049Y-62121058D01*
X91130743Y-62266649D01*
X91100000Y-62421207D01*
X91100000Y-62578793D01*
X91102339Y-62590554D01*
X88790555Y-64902340D01*
X88778793Y-64900000D01*
X88621207Y-64900000D01*
X88466649Y-64930743D01*
X88321058Y-64991049D01*
X88190030Y-65078599D01*
X88078599Y-65190030D01*
X87991049Y-65321058D01*
X87930743Y-65466649D01*
X87900000Y-65621207D01*
X46338053Y-65621207D01*
X46369434Y-65553564D01*
X46436484Y-65277205D01*
X46300430Y-65050000D01*
X45050000Y-65050000D01*
X44950000Y-65050000D01*
X44930000Y-65050000D01*
X44930000Y-64950000D01*
X44950000Y-64950000D01*
X44950000Y-63625962D01*
X45050000Y-63625962D01*
X45050000Y-64950000D01*
X46300430Y-64950000D01*
X46436484Y-64722795D01*
X46369434Y-64446436D01*
X46249758Y-64188468D01*
X46082054Y-63958805D01*
X45872767Y-63766272D01*
X45629940Y-63618268D01*
X45362905Y-63520481D01*
X45276080Y-63501525D01*
X45050000Y-63625962D01*
X44950000Y-63625962D01*
X44723920Y-63501525D01*
X44637095Y-63520481D01*
X44370060Y-63618268D01*
X44127233Y-63766272D01*
X43917946Y-63958805D01*
X43750242Y-64188468D01*
X43644968Y-64415391D01*
X43544366Y-64227177D01*
X43388160Y-64036840D01*
X43197822Y-63880634D01*
X42980668Y-63764563D01*
X42745042Y-63693087D01*
X42500000Y-63668952D01*
X42254957Y-63693087D01*
X42019331Y-63764563D01*
X41802177Y-63880634D01*
X41611840Y-64036840D01*
X41455634Y-64227178D01*
X41339563Y-64444332D01*
X41268087Y-64679958D01*
X41251935Y-64843950D01*
X41251935Y-64325000D01*
X41239408Y-64197814D01*
X41202309Y-64075515D01*
X41142064Y-63962804D01*
X41060988Y-63864012D01*
X40962196Y-63782936D01*
X40849485Y-63722691D01*
X40727186Y-63685592D01*
X40600000Y-63673065D01*
X39400000Y-63673065D01*
X39272814Y-63685592D01*
X39150515Y-63722691D01*
X39037804Y-63782936D01*
X38939012Y-63864012D01*
X38857936Y-63962804D01*
X38797691Y-64075515D01*
X38760592Y-64197814D01*
X38748065Y-64325000D01*
X33596654Y-64325000D01*
X33544366Y-64227177D01*
X33388160Y-64036840D01*
X33197822Y-63880634D01*
X33000000Y-63774896D01*
X33000000Y-56221207D01*
X36400000Y-56221207D01*
X36400000Y-56378793D01*
X36430743Y-56533351D01*
X36491049Y-56678942D01*
X36578599Y-56809970D01*
X36690030Y-56921401D01*
X36700001Y-56928063D01*
X36700000Y-62371937D01*
X36690030Y-62378599D01*
X36578599Y-62490030D01*
X36491049Y-62621058D01*
X36430743Y-62766649D01*
X36400000Y-62921207D01*
X36400000Y-63078793D01*
X36430743Y-63233351D01*
X36491049Y-63378942D01*
X36578599Y-63509970D01*
X36690030Y-63621401D01*
X36821058Y-63708951D01*
X36966649Y-63769257D01*
X37121207Y-63800000D01*
X37278793Y-63800000D01*
X37433351Y-63769257D01*
X37578942Y-63708951D01*
X37709970Y-63621401D01*
X37821401Y-63509970D01*
X37908951Y-63378942D01*
X37969257Y-63233351D01*
X38000000Y-63078793D01*
X38000000Y-62994881D01*
X38021058Y-63008951D01*
X38166649Y-63069257D01*
X38321207Y-63100000D01*
X38478793Y-63100000D01*
X38633351Y-63069257D01*
X38778942Y-63008951D01*
X38909970Y-62921401D01*
X39018505Y-62812866D01*
X53600000Y-62812866D01*
X53600000Y-63187134D01*
X53673016Y-63554209D01*
X53816242Y-63899987D01*
X54024174Y-64211179D01*
X54288821Y-64475826D01*
X54600013Y-64683758D01*
X54945791Y-64826984D01*
X55312866Y-64900000D01*
X55687134Y-64900000D01*
X56054209Y-64826984D01*
X56399987Y-64683758D01*
X56711179Y-64475826D01*
X56975826Y-64211179D01*
X57183758Y-63899987D01*
X57326984Y-63554209D01*
X57400000Y-63187134D01*
X57400000Y-62827640D01*
X65000000Y-62827640D01*
X65000000Y-63172360D01*
X65067251Y-63510456D01*
X65199170Y-63828936D01*
X65390686Y-64115560D01*
X65634440Y-64359314D01*
X65921064Y-64550830D01*
X66239544Y-64682749D01*
X66577640Y-64750000D01*
X66922360Y-64750000D01*
X67260456Y-64682749D01*
X67578936Y-64550830D01*
X67865560Y-64359314D01*
X68109314Y-64115560D01*
X68300830Y-63828936D01*
X68432749Y-63510456D01*
X68500000Y-63172360D01*
X68500000Y-62827640D01*
X68497062Y-62812866D01*
X76100000Y-62812866D01*
X76100000Y-63187134D01*
X76173016Y-63554209D01*
X76316242Y-63899987D01*
X76524174Y-64211179D01*
X76788821Y-64475826D01*
X77100013Y-64683758D01*
X77445791Y-64826984D01*
X77812866Y-64900000D01*
X78187134Y-64900000D01*
X78554209Y-64826984D01*
X78899987Y-64683758D01*
X79211179Y-64475826D01*
X79475826Y-64211179D01*
X79683758Y-63899987D01*
X79826984Y-63554209D01*
X79900000Y-63187134D01*
X79900000Y-62812866D01*
X79826984Y-62445791D01*
X79683758Y-62100013D01*
X79475826Y-61788821D01*
X79211179Y-61524174D01*
X78899987Y-61316242D01*
X78700000Y-61233405D01*
X78700000Y-59862112D01*
X93600000Y-59862112D01*
X93600000Y-60137888D01*
X93653801Y-60408365D01*
X93759336Y-60663149D01*
X93912549Y-60892448D01*
X94107552Y-61087451D01*
X94336851Y-61240664D01*
X94591635Y-61346199D01*
X94862112Y-61400000D01*
X95137888Y-61400000D01*
X95408365Y-61346199D01*
X95663149Y-61240664D01*
X95892448Y-61087451D01*
X96087451Y-60892448D01*
X96240664Y-60663149D01*
X96346199Y-60408365D01*
X96400000Y-60137888D01*
X96400000Y-59862112D01*
X96346199Y-59591635D01*
X96240664Y-59336851D01*
X96087451Y-59107552D01*
X95892448Y-58912549D01*
X95663149Y-58759336D01*
X95408365Y-58653801D01*
X95137888Y-58600000D01*
X94862112Y-58600000D01*
X94591635Y-58653801D01*
X94336851Y-58759336D01*
X94107552Y-58912549D01*
X93912549Y-59107552D01*
X93759336Y-59336851D01*
X93653801Y-59591635D01*
X93600000Y-59862112D01*
X78700000Y-59862112D01*
X78700000Y-49862112D01*
X85600000Y-49862112D01*
X85600000Y-50137888D01*
X85653801Y-50408365D01*
X85759336Y-50663149D01*
X85912549Y-50892448D01*
X86107552Y-51087451D01*
X86336851Y-51240664D01*
X86591635Y-51346199D01*
X86862112Y-51400000D01*
X87137888Y-51400000D01*
X87408365Y-51346199D01*
X87663149Y-51240664D01*
X87892448Y-51087451D01*
X88087451Y-50892448D01*
X88240664Y-50663149D01*
X88346199Y-50408365D01*
X88400000Y-50137888D01*
X88400000Y-49862112D01*
X88346199Y-49591635D01*
X88240664Y-49336851D01*
X88087451Y-49107552D01*
X87892448Y-48912549D01*
X87663149Y-48759336D01*
X87408365Y-48653801D01*
X87137888Y-48600000D01*
X86862112Y-48600000D01*
X86591635Y-48653801D01*
X86336851Y-48759336D01*
X86107552Y-48912549D01*
X85912549Y-49107552D01*
X85759336Y-49336851D01*
X85653801Y-49591635D01*
X85600000Y-49862112D01*
X78700000Y-49862112D01*
X78700000Y-42521207D01*
X104200000Y-42521207D01*
X104200000Y-42678793D01*
X104230743Y-42833351D01*
X104291049Y-42978942D01*
X104378599Y-43109970D01*
X104490030Y-43221401D01*
X104500001Y-43228063D01*
X104500000Y-52171937D01*
X104490030Y-52178599D01*
X104378599Y-52290030D01*
X104291049Y-52421058D01*
X104230743Y-52566649D01*
X104200000Y-52721207D01*
X104200000Y-52878793D01*
X104230743Y-53033351D01*
X104291049Y-53178942D01*
X104378599Y-53309970D01*
X104490030Y-53421401D01*
X104621058Y-53508951D01*
X104766649Y-53569257D01*
X104921207Y-53600000D01*
X105078793Y-53600000D01*
X105233351Y-53569257D01*
X105378942Y-53508951D01*
X105509970Y-53421401D01*
X105621401Y-53309970D01*
X105708951Y-53178942D01*
X105769257Y-53033351D01*
X105800000Y-52878793D01*
X105800000Y-52721207D01*
X105769257Y-52566649D01*
X105708951Y-52421058D01*
X105621401Y-52290030D01*
X105509970Y-52178599D01*
X105500000Y-52171937D01*
X105500000Y-43228063D01*
X105509970Y-43221401D01*
X105621401Y-43109970D01*
X105708951Y-42978942D01*
X105769257Y-42833351D01*
X105800000Y-42678793D01*
X105800000Y-42521207D01*
X105769257Y-42366649D01*
X105708951Y-42221058D01*
X105621401Y-42090030D01*
X105509970Y-41978599D01*
X105378942Y-41891049D01*
X105233351Y-41830743D01*
X105078793Y-41800000D01*
X104921207Y-41800000D01*
X104766649Y-41830743D01*
X104621058Y-41891049D01*
X104490030Y-41978599D01*
X104378599Y-42090030D01*
X104291049Y-42221058D01*
X104230743Y-42366649D01*
X104200000Y-42521207D01*
X78700000Y-42521207D01*
X78700000Y-41392338D01*
X78708951Y-41378942D01*
X78769257Y-41233351D01*
X78800000Y-41078793D01*
X78800000Y-40921207D01*
X106200000Y-40921207D01*
X106200000Y-41078793D01*
X106230743Y-41233351D01*
X106291049Y-41378942D01*
X106378599Y-41509970D01*
X106400001Y-41531372D01*
X106400000Y-44168629D01*
X106378599Y-44190030D01*
X106291049Y-44321058D01*
X106230743Y-44466649D01*
X106200000Y-44621207D01*
X106200000Y-44778793D01*
X106230743Y-44933351D01*
X106291049Y-45078942D01*
X106378599Y-45209970D01*
X106490030Y-45321401D01*
X106621058Y-45408951D01*
X106766649Y-45469257D01*
X106921207Y-45500000D01*
X107078793Y-45500000D01*
X107233351Y-45469257D01*
X107378942Y-45408951D01*
X107509970Y-45321401D01*
X107621401Y-45209970D01*
X107708951Y-45078942D01*
X107769257Y-44933351D01*
X107800000Y-44778793D01*
X107800000Y-44621207D01*
X107769257Y-44466649D01*
X107708951Y-44321058D01*
X107621401Y-44190030D01*
X107600000Y-44168629D01*
X107600000Y-41821207D01*
X109400000Y-41821207D01*
X109400000Y-41978793D01*
X109430743Y-42133351D01*
X109491049Y-42278942D01*
X109578599Y-42409970D01*
X109690030Y-42521401D01*
X109700001Y-42528063D01*
X109700000Y-53871937D01*
X109690030Y-53878599D01*
X109578599Y-53990030D01*
X109491049Y-54121058D01*
X109430743Y-54266649D01*
X109400000Y-54421207D01*
X109400000Y-54578793D01*
X109430743Y-54733351D01*
X109491049Y-54878942D01*
X109578599Y-55009970D01*
X109690030Y-55121401D01*
X109821058Y-55208951D01*
X109966649Y-55269257D01*
X110121207Y-55300000D01*
X110278793Y-55300000D01*
X110433351Y-55269257D01*
X110578942Y-55208951D01*
X110709970Y-55121401D01*
X110821401Y-55009970D01*
X110908951Y-54878942D01*
X110969257Y-54733351D01*
X111000000Y-54578793D01*
X111000000Y-54421207D01*
X110969257Y-54266649D01*
X110908951Y-54121058D01*
X110821401Y-53990030D01*
X110709970Y-53878599D01*
X110700000Y-53871937D01*
X110700000Y-42528063D01*
X110709970Y-42521401D01*
X110821401Y-42409970D01*
X110908951Y-42278942D01*
X110969257Y-42133351D01*
X111000000Y-41978793D01*
X111000000Y-41821207D01*
X110969257Y-41666649D01*
X110908951Y-41521058D01*
X110821401Y-41390030D01*
X110709970Y-41278599D01*
X110578942Y-41191049D01*
X110433351Y-41130743D01*
X110278793Y-41100000D01*
X110121207Y-41100000D01*
X109966649Y-41130743D01*
X109821058Y-41191049D01*
X109690030Y-41278599D01*
X109578599Y-41390030D01*
X109491049Y-41521058D01*
X109430743Y-41666649D01*
X109400000Y-41821207D01*
X107600000Y-41821207D01*
X107600000Y-41531371D01*
X107621401Y-41509970D01*
X107708951Y-41378942D01*
X107769257Y-41233351D01*
X107800000Y-41078793D01*
X107800000Y-40921207D01*
X107769257Y-40766649D01*
X107708951Y-40621058D01*
X107621401Y-40490030D01*
X107509970Y-40378599D01*
X107378942Y-40291049D01*
X107233351Y-40230743D01*
X107078793Y-40200000D01*
X106921207Y-40200000D01*
X106766649Y-40230743D01*
X106621058Y-40291049D01*
X106490030Y-40378599D01*
X106378599Y-40490030D01*
X106291049Y-40621058D01*
X106230743Y-40766649D01*
X106200000Y-40921207D01*
X78800000Y-40921207D01*
X78769257Y-40766649D01*
X78708951Y-40621058D01*
X78621401Y-40490030D01*
X78509970Y-40378599D01*
X78378942Y-40291049D01*
X78233351Y-40230743D01*
X78078793Y-40200000D01*
X77921207Y-40200000D01*
X77766649Y-40230743D01*
X77621058Y-40291049D01*
X77490030Y-40378599D01*
X77378599Y-40490030D01*
X77291049Y-40621058D01*
X77230743Y-40766649D01*
X77200000Y-40921207D01*
X77200000Y-41078793D01*
X77230743Y-41233351D01*
X77291049Y-41378942D01*
X77300001Y-41392340D01*
X77300001Y-41858350D01*
X77233351Y-41830743D01*
X77078793Y-41800000D01*
X76921207Y-41800000D01*
X76766649Y-41830743D01*
X76621058Y-41891049D01*
X76490030Y-41978599D01*
X76378599Y-42090030D01*
X76291049Y-42221058D01*
X76230743Y-42366649D01*
X76200000Y-42521207D01*
X76200000Y-42678793D01*
X76230743Y-42833351D01*
X76291049Y-42978942D01*
X76378599Y-43109970D01*
X76490030Y-43221401D01*
X76500000Y-43228063D01*
X76500001Y-45171937D01*
X76490030Y-45178599D01*
X76378599Y-45290030D01*
X76291049Y-45421058D01*
X76230743Y-45566649D01*
X76200000Y-45721207D01*
X76200000Y-45878793D01*
X76230743Y-46033351D01*
X76291049Y-46178942D01*
X76378599Y-46309970D01*
X76490030Y-46421401D01*
X76621058Y-46508951D01*
X76766649Y-46569257D01*
X76921207Y-46600000D01*
X77078793Y-46600000D01*
X77233351Y-46569257D01*
X77300001Y-46541650D01*
X77300000Y-61233405D01*
X77100013Y-61316242D01*
X76788821Y-61524174D01*
X76524174Y-61788821D01*
X76316242Y-62100013D01*
X76173016Y-62445791D01*
X76100000Y-62812866D01*
X68497062Y-62812866D01*
X68432749Y-62489544D01*
X68300830Y-62171064D01*
X68109314Y-61884440D01*
X67865560Y-61640686D01*
X67578936Y-61449170D01*
X67260456Y-61317251D01*
X66922360Y-61250000D01*
X66577640Y-61250000D01*
X66239544Y-61317251D01*
X65921064Y-61449170D01*
X65634440Y-61640686D01*
X65390686Y-61884440D01*
X65199170Y-62171064D01*
X65067251Y-62489544D01*
X65000000Y-62827640D01*
X57400000Y-62827640D01*
X57400000Y-62812866D01*
X57326984Y-62445791D01*
X57183758Y-62100013D01*
X56975826Y-61788821D01*
X56711179Y-61524174D01*
X56399987Y-61316242D01*
X56054209Y-61173016D01*
X55687134Y-61100000D01*
X55312866Y-61100000D01*
X54945791Y-61173016D01*
X54600013Y-61316242D01*
X54288821Y-61524174D01*
X54024174Y-61788821D01*
X53816242Y-62100013D01*
X53673016Y-62445791D01*
X53600000Y-62812866D01*
X39018505Y-62812866D01*
X39021401Y-62809970D01*
X39108951Y-62678942D01*
X39169257Y-62533351D01*
X39200000Y-62378793D01*
X39200000Y-62221207D01*
X39169257Y-62066649D01*
X39108951Y-61921058D01*
X39021401Y-61790030D01*
X38909970Y-61678599D01*
X38900000Y-61671937D01*
X38900000Y-56928063D01*
X38909970Y-56921401D01*
X39021401Y-56809970D01*
X39108951Y-56678942D01*
X39169257Y-56533351D01*
X39200000Y-56378793D01*
X39200000Y-56221207D01*
X39169257Y-56066649D01*
X39108951Y-55921058D01*
X39021401Y-55790030D01*
X38909970Y-55678599D01*
X38778942Y-55591049D01*
X38633351Y-55530743D01*
X38478793Y-55500000D01*
X38321207Y-55500000D01*
X38166649Y-55530743D01*
X38021058Y-55591049D01*
X37890030Y-55678599D01*
X37800000Y-55768629D01*
X37709970Y-55678599D01*
X37578942Y-55591049D01*
X37433351Y-55530743D01*
X37278793Y-55500000D01*
X37121207Y-55500000D01*
X36966649Y-55530743D01*
X36821058Y-55591049D01*
X36690030Y-55678599D01*
X36578599Y-55790030D01*
X36491049Y-55921058D01*
X36430743Y-56066649D01*
X36400000Y-56221207D01*
X33000000Y-56221207D01*
X33000000Y-51021207D01*
X39000000Y-51021207D01*
X39000000Y-51178793D01*
X39030743Y-51333351D01*
X39091049Y-51478942D01*
X39178599Y-51609970D01*
X39290030Y-51721401D01*
X39421058Y-51808951D01*
X39566649Y-51869257D01*
X39721207Y-51900000D01*
X39878793Y-51900000D01*
X39890555Y-51897660D01*
X43000000Y-55007106D01*
X43000001Y-55671937D01*
X42990030Y-55678599D01*
X42900000Y-55768629D01*
X42809970Y-55678599D01*
X42678942Y-55591049D01*
X42533351Y-55530743D01*
X42378793Y-55500000D01*
X42221207Y-55500000D01*
X42066649Y-55530743D01*
X41921058Y-55591049D01*
X41790030Y-55678599D01*
X41678599Y-55790030D01*
X41591049Y-55921058D01*
X41530743Y-56066649D01*
X41500000Y-56221207D01*
X41500000Y-56378793D01*
X41530743Y-56533351D01*
X41591049Y-56678942D01*
X41678599Y-56809970D01*
X41790030Y-56921401D01*
X41800001Y-56928063D01*
X41800000Y-60971937D01*
X41790030Y-60978599D01*
X41678599Y-61090030D01*
X41591049Y-61221058D01*
X41530743Y-61366649D01*
X41500000Y-61521207D01*
X41500000Y-61678793D01*
X41530743Y-61833351D01*
X41591049Y-61978942D01*
X41678599Y-62109970D01*
X41790030Y-62221401D01*
X41921058Y-62308951D01*
X42066649Y-62369257D01*
X42221207Y-62400000D01*
X42378793Y-62400000D01*
X42533351Y-62369257D01*
X42678942Y-62308951D01*
X42809970Y-62221401D01*
X42921401Y-62109970D01*
X43008951Y-61978942D01*
X43069257Y-61833351D01*
X43100000Y-61678793D01*
X43100000Y-61521207D01*
X43069257Y-61366649D01*
X43008951Y-61221058D01*
X42921401Y-61090030D01*
X42809970Y-60978599D01*
X42800000Y-60971937D01*
X42800000Y-56928063D01*
X42809970Y-56921401D01*
X42900000Y-56831371D01*
X42990030Y-56921401D01*
X43121058Y-57008951D01*
X43266649Y-57069257D01*
X43421207Y-57100000D01*
X43578793Y-57100000D01*
X43733351Y-57069257D01*
X43878942Y-57008951D01*
X44009970Y-56921401D01*
X44121401Y-56809970D01*
X44208951Y-56678942D01*
X44269257Y-56533351D01*
X44300000Y-56378793D01*
X44300000Y-56221207D01*
X44269257Y-56066649D01*
X44208951Y-55921058D01*
X44121401Y-55790030D01*
X44009970Y-55678599D01*
X44000000Y-55671937D01*
X44000000Y-54824557D01*
X44002419Y-54799999D01*
X43999134Y-54766649D01*
X43992765Y-54701983D01*
X43964175Y-54607733D01*
X43917746Y-54520871D01*
X43855264Y-54444736D01*
X43836181Y-54429075D01*
X41263765Y-51856659D01*
X41378942Y-51808951D01*
X41509970Y-51721401D01*
X41621401Y-51609970D01*
X41708951Y-51478942D01*
X41769257Y-51333351D01*
X41800000Y-51178793D01*
X41800000Y-51021207D01*
X41769257Y-50866649D01*
X41708951Y-50721058D01*
X41621401Y-50590030D01*
X41509970Y-50478599D01*
X41500000Y-50471937D01*
X41500000Y-43228063D01*
X41509970Y-43221401D01*
X41621401Y-43109970D01*
X41708951Y-42978942D01*
X41769257Y-42833351D01*
X41800000Y-42678793D01*
X41800000Y-42521207D01*
X41769257Y-42366649D01*
X41708951Y-42221058D01*
X41621401Y-42090030D01*
X41509970Y-41978599D01*
X41378942Y-41891049D01*
X41233351Y-41830743D01*
X41078793Y-41800000D01*
X40921207Y-41800000D01*
X40766649Y-41830743D01*
X40621058Y-41891049D01*
X40490030Y-41978599D01*
X40378599Y-42090030D01*
X40291049Y-42221058D01*
X40230743Y-42366649D01*
X40200000Y-42521207D01*
X40200000Y-42678793D01*
X40230743Y-42833351D01*
X40291049Y-42978942D01*
X40378599Y-43109970D01*
X40490030Y-43221401D01*
X40500001Y-43228063D01*
X40500000Y-50471937D01*
X40490030Y-50478599D01*
X40400000Y-50568629D01*
X40309970Y-50478599D01*
X40178942Y-50391049D01*
X40033351Y-50330743D01*
X39878793Y-50300000D01*
X39721207Y-50300000D01*
X39566649Y-50330743D01*
X39421058Y-50391049D01*
X39290030Y-50478599D01*
X39178599Y-50590030D01*
X39091049Y-50721058D01*
X39030743Y-50866649D01*
X39000000Y-51021207D01*
X33000000Y-51021207D01*
X33000000Y-48628063D01*
X33009970Y-48621401D01*
X33121401Y-48509970D01*
X33208951Y-48378942D01*
X33269257Y-48233351D01*
X33300000Y-48078793D01*
X33300000Y-47921207D01*
X33269257Y-47766649D01*
X33208951Y-47621058D01*
X33121401Y-47490030D01*
X33009970Y-47378599D01*
X33000000Y-47371937D01*
X33000000Y-45628063D01*
X33009970Y-45621401D01*
X33121401Y-45509970D01*
X33208951Y-45378942D01*
X33269257Y-45233351D01*
X33300000Y-45078793D01*
X33300000Y-44921207D01*
X33269257Y-44766649D01*
X33208951Y-44621058D01*
X33121401Y-44490030D01*
X33009970Y-44378599D01*
X32878942Y-44291049D01*
X32733351Y-44230743D01*
X32578793Y-44200000D01*
X32421207Y-44200000D01*
X32266649Y-44230743D01*
X32121058Y-44291049D01*
X31990030Y-44378599D01*
X31878599Y-44490030D01*
X31791049Y-44621058D01*
X31730743Y-44766649D01*
X31700000Y-44921207D01*
X31700000Y-45078793D01*
X31730743Y-45233351D01*
X31791049Y-45378942D01*
X31878599Y-45509970D01*
X31990030Y-45621401D01*
X32000000Y-45628063D01*
X32000001Y-47371937D01*
X31990030Y-47378599D01*
X31878599Y-47490030D01*
X31791049Y-47621058D01*
X31730743Y-47766649D01*
X31700000Y-47921207D01*
X31700000Y-48078793D01*
X31730743Y-48233351D01*
X31791049Y-48378942D01*
X31878599Y-48509970D01*
X31990030Y-48621401D01*
X32000001Y-48628063D01*
X32000000Y-63774896D01*
X31802177Y-63880634D01*
X31611840Y-64036840D01*
X31455634Y-64227178D01*
X31339563Y-64444332D01*
X31268087Y-64679958D01*
X31250000Y-64863595D01*
X31231913Y-64679957D01*
X31160437Y-64444331D01*
X31044366Y-64227177D01*
X30888160Y-64036840D01*
X30697822Y-63880634D01*
X30500000Y-63774896D01*
X30500000Y-57007106D01*
X30536181Y-56970925D01*
X30555264Y-56955264D01*
X30617746Y-56879129D01*
X30664175Y-56792267D01*
X30692765Y-56698017D01*
X30700000Y-56624560D01*
X30700000Y-56624559D01*
X30702419Y-56600000D01*
X30700000Y-56575440D01*
X30700000Y-47928063D01*
X30709970Y-47921401D01*
X30821401Y-47809970D01*
X30908951Y-47678942D01*
X30969257Y-47533351D01*
X31000000Y-47378793D01*
X31000000Y-47221207D01*
X30969257Y-47066649D01*
X30908951Y-46921058D01*
X30821401Y-46790030D01*
X30709970Y-46678599D01*
X30578942Y-46591049D01*
X30433351Y-46530743D01*
X30278793Y-46500000D01*
X30121207Y-46500000D01*
X29966649Y-46530743D01*
X29821058Y-46591049D01*
X29690030Y-46678599D01*
X29578599Y-46790030D01*
X29491049Y-46921058D01*
X29430743Y-47066649D01*
X29400000Y-47221207D01*
X29400000Y-47378793D01*
X29430743Y-47533351D01*
X29491049Y-47678942D01*
X29578599Y-47809970D01*
X29690030Y-47921401D01*
X29700001Y-47928063D01*
X29700001Y-50992894D01*
X27185817Y-48478712D01*
X27233351Y-48469257D01*
X27378942Y-48408951D01*
X27509970Y-48321401D01*
X27621401Y-48209970D01*
X27708951Y-48078942D01*
X27769257Y-47933351D01*
X27800000Y-47778793D01*
X27800000Y-47621207D01*
X27769257Y-47466649D01*
X27708951Y-47321058D01*
X27621401Y-47190030D01*
X27509970Y-47078599D01*
X27500000Y-47071937D01*
X27500000Y-42528063D01*
X27509970Y-42521401D01*
X27621401Y-42409970D01*
X27708951Y-42278942D01*
X27769257Y-42133351D01*
X27800000Y-41978793D01*
X27800000Y-41821207D01*
X27769257Y-41666649D01*
X27708951Y-41521058D01*
X27621401Y-41390030D01*
X27509970Y-41278599D01*
X27378942Y-41191049D01*
X27233351Y-41130743D01*
X27078793Y-41100000D01*
X26921207Y-41100000D01*
X26766649Y-41130743D01*
X26621058Y-41191049D01*
X26490030Y-41278599D01*
X26378599Y-41390030D01*
X26291049Y-41521058D01*
X26230743Y-41666649D01*
X26200000Y-41821207D01*
X26200000Y-41978793D01*
X26230743Y-42133351D01*
X26291049Y-42278942D01*
X26378599Y-42409970D01*
X26490030Y-42521401D01*
X26500001Y-42528063D01*
X26500000Y-47071937D01*
X26490030Y-47078599D01*
X26378599Y-47190030D01*
X26350000Y-47232831D01*
X26321401Y-47190030D01*
X26209970Y-47078599D01*
X26078942Y-46991049D01*
X25933351Y-46930743D01*
X25778793Y-46900000D01*
X25621207Y-46900000D01*
X25466649Y-46930743D01*
X25321058Y-46991049D01*
X25190030Y-47078599D01*
X25078599Y-47190030D01*
X24991049Y-47321058D01*
X24930743Y-47466649D01*
X24900000Y-47621207D01*
X24900000Y-47778793D01*
X24930743Y-47933351D01*
X24991049Y-48078942D01*
X25078599Y-48209970D01*
X25190030Y-48321401D01*
X25321058Y-48408951D01*
X25466649Y-48469257D01*
X25621207Y-48500000D01*
X25778793Y-48500000D01*
X25790555Y-48497660D01*
X29000001Y-51707108D01*
X29000000Y-55671937D01*
X28990030Y-55678599D01*
X28900000Y-55768629D01*
X28809970Y-55678599D01*
X28678942Y-55591049D01*
X28533351Y-55530743D01*
X28378793Y-55500000D01*
X28221207Y-55500000D01*
X28066649Y-55530743D01*
X27921058Y-55591049D01*
X27790030Y-55678599D01*
X27678599Y-55790030D01*
X27591049Y-55921058D01*
X27530743Y-56066649D01*
X27500000Y-56221207D01*
X27500000Y-56378793D01*
X27502339Y-56390555D01*
X27163819Y-56729076D01*
X27144737Y-56744736D01*
X27082255Y-56820871D01*
X27051399Y-56878599D01*
X27035826Y-56907733D01*
X27007235Y-57001983D01*
X26997581Y-57100000D01*
X27000001Y-57124570D01*
X27000000Y-60971937D01*
X26990030Y-60978599D01*
X26878599Y-61090030D01*
X26791049Y-61221058D01*
X26730743Y-61366649D01*
X26700000Y-61521207D01*
X26700000Y-61678793D01*
X26730743Y-61833351D01*
X26791049Y-61978942D01*
X26878599Y-62109970D01*
X26990030Y-62221401D01*
X27000001Y-62228063D01*
X27000000Y-63774895D01*
X26802177Y-63880634D01*
X26611840Y-64036840D01*
X26455634Y-64227178D01*
X26339563Y-64444332D01*
X26268087Y-64679958D01*
X26250000Y-64863595D01*
X26231913Y-64679957D01*
X26160437Y-64444331D01*
X26044366Y-64227177D01*
X25888160Y-64036840D01*
X25697822Y-63880634D01*
X25500000Y-63774896D01*
X25500000Y-62928063D01*
X25509970Y-62921401D01*
X25621401Y-62809970D01*
X25708951Y-62678942D01*
X25769257Y-62533351D01*
X25800000Y-62378793D01*
X25800000Y-62221207D01*
X25769257Y-62066649D01*
X25708951Y-61921058D01*
X25621401Y-61790030D01*
X25509970Y-61678599D01*
X25500000Y-61671937D01*
X25500000Y-56928063D01*
X25509970Y-56921401D01*
X25621401Y-56809970D01*
X25708951Y-56678942D01*
X25769257Y-56533351D01*
X25800000Y-56378793D01*
X25800000Y-56221207D01*
X25769257Y-56066649D01*
X25708951Y-55921058D01*
X25621401Y-55790030D01*
X25509970Y-55678599D01*
X25378942Y-55591049D01*
X25233351Y-55530743D01*
X25078793Y-55500000D01*
X24921207Y-55500000D01*
X24766649Y-55530743D01*
X24621058Y-55591049D01*
X24490030Y-55678599D01*
X24378599Y-55790030D01*
X24291049Y-55921058D01*
X24230743Y-56066649D01*
X24200000Y-56221207D01*
X24200000Y-56378793D01*
X24230743Y-56533351D01*
X24291049Y-56678942D01*
X24378599Y-56809970D01*
X24490030Y-56921401D01*
X24500001Y-56928063D01*
X24500000Y-61671937D01*
X24490030Y-61678599D01*
X24378599Y-61790030D01*
X24291049Y-61921058D01*
X24230743Y-62066649D01*
X24200000Y-62221207D01*
X24200000Y-62378793D01*
X24230743Y-62533351D01*
X24291049Y-62678942D01*
X24378599Y-62809970D01*
X24490030Y-62921401D01*
X24500001Y-62928063D01*
X24500000Y-63774895D01*
X24302177Y-63880634D01*
X24111840Y-64036840D01*
X23955634Y-64227178D01*
X23855032Y-64415392D01*
X23749758Y-64188468D01*
X23582054Y-63958805D01*
X23386205Y-63778635D01*
X23433351Y-63769257D01*
X23578942Y-63708951D01*
X23709970Y-63621401D01*
X23821401Y-63509970D01*
X23908951Y-63378942D01*
X23969257Y-63233351D01*
X24000000Y-63078793D01*
X24000000Y-62921207D01*
X23969257Y-62766649D01*
X23908951Y-62621058D01*
X23821401Y-62490030D01*
X23709970Y-62378599D01*
X23700000Y-62371937D01*
X23700000Y-56928063D01*
X23709970Y-56921401D01*
X23821401Y-56809970D01*
X23908951Y-56678942D01*
X23969257Y-56533351D01*
X24000000Y-56378793D01*
X24000000Y-56221207D01*
X23969257Y-56066649D01*
X23908951Y-55921058D01*
X23821401Y-55790030D01*
X23709970Y-55678599D01*
X23578942Y-55591049D01*
X23433351Y-55530743D01*
X23278793Y-55500000D01*
X23121207Y-55500000D01*
X22966649Y-55530743D01*
X22821058Y-55591049D01*
X22690030Y-55678599D01*
X22578599Y-55790030D01*
X22491049Y-55921058D01*
X22430743Y-56066649D01*
X22400000Y-56221207D01*
X6411789Y-56221207D01*
X6336960Y-55978711D01*
X6201769Y-55728668D01*
X6020394Y-55509804D01*
X5799806Y-55330530D01*
X5651059Y-55251935D01*
X5850000Y-55251935D01*
X5928414Y-55244212D01*
X6003814Y-55221340D01*
X6073303Y-55184197D01*
X6134211Y-55134211D01*
X6184197Y-55073303D01*
X6221340Y-55003814D01*
X6244212Y-54928414D01*
X6251935Y-54850000D01*
X6251935Y-53150000D01*
X6244212Y-53071586D01*
X6221340Y-52996186D01*
X6184197Y-52926697D01*
X6134211Y-52865789D01*
X6073303Y-52815803D01*
X6003814Y-52778660D01*
X5928414Y-52755788D01*
X5850000Y-52748065D01*
X4150000Y-52748065D01*
X4071586Y-52755788D01*
X3996186Y-52778660D01*
X3926697Y-52815803D01*
X3865789Y-52865789D01*
X3815803Y-52926697D01*
X3778660Y-52996186D01*
X3755788Y-53071586D01*
X3748065Y-53150000D01*
X3748065Y-54850000D01*
X3755788Y-54928414D01*
X3778660Y-55003814D01*
X3815803Y-55073303D01*
X3865789Y-55134211D01*
X3926697Y-55184197D01*
X3996186Y-55221340D01*
X4071586Y-55244212D01*
X4150000Y-55251935D01*
X4348941Y-55251935D01*
X4200194Y-55330530D01*
X3979606Y-55509804D01*
X3798231Y-55728668D01*
X3663040Y-55978711D01*
X3579227Y-56250324D01*
X3576525Y-56263920D01*
X1200000Y-56263920D01*
X1200000Y-45522414D01*
X10400000Y-45522414D01*
X10400000Y-45837586D01*
X10461487Y-46146703D01*
X10582098Y-46437884D01*
X10757199Y-46699941D01*
X10980059Y-46922801D01*
X11242116Y-47097902D01*
X11533297Y-47218513D01*
X11842414Y-47280000D01*
X12157586Y-47280000D01*
X12466703Y-47218513D01*
X12757884Y-47097902D01*
X13019941Y-46922801D01*
X13242801Y-46699941D01*
X13417902Y-46437884D01*
X13538513Y-46146703D01*
X13600000Y-45837586D01*
X13600000Y-45522414D01*
X13538513Y-45213297D01*
X13417902Y-44922116D01*
X13242801Y-44660059D01*
X13019941Y-44437199D01*
X12757884Y-44262098D01*
X12466703Y-44141487D01*
X12157586Y-44080000D01*
X11842414Y-44080000D01*
X11533297Y-44141487D01*
X11242116Y-44262098D01*
X10980059Y-44437199D01*
X10757199Y-44660059D01*
X10582098Y-44922116D01*
X10461487Y-45213297D01*
X10400000Y-45522414D01*
X1200000Y-45522414D01*
X1200000Y-40921207D01*
X20200000Y-40921207D01*
X20200000Y-41078793D01*
X20230743Y-41233351D01*
X20291049Y-41378942D01*
X20378599Y-41509970D01*
X20490030Y-41621401D01*
X20500000Y-41628063D01*
X20500001Y-48071937D01*
X20490030Y-48078599D01*
X20378599Y-48190030D01*
X20291049Y-48321058D01*
X20230743Y-48466649D01*
X20200000Y-48621207D01*
X20200000Y-48778793D01*
X20230743Y-48933351D01*
X20291049Y-49078942D01*
X20378599Y-49209970D01*
X20490030Y-49321401D01*
X20621058Y-49408951D01*
X20766649Y-49469257D01*
X20921207Y-49500000D01*
X21078793Y-49500000D01*
X21233351Y-49469257D01*
X21378942Y-49408951D01*
X21509970Y-49321401D01*
X21621401Y-49209970D01*
X21708951Y-49078942D01*
X21769257Y-48933351D01*
X21800000Y-48778793D01*
X21800000Y-48621207D01*
X21769257Y-48466649D01*
X21708951Y-48321058D01*
X21621401Y-48190030D01*
X21509970Y-48078599D01*
X21500000Y-48071937D01*
X21500000Y-41628063D01*
X21509970Y-41621401D01*
X21621401Y-41509970D01*
X21708951Y-41378942D01*
X21769257Y-41233351D01*
X21800000Y-41078793D01*
X21800000Y-40921207D01*
X34200000Y-40921207D01*
X34200000Y-41078793D01*
X34230743Y-41233351D01*
X34291049Y-41378942D01*
X34378599Y-41509970D01*
X34490030Y-41621401D01*
X34500000Y-41628063D01*
X34500001Y-48071937D01*
X34490030Y-48078599D01*
X34378599Y-48190030D01*
X34291049Y-48321058D01*
X34230743Y-48466649D01*
X34200000Y-48621207D01*
X34200000Y-48778793D01*
X34230743Y-48933351D01*
X34291049Y-49078942D01*
X34378599Y-49209970D01*
X34490030Y-49321401D01*
X34621058Y-49408951D01*
X34766649Y-49469257D01*
X34921207Y-49500000D01*
X35078793Y-49500000D01*
X35233351Y-49469257D01*
X35378942Y-49408951D01*
X35509970Y-49321401D01*
X35621401Y-49209970D01*
X35708951Y-49078942D01*
X35769257Y-48933351D01*
X35800000Y-48778793D01*
X35800000Y-48621207D01*
X35769257Y-48466649D01*
X35708951Y-48321058D01*
X35621401Y-48190030D01*
X35509970Y-48078599D01*
X35500000Y-48071937D01*
X35500000Y-41628063D01*
X35509970Y-41621401D01*
X35621401Y-41509970D01*
X35708951Y-41378942D01*
X35769257Y-41233351D01*
X35800000Y-41078793D01*
X35800000Y-40921207D01*
X60700000Y-40921207D01*
X60700000Y-41078793D01*
X60730743Y-41233351D01*
X60791049Y-41378942D01*
X60878599Y-41509970D01*
X60990030Y-41621401D01*
X61000001Y-41628063D01*
X61000000Y-54371937D01*
X60990030Y-54378599D01*
X60878599Y-54490030D01*
X60791049Y-54621058D01*
X60730743Y-54766649D01*
X60700000Y-54921207D01*
X60700000Y-55078793D01*
X60730743Y-55233351D01*
X60791049Y-55378942D01*
X60878599Y-55509970D01*
X60990030Y-55621401D01*
X61121058Y-55708951D01*
X61266649Y-55769257D01*
X61421207Y-55800000D01*
X61578793Y-55800000D01*
X61733351Y-55769257D01*
X61878942Y-55708951D01*
X62009970Y-55621401D01*
X62121401Y-55509970D01*
X62208951Y-55378942D01*
X62269257Y-55233351D01*
X62300000Y-55078793D01*
X62300000Y-54921207D01*
X62269257Y-54766649D01*
X62208951Y-54621058D01*
X62121401Y-54490030D01*
X62009970Y-54378599D01*
X62000000Y-54371937D01*
X62000000Y-45862112D01*
X66600000Y-45862112D01*
X66600000Y-46137888D01*
X66653801Y-46408365D01*
X66759336Y-46663149D01*
X66912549Y-46892448D01*
X67107552Y-47087451D01*
X67336851Y-47240664D01*
X67591635Y-47346199D01*
X67862112Y-47400000D01*
X68137888Y-47400000D01*
X68408365Y-47346199D01*
X68663149Y-47240664D01*
X68892448Y-47087451D01*
X69087451Y-46892448D01*
X69240664Y-46663149D01*
X69346199Y-46408365D01*
X69400000Y-46137888D01*
X69400000Y-45862112D01*
X69346199Y-45591635D01*
X69240664Y-45336851D01*
X69087451Y-45107552D01*
X68892448Y-44912549D01*
X68663149Y-44759336D01*
X68408365Y-44653801D01*
X68137888Y-44600000D01*
X67862112Y-44600000D01*
X67591635Y-44653801D01*
X67336851Y-44759336D01*
X67107552Y-44912549D01*
X66912549Y-45107552D01*
X66759336Y-45336851D01*
X66653801Y-45591635D01*
X66600000Y-45862112D01*
X62000000Y-45862112D01*
X62000000Y-41628063D01*
X62009970Y-41621401D01*
X62121401Y-41509970D01*
X62208951Y-41378942D01*
X62269257Y-41233351D01*
X62300000Y-41078793D01*
X62300000Y-40921207D01*
X72200000Y-40921207D01*
X72200000Y-41078793D01*
X72230743Y-41233351D01*
X72291049Y-41378942D01*
X72378599Y-41509970D01*
X72490030Y-41621401D01*
X72500001Y-41628063D01*
X72500000Y-45071937D01*
X72490030Y-45078599D01*
X72378599Y-45190030D01*
X72291049Y-45321058D01*
X72230743Y-45466649D01*
X72200000Y-45621207D01*
X72200000Y-45778793D01*
X72230743Y-45933351D01*
X72291049Y-46078942D01*
X72378599Y-46209970D01*
X72490030Y-46321401D01*
X72621058Y-46408951D01*
X72766649Y-46469257D01*
X72921207Y-46500000D01*
X73078793Y-46500000D01*
X73233351Y-46469257D01*
X73378942Y-46408951D01*
X73509970Y-46321401D01*
X73621401Y-46209970D01*
X73708951Y-46078942D01*
X73769257Y-45933351D01*
X73800000Y-45778793D01*
X73800000Y-45621207D01*
X73769257Y-45466649D01*
X73708951Y-45321058D01*
X73621401Y-45190030D01*
X73509970Y-45078599D01*
X73500000Y-45071937D01*
X73500000Y-41628063D01*
X73509970Y-41621401D01*
X73621401Y-41509970D01*
X73708951Y-41378942D01*
X73769257Y-41233351D01*
X73800000Y-41078793D01*
X73800000Y-40921207D01*
X73769257Y-40766649D01*
X73708951Y-40621058D01*
X73621401Y-40490030D01*
X73509970Y-40378599D01*
X73378942Y-40291049D01*
X73233351Y-40230743D01*
X73078793Y-40200000D01*
X72921207Y-40200000D01*
X72766649Y-40230743D01*
X72621058Y-40291049D01*
X72490030Y-40378599D01*
X72378599Y-40490030D01*
X72291049Y-40621058D01*
X72230743Y-40766649D01*
X72200000Y-40921207D01*
X62300000Y-40921207D01*
X62269257Y-40766649D01*
X62208951Y-40621058D01*
X62121401Y-40490030D01*
X62009970Y-40378599D01*
X61878942Y-40291049D01*
X61733351Y-40230743D01*
X61578793Y-40200000D01*
X61421207Y-40200000D01*
X61266649Y-40230743D01*
X61121058Y-40291049D01*
X60990030Y-40378599D01*
X60878599Y-40490030D01*
X60791049Y-40621058D01*
X60730743Y-40766649D01*
X60700000Y-40921207D01*
X35800000Y-40921207D01*
X35769257Y-40766649D01*
X35708951Y-40621058D01*
X35621401Y-40490030D01*
X35509970Y-40378599D01*
X35378942Y-40291049D01*
X35233351Y-40230743D01*
X35078793Y-40200000D01*
X34921207Y-40200000D01*
X34766649Y-40230743D01*
X34621058Y-40291049D01*
X34490030Y-40378599D01*
X34378599Y-40490030D01*
X34291049Y-40621058D01*
X34230743Y-40766649D01*
X34200000Y-40921207D01*
X21800000Y-40921207D01*
X21769257Y-40766649D01*
X21708951Y-40621058D01*
X21621401Y-40490030D01*
X21509970Y-40378599D01*
X21378942Y-40291049D01*
X21233351Y-40230743D01*
X21078793Y-40200000D01*
X20921207Y-40200000D01*
X20766649Y-40230743D01*
X20621058Y-40291049D01*
X20490030Y-40378599D01*
X20378599Y-40490030D01*
X20291049Y-40621058D01*
X20230743Y-40766649D01*
X20200000Y-40921207D01*
X1200000Y-40921207D01*
X1200000Y-38200000D01*
X119300001Y-38200000D01*
X119300000Y-54307662D01*
X119291049Y-54321058D01*
X119230743Y-54466649D01*
X119200000Y-54621207D01*
X119200000Y-54778793D01*
X119230743Y-54933351D01*
X119291049Y-55078942D01*
X119378599Y-55209970D01*
X119490030Y-55321401D01*
X119621058Y-55408951D01*
X119766649Y-55469257D01*
X119921207Y-55500000D01*
X120078793Y-55500000D01*
X120233351Y-55469257D01*
X120378942Y-55408951D01*
X120509970Y-55321401D01*
X120621401Y-55209970D01*
X120708951Y-55078942D01*
X120769257Y-54933351D01*
X120800000Y-54778793D01*
X120800000Y-54621207D01*
X120769257Y-54466649D01*
X120708951Y-54321058D01*
X120700000Y-54307662D01*
X120700000Y-40921207D01*
X130200000Y-40921207D01*
X130200000Y-41078793D01*
X130230743Y-41233351D01*
X130291049Y-41378942D01*
X130300000Y-41392338D01*
X130300001Y-55607660D01*
X130291049Y-55621058D01*
X130230743Y-55766649D01*
X130200000Y-55921207D01*
X130200000Y-56078793D01*
X130230743Y-56233351D01*
X130291049Y-56378942D01*
X130378599Y-56509970D01*
X130490030Y-56621401D01*
X130621058Y-56708951D01*
X130766649Y-56769257D01*
X130921207Y-56800000D01*
X131078793Y-56800000D01*
X131233351Y-56769257D01*
X131378942Y-56708951D01*
X131509970Y-56621401D01*
X131621401Y-56509970D01*
X131708951Y-56378942D01*
X131769257Y-56233351D01*
X131800000Y-56078793D01*
X131800000Y-55921207D01*
X131769257Y-55766649D01*
X131708951Y-55621058D01*
X131700000Y-55607662D01*
X131700000Y-41392338D01*
X131708951Y-41378942D01*
X131769257Y-41233351D01*
X131800000Y-41078793D01*
X131800000Y-40921207D01*
X131769257Y-40766649D01*
X131708951Y-40621058D01*
X131621401Y-40490030D01*
X131509970Y-40378599D01*
X131378942Y-40291049D01*
X131233351Y-40230743D01*
X131078793Y-40200000D01*
X130921207Y-40200000D01*
X130766649Y-40230743D01*
X130621058Y-40291049D01*
X130490030Y-40378599D01*
X130378599Y-40490030D01*
X130291049Y-40621058D01*
X130230743Y-40766649D01*
X130200000Y-40921207D01*
X120700000Y-40921207D01*
X120700000Y-38200000D01*
X133000000Y-38200000D01*
X133039018Y-38196157D01*
X133076537Y-38184776D01*
X133111114Y-38166294D01*
X133141421Y-38141421D01*
X133166294Y-38111114D01*
X133184776Y-38076537D01*
X133196157Y-38039018D01*
X133200000Y-38000000D01*
X133200000Y-36200000D01*
X135800000Y-36200000D01*
X135800000Y-38000000D01*
M02*
