G04 #@! TF.GenerationSoftware,KiCad,Pcbnew,5.1.5-52549c5~84~ubuntu18.04.1*
G04 #@! TF.CreationDate,2020-02-12T22:06:01+00:00*
G04 #@! TF.ProjectId,TSAL_LED,5453414c-5f4c-4454-942e-6b696361645f,rev?*
G04 #@! TF.SameCoordinates,Original*
G04 #@! TF.FileFunction,Legend,Bot*
G04 #@! TF.FilePolarity,Positive*
%FSLAX46Y46*%
G04 Gerber Fmt 4.6, Leading zero omitted, Abs format (unit mm)*
G04 Created by KiCad (PCBNEW 5.1.5-52549c5~84~ubuntu18.04.1) date 2020-02-12 22:06:01*
%MOMM*%
%LPD*%
G04 APERTURE LIST*
%ADD10C,0.500000*%
%ADD11C,0.010000*%
%ADD12C,0.120000*%
%ADD13C,0.150000*%
G04 APERTURE END LIST*
D10*
X152444732Y-86622142D02*
X151873303Y-86622142D01*
X151605446Y-86765000D01*
X151355446Y-87050714D01*
X151284017Y-87622142D01*
X151409017Y-88622142D01*
X151623303Y-89193571D01*
X151944732Y-89479285D01*
X152248303Y-89622142D01*
X152819732Y-89622142D01*
X153087589Y-89479285D01*
X153337589Y-89193571D01*
X153409017Y-88622142D01*
X153284017Y-87622142D01*
X153069732Y-87050714D01*
X152748303Y-86765000D01*
X152444732Y-86622142D01*
X150534017Y-89622142D02*
X148712589Y-87622142D01*
X150284017Y-87622142D02*
X148962589Y-89622142D01*
X147998303Y-87622142D02*
X146855446Y-87622142D01*
X147819732Y-89622142D02*
X147498303Y-87050714D01*
X147319732Y-86765000D01*
X147016160Y-86622142D01*
X146730446Y-86622142D01*
X145676875Y-89622142D02*
X145944732Y-89479285D01*
X146069732Y-89336428D01*
X146176875Y-89050714D01*
X146069732Y-88193571D01*
X145891160Y-87907857D01*
X145730446Y-87765000D01*
X145426875Y-87622142D01*
X144998303Y-87622142D01*
X144730446Y-87765000D01*
X144605446Y-87907857D01*
X144498303Y-88193571D01*
X144605446Y-89050714D01*
X144784017Y-89336428D01*
X144944732Y-89479285D01*
X145248303Y-89622142D01*
X145676875Y-89622142D01*
X143391160Y-89622142D02*
X143141160Y-87622142D01*
X143212589Y-88193571D02*
X143034017Y-87907857D01*
X142873303Y-87765000D01*
X142569732Y-87622142D01*
X142284017Y-87622142D01*
X140248303Y-89622142D02*
X139873303Y-86622142D01*
X140230446Y-89479285D02*
X140534017Y-89622142D01*
X141105446Y-89622142D01*
X141373303Y-89479285D01*
X141498303Y-89336428D01*
X141605446Y-89050714D01*
X141498303Y-88193571D01*
X141319732Y-87907857D01*
X141159017Y-87765000D01*
X140855446Y-87622142D01*
X140284017Y-87622142D01*
X140016160Y-87765000D01*
X136159017Y-86622142D02*
X136462589Y-89050714D01*
X136355446Y-89336428D01*
X136230446Y-89479285D01*
X135962589Y-89622142D01*
X135391160Y-89622142D01*
X135087589Y-89479285D01*
X134926875Y-89336428D01*
X134748303Y-89050714D01*
X134444732Y-86622142D01*
X133141160Y-87622142D02*
X133391160Y-89622142D01*
X133176875Y-87907857D02*
X133016160Y-87765000D01*
X132712589Y-87622142D01*
X132284017Y-87622142D01*
X132016160Y-87765000D01*
X131909017Y-88050714D01*
X132105446Y-89622142D01*
X130676875Y-89622142D02*
X130426875Y-87622142D01*
X130301875Y-86622142D02*
X130462589Y-86765000D01*
X130337589Y-86907857D01*
X130176875Y-86765000D01*
X130301875Y-86622142D01*
X130337589Y-86907857D01*
X129284017Y-87622142D02*
X128819732Y-89622142D01*
X127855446Y-87622142D01*
X125801875Y-89479285D02*
X126105446Y-89622142D01*
X126676875Y-89622142D01*
X126944732Y-89479285D01*
X127051875Y-89193571D01*
X126909017Y-88050714D01*
X126730446Y-87765000D01*
X126426875Y-87622142D01*
X125855446Y-87622142D01*
X125587589Y-87765000D01*
X125480446Y-88050714D01*
X125516160Y-88336428D01*
X126980446Y-88622142D01*
X124391160Y-89622142D02*
X124141160Y-87622142D01*
X124212589Y-88193571D02*
X124034017Y-87907857D01*
X123873303Y-87765000D01*
X123569732Y-87622142D01*
X123284017Y-87622142D01*
X122659017Y-89479285D02*
X122391160Y-89622142D01*
X121819732Y-89622142D01*
X121516160Y-89479285D01*
X121337589Y-89193571D01*
X121319732Y-89050714D01*
X121426875Y-88765000D01*
X121694732Y-88622142D01*
X122123303Y-88622142D01*
X122391160Y-88479285D01*
X122498303Y-88193571D01*
X122480446Y-88050714D01*
X122301875Y-87765000D01*
X121998303Y-87622142D01*
X121569732Y-87622142D01*
X121301875Y-87765000D01*
X120105446Y-89622142D02*
X119855446Y-87622142D01*
X119730446Y-86622142D02*
X119891160Y-86765000D01*
X119766160Y-86907857D01*
X119605446Y-86765000D01*
X119730446Y-86622142D01*
X119766160Y-86907857D01*
X118855446Y-87622142D02*
X117712589Y-87622142D01*
X118301875Y-86622142D02*
X118623303Y-89193571D01*
X118516160Y-89479285D01*
X118248303Y-89622142D01*
X117962589Y-89622142D01*
X116998303Y-87622142D02*
X116534017Y-89622142D01*
X115569732Y-87622142D02*
X116534017Y-89622142D01*
X116909017Y-90336428D01*
X117069732Y-90479285D01*
X117373303Y-90622142D01*
X110676875Y-89622142D02*
X111498303Y-88193571D01*
X112391160Y-89622142D02*
X112016160Y-86622142D01*
X110873303Y-86622142D01*
X110605446Y-86765000D01*
X110480446Y-86907857D01*
X110373303Y-87193571D01*
X110426875Y-87622142D01*
X110605446Y-87907857D01*
X110766160Y-88050714D01*
X111069732Y-88193571D01*
X112212589Y-88193571D01*
X108105446Y-89622142D02*
X107909017Y-88050714D01*
X108016160Y-87765000D01*
X108284017Y-87622142D01*
X108855446Y-87622142D01*
X109159017Y-87765000D01*
X108087589Y-89479285D02*
X108391160Y-89622142D01*
X109105446Y-89622142D01*
X109373303Y-89479285D01*
X109480446Y-89193571D01*
X109444732Y-88907857D01*
X109266160Y-88622142D01*
X108962589Y-88479285D01*
X108248303Y-88479285D01*
X107944732Y-88336428D01*
X105373303Y-89479285D02*
X105676875Y-89622142D01*
X106248303Y-89622142D01*
X106516160Y-89479285D01*
X106641160Y-89336428D01*
X106748303Y-89050714D01*
X106641160Y-88193571D01*
X106462589Y-87907857D01*
X106301875Y-87765000D01*
X105998303Y-87622142D01*
X105426875Y-87622142D01*
X105159017Y-87765000D01*
X104105446Y-89622142D02*
X103855446Y-87622142D01*
X103730446Y-86622142D02*
X103891160Y-86765000D01*
X103766160Y-86907857D01*
X103605446Y-86765000D01*
X103730446Y-86622142D01*
X103766160Y-86907857D01*
X102426875Y-87622142D02*
X102676875Y-89622142D01*
X102462589Y-87907857D02*
X102301875Y-87765000D01*
X101998303Y-87622142D01*
X101569732Y-87622142D01*
X101301875Y-87765000D01*
X101194732Y-88050714D01*
X101391160Y-89622142D01*
X98426875Y-87622142D02*
X98730446Y-90050714D01*
X98909017Y-90336428D01*
X99069732Y-90479285D01*
X99373303Y-90622142D01*
X99801875Y-90622142D01*
X100069732Y-90479285D01*
X98659017Y-89479285D02*
X98962589Y-89622142D01*
X99534017Y-89622142D01*
X99801875Y-89479285D01*
X99926875Y-89336428D01*
X100034017Y-89050714D01*
X99926875Y-88193571D01*
X99748303Y-87907857D01*
X99587589Y-87765000D01*
X99284017Y-87622142D01*
X98712589Y-87622142D01*
X98444732Y-87765000D01*
D11*
G36*
X125824724Y-73716529D02*
G01*
X125648177Y-73752887D01*
X125486800Y-73822967D01*
X125448267Y-73846774D01*
X125381284Y-73901380D01*
X125301130Y-73982420D01*
X125216346Y-74079990D01*
X125135472Y-74184182D01*
X125067048Y-74285090D01*
X125058986Y-74298328D01*
X125010592Y-74380123D01*
X124984858Y-74433360D01*
X124983369Y-74466194D01*
X125007705Y-74486780D01*
X125059448Y-74503271D01*
X125100775Y-74513705D01*
X125241678Y-74545217D01*
X125394499Y-74572908D01*
X125545513Y-74594750D01*
X125681000Y-74608717D01*
X125772334Y-74612879D01*
X125912024Y-74625848D01*
X126018575Y-74663933D01*
X126093389Y-74727778D01*
X126121003Y-74773016D01*
X126144416Y-74830804D01*
X126147325Y-74876625D01*
X126131053Y-74934781D01*
X126129981Y-74937825D01*
X126097877Y-75001769D01*
X126056207Y-75053325D01*
X126047500Y-75060533D01*
X125981448Y-75093296D01*
X125878444Y-75123299D01*
X125743829Y-75149677D01*
X125582942Y-75171562D01*
X125401123Y-75188090D01*
X125203711Y-75198395D01*
X125195542Y-75198667D01*
X124819834Y-75210868D01*
X124820123Y-75319142D01*
X124822834Y-75411468D01*
X124835520Y-75473073D01*
X124865899Y-75515512D01*
X124921692Y-75550337D01*
X124996649Y-75583322D01*
X125196956Y-75649665D01*
X125416111Y-75693081D01*
X125640750Y-75712279D01*
X125857509Y-75705967D01*
X126015750Y-75681796D01*
X126260668Y-75610435D01*
X126483930Y-75507320D01*
X126696716Y-75367254D01*
X126703667Y-75361958D01*
X126805470Y-75280815D01*
X126877901Y-75213019D01*
X126927560Y-75149600D01*
X126961047Y-75081590D01*
X126984963Y-75000018D01*
X126991376Y-74971002D01*
X127013517Y-74766296D01*
X126994708Y-74564999D01*
X126936323Y-74371488D01*
X126839733Y-74190142D01*
X126706313Y-74025340D01*
X126689631Y-74008590D01*
X126542395Y-73890044D01*
X126375276Y-73800651D01*
X126195284Y-73741325D01*
X126009430Y-73712980D01*
X125824724Y-73716529D01*
G37*
X125824724Y-73716529D02*
X125648177Y-73752887D01*
X125486800Y-73822967D01*
X125448267Y-73846774D01*
X125381284Y-73901380D01*
X125301130Y-73982420D01*
X125216346Y-74079990D01*
X125135472Y-74184182D01*
X125067048Y-74285090D01*
X125058986Y-74298328D01*
X125010592Y-74380123D01*
X124984858Y-74433360D01*
X124983369Y-74466194D01*
X125007705Y-74486780D01*
X125059448Y-74503271D01*
X125100775Y-74513705D01*
X125241678Y-74545217D01*
X125394499Y-74572908D01*
X125545513Y-74594750D01*
X125681000Y-74608717D01*
X125772334Y-74612879D01*
X125912024Y-74625848D01*
X126018575Y-74663933D01*
X126093389Y-74727778D01*
X126121003Y-74773016D01*
X126144416Y-74830804D01*
X126147325Y-74876625D01*
X126131053Y-74934781D01*
X126129981Y-74937825D01*
X126097877Y-75001769D01*
X126056207Y-75053325D01*
X126047500Y-75060533D01*
X125981448Y-75093296D01*
X125878444Y-75123299D01*
X125743829Y-75149677D01*
X125582942Y-75171562D01*
X125401123Y-75188090D01*
X125203711Y-75198395D01*
X125195542Y-75198667D01*
X124819834Y-75210868D01*
X124820123Y-75319142D01*
X124822834Y-75411468D01*
X124835520Y-75473073D01*
X124865899Y-75515512D01*
X124921692Y-75550337D01*
X124996649Y-75583322D01*
X125196956Y-75649665D01*
X125416111Y-75693081D01*
X125640750Y-75712279D01*
X125857509Y-75705967D01*
X126015750Y-75681796D01*
X126260668Y-75610435D01*
X126483930Y-75507320D01*
X126696716Y-75367254D01*
X126703667Y-75361958D01*
X126805470Y-75280815D01*
X126877901Y-75213019D01*
X126927560Y-75149600D01*
X126961047Y-75081590D01*
X126984963Y-75000018D01*
X126991376Y-74971002D01*
X127013517Y-74766296D01*
X126994708Y-74564999D01*
X126936323Y-74371488D01*
X126839733Y-74190142D01*
X126706313Y-74025340D01*
X126689631Y-74008590D01*
X126542395Y-73890044D01*
X126375276Y-73800651D01*
X126195284Y-73741325D01*
X126009430Y-73712980D01*
X125824724Y-73716529D01*
G36*
X127141755Y-75910105D02*
G01*
X126611315Y-75952557D01*
X126082079Y-76037201D01*
X125554617Y-76163903D01*
X125029493Y-76332526D01*
X124518962Y-76537755D01*
X124425541Y-76580237D01*
X124363613Y-76612478D01*
X124325384Y-76640003D01*
X124303059Y-76668332D01*
X124289779Y-76700108D01*
X124279704Y-76791302D01*
X124304160Y-76879457D01*
X124356930Y-76953802D01*
X124431795Y-77003560D01*
X124471601Y-77015165D01*
X124527193Y-77016682D01*
X124565834Y-77005032D01*
X124609187Y-76982232D01*
X124685187Y-76949086D01*
X124786251Y-76908429D01*
X124904797Y-76863095D01*
X125033242Y-76815917D01*
X125164004Y-76769731D01*
X125289500Y-76727371D01*
X125402148Y-76691671D01*
X125412500Y-76688551D01*
X125869136Y-76566590D01*
X126322057Y-76476733D01*
X126785235Y-76416540D01*
X127113842Y-76391268D01*
X127234339Y-76383188D01*
X127342320Y-76373731D01*
X127429673Y-76363780D01*
X127488286Y-76354217D01*
X127507453Y-76348459D01*
X127559052Y-76299978D01*
X127596776Y-76224573D01*
X127613558Y-76137101D01*
X127613834Y-76124851D01*
X127605321Y-76065029D01*
X127574197Y-76011318D01*
X127538630Y-75972396D01*
X127463427Y-75897192D01*
X127141755Y-75910105D01*
G37*
X127141755Y-75910105D02*
X126611315Y-75952557D01*
X126082079Y-76037201D01*
X125554617Y-76163903D01*
X125029493Y-76332526D01*
X124518962Y-76537755D01*
X124425541Y-76580237D01*
X124363613Y-76612478D01*
X124325384Y-76640003D01*
X124303059Y-76668332D01*
X124289779Y-76700108D01*
X124279704Y-76791302D01*
X124304160Y-76879457D01*
X124356930Y-76953802D01*
X124431795Y-77003560D01*
X124471601Y-77015165D01*
X124527193Y-77016682D01*
X124565834Y-77005032D01*
X124609187Y-76982232D01*
X124685187Y-76949086D01*
X124786251Y-76908429D01*
X124904797Y-76863095D01*
X125033242Y-76815917D01*
X125164004Y-76769731D01*
X125289500Y-76727371D01*
X125402148Y-76691671D01*
X125412500Y-76688551D01*
X125869136Y-76566590D01*
X126322057Y-76476733D01*
X126785235Y-76416540D01*
X127113842Y-76391268D01*
X127234339Y-76383188D01*
X127342320Y-76373731D01*
X127429673Y-76363780D01*
X127488286Y-76354217D01*
X127507453Y-76348459D01*
X127559052Y-76299978D01*
X127596776Y-76224573D01*
X127613558Y-76137101D01*
X127613834Y-76124851D01*
X127605321Y-76065029D01*
X127574197Y-76011318D01*
X127538630Y-75972396D01*
X127463427Y-75897192D01*
X127141755Y-75910105D01*
G36*
X128280303Y-71983715D02*
G01*
X127747754Y-72038148D01*
X127666750Y-72050050D01*
X127582613Y-72064201D01*
X127478846Y-72083583D01*
X127363417Y-72106485D01*
X127244297Y-72131198D01*
X127129455Y-72156010D01*
X127026862Y-72179211D01*
X126944487Y-72199089D01*
X126890300Y-72213935D01*
X126873606Y-72220292D01*
X126868028Y-72239512D01*
X126881717Y-72281747D01*
X126916384Y-72351005D01*
X126967904Y-72441407D01*
X127218905Y-72909066D01*
X127434620Y-73397638D01*
X127614060Y-73903210D01*
X127756230Y-74421871D01*
X127860139Y-74949710D01*
X127924795Y-75482817D01*
X127949206Y-76017280D01*
X127945638Y-76295250D01*
X127925516Y-76646077D01*
X127889182Y-77001922D01*
X127838336Y-77350943D01*
X127774677Y-77681298D01*
X127707367Y-77954564D01*
X127677339Y-78057658D01*
X127639679Y-78179143D01*
X127597714Y-78309061D01*
X127554768Y-78437454D01*
X127514169Y-78554364D01*
X127479242Y-78649835D01*
X127454941Y-78710258D01*
X127391764Y-78819469D01*
X127308623Y-78900588D01*
X127201110Y-78955843D01*
X127064819Y-78987465D01*
X126895342Y-78997682D01*
X126886761Y-78997674D01*
X126678146Y-78977283D01*
X126484507Y-78919885D01*
X126309415Y-78829050D01*
X126156442Y-78708350D01*
X126029160Y-78561356D01*
X125931141Y-78391641D01*
X125865956Y-78202775D01*
X125837177Y-77998331D01*
X125836085Y-77947094D01*
X125854606Y-77741991D01*
X125910652Y-77552158D01*
X126006037Y-77372635D01*
X126085529Y-77264577D01*
X126182380Y-77145682D01*
X126099065Y-77160096D01*
X125900074Y-77192723D01*
X125726499Y-77216684D01*
X125562708Y-77233676D01*
X125393073Y-77245396D01*
X125256084Y-77251616D01*
X124898584Y-77265153D01*
X124912462Y-77468118D01*
X124955631Y-77795044D01*
X125038432Y-78112504D01*
X125158605Y-78417144D01*
X125313892Y-78705611D01*
X125502034Y-78974551D01*
X125720773Y-79220611D01*
X125967850Y-79440438D01*
X126241007Y-79630679D01*
X126445191Y-79743781D01*
X126647599Y-79833619D01*
X126858075Y-79906500D01*
X127068837Y-79960897D01*
X127272104Y-79995283D01*
X127460092Y-80008131D01*
X127625021Y-79997914D01*
X127683716Y-79986811D01*
X127806302Y-79945704D01*
X127938780Y-79880913D01*
X128063897Y-79801240D01*
X128097439Y-79775734D01*
X128179246Y-79701799D01*
X128253101Y-79614708D01*
X128321442Y-79509690D01*
X128386705Y-79381973D01*
X128451328Y-79226785D01*
X128517750Y-79039354D01*
X128588407Y-78814909D01*
X128588655Y-78814083D01*
X128725850Y-78286139D01*
X128822510Y-77751398D01*
X128878840Y-77212557D01*
X128895046Y-76672316D01*
X128871334Y-76133374D01*
X128807908Y-75598428D01*
X128704976Y-75070179D01*
X128562741Y-74551325D01*
X128381410Y-74044564D01*
X128192996Y-73617666D01*
X128090038Y-73408669D01*
X127996099Y-73228447D01*
X127905147Y-73066209D01*
X127811151Y-72911165D01*
X127716413Y-72765018D01*
X127665387Y-72686812D01*
X127624590Y-72621330D01*
X127598962Y-72576685D01*
X127592667Y-72561780D01*
X127612910Y-72550137D01*
X127670004Y-72540198D01*
X127758502Y-72532011D01*
X127872954Y-72525625D01*
X128007912Y-72521087D01*
X128157927Y-72518448D01*
X128317550Y-72517754D01*
X128481332Y-72519054D01*
X128643825Y-72522398D01*
X128799579Y-72527832D01*
X128943146Y-72535407D01*
X129069077Y-72545170D01*
X129101017Y-72548364D01*
X129335328Y-72575782D01*
X129544842Y-72606462D01*
X129747098Y-72643454D01*
X129959632Y-72689808D01*
X130079750Y-72718555D01*
X130319423Y-72780535D01*
X130544618Y-72846151D01*
X130762058Y-72918125D01*
X130978466Y-72999176D01*
X131200568Y-73092025D01*
X131435086Y-73199393D01*
X131688743Y-73324000D01*
X131968264Y-73468567D01*
X132080000Y-73527880D01*
X132410442Y-73691020D01*
X132761605Y-73839899D01*
X133125194Y-73972005D01*
X133492915Y-74084822D01*
X133856471Y-74175839D01*
X134207568Y-74242542D01*
X134537911Y-74282417D01*
X134580967Y-74285643D01*
X134785349Y-74299735D01*
X134809928Y-74175659D01*
X134825741Y-74099961D01*
X134847868Y-73999324D01*
X134872712Y-73889962D01*
X134886004Y-73832930D01*
X134907194Y-73741514D01*
X134924151Y-73665609D01*
X134934834Y-73614526D01*
X134937500Y-73598065D01*
X134917670Y-73590966D01*
X134863465Y-73583148D01*
X134782812Y-73575493D01*
X134683639Y-73568884D01*
X134667625Y-73568035D01*
X134488080Y-73555670D01*
X134317561Y-73536533D01*
X134144025Y-73508679D01*
X133955430Y-73470160D01*
X133739731Y-73419031D01*
X133728621Y-73416259D01*
X133434303Y-73337035D01*
X133156981Y-73249798D01*
X132886138Y-73150492D01*
X132611256Y-73035061D01*
X132321818Y-72899449D01*
X132102485Y-72789086D01*
X131961278Y-72717822D01*
X131813285Y-72645750D01*
X131669377Y-72577984D01*
X131540425Y-72519638D01*
X131437300Y-72475825D01*
X131432262Y-72473806D01*
X130933941Y-72297358D01*
X130418992Y-72158161D01*
X129891785Y-72056706D01*
X129356688Y-71993486D01*
X128818071Y-71968992D01*
X128280303Y-71983715D01*
G37*
X128280303Y-71983715D02*
X127747754Y-72038148D01*
X127666750Y-72050050D01*
X127582613Y-72064201D01*
X127478846Y-72083583D01*
X127363417Y-72106485D01*
X127244297Y-72131198D01*
X127129455Y-72156010D01*
X127026862Y-72179211D01*
X126944487Y-72199089D01*
X126890300Y-72213935D01*
X126873606Y-72220292D01*
X126868028Y-72239512D01*
X126881717Y-72281747D01*
X126916384Y-72351005D01*
X126967904Y-72441407D01*
X127218905Y-72909066D01*
X127434620Y-73397638D01*
X127614060Y-73903210D01*
X127756230Y-74421871D01*
X127860139Y-74949710D01*
X127924795Y-75482817D01*
X127949206Y-76017280D01*
X127945638Y-76295250D01*
X127925516Y-76646077D01*
X127889182Y-77001922D01*
X127838336Y-77350943D01*
X127774677Y-77681298D01*
X127707367Y-77954564D01*
X127677339Y-78057658D01*
X127639679Y-78179143D01*
X127597714Y-78309061D01*
X127554768Y-78437454D01*
X127514169Y-78554364D01*
X127479242Y-78649835D01*
X127454941Y-78710258D01*
X127391764Y-78819469D01*
X127308623Y-78900588D01*
X127201110Y-78955843D01*
X127064819Y-78987465D01*
X126895342Y-78997682D01*
X126886761Y-78997674D01*
X126678146Y-78977283D01*
X126484507Y-78919885D01*
X126309415Y-78829050D01*
X126156442Y-78708350D01*
X126029160Y-78561356D01*
X125931141Y-78391641D01*
X125865956Y-78202775D01*
X125837177Y-77998331D01*
X125836085Y-77947094D01*
X125854606Y-77741991D01*
X125910652Y-77552158D01*
X126006037Y-77372635D01*
X126085529Y-77264577D01*
X126182380Y-77145682D01*
X126099065Y-77160096D01*
X125900074Y-77192723D01*
X125726499Y-77216684D01*
X125562708Y-77233676D01*
X125393073Y-77245396D01*
X125256084Y-77251616D01*
X124898584Y-77265153D01*
X124912462Y-77468118D01*
X124955631Y-77795044D01*
X125038432Y-78112504D01*
X125158605Y-78417144D01*
X125313892Y-78705611D01*
X125502034Y-78974551D01*
X125720773Y-79220611D01*
X125967850Y-79440438D01*
X126241007Y-79630679D01*
X126445191Y-79743781D01*
X126647599Y-79833619D01*
X126858075Y-79906500D01*
X127068837Y-79960897D01*
X127272104Y-79995283D01*
X127460092Y-80008131D01*
X127625021Y-79997914D01*
X127683716Y-79986811D01*
X127806302Y-79945704D01*
X127938780Y-79880913D01*
X128063897Y-79801240D01*
X128097439Y-79775734D01*
X128179246Y-79701799D01*
X128253101Y-79614708D01*
X128321442Y-79509690D01*
X128386705Y-79381973D01*
X128451328Y-79226785D01*
X128517750Y-79039354D01*
X128588407Y-78814909D01*
X128588655Y-78814083D01*
X128725850Y-78286139D01*
X128822510Y-77751398D01*
X128878840Y-77212557D01*
X128895046Y-76672316D01*
X128871334Y-76133374D01*
X128807908Y-75598428D01*
X128704976Y-75070179D01*
X128562741Y-74551325D01*
X128381410Y-74044564D01*
X128192996Y-73617666D01*
X128090038Y-73408669D01*
X127996099Y-73228447D01*
X127905147Y-73066209D01*
X127811151Y-72911165D01*
X127716413Y-72765018D01*
X127665387Y-72686812D01*
X127624590Y-72621330D01*
X127598962Y-72576685D01*
X127592667Y-72561780D01*
X127612910Y-72550137D01*
X127670004Y-72540198D01*
X127758502Y-72532011D01*
X127872954Y-72525625D01*
X128007912Y-72521087D01*
X128157927Y-72518448D01*
X128317550Y-72517754D01*
X128481332Y-72519054D01*
X128643825Y-72522398D01*
X128799579Y-72527832D01*
X128943146Y-72535407D01*
X129069077Y-72545170D01*
X129101017Y-72548364D01*
X129335328Y-72575782D01*
X129544842Y-72606462D01*
X129747098Y-72643454D01*
X129959632Y-72689808D01*
X130079750Y-72718555D01*
X130319423Y-72780535D01*
X130544618Y-72846151D01*
X130762058Y-72918125D01*
X130978466Y-72999176D01*
X131200568Y-73092025D01*
X131435086Y-73199393D01*
X131688743Y-73324000D01*
X131968264Y-73468567D01*
X132080000Y-73527880D01*
X132410442Y-73691020D01*
X132761605Y-73839899D01*
X133125194Y-73972005D01*
X133492915Y-74084822D01*
X133856471Y-74175839D01*
X134207568Y-74242542D01*
X134537911Y-74282417D01*
X134580967Y-74285643D01*
X134785349Y-74299735D01*
X134809928Y-74175659D01*
X134825741Y-74099961D01*
X134847868Y-73999324D01*
X134872712Y-73889962D01*
X134886004Y-73832930D01*
X134907194Y-73741514D01*
X134924151Y-73665609D01*
X134934834Y-73614526D01*
X134937500Y-73598065D01*
X134917670Y-73590966D01*
X134863465Y-73583148D01*
X134782812Y-73575493D01*
X134683639Y-73568884D01*
X134667625Y-73568035D01*
X134488080Y-73555670D01*
X134317561Y-73536533D01*
X134144025Y-73508679D01*
X133955430Y-73470160D01*
X133739731Y-73419031D01*
X133728621Y-73416259D01*
X133434303Y-73337035D01*
X133156981Y-73249798D01*
X132886138Y-73150492D01*
X132611256Y-73035061D01*
X132321818Y-72899449D01*
X132102485Y-72789086D01*
X131961278Y-72717822D01*
X131813285Y-72645750D01*
X131669377Y-72577984D01*
X131540425Y-72519638D01*
X131437300Y-72475825D01*
X131432262Y-72473806D01*
X130933941Y-72297358D01*
X130418992Y-72158161D01*
X129891785Y-72056706D01*
X129356688Y-71993486D01*
X128818071Y-71968992D01*
X128280303Y-71983715D01*
G36*
X119828091Y-78080309D02*
G01*
X119769004Y-78092912D01*
X119682474Y-78114294D01*
X119575072Y-78142827D01*
X119453369Y-78176881D01*
X119443500Y-78179712D01*
X119048547Y-78299468D01*
X118678700Y-78425422D01*
X118320252Y-78562871D01*
X117959500Y-78717113D01*
X117582737Y-78893446D01*
X117527917Y-78920204D01*
X117068693Y-79155740D01*
X116640676Y-79397687D01*
X116232743Y-79653058D01*
X115833774Y-79928866D01*
X115432645Y-80232122D01*
X115375573Y-80277254D01*
X115258179Y-80372134D01*
X115138952Y-80471307D01*
X115022154Y-80570939D01*
X114912047Y-80667194D01*
X114812893Y-80756241D01*
X114728954Y-80834244D01*
X114664491Y-80897370D01*
X114623767Y-80941784D01*
X114611042Y-80963654D01*
X114611568Y-80964551D01*
X114638870Y-80976119D01*
X114701012Y-80994844D01*
X114791408Y-81019148D01*
X114903475Y-81047457D01*
X115030630Y-81078194D01*
X115166288Y-81109782D01*
X115303865Y-81140644D01*
X115436777Y-81169206D01*
X115558441Y-81193889D01*
X115612334Y-81204161D01*
X115918881Y-81258096D01*
X116203553Y-81301466D01*
X116477180Y-81335288D01*
X116750592Y-81360580D01*
X117034621Y-81378359D01*
X117340098Y-81389644D01*
X117644334Y-81395111D01*
X117813664Y-81396659D01*
X117974035Y-81397581D01*
X118119273Y-81397884D01*
X118243204Y-81397573D01*
X118339657Y-81396654D01*
X118402456Y-81395135D01*
X118416917Y-81394349D01*
X118622923Y-81378701D01*
X118790899Y-81365495D01*
X118925032Y-81354028D01*
X119029509Y-81343600D01*
X119108516Y-81333511D01*
X119166240Y-81323059D01*
X119206868Y-81311543D01*
X119234586Y-81298263D01*
X119253581Y-81282517D01*
X119268041Y-81263605D01*
X119276255Y-81250489D01*
X119314401Y-81153962D01*
X119310745Y-81060620D01*
X119265658Y-80973722D01*
X119241748Y-80947014D01*
X119192964Y-80902241D01*
X119153618Y-80882589D01*
X119105388Y-80881220D01*
X119075142Y-80884852D01*
X118962315Y-80897120D01*
X118815757Y-80908208D01*
X118644061Y-80917825D01*
X118455820Y-80925681D01*
X118259628Y-80931485D01*
X118064077Y-80934945D01*
X117877761Y-80935772D01*
X117709273Y-80933673D01*
X117666657Y-80932528D01*
X117365890Y-80919442D01*
X117056090Y-80898786D01*
X116746161Y-80871512D01*
X116445010Y-80838571D01*
X116161543Y-80800914D01*
X115904668Y-80759491D01*
X115732330Y-80725997D01*
X115630075Y-80704257D01*
X115816996Y-80566070D01*
X116379929Y-80176125D01*
X116968347Y-79819520D01*
X117580706Y-79497016D01*
X118215460Y-79209375D01*
X118871064Y-78957358D01*
X119484801Y-78759529D01*
X119613380Y-78719227D01*
X119716981Y-78681593D01*
X119789694Y-78648927D01*
X119820968Y-78628563D01*
X119880247Y-78553553D01*
X119926024Y-78457899D01*
X119949307Y-78361770D01*
X119950571Y-78337833D01*
X119942543Y-78278963D01*
X119922211Y-78208357D01*
X119895203Y-78141022D01*
X119867146Y-78091961D01*
X119853163Y-78078116D01*
X119828091Y-78080309D01*
G37*
X119828091Y-78080309D02*
X119769004Y-78092912D01*
X119682474Y-78114294D01*
X119575072Y-78142827D01*
X119453369Y-78176881D01*
X119443500Y-78179712D01*
X119048547Y-78299468D01*
X118678700Y-78425422D01*
X118320252Y-78562871D01*
X117959500Y-78717113D01*
X117582737Y-78893446D01*
X117527917Y-78920204D01*
X117068693Y-79155740D01*
X116640676Y-79397687D01*
X116232743Y-79653058D01*
X115833774Y-79928866D01*
X115432645Y-80232122D01*
X115375573Y-80277254D01*
X115258179Y-80372134D01*
X115138952Y-80471307D01*
X115022154Y-80570939D01*
X114912047Y-80667194D01*
X114812893Y-80756241D01*
X114728954Y-80834244D01*
X114664491Y-80897370D01*
X114623767Y-80941784D01*
X114611042Y-80963654D01*
X114611568Y-80964551D01*
X114638870Y-80976119D01*
X114701012Y-80994844D01*
X114791408Y-81019148D01*
X114903475Y-81047457D01*
X115030630Y-81078194D01*
X115166288Y-81109782D01*
X115303865Y-81140644D01*
X115436777Y-81169206D01*
X115558441Y-81193889D01*
X115612334Y-81204161D01*
X115918881Y-81258096D01*
X116203553Y-81301466D01*
X116477180Y-81335288D01*
X116750592Y-81360580D01*
X117034621Y-81378359D01*
X117340098Y-81389644D01*
X117644334Y-81395111D01*
X117813664Y-81396659D01*
X117974035Y-81397581D01*
X118119273Y-81397884D01*
X118243204Y-81397573D01*
X118339657Y-81396654D01*
X118402456Y-81395135D01*
X118416917Y-81394349D01*
X118622923Y-81378701D01*
X118790899Y-81365495D01*
X118925032Y-81354028D01*
X119029509Y-81343600D01*
X119108516Y-81333511D01*
X119166240Y-81323059D01*
X119206868Y-81311543D01*
X119234586Y-81298263D01*
X119253581Y-81282517D01*
X119268041Y-81263605D01*
X119276255Y-81250489D01*
X119314401Y-81153962D01*
X119310745Y-81060620D01*
X119265658Y-80973722D01*
X119241748Y-80947014D01*
X119192964Y-80902241D01*
X119153618Y-80882589D01*
X119105388Y-80881220D01*
X119075142Y-80884852D01*
X118962315Y-80897120D01*
X118815757Y-80908208D01*
X118644061Y-80917825D01*
X118455820Y-80925681D01*
X118259628Y-80931485D01*
X118064077Y-80934945D01*
X117877761Y-80935772D01*
X117709273Y-80933673D01*
X117666657Y-80932528D01*
X117365890Y-80919442D01*
X117056090Y-80898786D01*
X116746161Y-80871512D01*
X116445010Y-80838571D01*
X116161543Y-80800914D01*
X115904668Y-80759491D01*
X115732330Y-80725997D01*
X115630075Y-80704257D01*
X115816996Y-80566070D01*
X116379929Y-80176125D01*
X116968347Y-79819520D01*
X117580706Y-79497016D01*
X118215460Y-79209375D01*
X118871064Y-78957358D01*
X119484801Y-78759529D01*
X119613380Y-78719227D01*
X119716981Y-78681593D01*
X119789694Y-78648927D01*
X119820968Y-78628563D01*
X119880247Y-78553553D01*
X119926024Y-78457899D01*
X119949307Y-78361770D01*
X119950571Y-78337833D01*
X119942543Y-78278963D01*
X119922211Y-78208357D01*
X119895203Y-78141022D01*
X119867146Y-78091961D01*
X119853163Y-78078116D01*
X119828091Y-78080309D01*
G36*
X132346533Y-76165758D02*
G01*
X132023246Y-76228150D01*
X131709436Y-76328223D01*
X131409694Y-76465874D01*
X131386140Y-76478683D01*
X131107872Y-76655445D01*
X130852338Y-76865264D01*
X130622666Y-77104036D01*
X130421987Y-77367652D01*
X130253432Y-77652008D01*
X130120132Y-77952996D01*
X130026131Y-78262625D01*
X129968549Y-78595679D01*
X129951937Y-78928044D01*
X129975006Y-79256467D01*
X130036469Y-79577695D01*
X130135040Y-79888475D01*
X130269432Y-80185555D01*
X130438357Y-80465681D01*
X130640529Y-80725601D01*
X130874660Y-80962062D01*
X131139463Y-81171810D01*
X131191106Y-81207023D01*
X131486356Y-81379443D01*
X131793506Y-81511380D01*
X132113044Y-81602959D01*
X132445456Y-81654304D01*
X132791231Y-81665541D01*
X132949929Y-81657649D01*
X133283521Y-81612236D01*
X133604080Y-81526724D01*
X133910413Y-81401660D01*
X134201325Y-81237588D01*
X134475625Y-81035054D01*
X134644427Y-80883058D01*
X134876570Y-80631241D01*
X135071016Y-80361856D01*
X135229119Y-80072439D01*
X135352235Y-79760524D01*
X135438583Y-79438500D01*
X135458854Y-79308268D01*
X135472070Y-79148757D01*
X135477159Y-79003273D01*
X133770619Y-79003273D01*
X133740887Y-79173176D01*
X133670813Y-79361156D01*
X133565937Y-79530457D01*
X133431074Y-79677327D01*
X133271038Y-79798011D01*
X133090642Y-79888755D01*
X132894701Y-79945808D01*
X132725584Y-79964824D01*
X132672483Y-79961516D01*
X132595253Y-79950811D01*
X132513917Y-79935685D01*
X132308925Y-79872165D01*
X132126298Y-79774146D01*
X131969119Y-79644326D01*
X131840475Y-79485402D01*
X131743450Y-79300072D01*
X131722197Y-79243315D01*
X131674408Y-79041925D01*
X131667294Y-78839532D01*
X131699637Y-78641220D01*
X131770219Y-78452076D01*
X131877822Y-78277185D01*
X131982072Y-78158442D01*
X132146566Y-78021981D01*
X132323261Y-77925786D01*
X132514049Y-77869061D01*
X132715000Y-77851000D01*
X132918908Y-77870685D01*
X133108575Y-77927011D01*
X133280824Y-78015882D01*
X133432477Y-78133205D01*
X133560359Y-78274885D01*
X133661291Y-78436826D01*
X133732096Y-78614934D01*
X133769598Y-78805115D01*
X133770619Y-79003273D01*
X135477159Y-79003273D01*
X135478247Y-78972179D01*
X135477397Y-78790746D01*
X135469535Y-78616671D01*
X135454674Y-78462165D01*
X135437355Y-78359000D01*
X135343914Y-78025245D01*
X135213656Y-77709641D01*
X135048591Y-77414796D01*
X134850731Y-77143321D01*
X134622089Y-76897823D01*
X134364675Y-76680914D01*
X134080502Y-76495201D01*
X133944459Y-76422519D01*
X133642645Y-76295001D01*
X133327354Y-76205667D01*
X133003178Y-76154415D01*
X132674708Y-76141146D01*
X132346533Y-76165758D01*
G37*
X132346533Y-76165758D02*
X132023246Y-76228150D01*
X131709436Y-76328223D01*
X131409694Y-76465874D01*
X131386140Y-76478683D01*
X131107872Y-76655445D01*
X130852338Y-76865264D01*
X130622666Y-77104036D01*
X130421987Y-77367652D01*
X130253432Y-77652008D01*
X130120132Y-77952996D01*
X130026131Y-78262625D01*
X129968549Y-78595679D01*
X129951937Y-78928044D01*
X129975006Y-79256467D01*
X130036469Y-79577695D01*
X130135040Y-79888475D01*
X130269432Y-80185555D01*
X130438357Y-80465681D01*
X130640529Y-80725601D01*
X130874660Y-80962062D01*
X131139463Y-81171810D01*
X131191106Y-81207023D01*
X131486356Y-81379443D01*
X131793506Y-81511380D01*
X132113044Y-81602959D01*
X132445456Y-81654304D01*
X132791231Y-81665541D01*
X132949929Y-81657649D01*
X133283521Y-81612236D01*
X133604080Y-81526724D01*
X133910413Y-81401660D01*
X134201325Y-81237588D01*
X134475625Y-81035054D01*
X134644427Y-80883058D01*
X134876570Y-80631241D01*
X135071016Y-80361856D01*
X135229119Y-80072439D01*
X135352235Y-79760524D01*
X135438583Y-79438500D01*
X135458854Y-79308268D01*
X135472070Y-79148757D01*
X135477159Y-79003273D01*
X133770619Y-79003273D01*
X133740887Y-79173176D01*
X133670813Y-79361156D01*
X133565937Y-79530457D01*
X133431074Y-79677327D01*
X133271038Y-79798011D01*
X133090642Y-79888755D01*
X132894701Y-79945808D01*
X132725584Y-79964824D01*
X132672483Y-79961516D01*
X132595253Y-79950811D01*
X132513917Y-79935685D01*
X132308925Y-79872165D01*
X132126298Y-79774146D01*
X131969119Y-79644326D01*
X131840475Y-79485402D01*
X131743450Y-79300072D01*
X131722197Y-79243315D01*
X131674408Y-79041925D01*
X131667294Y-78839532D01*
X131699637Y-78641220D01*
X131770219Y-78452076D01*
X131877822Y-78277185D01*
X131982072Y-78158442D01*
X132146566Y-78021981D01*
X132323261Y-77925786D01*
X132514049Y-77869061D01*
X132715000Y-77851000D01*
X132918908Y-77870685D01*
X133108575Y-77927011D01*
X133280824Y-78015882D01*
X133432477Y-78133205D01*
X133560359Y-78274885D01*
X133661291Y-78436826D01*
X133732096Y-78614934D01*
X133769598Y-78805115D01*
X133770619Y-79003273D01*
X135477159Y-79003273D01*
X135478247Y-78972179D01*
X135477397Y-78790746D01*
X135469535Y-78616671D01*
X135454674Y-78462165D01*
X135437355Y-78359000D01*
X135343914Y-78025245D01*
X135213656Y-77709641D01*
X135048591Y-77414796D01*
X134850731Y-77143321D01*
X134622089Y-76897823D01*
X134364675Y-76680914D01*
X134080502Y-76495201D01*
X133944459Y-76422519D01*
X133642645Y-76295001D01*
X133327354Y-76205667D01*
X133003178Y-76154415D01*
X132674708Y-76141146D01*
X132346533Y-76165758D01*
G36*
X122107780Y-77475881D02*
G01*
X121940026Y-77491644D01*
X121792478Y-77518503D01*
X121740084Y-77532953D01*
X121488745Y-77633380D01*
X121259576Y-77768667D01*
X121055418Y-77936012D01*
X120879111Y-78132611D01*
X120733496Y-78355662D01*
X120621414Y-78602363D01*
X120603135Y-78654706D01*
X120576888Y-78736216D01*
X120558538Y-78803458D01*
X120546665Y-78867354D01*
X120539850Y-78938826D01*
X120536675Y-79028798D01*
X120535719Y-79148190D01*
X120535673Y-79173916D01*
X120535973Y-79298910D01*
X120538210Y-79392336D01*
X120543804Y-79464956D01*
X120554175Y-79527531D01*
X120570743Y-79590825D01*
X120594927Y-79665598D01*
X120604092Y-79692500D01*
X120705900Y-79934363D01*
X120837140Y-80155261D01*
X120993015Y-80347246D01*
X121009516Y-80364288D01*
X121104863Y-80452714D01*
X121214709Y-80541177D01*
X121328365Y-80622101D01*
X121435140Y-80687908D01*
X121524346Y-80731024D01*
X121529800Y-80733048D01*
X121577392Y-80754697D01*
X121601693Y-80774434D01*
X121602500Y-80777413D01*
X121589787Y-80809204D01*
X121554247Y-80868428D01*
X121499783Y-80949691D01*
X121430297Y-81047596D01*
X121349690Y-81156748D01*
X121261864Y-81271753D01*
X121170721Y-81387214D01*
X121090702Y-81485115D01*
X121031705Y-81556536D01*
X120984353Y-81614953D01*
X120954241Y-81653392D01*
X120946323Y-81665032D01*
X120966364Y-81667138D01*
X121022013Y-81668963D01*
X121106544Y-81670390D01*
X121213230Y-81671301D01*
X121322031Y-81671583D01*
X121468321Y-81672635D01*
X121622837Y-81675537D01*
X121771186Y-81679901D01*
X121898975Y-81685345D01*
X121951834Y-81688428D01*
X122205917Y-81705274D01*
X122470417Y-81464348D01*
X122575949Y-81365701D01*
X122686200Y-81258347D01*
X122790350Y-81153093D01*
X122877582Y-81060743D01*
X122904250Y-81031046D01*
X122970594Y-80956676D01*
X123026929Y-80895403D01*
X123067397Y-80853468D01*
X123086143Y-80837113D01*
X123086289Y-80837085D01*
X123094090Y-80856086D01*
X123102005Y-80910111D01*
X123109554Y-80991855D01*
X123116258Y-81094014D01*
X123121637Y-81209282D01*
X123125211Y-81330355D01*
X123126500Y-81449406D01*
X123126500Y-81675809D01*
X124242874Y-81671583D01*
X124256060Y-81502250D01*
X124268599Y-81202358D01*
X124262689Y-80873667D01*
X124239035Y-80525132D01*
X124198345Y-80165703D01*
X124141326Y-79804335D01*
X124108505Y-79633511D01*
X124066831Y-79447153D01*
X124016387Y-79251200D01*
X123995161Y-79177074D01*
X122879253Y-79177074D01*
X122861338Y-79336564D01*
X122805861Y-79478817D01*
X122711236Y-79607296D01*
X122659248Y-79658156D01*
X122560109Y-79735899D01*
X122462426Y-79784597D01*
X122352897Y-79808776D01*
X122218223Y-79812961D01*
X122205488Y-79812550D01*
X122107023Y-79806127D01*
X122033221Y-79792433D01*
X121966523Y-79767242D01*
X121921380Y-79744183D01*
X121792962Y-79651281D01*
X121691829Y-79530623D01*
X121622015Y-79389737D01*
X121587550Y-79236149D01*
X121587050Y-79120120D01*
X121621198Y-78954669D01*
X121691051Y-78811713D01*
X121795668Y-78692637D01*
X121934105Y-78598825D01*
X121945870Y-78592824D01*
X122099095Y-78538600D01*
X122255783Y-78524824D01*
X122410123Y-78550641D01*
X122556306Y-78615193D01*
X122669379Y-78699486D01*
X122774565Y-78815895D01*
X122841645Y-78941494D01*
X122874439Y-79084973D01*
X122879253Y-79177074D01*
X123995161Y-79177074D01*
X123959348Y-79052013D01*
X123897889Y-78855956D01*
X123834185Y-78669391D01*
X123770408Y-78498680D01*
X123708735Y-78350186D01*
X123651340Y-78230270D01*
X123600396Y-78145296D01*
X123599422Y-78143948D01*
X123443309Y-77963240D01*
X123255064Y-77803948D01*
X123041199Y-77670203D01*
X122808225Y-77566133D01*
X122585384Y-77500765D01*
X122445147Y-77479882D01*
X122281049Y-77471774D01*
X122107780Y-77475881D01*
G37*
X122107780Y-77475881D02*
X121940026Y-77491644D01*
X121792478Y-77518503D01*
X121740084Y-77532953D01*
X121488745Y-77633380D01*
X121259576Y-77768667D01*
X121055418Y-77936012D01*
X120879111Y-78132611D01*
X120733496Y-78355662D01*
X120621414Y-78602363D01*
X120603135Y-78654706D01*
X120576888Y-78736216D01*
X120558538Y-78803458D01*
X120546665Y-78867354D01*
X120539850Y-78938826D01*
X120536675Y-79028798D01*
X120535719Y-79148190D01*
X120535673Y-79173916D01*
X120535973Y-79298910D01*
X120538210Y-79392336D01*
X120543804Y-79464956D01*
X120554175Y-79527531D01*
X120570743Y-79590825D01*
X120594927Y-79665598D01*
X120604092Y-79692500D01*
X120705900Y-79934363D01*
X120837140Y-80155261D01*
X120993015Y-80347246D01*
X121009516Y-80364288D01*
X121104863Y-80452714D01*
X121214709Y-80541177D01*
X121328365Y-80622101D01*
X121435140Y-80687908D01*
X121524346Y-80731024D01*
X121529800Y-80733048D01*
X121577392Y-80754697D01*
X121601693Y-80774434D01*
X121602500Y-80777413D01*
X121589787Y-80809204D01*
X121554247Y-80868428D01*
X121499783Y-80949691D01*
X121430297Y-81047596D01*
X121349690Y-81156748D01*
X121261864Y-81271753D01*
X121170721Y-81387214D01*
X121090702Y-81485115D01*
X121031705Y-81556536D01*
X120984353Y-81614953D01*
X120954241Y-81653392D01*
X120946323Y-81665032D01*
X120966364Y-81667138D01*
X121022013Y-81668963D01*
X121106544Y-81670390D01*
X121213230Y-81671301D01*
X121322031Y-81671583D01*
X121468321Y-81672635D01*
X121622837Y-81675537D01*
X121771186Y-81679901D01*
X121898975Y-81685345D01*
X121951834Y-81688428D01*
X122205917Y-81705274D01*
X122470417Y-81464348D01*
X122575949Y-81365701D01*
X122686200Y-81258347D01*
X122790350Y-81153093D01*
X122877582Y-81060743D01*
X122904250Y-81031046D01*
X122970594Y-80956676D01*
X123026929Y-80895403D01*
X123067397Y-80853468D01*
X123086143Y-80837113D01*
X123086289Y-80837085D01*
X123094090Y-80856086D01*
X123102005Y-80910111D01*
X123109554Y-80991855D01*
X123116258Y-81094014D01*
X123121637Y-81209282D01*
X123125211Y-81330355D01*
X123126500Y-81449406D01*
X123126500Y-81675809D01*
X124242874Y-81671583D01*
X124256060Y-81502250D01*
X124268599Y-81202358D01*
X124262689Y-80873667D01*
X124239035Y-80525132D01*
X124198345Y-80165703D01*
X124141326Y-79804335D01*
X124108505Y-79633511D01*
X124066831Y-79447153D01*
X124016387Y-79251200D01*
X123995161Y-79177074D01*
X122879253Y-79177074D01*
X122861338Y-79336564D01*
X122805861Y-79478817D01*
X122711236Y-79607296D01*
X122659248Y-79658156D01*
X122560109Y-79735899D01*
X122462426Y-79784597D01*
X122352897Y-79808776D01*
X122218223Y-79812961D01*
X122205488Y-79812550D01*
X122107023Y-79806127D01*
X122033221Y-79792433D01*
X121966523Y-79767242D01*
X121921380Y-79744183D01*
X121792962Y-79651281D01*
X121691829Y-79530623D01*
X121622015Y-79389737D01*
X121587550Y-79236149D01*
X121587050Y-79120120D01*
X121621198Y-78954669D01*
X121691051Y-78811713D01*
X121795668Y-78692637D01*
X121934105Y-78598825D01*
X121945870Y-78592824D01*
X122099095Y-78538600D01*
X122255783Y-78524824D01*
X122410123Y-78550641D01*
X122556306Y-78615193D01*
X122669379Y-78699486D01*
X122774565Y-78815895D01*
X122841645Y-78941494D01*
X122874439Y-79084973D01*
X122879253Y-79177074D01*
X123995161Y-79177074D01*
X123959348Y-79052013D01*
X123897889Y-78855956D01*
X123834185Y-78669391D01*
X123770408Y-78498680D01*
X123708735Y-78350186D01*
X123651340Y-78230270D01*
X123600396Y-78145296D01*
X123599422Y-78143948D01*
X123443309Y-77963240D01*
X123255064Y-77803948D01*
X123041199Y-77670203D01*
X122808225Y-77566133D01*
X122585384Y-77500765D01*
X122445147Y-77479882D01*
X122281049Y-77471774D01*
X122107780Y-77475881D01*
D12*
X143490000Y-57975000D02*
X143490000Y-57510000D01*
X143490000Y-60600000D02*
X143490000Y-60135000D01*
X148304479Y-57974571D02*
G75*
G03X143795316Y-57975000I-2254479J-1080429D01*
G01*
X148304479Y-60135429D02*
G75*
G02X143795316Y-60135000I-2254479J1080429D01*
G01*
X148837815Y-57974173D02*
G75*
G03X143490000Y-57510170I-2787815J-1080827D01*
G01*
X148837815Y-60135827D02*
G75*
G02X143490000Y-60599830I-2787815J1080827D01*
G01*
X135870000Y-55435000D02*
X135870000Y-54970000D01*
X135870000Y-58060000D02*
X135870000Y-57595000D01*
X140684479Y-55434571D02*
G75*
G03X136175316Y-55435000I-2254479J-1080429D01*
G01*
X140684479Y-57595429D02*
G75*
G02X136175316Y-57595000I-2254479J1080429D01*
G01*
X141217815Y-55434173D02*
G75*
G03X135870000Y-54970170I-2787815J-1080827D01*
G01*
X141217815Y-57595827D02*
G75*
G02X135870000Y-58059830I-2787815J1080827D01*
G01*
X128250000Y-54165000D02*
X128250000Y-53700000D01*
X128250000Y-56790000D02*
X128250000Y-56325000D01*
X133064479Y-54164571D02*
G75*
G03X128555316Y-54165000I-2254479J-1080429D01*
G01*
X133064479Y-56325429D02*
G75*
G02X128555316Y-56325000I-2254479J1080429D01*
G01*
X133597815Y-54164173D02*
G75*
G03X128250000Y-53700170I-2787815J-1080827D01*
G01*
X133597815Y-56325827D02*
G75*
G02X128250000Y-56789830I-2787815J1080827D01*
G01*
X87610000Y-65595000D02*
X87610000Y-65130000D01*
X87610000Y-68220000D02*
X87610000Y-67755000D01*
X92424479Y-65594571D02*
G75*
G03X87915316Y-65595000I-2254479J-1080429D01*
G01*
X92424479Y-67755429D02*
G75*
G02X87915316Y-67755000I-2254479J1080429D01*
G01*
X92957815Y-65594173D02*
G75*
G03X87610000Y-65130170I-2787815J-1080827D01*
G01*
X92957815Y-67755827D02*
G75*
G02X87610000Y-68219830I-2787815J1080827D01*
G01*
X120630000Y-54165000D02*
X120630000Y-53700000D01*
X120630000Y-56790000D02*
X120630000Y-56325000D01*
X125444479Y-54164571D02*
G75*
G03X120935316Y-54165000I-2254479J-1080429D01*
G01*
X125444479Y-56325429D02*
G75*
G02X120935316Y-56325000I-2254479J1080429D01*
G01*
X125977815Y-54164173D02*
G75*
G03X120630000Y-53700170I-2787815J-1080827D01*
G01*
X125977815Y-56325827D02*
G75*
G02X120630000Y-56789830I-2787815J1080827D01*
G01*
X96500000Y-60515000D02*
X96500000Y-60050000D01*
X96500000Y-63140000D02*
X96500000Y-62675000D01*
X101314479Y-60514571D02*
G75*
G03X96805316Y-60515000I-2254479J-1080429D01*
G01*
X101314479Y-62675429D02*
G75*
G02X96805316Y-62675000I-2254479J1080429D01*
G01*
X101847815Y-60514173D02*
G75*
G03X96500000Y-60050170I-2787815J-1080827D01*
G01*
X101847815Y-62675827D02*
G75*
G02X96500000Y-63139830I-2787815J1080827D01*
G01*
X152380000Y-60515000D02*
X152380000Y-60050000D01*
X152380000Y-63140000D02*
X152380000Y-62675000D01*
X157194479Y-60514571D02*
G75*
G03X152685316Y-60515000I-2254479J-1080429D01*
G01*
X157194479Y-62675429D02*
G75*
G02X152685316Y-62675000I-2254479J1080429D01*
G01*
X157727815Y-60514173D02*
G75*
G03X152380000Y-60050170I-2787815J-1080827D01*
G01*
X157727815Y-62675827D02*
G75*
G02X152380000Y-63139830I-2787815J1080827D01*
G01*
X113010000Y-55435000D02*
X113010000Y-54970000D01*
X113010000Y-58060000D02*
X113010000Y-57595000D01*
X117824479Y-55434571D02*
G75*
G03X113315316Y-55435000I-2254479J-1080429D01*
G01*
X117824479Y-57595429D02*
G75*
G02X113315316Y-57595000I-2254479J1080429D01*
G01*
X118357815Y-55434173D02*
G75*
G03X113010000Y-54970170I-2787815J-1080827D01*
G01*
X118357815Y-57595827D02*
G75*
G02X113010000Y-58059830I-2787815J1080827D01*
G01*
X161270000Y-65595000D02*
X161270000Y-65130000D01*
X161270000Y-68220000D02*
X161270000Y-67755000D01*
X166084479Y-65594571D02*
G75*
G03X161575316Y-65595000I-2254479J-1080429D01*
G01*
X166084479Y-67755429D02*
G75*
G02X161575316Y-67755000I-2254479J1080429D01*
G01*
X166617815Y-65594173D02*
G75*
G03X161270000Y-65130170I-2787815J-1080827D01*
G01*
X166617815Y-67755827D02*
G75*
G02X161270000Y-68219830I-2787815J1080827D01*
G01*
X105390000Y-57975000D02*
X105390000Y-57510000D01*
X105390000Y-60600000D02*
X105390000Y-60135000D01*
X110204479Y-57974571D02*
G75*
G03X105695316Y-57975000I-2254479J-1080429D01*
G01*
X110204479Y-60135429D02*
G75*
G02X105695316Y-60135000I-2254479J1080429D01*
G01*
X110737815Y-57974173D02*
G75*
G03X105390000Y-57510170I-2787815J-1080827D01*
G01*
X110737815Y-60135827D02*
G75*
G02X105390000Y-60599830I-2787815J1080827D01*
G01*
D13*
X147264285Y-63467380D02*
X147264285Y-62467380D01*
X147026190Y-62467380D01*
X146883333Y-62515000D01*
X146788095Y-62610238D01*
X146740476Y-62705476D01*
X146692857Y-62895952D01*
X146692857Y-63038809D01*
X146740476Y-63229285D01*
X146788095Y-63324523D01*
X146883333Y-63419761D01*
X147026190Y-63467380D01*
X147264285Y-63467380D01*
X145740476Y-63467380D02*
X146311904Y-63467380D01*
X146026190Y-63467380D02*
X146026190Y-62467380D01*
X146121428Y-62610238D01*
X146216666Y-62705476D01*
X146311904Y-62753095D01*
X145264285Y-63467380D02*
X145073809Y-63467380D01*
X144978571Y-63419761D01*
X144930952Y-63372142D01*
X144835714Y-63229285D01*
X144788095Y-63038809D01*
X144788095Y-62657857D01*
X144835714Y-62562619D01*
X144883333Y-62515000D01*
X144978571Y-62467380D01*
X145169047Y-62467380D01*
X145264285Y-62515000D01*
X145311904Y-62562619D01*
X145359523Y-62657857D01*
X145359523Y-62895952D01*
X145311904Y-62991190D01*
X145264285Y-63038809D01*
X145169047Y-63086428D01*
X144978571Y-63086428D01*
X144883333Y-63038809D01*
X144835714Y-62991190D01*
X144788095Y-62895952D01*
X139644285Y-60927380D02*
X139644285Y-59927380D01*
X139406190Y-59927380D01*
X139263333Y-59975000D01*
X139168095Y-60070238D01*
X139120476Y-60165476D01*
X139072857Y-60355952D01*
X139072857Y-60498809D01*
X139120476Y-60689285D01*
X139168095Y-60784523D01*
X139263333Y-60879761D01*
X139406190Y-60927380D01*
X139644285Y-60927380D01*
X138120476Y-60927380D02*
X138691904Y-60927380D01*
X138406190Y-60927380D02*
X138406190Y-59927380D01*
X138501428Y-60070238D01*
X138596666Y-60165476D01*
X138691904Y-60213095D01*
X137787142Y-59927380D02*
X137120476Y-59927380D01*
X137549047Y-60927380D01*
X132024285Y-59657380D02*
X132024285Y-58657380D01*
X131786190Y-58657380D01*
X131643333Y-58705000D01*
X131548095Y-58800238D01*
X131500476Y-58895476D01*
X131452857Y-59085952D01*
X131452857Y-59228809D01*
X131500476Y-59419285D01*
X131548095Y-59514523D01*
X131643333Y-59609761D01*
X131786190Y-59657380D01*
X132024285Y-59657380D01*
X130500476Y-59657380D02*
X131071904Y-59657380D01*
X130786190Y-59657380D02*
X130786190Y-58657380D01*
X130881428Y-58800238D01*
X130976666Y-58895476D01*
X131071904Y-58943095D01*
X129595714Y-58657380D02*
X130071904Y-58657380D01*
X130119523Y-59133571D01*
X130071904Y-59085952D01*
X129976666Y-59038333D01*
X129738571Y-59038333D01*
X129643333Y-59085952D01*
X129595714Y-59133571D01*
X129548095Y-59228809D01*
X129548095Y-59466904D01*
X129595714Y-59562142D01*
X129643333Y-59609761D01*
X129738571Y-59657380D01*
X129976666Y-59657380D01*
X130071904Y-59609761D01*
X130119523Y-59562142D01*
X91384285Y-71087380D02*
X91384285Y-70087380D01*
X91146190Y-70087380D01*
X91003333Y-70135000D01*
X90908095Y-70230238D01*
X90860476Y-70325476D01*
X90812857Y-70515952D01*
X90812857Y-70658809D01*
X90860476Y-70849285D01*
X90908095Y-70944523D01*
X91003333Y-71039761D01*
X91146190Y-71087380D01*
X91384285Y-71087380D01*
X89860476Y-71087380D02*
X90431904Y-71087380D01*
X90146190Y-71087380D02*
X90146190Y-70087380D01*
X90241428Y-70230238D01*
X90336666Y-70325476D01*
X90431904Y-70373095D01*
X89527142Y-70087380D02*
X88908095Y-70087380D01*
X89241428Y-70468333D01*
X89098571Y-70468333D01*
X89003333Y-70515952D01*
X88955714Y-70563571D01*
X88908095Y-70658809D01*
X88908095Y-70896904D01*
X88955714Y-70992142D01*
X89003333Y-71039761D01*
X89098571Y-71087380D01*
X89384285Y-71087380D01*
X89479523Y-71039761D01*
X89527142Y-70992142D01*
X124404285Y-59657380D02*
X124404285Y-58657380D01*
X124166190Y-58657380D01*
X124023333Y-58705000D01*
X123928095Y-58800238D01*
X123880476Y-58895476D01*
X123832857Y-59085952D01*
X123832857Y-59228809D01*
X123880476Y-59419285D01*
X123928095Y-59514523D01*
X124023333Y-59609761D01*
X124166190Y-59657380D01*
X124404285Y-59657380D01*
X122880476Y-59657380D02*
X123451904Y-59657380D01*
X123166190Y-59657380D02*
X123166190Y-58657380D01*
X123261428Y-58800238D01*
X123356666Y-58895476D01*
X123451904Y-58943095D01*
X121928095Y-59657380D02*
X122499523Y-59657380D01*
X122213809Y-59657380D02*
X122213809Y-58657380D01*
X122309047Y-58800238D01*
X122404285Y-58895476D01*
X122499523Y-58943095D01*
X99798095Y-66007380D02*
X99798095Y-65007380D01*
X99560000Y-65007380D01*
X99417142Y-65055000D01*
X99321904Y-65150238D01*
X99274285Y-65245476D01*
X99226666Y-65435952D01*
X99226666Y-65578809D01*
X99274285Y-65769285D01*
X99321904Y-65864523D01*
X99417142Y-65959761D01*
X99560000Y-66007380D01*
X99798095Y-66007380D01*
X98750476Y-66007380D02*
X98560000Y-66007380D01*
X98464761Y-65959761D01*
X98417142Y-65912142D01*
X98321904Y-65769285D01*
X98274285Y-65578809D01*
X98274285Y-65197857D01*
X98321904Y-65102619D01*
X98369523Y-65055000D01*
X98464761Y-65007380D01*
X98655238Y-65007380D01*
X98750476Y-65055000D01*
X98798095Y-65102619D01*
X98845714Y-65197857D01*
X98845714Y-65435952D01*
X98798095Y-65531190D01*
X98750476Y-65578809D01*
X98655238Y-65626428D01*
X98464761Y-65626428D01*
X98369523Y-65578809D01*
X98321904Y-65531190D01*
X98274285Y-65435952D01*
X155678095Y-66007380D02*
X155678095Y-65007380D01*
X155440000Y-65007380D01*
X155297142Y-65055000D01*
X155201904Y-65150238D01*
X155154285Y-65245476D01*
X155106666Y-65435952D01*
X155106666Y-65578809D01*
X155154285Y-65769285D01*
X155201904Y-65864523D01*
X155297142Y-65959761D01*
X155440000Y-66007380D01*
X155678095Y-66007380D01*
X154773333Y-65007380D02*
X154106666Y-65007380D01*
X154535238Y-66007380D01*
X116308095Y-60927380D02*
X116308095Y-59927380D01*
X116070000Y-59927380D01*
X115927142Y-59975000D01*
X115831904Y-60070238D01*
X115784285Y-60165476D01*
X115736666Y-60355952D01*
X115736666Y-60498809D01*
X115784285Y-60689285D01*
X115831904Y-60784523D01*
X115927142Y-60879761D01*
X116070000Y-60927380D01*
X116308095Y-60927380D01*
X114831904Y-59927380D02*
X115308095Y-59927380D01*
X115355714Y-60403571D01*
X115308095Y-60355952D01*
X115212857Y-60308333D01*
X114974761Y-60308333D01*
X114879523Y-60355952D01*
X114831904Y-60403571D01*
X114784285Y-60498809D01*
X114784285Y-60736904D01*
X114831904Y-60832142D01*
X114879523Y-60879761D01*
X114974761Y-60927380D01*
X115212857Y-60927380D01*
X115308095Y-60879761D01*
X115355714Y-60832142D01*
X164568095Y-71087380D02*
X164568095Y-70087380D01*
X164330000Y-70087380D01*
X164187142Y-70135000D01*
X164091904Y-70230238D01*
X164044285Y-70325476D01*
X163996666Y-70515952D01*
X163996666Y-70658809D01*
X164044285Y-70849285D01*
X164091904Y-70944523D01*
X164187142Y-71039761D01*
X164330000Y-71087380D01*
X164568095Y-71087380D01*
X163663333Y-70087380D02*
X163044285Y-70087380D01*
X163377619Y-70468333D01*
X163234761Y-70468333D01*
X163139523Y-70515952D01*
X163091904Y-70563571D01*
X163044285Y-70658809D01*
X163044285Y-70896904D01*
X163091904Y-70992142D01*
X163139523Y-71039761D01*
X163234761Y-71087380D01*
X163520476Y-71087380D01*
X163615714Y-71039761D01*
X163663333Y-70992142D01*
X108688095Y-63467380D02*
X108688095Y-62467380D01*
X108450000Y-62467380D01*
X108307142Y-62515000D01*
X108211904Y-62610238D01*
X108164285Y-62705476D01*
X108116666Y-62895952D01*
X108116666Y-63038809D01*
X108164285Y-63229285D01*
X108211904Y-63324523D01*
X108307142Y-63419761D01*
X108450000Y-63467380D01*
X108688095Y-63467380D01*
X107164285Y-63467380D02*
X107735714Y-63467380D01*
X107450000Y-63467380D02*
X107450000Y-62467380D01*
X107545238Y-62610238D01*
X107640476Y-62705476D01*
X107735714Y-62753095D01*
M02*
