M48
; DRILL file {KiCad 5.1.5-52549c5~84~ubuntu18.04.1} date Wed 12 Feb 2020 22:05:48 GMT
; FORMAT={-:-/ absolute / inch / decimal}
; #@! TF.CreationDate,2020-02-12T22:05:48+00:00
; #@! TF.GenerationSoftware,Kicad,Pcbnew,5.1.5-52549c5~84~ubuntu18.04.1
; #@! TF.FileFunction,Plated,1,2,PTH
FMAT,2
INCH
T1C0.0157
T2C0.0335
T3C0.0354
T4C0.1260
%
G90
G05
T1
X4.8Y-2.975
X5.025Y-2.975
X5.075Y-3.0
X5.55Y-3.125
T2
X5.7047Y-3.35
X5.8031Y-3.35
X5.9016Y-3.35
X6.0Y-3.35
T3
X4.175Y-2.775
X4.225Y-2.775
X4.275Y-2.775
X4.325Y-2.775
X6.375Y-3.075
X6.425Y-3.075
X6.475Y-3.075
X6.525Y-3.075
X5.075Y-2.175
X5.125Y-2.175
X5.175Y-2.175
X5.225Y-2.175
X3.825Y-2.875
X3.875Y-2.875
X3.925Y-2.875
X3.975Y-2.875
X5.675Y-2.325
X5.725Y-2.325
X5.775Y-2.325
X5.825Y-2.325
X5.375Y-2.225
X5.425Y-2.225
X5.475Y-2.225
X5.525Y-2.225
X6.375Y-2.625
X6.425Y-2.625
X6.475Y-2.625
X6.525Y-2.625
X6.025Y-2.875
X6.075Y-2.875
X6.125Y-2.875
X6.175Y-2.875
X3.825Y-2.425
X3.875Y-2.425
X3.925Y-2.425
X3.975Y-2.425
X4.175Y-2.325
X4.225Y-2.325
X4.275Y-2.325
X4.325Y-2.325
X4.775Y-2.625
X4.825Y-2.625
X4.875Y-2.625
X4.925Y-2.625
X3.475Y-3.075
X3.525Y-3.075
X3.575Y-3.075
X3.625Y-3.075
X5.375Y-2.675
X5.425Y-2.675
X5.475Y-2.675
X5.525Y-2.675
X3.475Y-2.625
X3.525Y-2.625
X3.575Y-2.625
X3.625Y-2.625
X5.075Y-2.625
X5.125Y-2.625
X5.175Y-2.625
X5.225Y-2.625
X4.775Y-2.175
X4.825Y-2.175
X4.875Y-2.175
X4.925Y-2.175
X4.475Y-2.225
X4.525Y-2.225
X4.575Y-2.225
X4.625Y-2.225
X4.475Y-2.675
X4.525Y-2.675
X4.575Y-2.675
X4.625Y-2.675
X6.025Y-2.425
X6.075Y-2.425
X6.125Y-2.425
X6.175Y-2.425
X5.675Y-2.775
X5.725Y-2.775
X5.775Y-2.775
X5.825Y-2.775
T4
X3.125Y-3.325
X3.125Y-2.675
X6.875Y-2.675
X6.8659Y-3.325
T0
M30
