G04 #@! TF.GenerationSoftware,KiCad,Pcbnew,5.1.5-52549c5~84~ubuntu18.04.1*
G04 #@! TF.CreationDate,2020-02-12T22:06:01+00:00*
G04 #@! TF.ProjectId,TSAL_LED,5453414c-5f4c-4454-942e-6b696361645f,rev?*
G04 #@! TF.SameCoordinates,Original*
G04 #@! TF.FileFunction,Soldermask,Bot*
G04 #@! TF.FilePolarity,Negative*
%FSLAX46Y46*%
G04 Gerber Fmt 4.6, Leading zero omitted, Abs format (unit mm)*
G04 Created by KiCad (PCBNEW 5.1.5-52549c5~84~ubuntu18.04.1) date 2020-02-12 22:06:01*
%MOMM*%
%LPD*%
G04 APERTURE LIST*
%ADD10C,0.100000*%
G04 APERTURE END LIST*
D10*
G36*
X80009239Y-81266467D02*
G01*
X80323282Y-81328934D01*
X80914926Y-81574001D01*
X81447392Y-81929784D01*
X81900216Y-82382608D01*
X82255999Y-82915074D01*
X82501066Y-83506718D01*
X82626000Y-84134804D01*
X82626000Y-84775196D01*
X82501066Y-85403282D01*
X82255999Y-85994926D01*
X81900216Y-86527392D01*
X81447392Y-86980216D01*
X80914926Y-87335999D01*
X80323282Y-87581066D01*
X80009239Y-87643533D01*
X79695197Y-87706000D01*
X79054803Y-87706000D01*
X78740761Y-87643533D01*
X78426718Y-87581066D01*
X77835074Y-87335999D01*
X77302608Y-86980216D01*
X76849784Y-86527392D01*
X76494001Y-85994926D01*
X76248934Y-85403282D01*
X76124000Y-84775196D01*
X76124000Y-84134804D01*
X76248934Y-83506718D01*
X76494001Y-82915074D01*
X76849784Y-82382608D01*
X77302608Y-81929784D01*
X77835074Y-81574001D01*
X78426718Y-81328934D01*
X78740761Y-81266467D01*
X79054803Y-81204000D01*
X79695197Y-81204000D01*
X80009239Y-81266467D01*
G37*
G36*
X175029239Y-81266467D02*
G01*
X175343282Y-81328934D01*
X175934926Y-81574001D01*
X176467392Y-81929784D01*
X176920216Y-82382608D01*
X177275999Y-82915074D01*
X177521066Y-83506718D01*
X177646000Y-84134804D01*
X177646000Y-84775196D01*
X177521066Y-85403282D01*
X177275999Y-85994926D01*
X176920216Y-86527392D01*
X176467392Y-86980216D01*
X175934926Y-87335999D01*
X175343282Y-87581066D01*
X175029239Y-87643533D01*
X174715197Y-87706000D01*
X174074803Y-87706000D01*
X173760761Y-87643533D01*
X173446718Y-87581066D01*
X172855074Y-87335999D01*
X172322608Y-86980216D01*
X171869784Y-86527392D01*
X171514001Y-85994926D01*
X171268934Y-85403282D01*
X171144000Y-84775196D01*
X171144000Y-84134804D01*
X171268934Y-83506718D01*
X171514001Y-82915074D01*
X171869784Y-82382608D01*
X172322608Y-81929784D01*
X172855074Y-81574001D01*
X173446718Y-81328934D01*
X173760761Y-81266467D01*
X174074803Y-81204000D01*
X174715197Y-81204000D01*
X175029239Y-81266467D01*
G37*
G36*
X147576627Y-84127037D02*
G01*
X147746466Y-84178557D01*
X147902991Y-84262222D01*
X147938729Y-84291552D01*
X148040186Y-84374814D01*
X148123448Y-84476271D01*
X148152778Y-84512009D01*
X148236443Y-84668535D01*
X148287963Y-84838374D01*
X148301000Y-84970743D01*
X148301000Y-85209258D01*
X148287963Y-85341627D01*
X148236443Y-85511466D01*
X148152778Y-85667991D01*
X148123448Y-85703729D01*
X148040186Y-85805186D01*
X147902989Y-85917779D01*
X147746467Y-86001442D01*
X147746465Y-86001443D01*
X147576626Y-86052963D01*
X147400000Y-86070359D01*
X147223373Y-86052963D01*
X147053534Y-86001443D01*
X146897009Y-85917778D01*
X146854750Y-85883097D01*
X146759814Y-85805186D01*
X146647221Y-85667989D01*
X146563558Y-85511467D01*
X146563557Y-85511465D01*
X146512037Y-85341626D01*
X146499000Y-85209257D01*
X146499000Y-84970742D01*
X146512037Y-84838373D01*
X146563557Y-84668534D01*
X146647222Y-84512009D01*
X146691217Y-84458401D01*
X146759814Y-84374815D01*
X146854751Y-84296903D01*
X146897010Y-84262222D01*
X147053535Y-84178557D01*
X147223374Y-84127037D01*
X147400000Y-84109641D01*
X147576627Y-84127037D01*
G37*
G36*
X150076627Y-84127037D02*
G01*
X150246466Y-84178557D01*
X150402991Y-84262222D01*
X150438729Y-84291552D01*
X150540186Y-84374814D01*
X150623448Y-84476271D01*
X150652778Y-84512009D01*
X150736443Y-84668535D01*
X150787963Y-84838374D01*
X150801000Y-84970743D01*
X150801000Y-85209258D01*
X150787963Y-85341627D01*
X150736443Y-85511466D01*
X150652778Y-85667991D01*
X150623448Y-85703729D01*
X150540186Y-85805186D01*
X150402989Y-85917779D01*
X150246467Y-86001442D01*
X150246465Y-86001443D01*
X150076626Y-86052963D01*
X149900000Y-86070359D01*
X149723373Y-86052963D01*
X149553534Y-86001443D01*
X149397009Y-85917778D01*
X149354750Y-85883097D01*
X149259814Y-85805186D01*
X149147221Y-85667989D01*
X149063558Y-85511467D01*
X149063557Y-85511465D01*
X149012037Y-85341626D01*
X148999000Y-85209257D01*
X148999000Y-84970742D01*
X149012037Y-84838373D01*
X149063557Y-84668534D01*
X149147222Y-84512009D01*
X149191217Y-84458401D01*
X149259814Y-84374815D01*
X149354751Y-84296903D01*
X149397010Y-84262222D01*
X149553535Y-84178557D01*
X149723374Y-84127037D01*
X149900000Y-84109641D01*
X150076627Y-84127037D01*
G37*
G36*
X145076627Y-84127037D02*
G01*
X145246466Y-84178557D01*
X145402991Y-84262222D01*
X145438729Y-84291552D01*
X145540186Y-84374814D01*
X145623448Y-84476271D01*
X145652778Y-84512009D01*
X145736443Y-84668535D01*
X145787963Y-84838374D01*
X145801000Y-84970743D01*
X145801000Y-85209258D01*
X145787963Y-85341627D01*
X145736443Y-85511466D01*
X145652778Y-85667991D01*
X145623448Y-85703729D01*
X145540186Y-85805186D01*
X145402989Y-85917779D01*
X145246467Y-86001442D01*
X145246465Y-86001443D01*
X145076626Y-86052963D01*
X144900000Y-86070359D01*
X144723373Y-86052963D01*
X144553534Y-86001443D01*
X144397009Y-85917778D01*
X144354750Y-85883097D01*
X144259814Y-85805186D01*
X144147221Y-85667989D01*
X144063558Y-85511467D01*
X144063557Y-85511465D01*
X144012037Y-85341626D01*
X143999000Y-85209257D01*
X143999000Y-84970742D01*
X144012037Y-84838373D01*
X144063557Y-84668534D01*
X144147222Y-84512009D01*
X144191217Y-84458401D01*
X144259814Y-84374815D01*
X144354751Y-84296903D01*
X144397010Y-84262222D01*
X144553535Y-84178557D01*
X144723374Y-84127037D01*
X144900000Y-84109641D01*
X145076627Y-84127037D01*
G37*
G36*
X153158600Y-84117989D02*
G01*
X153191652Y-84128015D01*
X153222103Y-84144292D01*
X153248799Y-84166201D01*
X153270708Y-84192897D01*
X153286985Y-84223348D01*
X153297011Y-84256400D01*
X153301000Y-84296903D01*
X153301000Y-85883097D01*
X153297011Y-85923600D01*
X153286985Y-85956652D01*
X153270708Y-85987103D01*
X153248799Y-86013799D01*
X153222103Y-86035708D01*
X153191652Y-86051985D01*
X153158600Y-86062011D01*
X153118097Y-86066000D01*
X151681903Y-86066000D01*
X151641400Y-86062011D01*
X151608348Y-86051985D01*
X151577897Y-86035708D01*
X151551201Y-86013799D01*
X151529292Y-85987103D01*
X151513015Y-85956652D01*
X151502989Y-85923600D01*
X151499000Y-85883097D01*
X151499000Y-84296903D01*
X151502989Y-84256400D01*
X151513015Y-84223348D01*
X151529292Y-84192897D01*
X151551201Y-84166201D01*
X151577897Y-84144292D01*
X151608348Y-84128015D01*
X151641400Y-84117989D01*
X151681903Y-84114000D01*
X153118097Y-84114000D01*
X153158600Y-84117989D01*
G37*
G36*
X165849875Y-77162479D02*
G01*
X165923516Y-77184818D01*
X165960337Y-77195987D01*
X166062139Y-77250402D01*
X166119227Y-77297253D01*
X166151369Y-77323631D01*
X166224598Y-77412861D01*
X166224599Y-77412863D01*
X166279013Y-77514662D01*
X166279524Y-77516347D01*
X166312521Y-77625124D01*
X166321000Y-77711215D01*
X166321000Y-78498785D01*
X166312521Y-78584876D01*
X166290182Y-78658517D01*
X166279013Y-78695338D01*
X166224598Y-78797140D01*
X166151370Y-78886370D01*
X166062140Y-78959598D01*
X165960338Y-79014013D01*
X165923517Y-79025182D01*
X165849876Y-79047521D01*
X165735000Y-79058835D01*
X165620125Y-79047521D01*
X165546484Y-79025182D01*
X165509663Y-79014013D01*
X165407861Y-78959598D01*
X165318631Y-78886370D01*
X165245402Y-78797138D01*
X165210240Y-78731355D01*
X165196627Y-78710980D01*
X165179300Y-78693653D01*
X165158925Y-78680040D01*
X165136286Y-78670662D01*
X165112253Y-78665882D01*
X165087749Y-78665882D01*
X165063716Y-78670662D01*
X165041077Y-78680040D01*
X165020702Y-78693653D01*
X165003375Y-78710980D01*
X164989762Y-78731354D01*
X164954598Y-78797140D01*
X164881370Y-78886370D01*
X164792140Y-78959598D01*
X164690338Y-79014013D01*
X164653517Y-79025182D01*
X164579876Y-79047521D01*
X164465000Y-79058835D01*
X164350125Y-79047521D01*
X164276484Y-79025182D01*
X164239663Y-79014013D01*
X164137861Y-78959598D01*
X164048631Y-78886370D01*
X163975402Y-78797138D01*
X163940240Y-78731355D01*
X163926627Y-78710980D01*
X163909300Y-78693653D01*
X163888925Y-78680040D01*
X163866286Y-78670662D01*
X163842253Y-78665882D01*
X163817749Y-78665882D01*
X163793716Y-78670662D01*
X163771077Y-78680040D01*
X163750702Y-78693653D01*
X163733375Y-78710980D01*
X163719762Y-78731354D01*
X163684598Y-78797140D01*
X163611370Y-78886370D01*
X163522140Y-78959598D01*
X163420338Y-79014013D01*
X163383517Y-79025182D01*
X163309876Y-79047521D01*
X163195000Y-79058835D01*
X163080125Y-79047521D01*
X163006484Y-79025182D01*
X162969663Y-79014013D01*
X162867861Y-78959598D01*
X162778631Y-78886370D01*
X162732625Y-78830310D01*
X162715298Y-78812983D01*
X162694924Y-78799369D01*
X162672285Y-78789992D01*
X162648252Y-78785211D01*
X162623748Y-78785211D01*
X162599714Y-78789991D01*
X162577076Y-78799368D01*
X162556701Y-78812982D01*
X162539374Y-78830309D01*
X162525760Y-78850683D01*
X162516383Y-78873322D01*
X162511602Y-78897355D01*
X162511000Y-78909608D01*
X162511000Y-79056000D01*
X161339000Y-79056000D01*
X161339000Y-77154000D01*
X162511000Y-77154000D01*
X162511000Y-77300392D01*
X162513402Y-77324778D01*
X162520515Y-77348227D01*
X162532066Y-77369838D01*
X162547611Y-77388780D01*
X162566553Y-77404325D01*
X162588164Y-77415876D01*
X162611613Y-77422989D01*
X162635999Y-77425391D01*
X162660385Y-77422989D01*
X162683834Y-77415876D01*
X162705445Y-77404325D01*
X162724387Y-77388780D01*
X162732625Y-77379690D01*
X162778629Y-77323634D01*
X162778631Y-77323631D01*
X162867861Y-77250402D01*
X162879507Y-77244177D01*
X162969662Y-77195987D01*
X163006483Y-77184818D01*
X163080124Y-77162479D01*
X163195000Y-77151165D01*
X163309875Y-77162479D01*
X163383516Y-77184818D01*
X163420337Y-77195987D01*
X163522139Y-77250402D01*
X163579227Y-77297253D01*
X163611369Y-77323631D01*
X163684598Y-77412861D01*
X163684601Y-77412865D01*
X163719761Y-77478645D01*
X163733374Y-77499020D01*
X163750701Y-77516347D01*
X163771076Y-77529960D01*
X163793715Y-77539338D01*
X163817748Y-77544118D01*
X163842252Y-77544118D01*
X163866285Y-77539338D01*
X163888924Y-77529960D01*
X163909299Y-77516347D01*
X163926626Y-77499020D01*
X163940239Y-77478646D01*
X163975402Y-77412861D01*
X164048629Y-77323634D01*
X164048631Y-77323631D01*
X164137861Y-77250402D01*
X164149507Y-77244177D01*
X164239662Y-77195987D01*
X164276483Y-77184818D01*
X164350124Y-77162479D01*
X164465000Y-77151165D01*
X164579875Y-77162479D01*
X164653516Y-77184818D01*
X164690337Y-77195987D01*
X164792139Y-77250402D01*
X164849227Y-77297253D01*
X164881369Y-77323631D01*
X164954598Y-77412861D01*
X164954601Y-77412865D01*
X164989761Y-77478645D01*
X165003374Y-77499020D01*
X165020701Y-77516347D01*
X165041076Y-77529960D01*
X165063715Y-77539338D01*
X165087748Y-77544118D01*
X165112252Y-77544118D01*
X165136285Y-77539338D01*
X165158924Y-77529960D01*
X165179299Y-77516347D01*
X165196626Y-77499020D01*
X165210239Y-77478646D01*
X165245402Y-77412861D01*
X165318629Y-77323634D01*
X165318631Y-77323631D01*
X165407861Y-77250402D01*
X165419507Y-77244177D01*
X165509662Y-77195987D01*
X165546483Y-77184818D01*
X165620124Y-77162479D01*
X165735000Y-77151165D01*
X165849875Y-77162479D01*
G37*
G36*
X92189875Y-77162479D02*
G01*
X92263516Y-77184818D01*
X92300337Y-77195987D01*
X92402139Y-77250402D01*
X92459227Y-77297253D01*
X92491369Y-77323631D01*
X92564598Y-77412861D01*
X92564599Y-77412863D01*
X92619013Y-77514662D01*
X92619524Y-77516347D01*
X92652521Y-77625124D01*
X92661000Y-77711215D01*
X92661000Y-78498785D01*
X92652521Y-78584876D01*
X92630182Y-78658517D01*
X92619013Y-78695338D01*
X92564598Y-78797140D01*
X92491370Y-78886370D01*
X92402140Y-78959598D01*
X92300338Y-79014013D01*
X92263517Y-79025182D01*
X92189876Y-79047521D01*
X92075000Y-79058835D01*
X91960125Y-79047521D01*
X91886484Y-79025182D01*
X91849663Y-79014013D01*
X91747861Y-78959598D01*
X91658631Y-78886370D01*
X91585402Y-78797138D01*
X91550240Y-78731355D01*
X91536627Y-78710980D01*
X91519300Y-78693653D01*
X91498925Y-78680040D01*
X91476286Y-78670662D01*
X91452253Y-78665882D01*
X91427749Y-78665882D01*
X91403716Y-78670662D01*
X91381077Y-78680040D01*
X91360702Y-78693653D01*
X91343375Y-78710980D01*
X91329762Y-78731354D01*
X91294598Y-78797140D01*
X91221370Y-78886370D01*
X91132140Y-78959598D01*
X91030338Y-79014013D01*
X90993517Y-79025182D01*
X90919876Y-79047521D01*
X90805000Y-79058835D01*
X90690125Y-79047521D01*
X90616484Y-79025182D01*
X90579663Y-79014013D01*
X90477861Y-78959598D01*
X90388631Y-78886370D01*
X90315402Y-78797138D01*
X90280240Y-78731355D01*
X90266627Y-78710980D01*
X90249300Y-78693653D01*
X90228925Y-78680040D01*
X90206286Y-78670662D01*
X90182253Y-78665882D01*
X90157749Y-78665882D01*
X90133716Y-78670662D01*
X90111077Y-78680040D01*
X90090702Y-78693653D01*
X90073375Y-78710980D01*
X90059762Y-78731354D01*
X90024598Y-78797140D01*
X89951370Y-78886370D01*
X89862140Y-78959598D01*
X89760338Y-79014013D01*
X89723517Y-79025182D01*
X89649876Y-79047521D01*
X89535000Y-79058835D01*
X89420125Y-79047521D01*
X89346484Y-79025182D01*
X89309663Y-79014013D01*
X89207861Y-78959598D01*
X89118631Y-78886370D01*
X89072625Y-78830310D01*
X89055298Y-78812983D01*
X89034924Y-78799369D01*
X89012285Y-78789992D01*
X88988252Y-78785211D01*
X88963748Y-78785211D01*
X88939714Y-78789991D01*
X88917076Y-78799368D01*
X88896701Y-78812982D01*
X88879374Y-78830309D01*
X88865760Y-78850683D01*
X88856383Y-78873322D01*
X88851602Y-78897355D01*
X88851000Y-78909608D01*
X88851000Y-79056000D01*
X87679000Y-79056000D01*
X87679000Y-77154000D01*
X88851000Y-77154000D01*
X88851000Y-77300392D01*
X88853402Y-77324778D01*
X88860515Y-77348227D01*
X88872066Y-77369838D01*
X88887611Y-77388780D01*
X88906553Y-77404325D01*
X88928164Y-77415876D01*
X88951613Y-77422989D01*
X88975999Y-77425391D01*
X89000385Y-77422989D01*
X89023834Y-77415876D01*
X89045445Y-77404325D01*
X89064387Y-77388780D01*
X89072625Y-77379690D01*
X89118629Y-77323634D01*
X89118631Y-77323631D01*
X89207861Y-77250402D01*
X89219507Y-77244177D01*
X89309662Y-77195987D01*
X89346483Y-77184818D01*
X89420124Y-77162479D01*
X89535000Y-77151165D01*
X89649875Y-77162479D01*
X89723516Y-77184818D01*
X89760337Y-77195987D01*
X89862139Y-77250402D01*
X89919227Y-77297253D01*
X89951369Y-77323631D01*
X90024598Y-77412861D01*
X90024601Y-77412865D01*
X90059761Y-77478645D01*
X90073374Y-77499020D01*
X90090701Y-77516347D01*
X90111076Y-77529960D01*
X90133715Y-77539338D01*
X90157748Y-77544118D01*
X90182252Y-77544118D01*
X90206285Y-77539338D01*
X90228924Y-77529960D01*
X90249299Y-77516347D01*
X90266626Y-77499020D01*
X90280239Y-77478646D01*
X90315402Y-77412861D01*
X90388629Y-77323634D01*
X90388631Y-77323631D01*
X90477861Y-77250402D01*
X90489507Y-77244177D01*
X90579662Y-77195987D01*
X90616483Y-77184818D01*
X90690124Y-77162479D01*
X90805000Y-77151165D01*
X90919875Y-77162479D01*
X90993516Y-77184818D01*
X91030337Y-77195987D01*
X91132139Y-77250402D01*
X91189227Y-77297253D01*
X91221369Y-77323631D01*
X91294598Y-77412861D01*
X91294601Y-77412865D01*
X91329761Y-77478645D01*
X91343374Y-77499020D01*
X91360701Y-77516347D01*
X91381076Y-77529960D01*
X91403715Y-77539338D01*
X91427748Y-77544118D01*
X91452252Y-77544118D01*
X91476285Y-77539338D01*
X91498924Y-77529960D01*
X91519299Y-77516347D01*
X91536626Y-77499020D01*
X91550239Y-77478646D01*
X91585402Y-77412861D01*
X91658629Y-77323634D01*
X91658631Y-77323631D01*
X91747861Y-77250402D01*
X91759507Y-77244177D01*
X91849662Y-77195987D01*
X91886483Y-77184818D01*
X91960124Y-77162479D01*
X92075000Y-77151165D01*
X92189875Y-77162479D01*
G37*
G36*
X101079875Y-72082479D02*
G01*
X101153516Y-72104818D01*
X101190337Y-72115987D01*
X101292139Y-72170402D01*
X101349227Y-72217253D01*
X101381369Y-72243631D01*
X101454598Y-72332861D01*
X101454599Y-72332863D01*
X101509013Y-72434662D01*
X101509524Y-72436347D01*
X101542521Y-72545124D01*
X101551000Y-72631215D01*
X101551000Y-73418785D01*
X101542521Y-73504876D01*
X101520182Y-73578517D01*
X101509013Y-73615338D01*
X101454598Y-73717140D01*
X101381370Y-73806370D01*
X101292140Y-73879598D01*
X101190338Y-73934013D01*
X101153517Y-73945182D01*
X101079876Y-73967521D01*
X100965000Y-73978835D01*
X100850125Y-73967521D01*
X100776484Y-73945182D01*
X100739663Y-73934013D01*
X100637861Y-73879598D01*
X100548631Y-73806370D01*
X100475402Y-73717138D01*
X100440240Y-73651355D01*
X100426627Y-73630980D01*
X100409300Y-73613653D01*
X100388925Y-73600040D01*
X100366286Y-73590662D01*
X100342253Y-73585882D01*
X100317749Y-73585882D01*
X100293716Y-73590662D01*
X100271077Y-73600040D01*
X100250702Y-73613653D01*
X100233375Y-73630980D01*
X100219762Y-73651354D01*
X100184598Y-73717140D01*
X100111370Y-73806370D01*
X100022140Y-73879598D01*
X99920338Y-73934013D01*
X99883517Y-73945182D01*
X99809876Y-73967521D01*
X99695000Y-73978835D01*
X99580125Y-73967521D01*
X99506484Y-73945182D01*
X99469663Y-73934013D01*
X99367861Y-73879598D01*
X99278631Y-73806370D01*
X99205402Y-73717138D01*
X99170240Y-73651355D01*
X99156627Y-73630980D01*
X99139300Y-73613653D01*
X99118925Y-73600040D01*
X99096286Y-73590662D01*
X99072253Y-73585882D01*
X99047749Y-73585882D01*
X99023716Y-73590662D01*
X99001077Y-73600040D01*
X98980702Y-73613653D01*
X98963375Y-73630980D01*
X98949762Y-73651354D01*
X98914598Y-73717140D01*
X98841370Y-73806370D01*
X98752140Y-73879598D01*
X98650338Y-73934013D01*
X98613517Y-73945182D01*
X98539876Y-73967521D01*
X98425000Y-73978835D01*
X98310125Y-73967521D01*
X98236484Y-73945182D01*
X98199663Y-73934013D01*
X98097861Y-73879598D01*
X98008631Y-73806370D01*
X97962625Y-73750310D01*
X97945298Y-73732983D01*
X97924924Y-73719369D01*
X97902285Y-73709992D01*
X97878252Y-73705211D01*
X97853748Y-73705211D01*
X97829714Y-73709991D01*
X97807076Y-73719368D01*
X97786701Y-73732982D01*
X97769374Y-73750309D01*
X97755760Y-73770683D01*
X97746383Y-73793322D01*
X97741602Y-73817355D01*
X97741000Y-73829608D01*
X97741000Y-73976000D01*
X96569000Y-73976000D01*
X96569000Y-72074000D01*
X97741000Y-72074000D01*
X97741000Y-72220392D01*
X97743402Y-72244778D01*
X97750515Y-72268227D01*
X97762066Y-72289838D01*
X97777611Y-72308780D01*
X97796553Y-72324325D01*
X97818164Y-72335876D01*
X97841613Y-72342989D01*
X97865999Y-72345391D01*
X97890385Y-72342989D01*
X97913834Y-72335876D01*
X97935445Y-72324325D01*
X97954387Y-72308780D01*
X97962625Y-72299690D01*
X98008629Y-72243634D01*
X98008631Y-72243631D01*
X98097861Y-72170402D01*
X98109507Y-72164177D01*
X98199662Y-72115987D01*
X98236483Y-72104818D01*
X98310124Y-72082479D01*
X98425000Y-72071165D01*
X98539875Y-72082479D01*
X98613516Y-72104818D01*
X98650337Y-72115987D01*
X98752139Y-72170402D01*
X98809227Y-72217253D01*
X98841369Y-72243631D01*
X98914598Y-72332861D01*
X98914601Y-72332865D01*
X98949761Y-72398645D01*
X98963374Y-72419020D01*
X98980701Y-72436347D01*
X99001076Y-72449960D01*
X99023715Y-72459338D01*
X99047748Y-72464118D01*
X99072252Y-72464118D01*
X99096285Y-72459338D01*
X99118924Y-72449960D01*
X99139299Y-72436347D01*
X99156626Y-72419020D01*
X99170239Y-72398646D01*
X99205402Y-72332861D01*
X99278629Y-72243634D01*
X99278631Y-72243631D01*
X99367861Y-72170402D01*
X99379507Y-72164177D01*
X99469662Y-72115987D01*
X99506483Y-72104818D01*
X99580124Y-72082479D01*
X99695000Y-72071165D01*
X99809875Y-72082479D01*
X99883516Y-72104818D01*
X99920337Y-72115987D01*
X100022139Y-72170402D01*
X100079227Y-72217253D01*
X100111369Y-72243631D01*
X100184598Y-72332861D01*
X100184601Y-72332865D01*
X100219761Y-72398645D01*
X100233374Y-72419020D01*
X100250701Y-72436347D01*
X100271076Y-72449960D01*
X100293715Y-72459338D01*
X100317748Y-72464118D01*
X100342252Y-72464118D01*
X100366285Y-72459338D01*
X100388924Y-72449960D01*
X100409299Y-72436347D01*
X100426626Y-72419020D01*
X100440239Y-72398646D01*
X100475402Y-72332861D01*
X100548629Y-72243634D01*
X100548631Y-72243631D01*
X100637861Y-72170402D01*
X100649507Y-72164177D01*
X100739662Y-72115987D01*
X100776483Y-72104818D01*
X100850124Y-72082479D01*
X100965000Y-72071165D01*
X101079875Y-72082479D01*
G37*
G36*
X156959875Y-72082479D02*
G01*
X157033516Y-72104818D01*
X157070337Y-72115987D01*
X157172139Y-72170402D01*
X157229227Y-72217253D01*
X157261369Y-72243631D01*
X157334598Y-72332861D01*
X157334599Y-72332863D01*
X157389013Y-72434662D01*
X157389524Y-72436347D01*
X157422521Y-72545124D01*
X157431000Y-72631215D01*
X157431000Y-73418785D01*
X157422521Y-73504876D01*
X157400182Y-73578517D01*
X157389013Y-73615338D01*
X157334598Y-73717140D01*
X157261370Y-73806370D01*
X157172140Y-73879598D01*
X157070338Y-73934013D01*
X157033517Y-73945182D01*
X156959876Y-73967521D01*
X156845000Y-73978835D01*
X156730125Y-73967521D01*
X156656484Y-73945182D01*
X156619663Y-73934013D01*
X156517861Y-73879598D01*
X156428631Y-73806370D01*
X156355402Y-73717138D01*
X156320240Y-73651355D01*
X156306627Y-73630980D01*
X156289300Y-73613653D01*
X156268925Y-73600040D01*
X156246286Y-73590662D01*
X156222253Y-73585882D01*
X156197749Y-73585882D01*
X156173716Y-73590662D01*
X156151077Y-73600040D01*
X156130702Y-73613653D01*
X156113375Y-73630980D01*
X156099762Y-73651354D01*
X156064598Y-73717140D01*
X155991370Y-73806370D01*
X155902140Y-73879598D01*
X155800338Y-73934013D01*
X155763517Y-73945182D01*
X155689876Y-73967521D01*
X155575000Y-73978835D01*
X155460125Y-73967521D01*
X155386484Y-73945182D01*
X155349663Y-73934013D01*
X155247861Y-73879598D01*
X155158631Y-73806370D01*
X155085402Y-73717138D01*
X155050240Y-73651355D01*
X155036627Y-73630980D01*
X155019300Y-73613653D01*
X154998925Y-73600040D01*
X154976286Y-73590662D01*
X154952253Y-73585882D01*
X154927749Y-73585882D01*
X154903716Y-73590662D01*
X154881077Y-73600040D01*
X154860702Y-73613653D01*
X154843375Y-73630980D01*
X154829762Y-73651354D01*
X154794598Y-73717140D01*
X154721370Y-73806370D01*
X154632140Y-73879598D01*
X154530338Y-73934013D01*
X154493517Y-73945182D01*
X154419876Y-73967521D01*
X154305000Y-73978835D01*
X154190125Y-73967521D01*
X154116484Y-73945182D01*
X154079663Y-73934013D01*
X153977861Y-73879598D01*
X153888631Y-73806370D01*
X153842625Y-73750310D01*
X153825298Y-73732983D01*
X153804924Y-73719369D01*
X153782285Y-73709992D01*
X153758252Y-73705211D01*
X153733748Y-73705211D01*
X153709714Y-73709991D01*
X153687076Y-73719368D01*
X153666701Y-73732982D01*
X153649374Y-73750309D01*
X153635760Y-73770683D01*
X153626383Y-73793322D01*
X153621602Y-73817355D01*
X153621000Y-73829608D01*
X153621000Y-73976000D01*
X152449000Y-73976000D01*
X152449000Y-72074000D01*
X153621000Y-72074000D01*
X153621000Y-72220392D01*
X153623402Y-72244778D01*
X153630515Y-72268227D01*
X153642066Y-72289838D01*
X153657611Y-72308780D01*
X153676553Y-72324325D01*
X153698164Y-72335876D01*
X153721613Y-72342989D01*
X153745999Y-72345391D01*
X153770385Y-72342989D01*
X153793834Y-72335876D01*
X153815445Y-72324325D01*
X153834387Y-72308780D01*
X153842625Y-72299690D01*
X153888629Y-72243634D01*
X153888631Y-72243631D01*
X153977861Y-72170402D01*
X153989507Y-72164177D01*
X154079662Y-72115987D01*
X154116483Y-72104818D01*
X154190124Y-72082479D01*
X154305000Y-72071165D01*
X154419875Y-72082479D01*
X154493516Y-72104818D01*
X154530337Y-72115987D01*
X154632139Y-72170402D01*
X154689227Y-72217253D01*
X154721369Y-72243631D01*
X154794598Y-72332861D01*
X154794601Y-72332865D01*
X154829761Y-72398645D01*
X154843374Y-72419020D01*
X154860701Y-72436347D01*
X154881076Y-72449960D01*
X154903715Y-72459338D01*
X154927748Y-72464118D01*
X154952252Y-72464118D01*
X154976285Y-72459338D01*
X154998924Y-72449960D01*
X155019299Y-72436347D01*
X155036626Y-72419020D01*
X155050239Y-72398646D01*
X155085402Y-72332861D01*
X155158629Y-72243634D01*
X155158631Y-72243631D01*
X155247861Y-72170402D01*
X155259507Y-72164177D01*
X155349662Y-72115987D01*
X155386483Y-72104818D01*
X155460124Y-72082479D01*
X155575000Y-72071165D01*
X155689875Y-72082479D01*
X155763516Y-72104818D01*
X155800337Y-72115987D01*
X155902139Y-72170402D01*
X155959227Y-72217253D01*
X155991369Y-72243631D01*
X156064598Y-72332861D01*
X156064601Y-72332865D01*
X156099761Y-72398645D01*
X156113374Y-72419020D01*
X156130701Y-72436347D01*
X156151076Y-72449960D01*
X156173715Y-72459338D01*
X156197748Y-72464118D01*
X156222252Y-72464118D01*
X156246285Y-72459338D01*
X156268924Y-72449960D01*
X156289299Y-72436347D01*
X156306626Y-72419020D01*
X156320239Y-72398646D01*
X156355402Y-72332861D01*
X156428629Y-72243634D01*
X156428631Y-72243631D01*
X156517861Y-72170402D01*
X156529507Y-72164177D01*
X156619662Y-72115987D01*
X156656483Y-72104818D01*
X156730124Y-72082479D01*
X156845000Y-72071165D01*
X156959875Y-72082479D01*
G37*
G36*
X109969875Y-69542479D02*
G01*
X110043516Y-69564818D01*
X110080337Y-69575987D01*
X110182139Y-69630402D01*
X110239227Y-69677253D01*
X110271369Y-69703631D01*
X110344598Y-69792861D01*
X110344599Y-69792863D01*
X110399013Y-69894662D01*
X110399524Y-69896347D01*
X110432521Y-70005124D01*
X110441000Y-70091215D01*
X110441000Y-70878785D01*
X110432521Y-70964876D01*
X110410182Y-71038517D01*
X110399013Y-71075338D01*
X110344598Y-71177140D01*
X110271370Y-71266370D01*
X110182140Y-71339598D01*
X110080338Y-71394013D01*
X110043517Y-71405182D01*
X109969876Y-71427521D01*
X109855000Y-71438835D01*
X109740125Y-71427521D01*
X109666484Y-71405182D01*
X109629663Y-71394013D01*
X109527861Y-71339598D01*
X109438631Y-71266370D01*
X109365402Y-71177138D01*
X109330240Y-71111355D01*
X109316627Y-71090980D01*
X109299300Y-71073653D01*
X109278925Y-71060040D01*
X109256286Y-71050662D01*
X109232253Y-71045882D01*
X109207749Y-71045882D01*
X109183716Y-71050662D01*
X109161077Y-71060040D01*
X109140702Y-71073653D01*
X109123375Y-71090980D01*
X109109762Y-71111354D01*
X109074598Y-71177140D01*
X109001370Y-71266370D01*
X108912140Y-71339598D01*
X108810338Y-71394013D01*
X108773517Y-71405182D01*
X108699876Y-71427521D01*
X108585000Y-71438835D01*
X108470125Y-71427521D01*
X108396484Y-71405182D01*
X108359663Y-71394013D01*
X108257861Y-71339598D01*
X108168631Y-71266370D01*
X108095402Y-71177138D01*
X108060240Y-71111355D01*
X108046627Y-71090980D01*
X108029300Y-71073653D01*
X108008925Y-71060040D01*
X107986286Y-71050662D01*
X107962253Y-71045882D01*
X107937749Y-71045882D01*
X107913716Y-71050662D01*
X107891077Y-71060040D01*
X107870702Y-71073653D01*
X107853375Y-71090980D01*
X107839762Y-71111354D01*
X107804598Y-71177140D01*
X107731370Y-71266370D01*
X107642140Y-71339598D01*
X107540338Y-71394013D01*
X107503517Y-71405182D01*
X107429876Y-71427521D01*
X107315000Y-71438835D01*
X107200125Y-71427521D01*
X107126484Y-71405182D01*
X107089663Y-71394013D01*
X106987861Y-71339598D01*
X106898631Y-71266370D01*
X106852625Y-71210310D01*
X106835298Y-71192983D01*
X106814924Y-71179369D01*
X106792285Y-71169992D01*
X106768252Y-71165211D01*
X106743748Y-71165211D01*
X106719714Y-71169991D01*
X106697076Y-71179368D01*
X106676701Y-71192982D01*
X106659374Y-71210309D01*
X106645760Y-71230683D01*
X106636383Y-71253322D01*
X106631602Y-71277355D01*
X106631000Y-71289608D01*
X106631000Y-71436000D01*
X105459000Y-71436000D01*
X105459000Y-69534000D01*
X106631000Y-69534000D01*
X106631000Y-69680392D01*
X106633402Y-69704778D01*
X106640515Y-69728227D01*
X106652066Y-69749838D01*
X106667611Y-69768780D01*
X106686553Y-69784325D01*
X106708164Y-69795876D01*
X106731613Y-69802989D01*
X106755999Y-69805391D01*
X106780385Y-69802989D01*
X106803834Y-69795876D01*
X106825445Y-69784325D01*
X106844387Y-69768780D01*
X106852625Y-69759690D01*
X106898629Y-69703634D01*
X106898631Y-69703631D01*
X106987861Y-69630402D01*
X106999507Y-69624177D01*
X107089662Y-69575987D01*
X107126483Y-69564818D01*
X107200124Y-69542479D01*
X107315000Y-69531165D01*
X107429875Y-69542479D01*
X107503516Y-69564818D01*
X107540337Y-69575987D01*
X107642139Y-69630402D01*
X107699227Y-69677253D01*
X107731369Y-69703631D01*
X107804598Y-69792861D01*
X107804601Y-69792865D01*
X107839761Y-69858645D01*
X107853374Y-69879020D01*
X107870701Y-69896347D01*
X107891076Y-69909960D01*
X107913715Y-69919338D01*
X107937748Y-69924118D01*
X107962252Y-69924118D01*
X107986285Y-69919338D01*
X108008924Y-69909960D01*
X108029299Y-69896347D01*
X108046626Y-69879020D01*
X108060239Y-69858646D01*
X108095402Y-69792861D01*
X108168629Y-69703634D01*
X108168631Y-69703631D01*
X108257861Y-69630402D01*
X108269507Y-69624177D01*
X108359662Y-69575987D01*
X108396483Y-69564818D01*
X108470124Y-69542479D01*
X108585000Y-69531165D01*
X108699875Y-69542479D01*
X108773516Y-69564818D01*
X108810337Y-69575987D01*
X108912139Y-69630402D01*
X108969227Y-69677253D01*
X109001369Y-69703631D01*
X109074598Y-69792861D01*
X109074601Y-69792865D01*
X109109761Y-69858645D01*
X109123374Y-69879020D01*
X109140701Y-69896347D01*
X109161076Y-69909960D01*
X109183715Y-69919338D01*
X109207748Y-69924118D01*
X109232252Y-69924118D01*
X109256285Y-69919338D01*
X109278924Y-69909960D01*
X109299299Y-69896347D01*
X109316626Y-69879020D01*
X109330239Y-69858646D01*
X109365402Y-69792861D01*
X109438629Y-69703634D01*
X109438631Y-69703631D01*
X109527861Y-69630402D01*
X109539507Y-69624177D01*
X109629662Y-69575987D01*
X109666483Y-69564818D01*
X109740124Y-69542479D01*
X109855000Y-69531165D01*
X109969875Y-69542479D01*
G37*
G36*
X148069875Y-69542479D02*
G01*
X148143516Y-69564818D01*
X148180337Y-69575987D01*
X148282139Y-69630402D01*
X148339227Y-69677253D01*
X148371369Y-69703631D01*
X148444598Y-69792861D01*
X148444599Y-69792863D01*
X148499013Y-69894662D01*
X148499524Y-69896347D01*
X148532521Y-70005124D01*
X148541000Y-70091215D01*
X148541000Y-70878785D01*
X148532521Y-70964876D01*
X148510182Y-71038517D01*
X148499013Y-71075338D01*
X148444598Y-71177140D01*
X148371370Y-71266370D01*
X148282140Y-71339598D01*
X148180338Y-71394013D01*
X148143517Y-71405182D01*
X148069876Y-71427521D01*
X147955000Y-71438835D01*
X147840125Y-71427521D01*
X147766484Y-71405182D01*
X147729663Y-71394013D01*
X147627861Y-71339598D01*
X147538631Y-71266370D01*
X147465402Y-71177138D01*
X147430240Y-71111355D01*
X147416627Y-71090980D01*
X147399300Y-71073653D01*
X147378925Y-71060040D01*
X147356286Y-71050662D01*
X147332253Y-71045882D01*
X147307749Y-71045882D01*
X147283716Y-71050662D01*
X147261077Y-71060040D01*
X147240702Y-71073653D01*
X147223375Y-71090980D01*
X147209762Y-71111354D01*
X147174598Y-71177140D01*
X147101370Y-71266370D01*
X147012140Y-71339598D01*
X146910338Y-71394013D01*
X146873517Y-71405182D01*
X146799876Y-71427521D01*
X146685000Y-71438835D01*
X146570125Y-71427521D01*
X146496484Y-71405182D01*
X146459663Y-71394013D01*
X146357861Y-71339598D01*
X146268631Y-71266370D01*
X146195402Y-71177138D01*
X146160240Y-71111355D01*
X146146627Y-71090980D01*
X146129300Y-71073653D01*
X146108925Y-71060040D01*
X146086286Y-71050662D01*
X146062253Y-71045882D01*
X146037749Y-71045882D01*
X146013716Y-71050662D01*
X145991077Y-71060040D01*
X145970702Y-71073653D01*
X145953375Y-71090980D01*
X145939762Y-71111354D01*
X145904598Y-71177140D01*
X145831370Y-71266370D01*
X145742140Y-71339598D01*
X145640338Y-71394013D01*
X145603517Y-71405182D01*
X145529876Y-71427521D01*
X145415000Y-71438835D01*
X145300125Y-71427521D01*
X145226484Y-71405182D01*
X145189663Y-71394013D01*
X145087861Y-71339598D01*
X144998631Y-71266370D01*
X144952625Y-71210310D01*
X144935298Y-71192983D01*
X144914924Y-71179369D01*
X144892285Y-71169992D01*
X144868252Y-71165211D01*
X144843748Y-71165211D01*
X144819714Y-71169991D01*
X144797076Y-71179368D01*
X144776701Y-71192982D01*
X144759374Y-71210309D01*
X144745760Y-71230683D01*
X144736383Y-71253322D01*
X144731602Y-71277355D01*
X144731000Y-71289608D01*
X144731000Y-71436000D01*
X143559000Y-71436000D01*
X143559000Y-69534000D01*
X144731000Y-69534000D01*
X144731000Y-69680392D01*
X144733402Y-69704778D01*
X144740515Y-69728227D01*
X144752066Y-69749838D01*
X144767611Y-69768780D01*
X144786553Y-69784325D01*
X144808164Y-69795876D01*
X144831613Y-69802989D01*
X144855999Y-69805391D01*
X144880385Y-69802989D01*
X144903834Y-69795876D01*
X144925445Y-69784325D01*
X144944387Y-69768780D01*
X144952625Y-69759690D01*
X144998629Y-69703634D01*
X144998631Y-69703631D01*
X145087861Y-69630402D01*
X145099507Y-69624177D01*
X145189662Y-69575987D01*
X145226483Y-69564818D01*
X145300124Y-69542479D01*
X145415000Y-69531165D01*
X145529875Y-69542479D01*
X145603516Y-69564818D01*
X145640337Y-69575987D01*
X145742139Y-69630402D01*
X145799227Y-69677253D01*
X145831369Y-69703631D01*
X145904598Y-69792861D01*
X145904601Y-69792865D01*
X145939761Y-69858645D01*
X145953374Y-69879020D01*
X145970701Y-69896347D01*
X145991076Y-69909960D01*
X146013715Y-69919338D01*
X146037748Y-69924118D01*
X146062252Y-69924118D01*
X146086285Y-69919338D01*
X146108924Y-69909960D01*
X146129299Y-69896347D01*
X146146626Y-69879020D01*
X146160239Y-69858646D01*
X146195402Y-69792861D01*
X146268629Y-69703634D01*
X146268631Y-69703631D01*
X146357861Y-69630402D01*
X146369507Y-69624177D01*
X146459662Y-69575987D01*
X146496483Y-69564818D01*
X146570124Y-69542479D01*
X146685000Y-69531165D01*
X146799875Y-69542479D01*
X146873516Y-69564818D01*
X146910337Y-69575987D01*
X147012139Y-69630402D01*
X147069227Y-69677253D01*
X147101369Y-69703631D01*
X147174598Y-69792861D01*
X147174601Y-69792865D01*
X147209761Y-69858645D01*
X147223374Y-69879020D01*
X147240701Y-69896347D01*
X147261076Y-69909960D01*
X147283715Y-69919338D01*
X147307748Y-69924118D01*
X147332252Y-69924118D01*
X147356285Y-69919338D01*
X147378924Y-69909960D01*
X147399299Y-69896347D01*
X147416626Y-69879020D01*
X147430239Y-69858646D01*
X147465402Y-69792861D01*
X147538629Y-69703634D01*
X147538631Y-69703631D01*
X147627861Y-69630402D01*
X147639507Y-69624177D01*
X147729662Y-69575987D01*
X147766483Y-69564818D01*
X147840124Y-69542479D01*
X147955000Y-69531165D01*
X148069875Y-69542479D01*
G37*
G36*
X80009239Y-64756467D02*
G01*
X80323282Y-64818934D01*
X80914926Y-65064001D01*
X81447392Y-65419784D01*
X81900216Y-65872608D01*
X82255999Y-66405074D01*
X82501066Y-66996718D01*
X82534267Y-67163629D01*
X82624552Y-67617521D01*
X82626000Y-67624804D01*
X82626000Y-68265196D01*
X82501066Y-68893282D01*
X82255999Y-69484926D01*
X82006287Y-69858646D01*
X81908414Y-70005124D01*
X81900216Y-70017392D01*
X81447392Y-70470216D01*
X80914926Y-70825999D01*
X80323282Y-71071066D01*
X80120740Y-71111354D01*
X79695197Y-71196000D01*
X79054803Y-71196000D01*
X78629260Y-71111354D01*
X78426718Y-71071066D01*
X77835074Y-70825999D01*
X77302608Y-70470216D01*
X76849784Y-70017392D01*
X76841587Y-70005124D01*
X76743713Y-69858646D01*
X76494001Y-69484926D01*
X76248934Y-68893282D01*
X76124000Y-68265196D01*
X76124000Y-67624804D01*
X76125449Y-67617521D01*
X76215733Y-67163629D01*
X76248934Y-66996718D01*
X76494001Y-66405074D01*
X76849784Y-65872608D01*
X77302608Y-65419784D01*
X77835074Y-65064001D01*
X78426718Y-64818934D01*
X78740761Y-64756467D01*
X79054803Y-64694000D01*
X79695197Y-64694000D01*
X80009239Y-64756467D01*
G37*
G36*
X175259239Y-64756467D02*
G01*
X175573282Y-64818934D01*
X176164926Y-65064001D01*
X176697392Y-65419784D01*
X177150216Y-65872608D01*
X177505999Y-66405074D01*
X177751066Y-66996718D01*
X177784267Y-67163629D01*
X177874552Y-67617521D01*
X177876000Y-67624804D01*
X177876000Y-68265196D01*
X177751066Y-68893282D01*
X177505999Y-69484926D01*
X177256287Y-69858646D01*
X177158414Y-70005124D01*
X177150216Y-70017392D01*
X176697392Y-70470216D01*
X176164926Y-70825999D01*
X175573282Y-71071066D01*
X175370740Y-71111354D01*
X174945197Y-71196000D01*
X174304803Y-71196000D01*
X173879260Y-71111354D01*
X173676718Y-71071066D01*
X173085074Y-70825999D01*
X172552608Y-70470216D01*
X172099784Y-70017392D01*
X172091587Y-70005124D01*
X171993713Y-69858646D01*
X171744001Y-69484926D01*
X171498934Y-68893282D01*
X171374000Y-68265196D01*
X171374000Y-67624804D01*
X171375449Y-67617521D01*
X171465733Y-67163629D01*
X171498934Y-66996718D01*
X171744001Y-66405074D01*
X172099784Y-65872608D01*
X172552608Y-65419784D01*
X173085074Y-65064001D01*
X173676718Y-64818934D01*
X173990761Y-64756467D01*
X174304803Y-64694000D01*
X174945197Y-64694000D01*
X175259239Y-64756467D01*
G37*
G36*
X140449875Y-67002479D02*
G01*
X140523516Y-67024818D01*
X140560337Y-67035987D01*
X140662139Y-67090402D01*
X140719227Y-67137253D01*
X140751369Y-67163631D01*
X140824598Y-67252861D01*
X140824599Y-67252863D01*
X140879013Y-67354662D01*
X140887604Y-67382983D01*
X140912521Y-67465124D01*
X140921000Y-67551215D01*
X140921000Y-68338785D01*
X140912521Y-68424876D01*
X140890182Y-68498517D01*
X140879013Y-68535338D01*
X140824598Y-68637140D01*
X140751370Y-68726370D01*
X140662140Y-68799598D01*
X140560338Y-68854013D01*
X140523517Y-68865182D01*
X140449876Y-68887521D01*
X140335000Y-68898835D01*
X140220125Y-68887521D01*
X140146484Y-68865182D01*
X140109663Y-68854013D01*
X140007861Y-68799598D01*
X139918631Y-68726370D01*
X139845402Y-68637138D01*
X139810240Y-68571355D01*
X139796627Y-68550980D01*
X139779300Y-68533653D01*
X139758925Y-68520040D01*
X139736286Y-68510662D01*
X139712253Y-68505882D01*
X139687749Y-68505882D01*
X139663716Y-68510662D01*
X139641077Y-68520040D01*
X139620702Y-68533653D01*
X139603375Y-68550980D01*
X139589762Y-68571354D01*
X139554598Y-68637140D01*
X139481370Y-68726370D01*
X139392140Y-68799598D01*
X139290338Y-68854013D01*
X139253517Y-68865182D01*
X139179876Y-68887521D01*
X139065000Y-68898835D01*
X138950125Y-68887521D01*
X138876484Y-68865182D01*
X138839663Y-68854013D01*
X138737861Y-68799598D01*
X138648631Y-68726370D01*
X138575402Y-68637138D01*
X138540240Y-68571355D01*
X138526627Y-68550980D01*
X138509300Y-68533653D01*
X138488925Y-68520040D01*
X138466286Y-68510662D01*
X138442253Y-68505882D01*
X138417749Y-68505882D01*
X138393716Y-68510662D01*
X138371077Y-68520040D01*
X138350702Y-68533653D01*
X138333375Y-68550980D01*
X138319762Y-68571354D01*
X138284598Y-68637140D01*
X138211370Y-68726370D01*
X138122140Y-68799598D01*
X138020338Y-68854013D01*
X137983517Y-68865182D01*
X137909876Y-68887521D01*
X137795000Y-68898835D01*
X137680125Y-68887521D01*
X137606484Y-68865182D01*
X137569663Y-68854013D01*
X137467861Y-68799598D01*
X137378631Y-68726370D01*
X137332625Y-68670310D01*
X137315298Y-68652983D01*
X137294924Y-68639369D01*
X137272285Y-68629992D01*
X137248252Y-68625211D01*
X137223748Y-68625211D01*
X137199714Y-68629991D01*
X137177076Y-68639368D01*
X137156701Y-68652982D01*
X137139374Y-68670309D01*
X137125760Y-68690683D01*
X137116383Y-68713322D01*
X137111602Y-68737355D01*
X137111000Y-68749608D01*
X137111000Y-68896000D01*
X135939000Y-68896000D01*
X135939000Y-66994000D01*
X137111000Y-66994000D01*
X137111000Y-67140392D01*
X137113402Y-67164778D01*
X137120515Y-67188227D01*
X137132066Y-67209838D01*
X137147611Y-67228780D01*
X137166553Y-67244325D01*
X137188164Y-67255876D01*
X137211613Y-67262989D01*
X137235999Y-67265391D01*
X137260385Y-67262989D01*
X137283834Y-67255876D01*
X137305445Y-67244325D01*
X137324387Y-67228780D01*
X137332625Y-67219690D01*
X137378629Y-67163634D01*
X137378631Y-67163631D01*
X137467861Y-67090402D01*
X137508303Y-67068785D01*
X137569662Y-67035987D01*
X137606483Y-67024818D01*
X137680124Y-67002479D01*
X137795000Y-66991165D01*
X137909875Y-67002479D01*
X137983516Y-67024818D01*
X138020337Y-67035987D01*
X138122139Y-67090402D01*
X138179227Y-67137253D01*
X138211369Y-67163631D01*
X138282283Y-67250040D01*
X138284601Y-67252865D01*
X138319761Y-67318645D01*
X138333374Y-67339020D01*
X138350701Y-67356347D01*
X138371076Y-67369960D01*
X138393715Y-67379338D01*
X138417748Y-67384118D01*
X138442252Y-67384118D01*
X138466285Y-67379338D01*
X138488924Y-67369960D01*
X138509299Y-67356347D01*
X138526626Y-67339020D01*
X138540239Y-67318646D01*
X138575402Y-67252861D01*
X138648629Y-67163634D01*
X138648631Y-67163631D01*
X138737861Y-67090402D01*
X138778303Y-67068785D01*
X138839662Y-67035987D01*
X138876483Y-67024818D01*
X138950124Y-67002479D01*
X139065000Y-66991165D01*
X139179875Y-67002479D01*
X139253516Y-67024818D01*
X139290337Y-67035987D01*
X139392139Y-67090402D01*
X139449227Y-67137253D01*
X139481369Y-67163631D01*
X139552283Y-67250040D01*
X139554601Y-67252865D01*
X139589761Y-67318645D01*
X139603374Y-67339020D01*
X139620701Y-67356347D01*
X139641076Y-67369960D01*
X139663715Y-67379338D01*
X139687748Y-67384118D01*
X139712252Y-67384118D01*
X139736285Y-67379338D01*
X139758924Y-67369960D01*
X139779299Y-67356347D01*
X139796626Y-67339020D01*
X139810239Y-67318646D01*
X139845402Y-67252861D01*
X139918629Y-67163634D01*
X139918631Y-67163631D01*
X140007861Y-67090402D01*
X140048303Y-67068785D01*
X140109662Y-67035987D01*
X140146483Y-67024818D01*
X140220124Y-67002479D01*
X140335000Y-66991165D01*
X140449875Y-67002479D01*
G37*
G36*
X117589875Y-67002479D02*
G01*
X117663516Y-67024818D01*
X117700337Y-67035987D01*
X117802139Y-67090402D01*
X117859227Y-67137253D01*
X117891369Y-67163631D01*
X117964598Y-67252861D01*
X117964599Y-67252863D01*
X118019013Y-67354662D01*
X118027604Y-67382983D01*
X118052521Y-67465124D01*
X118061000Y-67551215D01*
X118061000Y-68338785D01*
X118052521Y-68424876D01*
X118030182Y-68498517D01*
X118019013Y-68535338D01*
X117964598Y-68637140D01*
X117891370Y-68726370D01*
X117802140Y-68799598D01*
X117700338Y-68854013D01*
X117663517Y-68865182D01*
X117589876Y-68887521D01*
X117475000Y-68898835D01*
X117360125Y-68887521D01*
X117286484Y-68865182D01*
X117249663Y-68854013D01*
X117147861Y-68799598D01*
X117058631Y-68726370D01*
X116985402Y-68637138D01*
X116950240Y-68571355D01*
X116936627Y-68550980D01*
X116919300Y-68533653D01*
X116898925Y-68520040D01*
X116876286Y-68510662D01*
X116852253Y-68505882D01*
X116827749Y-68505882D01*
X116803716Y-68510662D01*
X116781077Y-68520040D01*
X116760702Y-68533653D01*
X116743375Y-68550980D01*
X116729762Y-68571354D01*
X116694598Y-68637140D01*
X116621370Y-68726370D01*
X116532140Y-68799598D01*
X116430338Y-68854013D01*
X116393517Y-68865182D01*
X116319876Y-68887521D01*
X116205000Y-68898835D01*
X116090125Y-68887521D01*
X116016484Y-68865182D01*
X115979663Y-68854013D01*
X115877861Y-68799598D01*
X115788631Y-68726370D01*
X115715402Y-68637138D01*
X115680240Y-68571355D01*
X115666627Y-68550980D01*
X115649300Y-68533653D01*
X115628925Y-68520040D01*
X115606286Y-68510662D01*
X115582253Y-68505882D01*
X115557749Y-68505882D01*
X115533716Y-68510662D01*
X115511077Y-68520040D01*
X115490702Y-68533653D01*
X115473375Y-68550980D01*
X115459762Y-68571354D01*
X115424598Y-68637140D01*
X115351370Y-68726370D01*
X115262140Y-68799598D01*
X115160338Y-68854013D01*
X115123517Y-68865182D01*
X115049876Y-68887521D01*
X114935000Y-68898835D01*
X114820125Y-68887521D01*
X114746484Y-68865182D01*
X114709663Y-68854013D01*
X114607861Y-68799598D01*
X114518631Y-68726370D01*
X114472625Y-68670310D01*
X114455298Y-68652983D01*
X114434924Y-68639369D01*
X114412285Y-68629992D01*
X114388252Y-68625211D01*
X114363748Y-68625211D01*
X114339714Y-68629991D01*
X114317076Y-68639368D01*
X114296701Y-68652982D01*
X114279374Y-68670309D01*
X114265760Y-68690683D01*
X114256383Y-68713322D01*
X114251602Y-68737355D01*
X114251000Y-68749608D01*
X114251000Y-68896000D01*
X113079000Y-68896000D01*
X113079000Y-66994000D01*
X114251000Y-66994000D01*
X114251000Y-67140392D01*
X114253402Y-67164778D01*
X114260515Y-67188227D01*
X114272066Y-67209838D01*
X114287611Y-67228780D01*
X114306553Y-67244325D01*
X114328164Y-67255876D01*
X114351613Y-67262989D01*
X114375999Y-67265391D01*
X114400385Y-67262989D01*
X114423834Y-67255876D01*
X114445445Y-67244325D01*
X114464387Y-67228780D01*
X114472625Y-67219690D01*
X114518629Y-67163634D01*
X114518631Y-67163631D01*
X114607861Y-67090402D01*
X114648303Y-67068785D01*
X114709662Y-67035987D01*
X114746483Y-67024818D01*
X114820124Y-67002479D01*
X114935000Y-66991165D01*
X115049875Y-67002479D01*
X115123516Y-67024818D01*
X115160337Y-67035987D01*
X115262139Y-67090402D01*
X115319227Y-67137253D01*
X115351369Y-67163631D01*
X115422283Y-67250040D01*
X115424601Y-67252865D01*
X115459761Y-67318645D01*
X115473374Y-67339020D01*
X115490701Y-67356347D01*
X115511076Y-67369960D01*
X115533715Y-67379338D01*
X115557748Y-67384118D01*
X115582252Y-67384118D01*
X115606285Y-67379338D01*
X115628924Y-67369960D01*
X115649299Y-67356347D01*
X115666626Y-67339020D01*
X115680239Y-67318646D01*
X115715402Y-67252861D01*
X115788629Y-67163634D01*
X115788631Y-67163631D01*
X115877861Y-67090402D01*
X115918303Y-67068785D01*
X115979662Y-67035987D01*
X116016483Y-67024818D01*
X116090124Y-67002479D01*
X116205000Y-66991165D01*
X116319875Y-67002479D01*
X116393516Y-67024818D01*
X116430337Y-67035987D01*
X116532139Y-67090402D01*
X116589227Y-67137253D01*
X116621369Y-67163631D01*
X116692283Y-67250040D01*
X116694601Y-67252865D01*
X116729761Y-67318645D01*
X116743374Y-67339020D01*
X116760701Y-67356347D01*
X116781076Y-67369960D01*
X116803715Y-67379338D01*
X116827748Y-67384118D01*
X116852252Y-67384118D01*
X116876285Y-67379338D01*
X116898924Y-67369960D01*
X116919299Y-67356347D01*
X116936626Y-67339020D01*
X116950239Y-67318646D01*
X116985402Y-67252861D01*
X117058629Y-67163634D01*
X117058631Y-67163631D01*
X117147861Y-67090402D01*
X117188303Y-67068785D01*
X117249662Y-67035987D01*
X117286483Y-67024818D01*
X117360124Y-67002479D01*
X117475000Y-66991165D01*
X117589875Y-67002479D01*
G37*
G36*
X92189875Y-65732479D02*
G01*
X92263516Y-65754818D01*
X92300337Y-65765987D01*
X92402139Y-65820402D01*
X92459227Y-65867253D01*
X92491369Y-65893631D01*
X92564598Y-65982861D01*
X92564599Y-65982863D01*
X92619013Y-66084662D01*
X92619524Y-66086347D01*
X92652521Y-66195124D01*
X92661000Y-66281215D01*
X92661000Y-67068785D01*
X92652521Y-67154876D01*
X92649865Y-67163631D01*
X92619013Y-67265338D01*
X92564598Y-67367140D01*
X92491370Y-67456370D01*
X92402140Y-67529598D01*
X92300338Y-67584013D01*
X92263517Y-67595182D01*
X92189876Y-67617521D01*
X92075000Y-67628835D01*
X91960125Y-67617521D01*
X91886484Y-67595182D01*
X91849663Y-67584013D01*
X91747861Y-67529598D01*
X91658631Y-67456370D01*
X91585402Y-67367138D01*
X91550240Y-67301355D01*
X91536627Y-67280980D01*
X91519300Y-67263653D01*
X91498925Y-67250040D01*
X91476286Y-67240662D01*
X91452253Y-67235882D01*
X91427749Y-67235882D01*
X91403716Y-67240662D01*
X91381077Y-67250040D01*
X91360702Y-67263653D01*
X91343375Y-67280980D01*
X91329762Y-67301354D01*
X91294598Y-67367140D01*
X91221370Y-67456370D01*
X91132140Y-67529598D01*
X91030338Y-67584013D01*
X90993517Y-67595182D01*
X90919876Y-67617521D01*
X90805000Y-67628835D01*
X90690125Y-67617521D01*
X90616484Y-67595182D01*
X90579663Y-67584013D01*
X90477861Y-67529598D01*
X90388631Y-67456370D01*
X90315402Y-67367138D01*
X90280240Y-67301355D01*
X90266627Y-67280980D01*
X90249300Y-67263653D01*
X90228925Y-67250040D01*
X90206286Y-67240662D01*
X90182253Y-67235882D01*
X90157749Y-67235882D01*
X90133716Y-67240662D01*
X90111077Y-67250040D01*
X90090702Y-67263653D01*
X90073375Y-67280980D01*
X90059762Y-67301354D01*
X90024598Y-67367140D01*
X89951370Y-67456370D01*
X89862140Y-67529598D01*
X89760338Y-67584013D01*
X89723517Y-67595182D01*
X89649876Y-67617521D01*
X89535000Y-67628835D01*
X89420125Y-67617521D01*
X89346484Y-67595182D01*
X89309663Y-67584013D01*
X89207861Y-67529598D01*
X89118631Y-67456370D01*
X89072625Y-67400310D01*
X89055298Y-67382983D01*
X89034924Y-67369369D01*
X89012285Y-67359992D01*
X88988252Y-67355211D01*
X88963748Y-67355211D01*
X88939714Y-67359991D01*
X88917076Y-67369368D01*
X88896701Y-67382982D01*
X88879374Y-67400309D01*
X88865760Y-67420683D01*
X88856383Y-67443322D01*
X88851602Y-67467355D01*
X88851000Y-67479608D01*
X88851000Y-67626000D01*
X87679000Y-67626000D01*
X87679000Y-65724000D01*
X88851000Y-65724000D01*
X88851000Y-65870392D01*
X88853402Y-65894778D01*
X88860515Y-65918227D01*
X88872066Y-65939838D01*
X88887611Y-65958780D01*
X88906553Y-65974325D01*
X88928164Y-65985876D01*
X88951613Y-65992989D01*
X88975999Y-65995391D01*
X89000385Y-65992989D01*
X89023834Y-65985876D01*
X89045445Y-65974325D01*
X89064387Y-65958780D01*
X89072625Y-65949690D01*
X89118629Y-65893634D01*
X89118631Y-65893631D01*
X89207861Y-65820402D01*
X89219507Y-65814177D01*
X89309662Y-65765987D01*
X89346483Y-65754818D01*
X89420124Y-65732479D01*
X89535000Y-65721165D01*
X89649875Y-65732479D01*
X89723516Y-65754818D01*
X89760337Y-65765987D01*
X89862139Y-65820402D01*
X89919227Y-65867253D01*
X89951369Y-65893631D01*
X90024598Y-65982861D01*
X90024601Y-65982865D01*
X90059761Y-66048645D01*
X90073374Y-66069020D01*
X90090701Y-66086347D01*
X90111076Y-66099960D01*
X90133715Y-66109338D01*
X90157748Y-66114118D01*
X90182252Y-66114118D01*
X90206285Y-66109338D01*
X90228924Y-66099960D01*
X90249299Y-66086347D01*
X90266626Y-66069020D01*
X90280239Y-66048646D01*
X90315402Y-65982861D01*
X90388629Y-65893634D01*
X90388631Y-65893631D01*
X90477861Y-65820402D01*
X90489507Y-65814177D01*
X90579662Y-65765987D01*
X90616483Y-65754818D01*
X90690124Y-65732479D01*
X90805000Y-65721165D01*
X90919875Y-65732479D01*
X90993516Y-65754818D01*
X91030337Y-65765987D01*
X91132139Y-65820402D01*
X91189227Y-65867253D01*
X91221369Y-65893631D01*
X91294598Y-65982861D01*
X91294601Y-65982865D01*
X91329761Y-66048645D01*
X91343374Y-66069020D01*
X91360701Y-66086347D01*
X91381076Y-66099960D01*
X91403715Y-66109338D01*
X91427748Y-66114118D01*
X91452252Y-66114118D01*
X91476285Y-66109338D01*
X91498924Y-66099960D01*
X91519299Y-66086347D01*
X91536626Y-66069020D01*
X91550239Y-66048646D01*
X91585402Y-65982861D01*
X91658629Y-65893634D01*
X91658631Y-65893631D01*
X91747861Y-65820402D01*
X91759507Y-65814177D01*
X91849662Y-65765987D01*
X91886483Y-65754818D01*
X91960124Y-65732479D01*
X92075000Y-65721165D01*
X92189875Y-65732479D01*
G37*
G36*
X165849875Y-65732479D02*
G01*
X165923516Y-65754818D01*
X165960337Y-65765987D01*
X166062139Y-65820402D01*
X166119227Y-65867253D01*
X166151369Y-65893631D01*
X166224598Y-65982861D01*
X166224599Y-65982863D01*
X166279013Y-66084662D01*
X166279524Y-66086347D01*
X166312521Y-66195124D01*
X166321000Y-66281215D01*
X166321000Y-67068785D01*
X166312521Y-67154876D01*
X166309865Y-67163631D01*
X166279013Y-67265338D01*
X166224598Y-67367140D01*
X166151370Y-67456370D01*
X166062140Y-67529598D01*
X165960338Y-67584013D01*
X165923517Y-67595182D01*
X165849876Y-67617521D01*
X165735000Y-67628835D01*
X165620125Y-67617521D01*
X165546484Y-67595182D01*
X165509663Y-67584013D01*
X165407861Y-67529598D01*
X165318631Y-67456370D01*
X165245402Y-67367138D01*
X165210240Y-67301355D01*
X165196627Y-67280980D01*
X165179300Y-67263653D01*
X165158925Y-67250040D01*
X165136286Y-67240662D01*
X165112253Y-67235882D01*
X165087749Y-67235882D01*
X165063716Y-67240662D01*
X165041077Y-67250040D01*
X165020702Y-67263653D01*
X165003375Y-67280980D01*
X164989762Y-67301354D01*
X164954598Y-67367140D01*
X164881370Y-67456370D01*
X164792140Y-67529598D01*
X164690338Y-67584013D01*
X164653517Y-67595182D01*
X164579876Y-67617521D01*
X164465000Y-67628835D01*
X164350125Y-67617521D01*
X164276484Y-67595182D01*
X164239663Y-67584013D01*
X164137861Y-67529598D01*
X164048631Y-67456370D01*
X163975402Y-67367138D01*
X163940240Y-67301355D01*
X163926627Y-67280980D01*
X163909300Y-67263653D01*
X163888925Y-67250040D01*
X163866286Y-67240662D01*
X163842253Y-67235882D01*
X163817749Y-67235882D01*
X163793716Y-67240662D01*
X163771077Y-67250040D01*
X163750702Y-67263653D01*
X163733375Y-67280980D01*
X163719762Y-67301354D01*
X163684598Y-67367140D01*
X163611370Y-67456370D01*
X163522140Y-67529598D01*
X163420338Y-67584013D01*
X163383517Y-67595182D01*
X163309876Y-67617521D01*
X163195000Y-67628835D01*
X163080125Y-67617521D01*
X163006484Y-67595182D01*
X162969663Y-67584013D01*
X162867861Y-67529598D01*
X162778631Y-67456370D01*
X162732625Y-67400310D01*
X162715298Y-67382983D01*
X162694924Y-67369369D01*
X162672285Y-67359992D01*
X162648252Y-67355211D01*
X162623748Y-67355211D01*
X162599714Y-67359991D01*
X162577076Y-67369368D01*
X162556701Y-67382982D01*
X162539374Y-67400309D01*
X162525760Y-67420683D01*
X162516383Y-67443322D01*
X162511602Y-67467355D01*
X162511000Y-67479608D01*
X162511000Y-67626000D01*
X161339000Y-67626000D01*
X161339000Y-65724000D01*
X162511000Y-65724000D01*
X162511000Y-65870392D01*
X162513402Y-65894778D01*
X162520515Y-65918227D01*
X162532066Y-65939838D01*
X162547611Y-65958780D01*
X162566553Y-65974325D01*
X162588164Y-65985876D01*
X162611613Y-65992989D01*
X162635999Y-65995391D01*
X162660385Y-65992989D01*
X162683834Y-65985876D01*
X162705445Y-65974325D01*
X162724387Y-65958780D01*
X162732625Y-65949690D01*
X162778629Y-65893634D01*
X162778631Y-65893631D01*
X162867861Y-65820402D01*
X162879507Y-65814177D01*
X162969662Y-65765987D01*
X163006483Y-65754818D01*
X163080124Y-65732479D01*
X163195000Y-65721165D01*
X163309875Y-65732479D01*
X163383516Y-65754818D01*
X163420337Y-65765987D01*
X163522139Y-65820402D01*
X163579227Y-65867253D01*
X163611369Y-65893631D01*
X163684598Y-65982861D01*
X163684601Y-65982865D01*
X163719761Y-66048645D01*
X163733374Y-66069020D01*
X163750701Y-66086347D01*
X163771076Y-66099960D01*
X163793715Y-66109338D01*
X163817748Y-66114118D01*
X163842252Y-66114118D01*
X163866285Y-66109338D01*
X163888924Y-66099960D01*
X163909299Y-66086347D01*
X163926626Y-66069020D01*
X163940239Y-66048646D01*
X163975402Y-65982861D01*
X164048629Y-65893634D01*
X164048631Y-65893631D01*
X164137861Y-65820402D01*
X164149507Y-65814177D01*
X164239662Y-65765987D01*
X164276483Y-65754818D01*
X164350124Y-65732479D01*
X164465000Y-65721165D01*
X164579875Y-65732479D01*
X164653516Y-65754818D01*
X164690337Y-65765987D01*
X164792139Y-65820402D01*
X164849227Y-65867253D01*
X164881369Y-65893631D01*
X164954598Y-65982861D01*
X164954601Y-65982865D01*
X164989761Y-66048645D01*
X165003374Y-66069020D01*
X165020701Y-66086347D01*
X165041076Y-66099960D01*
X165063715Y-66109338D01*
X165087748Y-66114118D01*
X165112252Y-66114118D01*
X165136285Y-66109338D01*
X165158924Y-66099960D01*
X165179299Y-66086347D01*
X165196626Y-66069020D01*
X165210239Y-66048646D01*
X165245402Y-65982861D01*
X165318629Y-65893634D01*
X165318631Y-65893631D01*
X165407861Y-65820402D01*
X165419507Y-65814177D01*
X165509662Y-65765987D01*
X165546483Y-65754818D01*
X165620124Y-65732479D01*
X165735000Y-65721165D01*
X165849875Y-65732479D01*
G37*
G36*
X132829875Y-65732479D02*
G01*
X132903516Y-65754818D01*
X132940337Y-65765987D01*
X133042139Y-65820402D01*
X133099227Y-65867253D01*
X133131369Y-65893631D01*
X133204598Y-65982861D01*
X133204599Y-65982863D01*
X133259013Y-66084662D01*
X133259524Y-66086347D01*
X133292521Y-66195124D01*
X133301000Y-66281215D01*
X133301000Y-67068785D01*
X133292521Y-67154876D01*
X133289865Y-67163631D01*
X133259013Y-67265338D01*
X133204598Y-67367140D01*
X133131370Y-67456370D01*
X133042140Y-67529598D01*
X132940338Y-67584013D01*
X132903517Y-67595182D01*
X132829876Y-67617521D01*
X132715000Y-67628835D01*
X132600125Y-67617521D01*
X132526484Y-67595182D01*
X132489663Y-67584013D01*
X132387861Y-67529598D01*
X132298631Y-67456370D01*
X132225402Y-67367138D01*
X132190240Y-67301355D01*
X132176627Y-67280980D01*
X132159300Y-67263653D01*
X132138925Y-67250040D01*
X132116286Y-67240662D01*
X132092253Y-67235882D01*
X132067749Y-67235882D01*
X132043716Y-67240662D01*
X132021077Y-67250040D01*
X132000702Y-67263653D01*
X131983375Y-67280980D01*
X131969762Y-67301354D01*
X131934598Y-67367140D01*
X131861370Y-67456370D01*
X131772140Y-67529598D01*
X131670338Y-67584013D01*
X131633517Y-67595182D01*
X131559876Y-67617521D01*
X131445000Y-67628835D01*
X131330125Y-67617521D01*
X131256484Y-67595182D01*
X131219663Y-67584013D01*
X131117861Y-67529598D01*
X131028631Y-67456370D01*
X130955402Y-67367138D01*
X130920240Y-67301355D01*
X130906627Y-67280980D01*
X130889300Y-67263653D01*
X130868925Y-67250040D01*
X130846286Y-67240662D01*
X130822253Y-67235882D01*
X130797749Y-67235882D01*
X130773716Y-67240662D01*
X130751077Y-67250040D01*
X130730702Y-67263653D01*
X130713375Y-67280980D01*
X130699762Y-67301354D01*
X130664598Y-67367140D01*
X130591370Y-67456370D01*
X130502140Y-67529598D01*
X130400338Y-67584013D01*
X130363517Y-67595182D01*
X130289876Y-67617521D01*
X130175000Y-67628835D01*
X130060125Y-67617521D01*
X129986484Y-67595182D01*
X129949663Y-67584013D01*
X129847861Y-67529598D01*
X129758631Y-67456370D01*
X129712625Y-67400310D01*
X129695298Y-67382983D01*
X129674924Y-67369369D01*
X129652285Y-67359992D01*
X129628252Y-67355211D01*
X129603748Y-67355211D01*
X129579714Y-67359991D01*
X129557076Y-67369368D01*
X129536701Y-67382982D01*
X129519374Y-67400309D01*
X129505760Y-67420683D01*
X129496383Y-67443322D01*
X129491602Y-67467355D01*
X129491000Y-67479608D01*
X129491000Y-67626000D01*
X128319000Y-67626000D01*
X128319000Y-65724000D01*
X129491000Y-65724000D01*
X129491000Y-65870392D01*
X129493402Y-65894778D01*
X129500515Y-65918227D01*
X129512066Y-65939838D01*
X129527611Y-65958780D01*
X129546553Y-65974325D01*
X129568164Y-65985876D01*
X129591613Y-65992989D01*
X129615999Y-65995391D01*
X129640385Y-65992989D01*
X129663834Y-65985876D01*
X129685445Y-65974325D01*
X129704387Y-65958780D01*
X129712625Y-65949690D01*
X129758629Y-65893634D01*
X129758631Y-65893631D01*
X129847861Y-65820402D01*
X129859507Y-65814177D01*
X129949662Y-65765987D01*
X129986483Y-65754818D01*
X130060124Y-65732479D01*
X130175000Y-65721165D01*
X130289875Y-65732479D01*
X130363516Y-65754818D01*
X130400337Y-65765987D01*
X130502139Y-65820402D01*
X130559227Y-65867253D01*
X130591369Y-65893631D01*
X130664598Y-65982861D01*
X130664601Y-65982865D01*
X130699761Y-66048645D01*
X130713374Y-66069020D01*
X130730701Y-66086347D01*
X130751076Y-66099960D01*
X130773715Y-66109338D01*
X130797748Y-66114118D01*
X130822252Y-66114118D01*
X130846285Y-66109338D01*
X130868924Y-66099960D01*
X130889299Y-66086347D01*
X130906626Y-66069020D01*
X130920239Y-66048646D01*
X130955402Y-65982861D01*
X131028629Y-65893634D01*
X131028631Y-65893631D01*
X131117861Y-65820402D01*
X131129507Y-65814177D01*
X131219662Y-65765987D01*
X131256483Y-65754818D01*
X131330124Y-65732479D01*
X131445000Y-65721165D01*
X131559875Y-65732479D01*
X131633516Y-65754818D01*
X131670337Y-65765987D01*
X131772139Y-65820402D01*
X131829227Y-65867253D01*
X131861369Y-65893631D01*
X131934598Y-65982861D01*
X131934601Y-65982865D01*
X131969761Y-66048645D01*
X131983374Y-66069020D01*
X132000701Y-66086347D01*
X132021076Y-66099960D01*
X132043715Y-66109338D01*
X132067748Y-66114118D01*
X132092252Y-66114118D01*
X132116285Y-66109338D01*
X132138924Y-66099960D01*
X132159299Y-66086347D01*
X132176626Y-66069020D01*
X132190239Y-66048646D01*
X132225402Y-65982861D01*
X132298629Y-65893634D01*
X132298631Y-65893631D01*
X132387861Y-65820402D01*
X132399507Y-65814177D01*
X132489662Y-65765987D01*
X132526483Y-65754818D01*
X132600124Y-65732479D01*
X132715000Y-65721165D01*
X132829875Y-65732479D01*
G37*
G36*
X125209875Y-65732479D02*
G01*
X125283516Y-65754818D01*
X125320337Y-65765987D01*
X125422139Y-65820402D01*
X125479227Y-65867253D01*
X125511369Y-65893631D01*
X125584598Y-65982861D01*
X125584599Y-65982863D01*
X125639013Y-66084662D01*
X125639524Y-66086347D01*
X125672521Y-66195124D01*
X125681000Y-66281215D01*
X125681000Y-67068785D01*
X125672521Y-67154876D01*
X125669865Y-67163631D01*
X125639013Y-67265338D01*
X125584598Y-67367140D01*
X125511370Y-67456370D01*
X125422140Y-67529598D01*
X125320338Y-67584013D01*
X125283517Y-67595182D01*
X125209876Y-67617521D01*
X125095000Y-67628835D01*
X124980125Y-67617521D01*
X124906484Y-67595182D01*
X124869663Y-67584013D01*
X124767861Y-67529598D01*
X124678631Y-67456370D01*
X124605402Y-67367138D01*
X124570240Y-67301355D01*
X124556627Y-67280980D01*
X124539300Y-67263653D01*
X124518925Y-67250040D01*
X124496286Y-67240662D01*
X124472253Y-67235882D01*
X124447749Y-67235882D01*
X124423716Y-67240662D01*
X124401077Y-67250040D01*
X124380702Y-67263653D01*
X124363375Y-67280980D01*
X124349762Y-67301354D01*
X124314598Y-67367140D01*
X124241370Y-67456370D01*
X124152140Y-67529598D01*
X124050338Y-67584013D01*
X124013517Y-67595182D01*
X123939876Y-67617521D01*
X123825000Y-67628835D01*
X123710125Y-67617521D01*
X123636484Y-67595182D01*
X123599663Y-67584013D01*
X123497861Y-67529598D01*
X123408631Y-67456370D01*
X123335402Y-67367138D01*
X123300240Y-67301355D01*
X123286627Y-67280980D01*
X123269300Y-67263653D01*
X123248925Y-67250040D01*
X123226286Y-67240662D01*
X123202253Y-67235882D01*
X123177749Y-67235882D01*
X123153716Y-67240662D01*
X123131077Y-67250040D01*
X123110702Y-67263653D01*
X123093375Y-67280980D01*
X123079762Y-67301354D01*
X123044598Y-67367140D01*
X122971370Y-67456370D01*
X122882140Y-67529598D01*
X122780338Y-67584013D01*
X122743517Y-67595182D01*
X122669876Y-67617521D01*
X122555000Y-67628835D01*
X122440125Y-67617521D01*
X122366484Y-67595182D01*
X122329663Y-67584013D01*
X122227861Y-67529598D01*
X122138631Y-67456370D01*
X122092625Y-67400310D01*
X122075298Y-67382983D01*
X122054924Y-67369369D01*
X122032285Y-67359992D01*
X122008252Y-67355211D01*
X121983748Y-67355211D01*
X121959714Y-67359991D01*
X121937076Y-67369368D01*
X121916701Y-67382982D01*
X121899374Y-67400309D01*
X121885760Y-67420683D01*
X121876383Y-67443322D01*
X121871602Y-67467355D01*
X121871000Y-67479608D01*
X121871000Y-67626000D01*
X120699000Y-67626000D01*
X120699000Y-65724000D01*
X121871000Y-65724000D01*
X121871000Y-65870392D01*
X121873402Y-65894778D01*
X121880515Y-65918227D01*
X121892066Y-65939838D01*
X121907611Y-65958780D01*
X121926553Y-65974325D01*
X121948164Y-65985876D01*
X121971613Y-65992989D01*
X121995999Y-65995391D01*
X122020385Y-65992989D01*
X122043834Y-65985876D01*
X122065445Y-65974325D01*
X122084387Y-65958780D01*
X122092625Y-65949690D01*
X122138629Y-65893634D01*
X122138631Y-65893631D01*
X122227861Y-65820402D01*
X122239507Y-65814177D01*
X122329662Y-65765987D01*
X122366483Y-65754818D01*
X122440124Y-65732479D01*
X122555000Y-65721165D01*
X122669875Y-65732479D01*
X122743516Y-65754818D01*
X122780337Y-65765987D01*
X122882139Y-65820402D01*
X122939227Y-65867253D01*
X122971369Y-65893631D01*
X123044598Y-65982861D01*
X123044601Y-65982865D01*
X123079761Y-66048645D01*
X123093374Y-66069020D01*
X123110701Y-66086347D01*
X123131076Y-66099960D01*
X123153715Y-66109338D01*
X123177748Y-66114118D01*
X123202252Y-66114118D01*
X123226285Y-66109338D01*
X123248924Y-66099960D01*
X123269299Y-66086347D01*
X123286626Y-66069020D01*
X123300239Y-66048646D01*
X123335402Y-65982861D01*
X123408629Y-65893634D01*
X123408631Y-65893631D01*
X123497861Y-65820402D01*
X123509507Y-65814177D01*
X123599662Y-65765987D01*
X123636483Y-65754818D01*
X123710124Y-65732479D01*
X123825000Y-65721165D01*
X123939875Y-65732479D01*
X124013516Y-65754818D01*
X124050337Y-65765987D01*
X124152139Y-65820402D01*
X124209227Y-65867253D01*
X124241369Y-65893631D01*
X124314598Y-65982861D01*
X124314601Y-65982865D01*
X124349761Y-66048645D01*
X124363374Y-66069020D01*
X124380701Y-66086347D01*
X124401076Y-66099960D01*
X124423715Y-66109338D01*
X124447748Y-66114118D01*
X124472252Y-66114118D01*
X124496285Y-66109338D01*
X124518924Y-66099960D01*
X124539299Y-66086347D01*
X124556626Y-66069020D01*
X124570239Y-66048646D01*
X124605402Y-65982861D01*
X124678629Y-65893634D01*
X124678631Y-65893631D01*
X124767861Y-65820402D01*
X124779507Y-65814177D01*
X124869662Y-65765987D01*
X124906483Y-65754818D01*
X124980124Y-65732479D01*
X125095000Y-65721165D01*
X125209875Y-65732479D01*
G37*
G36*
X101079875Y-60652479D02*
G01*
X101153516Y-60674818D01*
X101190337Y-60685987D01*
X101292139Y-60740402D01*
X101349227Y-60787253D01*
X101381369Y-60813631D01*
X101454598Y-60902861D01*
X101454599Y-60902863D01*
X101509013Y-61004662D01*
X101509524Y-61006347D01*
X101542521Y-61115124D01*
X101551000Y-61201215D01*
X101551000Y-61988785D01*
X101542521Y-62074876D01*
X101520182Y-62148517D01*
X101509013Y-62185338D01*
X101454598Y-62287140D01*
X101381370Y-62376370D01*
X101292140Y-62449598D01*
X101190338Y-62504013D01*
X101153517Y-62515182D01*
X101079876Y-62537521D01*
X100965000Y-62548835D01*
X100850125Y-62537521D01*
X100776484Y-62515182D01*
X100739663Y-62504013D01*
X100637861Y-62449598D01*
X100548631Y-62376370D01*
X100475402Y-62287138D01*
X100440240Y-62221355D01*
X100426627Y-62200980D01*
X100409300Y-62183653D01*
X100388925Y-62170040D01*
X100366286Y-62160662D01*
X100342253Y-62155882D01*
X100317749Y-62155882D01*
X100293716Y-62160662D01*
X100271077Y-62170040D01*
X100250702Y-62183653D01*
X100233375Y-62200980D01*
X100219762Y-62221354D01*
X100184598Y-62287140D01*
X100111370Y-62376370D01*
X100022140Y-62449598D01*
X99920338Y-62504013D01*
X99883517Y-62515182D01*
X99809876Y-62537521D01*
X99695000Y-62548835D01*
X99580125Y-62537521D01*
X99506484Y-62515182D01*
X99469663Y-62504013D01*
X99367861Y-62449598D01*
X99278631Y-62376370D01*
X99205402Y-62287138D01*
X99170240Y-62221355D01*
X99156627Y-62200980D01*
X99139300Y-62183653D01*
X99118925Y-62170040D01*
X99096286Y-62160662D01*
X99072253Y-62155882D01*
X99047749Y-62155882D01*
X99023716Y-62160662D01*
X99001077Y-62170040D01*
X98980702Y-62183653D01*
X98963375Y-62200980D01*
X98949762Y-62221354D01*
X98914598Y-62287140D01*
X98841370Y-62376370D01*
X98752140Y-62449598D01*
X98650338Y-62504013D01*
X98613517Y-62515182D01*
X98539876Y-62537521D01*
X98425000Y-62548835D01*
X98310125Y-62537521D01*
X98236484Y-62515182D01*
X98199663Y-62504013D01*
X98097861Y-62449598D01*
X98008631Y-62376370D01*
X97962625Y-62320310D01*
X97945298Y-62302983D01*
X97924924Y-62289369D01*
X97902285Y-62279992D01*
X97878252Y-62275211D01*
X97853748Y-62275211D01*
X97829714Y-62279991D01*
X97807076Y-62289368D01*
X97786701Y-62302982D01*
X97769374Y-62320309D01*
X97755760Y-62340683D01*
X97746383Y-62363322D01*
X97741602Y-62387355D01*
X97741000Y-62399608D01*
X97741000Y-62546000D01*
X96569000Y-62546000D01*
X96569000Y-60644000D01*
X97741000Y-60644000D01*
X97741000Y-60790392D01*
X97743402Y-60814778D01*
X97750515Y-60838227D01*
X97762066Y-60859838D01*
X97777611Y-60878780D01*
X97796553Y-60894325D01*
X97818164Y-60905876D01*
X97841613Y-60912989D01*
X97865999Y-60915391D01*
X97890385Y-60912989D01*
X97913834Y-60905876D01*
X97935445Y-60894325D01*
X97954387Y-60878780D01*
X97962625Y-60869690D01*
X98008629Y-60813634D01*
X98008631Y-60813631D01*
X98097861Y-60740402D01*
X98109507Y-60734177D01*
X98199662Y-60685987D01*
X98236483Y-60674818D01*
X98310124Y-60652479D01*
X98425000Y-60641165D01*
X98539875Y-60652479D01*
X98613516Y-60674818D01*
X98650337Y-60685987D01*
X98752139Y-60740402D01*
X98809227Y-60787253D01*
X98841369Y-60813631D01*
X98914598Y-60902861D01*
X98914601Y-60902865D01*
X98949761Y-60968645D01*
X98963374Y-60989020D01*
X98980701Y-61006347D01*
X99001076Y-61019960D01*
X99023715Y-61029338D01*
X99047748Y-61034118D01*
X99072252Y-61034118D01*
X99096285Y-61029338D01*
X99118924Y-61019960D01*
X99139299Y-61006347D01*
X99156626Y-60989020D01*
X99170239Y-60968646D01*
X99205402Y-60902861D01*
X99278629Y-60813634D01*
X99278631Y-60813631D01*
X99367861Y-60740402D01*
X99379507Y-60734177D01*
X99469662Y-60685987D01*
X99506483Y-60674818D01*
X99580124Y-60652479D01*
X99695000Y-60641165D01*
X99809875Y-60652479D01*
X99883516Y-60674818D01*
X99920337Y-60685987D01*
X100022139Y-60740402D01*
X100079227Y-60787253D01*
X100111369Y-60813631D01*
X100184598Y-60902861D01*
X100184601Y-60902865D01*
X100219761Y-60968645D01*
X100233374Y-60989020D01*
X100250701Y-61006347D01*
X100271076Y-61019960D01*
X100293715Y-61029338D01*
X100317748Y-61034118D01*
X100342252Y-61034118D01*
X100366285Y-61029338D01*
X100388924Y-61019960D01*
X100409299Y-61006347D01*
X100426626Y-60989020D01*
X100440239Y-60968646D01*
X100475402Y-60902861D01*
X100548629Y-60813634D01*
X100548631Y-60813631D01*
X100637861Y-60740402D01*
X100649507Y-60734177D01*
X100739662Y-60685987D01*
X100776483Y-60674818D01*
X100850124Y-60652479D01*
X100965000Y-60641165D01*
X101079875Y-60652479D01*
G37*
G36*
X156959875Y-60652479D02*
G01*
X157033516Y-60674818D01*
X157070337Y-60685987D01*
X157172139Y-60740402D01*
X157229227Y-60787253D01*
X157261369Y-60813631D01*
X157334598Y-60902861D01*
X157334599Y-60902863D01*
X157389013Y-61004662D01*
X157389524Y-61006347D01*
X157422521Y-61115124D01*
X157431000Y-61201215D01*
X157431000Y-61988785D01*
X157422521Y-62074876D01*
X157400182Y-62148517D01*
X157389013Y-62185338D01*
X157334598Y-62287140D01*
X157261370Y-62376370D01*
X157172140Y-62449598D01*
X157070338Y-62504013D01*
X157033517Y-62515182D01*
X156959876Y-62537521D01*
X156845000Y-62548835D01*
X156730125Y-62537521D01*
X156656484Y-62515182D01*
X156619663Y-62504013D01*
X156517861Y-62449598D01*
X156428631Y-62376370D01*
X156355402Y-62287138D01*
X156320240Y-62221355D01*
X156306627Y-62200980D01*
X156289300Y-62183653D01*
X156268925Y-62170040D01*
X156246286Y-62160662D01*
X156222253Y-62155882D01*
X156197749Y-62155882D01*
X156173716Y-62160662D01*
X156151077Y-62170040D01*
X156130702Y-62183653D01*
X156113375Y-62200980D01*
X156099762Y-62221354D01*
X156064598Y-62287140D01*
X155991370Y-62376370D01*
X155902140Y-62449598D01*
X155800338Y-62504013D01*
X155763517Y-62515182D01*
X155689876Y-62537521D01*
X155575000Y-62548835D01*
X155460125Y-62537521D01*
X155386484Y-62515182D01*
X155349663Y-62504013D01*
X155247861Y-62449598D01*
X155158631Y-62376370D01*
X155085402Y-62287138D01*
X155050240Y-62221355D01*
X155036627Y-62200980D01*
X155019300Y-62183653D01*
X154998925Y-62170040D01*
X154976286Y-62160662D01*
X154952253Y-62155882D01*
X154927749Y-62155882D01*
X154903716Y-62160662D01*
X154881077Y-62170040D01*
X154860702Y-62183653D01*
X154843375Y-62200980D01*
X154829762Y-62221354D01*
X154794598Y-62287140D01*
X154721370Y-62376370D01*
X154632140Y-62449598D01*
X154530338Y-62504013D01*
X154493517Y-62515182D01*
X154419876Y-62537521D01*
X154305000Y-62548835D01*
X154190125Y-62537521D01*
X154116484Y-62515182D01*
X154079663Y-62504013D01*
X153977861Y-62449598D01*
X153888631Y-62376370D01*
X153842625Y-62320310D01*
X153825298Y-62302983D01*
X153804924Y-62289369D01*
X153782285Y-62279992D01*
X153758252Y-62275211D01*
X153733748Y-62275211D01*
X153709714Y-62279991D01*
X153687076Y-62289368D01*
X153666701Y-62302982D01*
X153649374Y-62320309D01*
X153635760Y-62340683D01*
X153626383Y-62363322D01*
X153621602Y-62387355D01*
X153621000Y-62399608D01*
X153621000Y-62546000D01*
X152449000Y-62546000D01*
X152449000Y-60644000D01*
X153621000Y-60644000D01*
X153621000Y-60790392D01*
X153623402Y-60814778D01*
X153630515Y-60838227D01*
X153642066Y-60859838D01*
X153657611Y-60878780D01*
X153676553Y-60894325D01*
X153698164Y-60905876D01*
X153721613Y-60912989D01*
X153745999Y-60915391D01*
X153770385Y-60912989D01*
X153793834Y-60905876D01*
X153815445Y-60894325D01*
X153834387Y-60878780D01*
X153842625Y-60869690D01*
X153888629Y-60813634D01*
X153888631Y-60813631D01*
X153977861Y-60740402D01*
X153989507Y-60734177D01*
X154079662Y-60685987D01*
X154116483Y-60674818D01*
X154190124Y-60652479D01*
X154305000Y-60641165D01*
X154419875Y-60652479D01*
X154493516Y-60674818D01*
X154530337Y-60685987D01*
X154632139Y-60740402D01*
X154689227Y-60787253D01*
X154721369Y-60813631D01*
X154794598Y-60902861D01*
X154794601Y-60902865D01*
X154829761Y-60968645D01*
X154843374Y-60989020D01*
X154860701Y-61006347D01*
X154881076Y-61019960D01*
X154903715Y-61029338D01*
X154927748Y-61034118D01*
X154952252Y-61034118D01*
X154976285Y-61029338D01*
X154998924Y-61019960D01*
X155019299Y-61006347D01*
X155036626Y-60989020D01*
X155050239Y-60968646D01*
X155085402Y-60902861D01*
X155158629Y-60813634D01*
X155158631Y-60813631D01*
X155247861Y-60740402D01*
X155259507Y-60734177D01*
X155349662Y-60685987D01*
X155386483Y-60674818D01*
X155460124Y-60652479D01*
X155575000Y-60641165D01*
X155689875Y-60652479D01*
X155763516Y-60674818D01*
X155800337Y-60685987D01*
X155902139Y-60740402D01*
X155959227Y-60787253D01*
X155991369Y-60813631D01*
X156064598Y-60902861D01*
X156064601Y-60902865D01*
X156099761Y-60968645D01*
X156113374Y-60989020D01*
X156130701Y-61006347D01*
X156151076Y-61019960D01*
X156173715Y-61029338D01*
X156197748Y-61034118D01*
X156222252Y-61034118D01*
X156246285Y-61029338D01*
X156268924Y-61019960D01*
X156289299Y-61006347D01*
X156306626Y-60989020D01*
X156320239Y-60968646D01*
X156355402Y-60902861D01*
X156428629Y-60813634D01*
X156428631Y-60813631D01*
X156517861Y-60740402D01*
X156529507Y-60734177D01*
X156619662Y-60685987D01*
X156656483Y-60674818D01*
X156730124Y-60652479D01*
X156845000Y-60641165D01*
X156959875Y-60652479D01*
G37*
G36*
X109969875Y-58112479D02*
G01*
X110043516Y-58134818D01*
X110080337Y-58145987D01*
X110182139Y-58200402D01*
X110239227Y-58247253D01*
X110271369Y-58273631D01*
X110344598Y-58362861D01*
X110344599Y-58362863D01*
X110399013Y-58464662D01*
X110399524Y-58466347D01*
X110432521Y-58575124D01*
X110441000Y-58661215D01*
X110441000Y-59448785D01*
X110432521Y-59534876D01*
X110410182Y-59608517D01*
X110399013Y-59645338D01*
X110344598Y-59747140D01*
X110271370Y-59836370D01*
X110182140Y-59909598D01*
X110080338Y-59964013D01*
X110043517Y-59975182D01*
X109969876Y-59997521D01*
X109855000Y-60008835D01*
X109740125Y-59997521D01*
X109666484Y-59975182D01*
X109629663Y-59964013D01*
X109527861Y-59909598D01*
X109438631Y-59836370D01*
X109365402Y-59747138D01*
X109330240Y-59681355D01*
X109316627Y-59660980D01*
X109299300Y-59643653D01*
X109278925Y-59630040D01*
X109256286Y-59620662D01*
X109232253Y-59615882D01*
X109207749Y-59615882D01*
X109183716Y-59620662D01*
X109161077Y-59630040D01*
X109140702Y-59643653D01*
X109123375Y-59660980D01*
X109109762Y-59681354D01*
X109074598Y-59747140D01*
X109001370Y-59836370D01*
X108912140Y-59909598D01*
X108810338Y-59964013D01*
X108773517Y-59975182D01*
X108699876Y-59997521D01*
X108585000Y-60008835D01*
X108470125Y-59997521D01*
X108396484Y-59975182D01*
X108359663Y-59964013D01*
X108257861Y-59909598D01*
X108168631Y-59836370D01*
X108095402Y-59747138D01*
X108060240Y-59681355D01*
X108046627Y-59660980D01*
X108029300Y-59643653D01*
X108008925Y-59630040D01*
X107986286Y-59620662D01*
X107962253Y-59615882D01*
X107937749Y-59615882D01*
X107913716Y-59620662D01*
X107891077Y-59630040D01*
X107870702Y-59643653D01*
X107853375Y-59660980D01*
X107839762Y-59681354D01*
X107804598Y-59747140D01*
X107731370Y-59836370D01*
X107642140Y-59909598D01*
X107540338Y-59964013D01*
X107503517Y-59975182D01*
X107429876Y-59997521D01*
X107315000Y-60008835D01*
X107200125Y-59997521D01*
X107126484Y-59975182D01*
X107089663Y-59964013D01*
X106987861Y-59909598D01*
X106898631Y-59836370D01*
X106852625Y-59780310D01*
X106835298Y-59762983D01*
X106814924Y-59749369D01*
X106792285Y-59739992D01*
X106768252Y-59735211D01*
X106743748Y-59735211D01*
X106719714Y-59739991D01*
X106697076Y-59749368D01*
X106676701Y-59762982D01*
X106659374Y-59780309D01*
X106645760Y-59800683D01*
X106636383Y-59823322D01*
X106631602Y-59847355D01*
X106631000Y-59859608D01*
X106631000Y-60006000D01*
X105459000Y-60006000D01*
X105459000Y-58104000D01*
X106631000Y-58104000D01*
X106631000Y-58250392D01*
X106633402Y-58274778D01*
X106640515Y-58298227D01*
X106652066Y-58319838D01*
X106667611Y-58338780D01*
X106686553Y-58354325D01*
X106708164Y-58365876D01*
X106731613Y-58372989D01*
X106755999Y-58375391D01*
X106780385Y-58372989D01*
X106803834Y-58365876D01*
X106825445Y-58354325D01*
X106844387Y-58338780D01*
X106852625Y-58329690D01*
X106898629Y-58273634D01*
X106898631Y-58273631D01*
X106987861Y-58200402D01*
X106999507Y-58194177D01*
X107089662Y-58145987D01*
X107126483Y-58134818D01*
X107200124Y-58112479D01*
X107315000Y-58101165D01*
X107429875Y-58112479D01*
X107503516Y-58134818D01*
X107540337Y-58145987D01*
X107642139Y-58200402D01*
X107699227Y-58247253D01*
X107731369Y-58273631D01*
X107804598Y-58362861D01*
X107804601Y-58362865D01*
X107839761Y-58428645D01*
X107853374Y-58449020D01*
X107870701Y-58466347D01*
X107891076Y-58479960D01*
X107913715Y-58489338D01*
X107937748Y-58494118D01*
X107962252Y-58494118D01*
X107986285Y-58489338D01*
X108008924Y-58479960D01*
X108029299Y-58466347D01*
X108046626Y-58449020D01*
X108060239Y-58428646D01*
X108095402Y-58362861D01*
X108168629Y-58273634D01*
X108168631Y-58273631D01*
X108257861Y-58200402D01*
X108269507Y-58194177D01*
X108359662Y-58145987D01*
X108396483Y-58134818D01*
X108470124Y-58112479D01*
X108585000Y-58101165D01*
X108699875Y-58112479D01*
X108773516Y-58134818D01*
X108810337Y-58145987D01*
X108912139Y-58200402D01*
X108969227Y-58247253D01*
X109001369Y-58273631D01*
X109074598Y-58362861D01*
X109074601Y-58362865D01*
X109109761Y-58428645D01*
X109123374Y-58449020D01*
X109140701Y-58466347D01*
X109161076Y-58479960D01*
X109183715Y-58489338D01*
X109207748Y-58494118D01*
X109232252Y-58494118D01*
X109256285Y-58489338D01*
X109278924Y-58479960D01*
X109299299Y-58466347D01*
X109316626Y-58449020D01*
X109330239Y-58428646D01*
X109365402Y-58362861D01*
X109438629Y-58273634D01*
X109438631Y-58273631D01*
X109527861Y-58200402D01*
X109539507Y-58194177D01*
X109629662Y-58145987D01*
X109666483Y-58134818D01*
X109740124Y-58112479D01*
X109855000Y-58101165D01*
X109969875Y-58112479D01*
G37*
G36*
X148069875Y-58112479D02*
G01*
X148143516Y-58134818D01*
X148180337Y-58145987D01*
X148282139Y-58200402D01*
X148339227Y-58247253D01*
X148371369Y-58273631D01*
X148444598Y-58362861D01*
X148444599Y-58362863D01*
X148499013Y-58464662D01*
X148499524Y-58466347D01*
X148532521Y-58575124D01*
X148541000Y-58661215D01*
X148541000Y-59448785D01*
X148532521Y-59534876D01*
X148510182Y-59608517D01*
X148499013Y-59645338D01*
X148444598Y-59747140D01*
X148371370Y-59836370D01*
X148282140Y-59909598D01*
X148180338Y-59964013D01*
X148143517Y-59975182D01*
X148069876Y-59997521D01*
X147955000Y-60008835D01*
X147840125Y-59997521D01*
X147766484Y-59975182D01*
X147729663Y-59964013D01*
X147627861Y-59909598D01*
X147538631Y-59836370D01*
X147465402Y-59747138D01*
X147430240Y-59681355D01*
X147416627Y-59660980D01*
X147399300Y-59643653D01*
X147378925Y-59630040D01*
X147356286Y-59620662D01*
X147332253Y-59615882D01*
X147307749Y-59615882D01*
X147283716Y-59620662D01*
X147261077Y-59630040D01*
X147240702Y-59643653D01*
X147223375Y-59660980D01*
X147209762Y-59681354D01*
X147174598Y-59747140D01*
X147101370Y-59836370D01*
X147012140Y-59909598D01*
X146910338Y-59964013D01*
X146873517Y-59975182D01*
X146799876Y-59997521D01*
X146685000Y-60008835D01*
X146570125Y-59997521D01*
X146496484Y-59975182D01*
X146459663Y-59964013D01*
X146357861Y-59909598D01*
X146268631Y-59836370D01*
X146195402Y-59747138D01*
X146160240Y-59681355D01*
X146146627Y-59660980D01*
X146129300Y-59643653D01*
X146108925Y-59630040D01*
X146086286Y-59620662D01*
X146062253Y-59615882D01*
X146037749Y-59615882D01*
X146013716Y-59620662D01*
X145991077Y-59630040D01*
X145970702Y-59643653D01*
X145953375Y-59660980D01*
X145939762Y-59681354D01*
X145904598Y-59747140D01*
X145831370Y-59836370D01*
X145742140Y-59909598D01*
X145640338Y-59964013D01*
X145603517Y-59975182D01*
X145529876Y-59997521D01*
X145415000Y-60008835D01*
X145300125Y-59997521D01*
X145226484Y-59975182D01*
X145189663Y-59964013D01*
X145087861Y-59909598D01*
X144998631Y-59836370D01*
X144952625Y-59780310D01*
X144935298Y-59762983D01*
X144914924Y-59749369D01*
X144892285Y-59739992D01*
X144868252Y-59735211D01*
X144843748Y-59735211D01*
X144819714Y-59739991D01*
X144797076Y-59749368D01*
X144776701Y-59762982D01*
X144759374Y-59780309D01*
X144745760Y-59800683D01*
X144736383Y-59823322D01*
X144731602Y-59847355D01*
X144731000Y-59859608D01*
X144731000Y-60006000D01*
X143559000Y-60006000D01*
X143559000Y-58104000D01*
X144731000Y-58104000D01*
X144731000Y-58250392D01*
X144733402Y-58274778D01*
X144740515Y-58298227D01*
X144752066Y-58319838D01*
X144767611Y-58338780D01*
X144786553Y-58354325D01*
X144808164Y-58365876D01*
X144831613Y-58372989D01*
X144855999Y-58375391D01*
X144880385Y-58372989D01*
X144903834Y-58365876D01*
X144925445Y-58354325D01*
X144944387Y-58338780D01*
X144952625Y-58329690D01*
X144998629Y-58273634D01*
X144998631Y-58273631D01*
X145087861Y-58200402D01*
X145099507Y-58194177D01*
X145189662Y-58145987D01*
X145226483Y-58134818D01*
X145300124Y-58112479D01*
X145415000Y-58101165D01*
X145529875Y-58112479D01*
X145603516Y-58134818D01*
X145640337Y-58145987D01*
X145742139Y-58200402D01*
X145799227Y-58247253D01*
X145831369Y-58273631D01*
X145904598Y-58362861D01*
X145904601Y-58362865D01*
X145939761Y-58428645D01*
X145953374Y-58449020D01*
X145970701Y-58466347D01*
X145991076Y-58479960D01*
X146013715Y-58489338D01*
X146037748Y-58494118D01*
X146062252Y-58494118D01*
X146086285Y-58489338D01*
X146108924Y-58479960D01*
X146129299Y-58466347D01*
X146146626Y-58449020D01*
X146160239Y-58428646D01*
X146195402Y-58362861D01*
X146268629Y-58273634D01*
X146268631Y-58273631D01*
X146357861Y-58200402D01*
X146369507Y-58194177D01*
X146459662Y-58145987D01*
X146496483Y-58134818D01*
X146570124Y-58112479D01*
X146685000Y-58101165D01*
X146799875Y-58112479D01*
X146873516Y-58134818D01*
X146910337Y-58145987D01*
X147012139Y-58200402D01*
X147069227Y-58247253D01*
X147101369Y-58273631D01*
X147174598Y-58362861D01*
X147174601Y-58362865D01*
X147209761Y-58428645D01*
X147223374Y-58449020D01*
X147240701Y-58466347D01*
X147261076Y-58479960D01*
X147283715Y-58489338D01*
X147307748Y-58494118D01*
X147332252Y-58494118D01*
X147356285Y-58489338D01*
X147378924Y-58479960D01*
X147399299Y-58466347D01*
X147416626Y-58449020D01*
X147430239Y-58428646D01*
X147465402Y-58362861D01*
X147538629Y-58273634D01*
X147538631Y-58273631D01*
X147627861Y-58200402D01*
X147639507Y-58194177D01*
X147729662Y-58145987D01*
X147766483Y-58134818D01*
X147840124Y-58112479D01*
X147955000Y-58101165D01*
X148069875Y-58112479D01*
G37*
G36*
X117589875Y-55572479D02*
G01*
X117663516Y-55594818D01*
X117700337Y-55605987D01*
X117802139Y-55660402D01*
X117859227Y-55707253D01*
X117891369Y-55733631D01*
X117964598Y-55822861D01*
X117964599Y-55822863D01*
X118019013Y-55924662D01*
X118027604Y-55952983D01*
X118052521Y-56035124D01*
X118061000Y-56121215D01*
X118061000Y-56908785D01*
X118052521Y-56994876D01*
X118030182Y-57068517D01*
X118019013Y-57105338D01*
X117964598Y-57207140D01*
X117891370Y-57296370D01*
X117802140Y-57369598D01*
X117700338Y-57424013D01*
X117663517Y-57435182D01*
X117589876Y-57457521D01*
X117475000Y-57468835D01*
X117360125Y-57457521D01*
X117286484Y-57435182D01*
X117249663Y-57424013D01*
X117147861Y-57369598D01*
X117058631Y-57296370D01*
X116985402Y-57207138D01*
X116950240Y-57141355D01*
X116936627Y-57120980D01*
X116919300Y-57103653D01*
X116898925Y-57090040D01*
X116876286Y-57080662D01*
X116852253Y-57075882D01*
X116827749Y-57075882D01*
X116803716Y-57080662D01*
X116781077Y-57090040D01*
X116760702Y-57103653D01*
X116743375Y-57120980D01*
X116729762Y-57141354D01*
X116694598Y-57207140D01*
X116621370Y-57296370D01*
X116532140Y-57369598D01*
X116430338Y-57424013D01*
X116393517Y-57435182D01*
X116319876Y-57457521D01*
X116205000Y-57468835D01*
X116090125Y-57457521D01*
X116016484Y-57435182D01*
X115979663Y-57424013D01*
X115877861Y-57369598D01*
X115788631Y-57296370D01*
X115715402Y-57207138D01*
X115680240Y-57141355D01*
X115666627Y-57120980D01*
X115649300Y-57103653D01*
X115628925Y-57090040D01*
X115606286Y-57080662D01*
X115582253Y-57075882D01*
X115557749Y-57075882D01*
X115533716Y-57080662D01*
X115511077Y-57090040D01*
X115490702Y-57103653D01*
X115473375Y-57120980D01*
X115459762Y-57141354D01*
X115424598Y-57207140D01*
X115351370Y-57296370D01*
X115262140Y-57369598D01*
X115160338Y-57424013D01*
X115123517Y-57435182D01*
X115049876Y-57457521D01*
X114935000Y-57468835D01*
X114820125Y-57457521D01*
X114746484Y-57435182D01*
X114709663Y-57424013D01*
X114607861Y-57369598D01*
X114518631Y-57296370D01*
X114472625Y-57240310D01*
X114455298Y-57222983D01*
X114434924Y-57209369D01*
X114412285Y-57199992D01*
X114388252Y-57195211D01*
X114363748Y-57195211D01*
X114339714Y-57199991D01*
X114317076Y-57209368D01*
X114296701Y-57222982D01*
X114279374Y-57240309D01*
X114265760Y-57260683D01*
X114256383Y-57283322D01*
X114251602Y-57307355D01*
X114251000Y-57319608D01*
X114251000Y-57466000D01*
X113079000Y-57466000D01*
X113079000Y-55564000D01*
X114251000Y-55564000D01*
X114251000Y-55710392D01*
X114253402Y-55734778D01*
X114260515Y-55758227D01*
X114272066Y-55779838D01*
X114287611Y-55798780D01*
X114306553Y-55814325D01*
X114328164Y-55825876D01*
X114351613Y-55832989D01*
X114375999Y-55835391D01*
X114400385Y-55832989D01*
X114423834Y-55825876D01*
X114445445Y-55814325D01*
X114464387Y-55798780D01*
X114472625Y-55789690D01*
X114518629Y-55733634D01*
X114518631Y-55733631D01*
X114607861Y-55660402D01*
X114648303Y-55638785D01*
X114709662Y-55605987D01*
X114746483Y-55594818D01*
X114820124Y-55572479D01*
X114935000Y-55561165D01*
X115049875Y-55572479D01*
X115123516Y-55594818D01*
X115160337Y-55605987D01*
X115262139Y-55660402D01*
X115319227Y-55707253D01*
X115351369Y-55733631D01*
X115422283Y-55820040D01*
X115424601Y-55822865D01*
X115459761Y-55888645D01*
X115473374Y-55909020D01*
X115490701Y-55926347D01*
X115511076Y-55939960D01*
X115533715Y-55949338D01*
X115557748Y-55954118D01*
X115582252Y-55954118D01*
X115606285Y-55949338D01*
X115628924Y-55939960D01*
X115649299Y-55926347D01*
X115666626Y-55909020D01*
X115680239Y-55888646D01*
X115715402Y-55822861D01*
X115788629Y-55733634D01*
X115788631Y-55733631D01*
X115877861Y-55660402D01*
X115918303Y-55638785D01*
X115979662Y-55605987D01*
X116016483Y-55594818D01*
X116090124Y-55572479D01*
X116205000Y-55561165D01*
X116319875Y-55572479D01*
X116393516Y-55594818D01*
X116430337Y-55605987D01*
X116532139Y-55660402D01*
X116589227Y-55707253D01*
X116621369Y-55733631D01*
X116692283Y-55820040D01*
X116694601Y-55822865D01*
X116729761Y-55888645D01*
X116743374Y-55909020D01*
X116760701Y-55926347D01*
X116781076Y-55939960D01*
X116803715Y-55949338D01*
X116827748Y-55954118D01*
X116852252Y-55954118D01*
X116876285Y-55949338D01*
X116898924Y-55939960D01*
X116919299Y-55926347D01*
X116936626Y-55909020D01*
X116950239Y-55888646D01*
X116985402Y-55822861D01*
X117058629Y-55733634D01*
X117058631Y-55733631D01*
X117147861Y-55660402D01*
X117188303Y-55638785D01*
X117249662Y-55605987D01*
X117286483Y-55594818D01*
X117360124Y-55572479D01*
X117475000Y-55561165D01*
X117589875Y-55572479D01*
G37*
G36*
X140449875Y-55572479D02*
G01*
X140523516Y-55594818D01*
X140560337Y-55605987D01*
X140662139Y-55660402D01*
X140719227Y-55707253D01*
X140751369Y-55733631D01*
X140824598Y-55822861D01*
X140824599Y-55822863D01*
X140879013Y-55924662D01*
X140887604Y-55952983D01*
X140912521Y-56035124D01*
X140921000Y-56121215D01*
X140921000Y-56908785D01*
X140912521Y-56994876D01*
X140890182Y-57068517D01*
X140879013Y-57105338D01*
X140824598Y-57207140D01*
X140751370Y-57296370D01*
X140662140Y-57369598D01*
X140560338Y-57424013D01*
X140523517Y-57435182D01*
X140449876Y-57457521D01*
X140335000Y-57468835D01*
X140220125Y-57457521D01*
X140146484Y-57435182D01*
X140109663Y-57424013D01*
X140007861Y-57369598D01*
X139918631Y-57296370D01*
X139845402Y-57207138D01*
X139810240Y-57141355D01*
X139796627Y-57120980D01*
X139779300Y-57103653D01*
X139758925Y-57090040D01*
X139736286Y-57080662D01*
X139712253Y-57075882D01*
X139687749Y-57075882D01*
X139663716Y-57080662D01*
X139641077Y-57090040D01*
X139620702Y-57103653D01*
X139603375Y-57120980D01*
X139589762Y-57141354D01*
X139554598Y-57207140D01*
X139481370Y-57296370D01*
X139392140Y-57369598D01*
X139290338Y-57424013D01*
X139253517Y-57435182D01*
X139179876Y-57457521D01*
X139065000Y-57468835D01*
X138950125Y-57457521D01*
X138876484Y-57435182D01*
X138839663Y-57424013D01*
X138737861Y-57369598D01*
X138648631Y-57296370D01*
X138575402Y-57207138D01*
X138540240Y-57141355D01*
X138526627Y-57120980D01*
X138509300Y-57103653D01*
X138488925Y-57090040D01*
X138466286Y-57080662D01*
X138442253Y-57075882D01*
X138417749Y-57075882D01*
X138393716Y-57080662D01*
X138371077Y-57090040D01*
X138350702Y-57103653D01*
X138333375Y-57120980D01*
X138319762Y-57141354D01*
X138284598Y-57207140D01*
X138211370Y-57296370D01*
X138122140Y-57369598D01*
X138020338Y-57424013D01*
X137983517Y-57435182D01*
X137909876Y-57457521D01*
X137795000Y-57468835D01*
X137680125Y-57457521D01*
X137606484Y-57435182D01*
X137569663Y-57424013D01*
X137467861Y-57369598D01*
X137378631Y-57296370D01*
X137332625Y-57240310D01*
X137315298Y-57222983D01*
X137294924Y-57209369D01*
X137272285Y-57199992D01*
X137248252Y-57195211D01*
X137223748Y-57195211D01*
X137199714Y-57199991D01*
X137177076Y-57209368D01*
X137156701Y-57222982D01*
X137139374Y-57240309D01*
X137125760Y-57260683D01*
X137116383Y-57283322D01*
X137111602Y-57307355D01*
X137111000Y-57319608D01*
X137111000Y-57466000D01*
X135939000Y-57466000D01*
X135939000Y-55564000D01*
X137111000Y-55564000D01*
X137111000Y-55710392D01*
X137113402Y-55734778D01*
X137120515Y-55758227D01*
X137132066Y-55779838D01*
X137147611Y-55798780D01*
X137166553Y-55814325D01*
X137188164Y-55825876D01*
X137211613Y-55832989D01*
X137235999Y-55835391D01*
X137260385Y-55832989D01*
X137283834Y-55825876D01*
X137305445Y-55814325D01*
X137324387Y-55798780D01*
X137332625Y-55789690D01*
X137378629Y-55733634D01*
X137378631Y-55733631D01*
X137467861Y-55660402D01*
X137508303Y-55638785D01*
X137569662Y-55605987D01*
X137606483Y-55594818D01*
X137680124Y-55572479D01*
X137795000Y-55561165D01*
X137909875Y-55572479D01*
X137983516Y-55594818D01*
X138020337Y-55605987D01*
X138122139Y-55660402D01*
X138179227Y-55707253D01*
X138211369Y-55733631D01*
X138282283Y-55820040D01*
X138284601Y-55822865D01*
X138319761Y-55888645D01*
X138333374Y-55909020D01*
X138350701Y-55926347D01*
X138371076Y-55939960D01*
X138393715Y-55949338D01*
X138417748Y-55954118D01*
X138442252Y-55954118D01*
X138466285Y-55949338D01*
X138488924Y-55939960D01*
X138509299Y-55926347D01*
X138526626Y-55909020D01*
X138540239Y-55888646D01*
X138575402Y-55822861D01*
X138648629Y-55733634D01*
X138648631Y-55733631D01*
X138737861Y-55660402D01*
X138778303Y-55638785D01*
X138839662Y-55605987D01*
X138876483Y-55594818D01*
X138950124Y-55572479D01*
X139065000Y-55561165D01*
X139179875Y-55572479D01*
X139253516Y-55594818D01*
X139290337Y-55605987D01*
X139392139Y-55660402D01*
X139449227Y-55707253D01*
X139481369Y-55733631D01*
X139552283Y-55820040D01*
X139554601Y-55822865D01*
X139589761Y-55888645D01*
X139603374Y-55909020D01*
X139620701Y-55926347D01*
X139641076Y-55939960D01*
X139663715Y-55949338D01*
X139687748Y-55954118D01*
X139712252Y-55954118D01*
X139736285Y-55949338D01*
X139758924Y-55939960D01*
X139779299Y-55926347D01*
X139796626Y-55909020D01*
X139810239Y-55888646D01*
X139845402Y-55822861D01*
X139918629Y-55733634D01*
X139918631Y-55733631D01*
X140007861Y-55660402D01*
X140048303Y-55638785D01*
X140109662Y-55605987D01*
X140146483Y-55594818D01*
X140220124Y-55572479D01*
X140335000Y-55561165D01*
X140449875Y-55572479D01*
G37*
G36*
X132829875Y-54302479D02*
G01*
X132903516Y-54324818D01*
X132940337Y-54335987D01*
X133042139Y-54390402D01*
X133099227Y-54437253D01*
X133131369Y-54463631D01*
X133204598Y-54552861D01*
X133204599Y-54552863D01*
X133259013Y-54654662D01*
X133259524Y-54656347D01*
X133292521Y-54765124D01*
X133301000Y-54851215D01*
X133301000Y-55638785D01*
X133292521Y-55724876D01*
X133289865Y-55733631D01*
X133259013Y-55835338D01*
X133204598Y-55937140D01*
X133131370Y-56026370D01*
X133042140Y-56099598D01*
X132940338Y-56154013D01*
X132903517Y-56165182D01*
X132829876Y-56187521D01*
X132715000Y-56198835D01*
X132600125Y-56187521D01*
X132526484Y-56165182D01*
X132489663Y-56154013D01*
X132387861Y-56099598D01*
X132298631Y-56026370D01*
X132225402Y-55937138D01*
X132190240Y-55871355D01*
X132176627Y-55850980D01*
X132159300Y-55833653D01*
X132138925Y-55820040D01*
X132116286Y-55810662D01*
X132092253Y-55805882D01*
X132067749Y-55805882D01*
X132043716Y-55810662D01*
X132021077Y-55820040D01*
X132000702Y-55833653D01*
X131983375Y-55850980D01*
X131969762Y-55871354D01*
X131934598Y-55937140D01*
X131861370Y-56026370D01*
X131772140Y-56099598D01*
X131670338Y-56154013D01*
X131633517Y-56165182D01*
X131559876Y-56187521D01*
X131445000Y-56198835D01*
X131330125Y-56187521D01*
X131256484Y-56165182D01*
X131219663Y-56154013D01*
X131117861Y-56099598D01*
X131028631Y-56026370D01*
X130955402Y-55937138D01*
X130920240Y-55871355D01*
X130906627Y-55850980D01*
X130889300Y-55833653D01*
X130868925Y-55820040D01*
X130846286Y-55810662D01*
X130822253Y-55805882D01*
X130797749Y-55805882D01*
X130773716Y-55810662D01*
X130751077Y-55820040D01*
X130730702Y-55833653D01*
X130713375Y-55850980D01*
X130699762Y-55871354D01*
X130664598Y-55937140D01*
X130591370Y-56026370D01*
X130502140Y-56099598D01*
X130400338Y-56154013D01*
X130363517Y-56165182D01*
X130289876Y-56187521D01*
X130175000Y-56198835D01*
X130060125Y-56187521D01*
X129986484Y-56165182D01*
X129949663Y-56154013D01*
X129847861Y-56099598D01*
X129758631Y-56026370D01*
X129712625Y-55970310D01*
X129695298Y-55952983D01*
X129674924Y-55939369D01*
X129652285Y-55929992D01*
X129628252Y-55925211D01*
X129603748Y-55925211D01*
X129579714Y-55929991D01*
X129557076Y-55939368D01*
X129536701Y-55952982D01*
X129519374Y-55970309D01*
X129505760Y-55990683D01*
X129496383Y-56013322D01*
X129491602Y-56037355D01*
X129491000Y-56049608D01*
X129491000Y-56196000D01*
X128319000Y-56196000D01*
X128319000Y-54294000D01*
X129491000Y-54294000D01*
X129491000Y-54440392D01*
X129493402Y-54464778D01*
X129500515Y-54488227D01*
X129512066Y-54509838D01*
X129527611Y-54528780D01*
X129546553Y-54544325D01*
X129568164Y-54555876D01*
X129591613Y-54562989D01*
X129615999Y-54565391D01*
X129640385Y-54562989D01*
X129663834Y-54555876D01*
X129685445Y-54544325D01*
X129704387Y-54528780D01*
X129712625Y-54519690D01*
X129758629Y-54463634D01*
X129758631Y-54463631D01*
X129847861Y-54390402D01*
X129859507Y-54384177D01*
X129949662Y-54335987D01*
X129986483Y-54324818D01*
X130060124Y-54302479D01*
X130175000Y-54291165D01*
X130289875Y-54302479D01*
X130363516Y-54324818D01*
X130400337Y-54335987D01*
X130502139Y-54390402D01*
X130559227Y-54437253D01*
X130591369Y-54463631D01*
X130664598Y-54552861D01*
X130664601Y-54552865D01*
X130699761Y-54618645D01*
X130713374Y-54639020D01*
X130730701Y-54656347D01*
X130751076Y-54669960D01*
X130773715Y-54679338D01*
X130797748Y-54684118D01*
X130822252Y-54684118D01*
X130846285Y-54679338D01*
X130868924Y-54669960D01*
X130889299Y-54656347D01*
X130906626Y-54639020D01*
X130920239Y-54618646D01*
X130955402Y-54552861D01*
X131028629Y-54463634D01*
X131028631Y-54463631D01*
X131117861Y-54390402D01*
X131129507Y-54384177D01*
X131219662Y-54335987D01*
X131256483Y-54324818D01*
X131330124Y-54302479D01*
X131445000Y-54291165D01*
X131559875Y-54302479D01*
X131633516Y-54324818D01*
X131670337Y-54335987D01*
X131772139Y-54390402D01*
X131829227Y-54437253D01*
X131861369Y-54463631D01*
X131934598Y-54552861D01*
X131934601Y-54552865D01*
X131969761Y-54618645D01*
X131983374Y-54639020D01*
X132000701Y-54656347D01*
X132021076Y-54669960D01*
X132043715Y-54679338D01*
X132067748Y-54684118D01*
X132092252Y-54684118D01*
X132116285Y-54679338D01*
X132138924Y-54669960D01*
X132159299Y-54656347D01*
X132176626Y-54639020D01*
X132190239Y-54618646D01*
X132225402Y-54552861D01*
X132298629Y-54463634D01*
X132298631Y-54463631D01*
X132387861Y-54390402D01*
X132399507Y-54384177D01*
X132489662Y-54335987D01*
X132526483Y-54324818D01*
X132600124Y-54302479D01*
X132715000Y-54291165D01*
X132829875Y-54302479D01*
G37*
G36*
X125209875Y-54302479D02*
G01*
X125283516Y-54324818D01*
X125320337Y-54335987D01*
X125422139Y-54390402D01*
X125479227Y-54437253D01*
X125511369Y-54463631D01*
X125584598Y-54552861D01*
X125584599Y-54552863D01*
X125639013Y-54654662D01*
X125639524Y-54656347D01*
X125672521Y-54765124D01*
X125681000Y-54851215D01*
X125681000Y-55638785D01*
X125672521Y-55724876D01*
X125669865Y-55733631D01*
X125639013Y-55835338D01*
X125584598Y-55937140D01*
X125511370Y-56026370D01*
X125422140Y-56099598D01*
X125320338Y-56154013D01*
X125283517Y-56165182D01*
X125209876Y-56187521D01*
X125095000Y-56198835D01*
X124980125Y-56187521D01*
X124906484Y-56165182D01*
X124869663Y-56154013D01*
X124767861Y-56099598D01*
X124678631Y-56026370D01*
X124605402Y-55937138D01*
X124570240Y-55871355D01*
X124556627Y-55850980D01*
X124539300Y-55833653D01*
X124518925Y-55820040D01*
X124496286Y-55810662D01*
X124472253Y-55805882D01*
X124447749Y-55805882D01*
X124423716Y-55810662D01*
X124401077Y-55820040D01*
X124380702Y-55833653D01*
X124363375Y-55850980D01*
X124349762Y-55871354D01*
X124314598Y-55937140D01*
X124241370Y-56026370D01*
X124152140Y-56099598D01*
X124050338Y-56154013D01*
X124013517Y-56165182D01*
X123939876Y-56187521D01*
X123825000Y-56198835D01*
X123710125Y-56187521D01*
X123636484Y-56165182D01*
X123599663Y-56154013D01*
X123497861Y-56099598D01*
X123408631Y-56026370D01*
X123335402Y-55937138D01*
X123300240Y-55871355D01*
X123286627Y-55850980D01*
X123269300Y-55833653D01*
X123248925Y-55820040D01*
X123226286Y-55810662D01*
X123202253Y-55805882D01*
X123177749Y-55805882D01*
X123153716Y-55810662D01*
X123131077Y-55820040D01*
X123110702Y-55833653D01*
X123093375Y-55850980D01*
X123079762Y-55871354D01*
X123044598Y-55937140D01*
X122971370Y-56026370D01*
X122882140Y-56099598D01*
X122780338Y-56154013D01*
X122743517Y-56165182D01*
X122669876Y-56187521D01*
X122555000Y-56198835D01*
X122440125Y-56187521D01*
X122366484Y-56165182D01*
X122329663Y-56154013D01*
X122227861Y-56099598D01*
X122138631Y-56026370D01*
X122092625Y-55970310D01*
X122075298Y-55952983D01*
X122054924Y-55939369D01*
X122032285Y-55929992D01*
X122008252Y-55925211D01*
X121983748Y-55925211D01*
X121959714Y-55929991D01*
X121937076Y-55939368D01*
X121916701Y-55952982D01*
X121899374Y-55970309D01*
X121885760Y-55990683D01*
X121876383Y-56013322D01*
X121871602Y-56037355D01*
X121871000Y-56049608D01*
X121871000Y-56196000D01*
X120699000Y-56196000D01*
X120699000Y-54294000D01*
X121871000Y-54294000D01*
X121871000Y-54440392D01*
X121873402Y-54464778D01*
X121880515Y-54488227D01*
X121892066Y-54509838D01*
X121907611Y-54528780D01*
X121926553Y-54544325D01*
X121948164Y-54555876D01*
X121971613Y-54562989D01*
X121995999Y-54565391D01*
X122020385Y-54562989D01*
X122043834Y-54555876D01*
X122065445Y-54544325D01*
X122084387Y-54528780D01*
X122092625Y-54519690D01*
X122138629Y-54463634D01*
X122138631Y-54463631D01*
X122227861Y-54390402D01*
X122239507Y-54384177D01*
X122329662Y-54335987D01*
X122366483Y-54324818D01*
X122440124Y-54302479D01*
X122555000Y-54291165D01*
X122669875Y-54302479D01*
X122743516Y-54324818D01*
X122780337Y-54335987D01*
X122882139Y-54390402D01*
X122939227Y-54437253D01*
X122971369Y-54463631D01*
X123044598Y-54552861D01*
X123044601Y-54552865D01*
X123079761Y-54618645D01*
X123093374Y-54639020D01*
X123110701Y-54656347D01*
X123131076Y-54669960D01*
X123153715Y-54679338D01*
X123177748Y-54684118D01*
X123202252Y-54684118D01*
X123226285Y-54679338D01*
X123248924Y-54669960D01*
X123269299Y-54656347D01*
X123286626Y-54639020D01*
X123300239Y-54618646D01*
X123335402Y-54552861D01*
X123408629Y-54463634D01*
X123408631Y-54463631D01*
X123497861Y-54390402D01*
X123509507Y-54384177D01*
X123599662Y-54335987D01*
X123636483Y-54324818D01*
X123710124Y-54302479D01*
X123825000Y-54291165D01*
X123939875Y-54302479D01*
X124013516Y-54324818D01*
X124050337Y-54335987D01*
X124152139Y-54390402D01*
X124209227Y-54437253D01*
X124241369Y-54463631D01*
X124314598Y-54552861D01*
X124314601Y-54552865D01*
X124349761Y-54618645D01*
X124363374Y-54639020D01*
X124380701Y-54656347D01*
X124401076Y-54669960D01*
X124423715Y-54679338D01*
X124447748Y-54684118D01*
X124472252Y-54684118D01*
X124496285Y-54679338D01*
X124518924Y-54669960D01*
X124539299Y-54656347D01*
X124556626Y-54639020D01*
X124570239Y-54618646D01*
X124605402Y-54552861D01*
X124678629Y-54463634D01*
X124678631Y-54463631D01*
X124767861Y-54390402D01*
X124779507Y-54384177D01*
X124869662Y-54335987D01*
X124906483Y-54324818D01*
X124980124Y-54302479D01*
X125095000Y-54291165D01*
X125209875Y-54302479D01*
G37*
M02*
