G04 #@! TF.GenerationSoftware,KiCad,Pcbnew,5.1.5-52549c5~84~ubuntu18.04.1*
G04 #@! TF.CreationDate,2020-02-12T22:06:01+00:00*
G04 #@! TF.ProjectId,TSAL_LED,5453414c-5f4c-4454-942e-6b696361645f,rev?*
G04 #@! TF.SameCoordinates,Original*
G04 #@! TF.FileFunction,Paste,Top*
G04 #@! TF.FilePolarity,Positive*
%FSLAX46Y46*%
G04 Gerber Fmt 4.6, Leading zero omitted, Abs format (unit mm)*
G04 Created by KiCad (PCBNEW 5.1.5-52549c5~84~ubuntu18.04.1) date 2020-02-12 22:06:01*
%MOMM*%
%LPD*%
G04 APERTURE LIST*
%ADD10R,0.800000X0.900000*%
%ADD11R,0.650000X1.560000*%
%ADD12C,0.100000*%
G04 APERTURE END LIST*
D10*
X137795000Y-82915000D03*
X136845000Y-80915000D03*
X138745000Y-80915000D03*
D11*
X122560000Y-79850000D03*
X124460000Y-79850000D03*
X124460000Y-82550000D03*
X123510000Y-82550000D03*
X122560000Y-82550000D03*
D12*
G36*
X115140000Y-78212500D02*
G01*
X118540000Y-78212500D01*
X119595000Y-79267500D01*
X119595000Y-80207500D01*
X118540000Y-80207500D01*
X117684500Y-79267500D01*
X115995500Y-79267500D01*
X115140000Y-80207500D01*
X114085000Y-80207500D01*
X114085000Y-79267500D01*
X115140000Y-78212500D01*
G37*
G36*
X115140000Y-81727500D02*
G01*
X115995500Y-82667500D01*
X117684500Y-82667500D01*
X118540000Y-81727500D01*
X119595000Y-81727500D01*
X119595000Y-82667500D01*
X118540000Y-83722500D01*
X115140000Y-83722500D01*
X114085000Y-82667500D01*
X114085000Y-81727500D01*
X115140000Y-81727500D01*
G37*
G36*
X148215779Y-77186144D02*
G01*
X148238834Y-77189563D01*
X148261443Y-77195227D01*
X148283387Y-77203079D01*
X148304457Y-77213044D01*
X148324448Y-77225026D01*
X148343168Y-77238910D01*
X148360438Y-77254562D01*
X148376090Y-77271832D01*
X148389974Y-77290552D01*
X148401956Y-77310543D01*
X148411921Y-77331613D01*
X148419773Y-77353557D01*
X148425437Y-77376166D01*
X148428856Y-77399221D01*
X148430000Y-77422500D01*
X148430000Y-77997500D01*
X148428856Y-78020779D01*
X148425437Y-78043834D01*
X148419773Y-78066443D01*
X148411921Y-78088387D01*
X148401956Y-78109457D01*
X148389974Y-78129448D01*
X148376090Y-78148168D01*
X148360438Y-78165438D01*
X148343168Y-78181090D01*
X148324448Y-78194974D01*
X148304457Y-78206956D01*
X148283387Y-78216921D01*
X148261443Y-78224773D01*
X148238834Y-78230437D01*
X148215779Y-78233856D01*
X148192500Y-78235000D01*
X147717500Y-78235000D01*
X147694221Y-78233856D01*
X147671166Y-78230437D01*
X147648557Y-78224773D01*
X147626613Y-78216921D01*
X147605543Y-78206956D01*
X147585552Y-78194974D01*
X147566832Y-78181090D01*
X147549562Y-78165438D01*
X147533910Y-78148168D01*
X147520026Y-78129448D01*
X147508044Y-78109457D01*
X147498079Y-78088387D01*
X147490227Y-78066443D01*
X147484563Y-78043834D01*
X147481144Y-78020779D01*
X147480000Y-77997500D01*
X147480000Y-77422500D01*
X147481144Y-77399221D01*
X147484563Y-77376166D01*
X147490227Y-77353557D01*
X147498079Y-77331613D01*
X147508044Y-77310543D01*
X147520026Y-77290552D01*
X147533910Y-77271832D01*
X147549562Y-77254562D01*
X147566832Y-77238910D01*
X147585552Y-77225026D01*
X147605543Y-77213044D01*
X147626613Y-77203079D01*
X147648557Y-77195227D01*
X147671166Y-77189563D01*
X147694221Y-77186144D01*
X147717500Y-77185000D01*
X148192500Y-77185000D01*
X148215779Y-77186144D01*
G37*
G36*
X148215779Y-75436144D02*
G01*
X148238834Y-75439563D01*
X148261443Y-75445227D01*
X148283387Y-75453079D01*
X148304457Y-75463044D01*
X148324448Y-75475026D01*
X148343168Y-75488910D01*
X148360438Y-75504562D01*
X148376090Y-75521832D01*
X148389974Y-75540552D01*
X148401956Y-75560543D01*
X148411921Y-75581613D01*
X148419773Y-75603557D01*
X148425437Y-75626166D01*
X148428856Y-75649221D01*
X148430000Y-75672500D01*
X148430000Y-76247500D01*
X148428856Y-76270779D01*
X148425437Y-76293834D01*
X148419773Y-76316443D01*
X148411921Y-76338387D01*
X148401956Y-76359457D01*
X148389974Y-76379448D01*
X148376090Y-76398168D01*
X148360438Y-76415438D01*
X148343168Y-76431090D01*
X148324448Y-76444974D01*
X148304457Y-76456956D01*
X148283387Y-76466921D01*
X148261443Y-76474773D01*
X148238834Y-76480437D01*
X148215779Y-76483856D01*
X148192500Y-76485000D01*
X147717500Y-76485000D01*
X147694221Y-76483856D01*
X147671166Y-76480437D01*
X147648557Y-76474773D01*
X147626613Y-76466921D01*
X147605543Y-76456956D01*
X147585552Y-76444974D01*
X147566832Y-76431090D01*
X147549562Y-76415438D01*
X147533910Y-76398168D01*
X147520026Y-76379448D01*
X147508044Y-76359457D01*
X147498079Y-76338387D01*
X147490227Y-76316443D01*
X147484563Y-76293834D01*
X147481144Y-76270779D01*
X147480000Y-76247500D01*
X147480000Y-75672500D01*
X147481144Y-75649221D01*
X147484563Y-75626166D01*
X147490227Y-75603557D01*
X147498079Y-75581613D01*
X147508044Y-75560543D01*
X147520026Y-75540552D01*
X147533910Y-75521832D01*
X147549562Y-75504562D01*
X147566832Y-75488910D01*
X147585552Y-75475026D01*
X147605543Y-75463044D01*
X147626613Y-75453079D01*
X147648557Y-75445227D01*
X147671166Y-75439563D01*
X147694221Y-75436144D01*
X147717500Y-75435000D01*
X148192500Y-75435000D01*
X148215779Y-75436144D01*
G37*
G36*
X148215779Y-65756144D02*
G01*
X148238834Y-65759563D01*
X148261443Y-65765227D01*
X148283387Y-65773079D01*
X148304457Y-65783044D01*
X148324448Y-65795026D01*
X148343168Y-65808910D01*
X148360438Y-65824562D01*
X148376090Y-65841832D01*
X148389974Y-65860552D01*
X148401956Y-65880543D01*
X148411921Y-65901613D01*
X148419773Y-65923557D01*
X148425437Y-65946166D01*
X148428856Y-65969221D01*
X148430000Y-65992500D01*
X148430000Y-66567500D01*
X148428856Y-66590779D01*
X148425437Y-66613834D01*
X148419773Y-66636443D01*
X148411921Y-66658387D01*
X148401956Y-66679457D01*
X148389974Y-66699448D01*
X148376090Y-66718168D01*
X148360438Y-66735438D01*
X148343168Y-66751090D01*
X148324448Y-66764974D01*
X148304457Y-66776956D01*
X148283387Y-66786921D01*
X148261443Y-66794773D01*
X148238834Y-66800437D01*
X148215779Y-66803856D01*
X148192500Y-66805000D01*
X147717500Y-66805000D01*
X147694221Y-66803856D01*
X147671166Y-66800437D01*
X147648557Y-66794773D01*
X147626613Y-66786921D01*
X147605543Y-66776956D01*
X147585552Y-66764974D01*
X147566832Y-66751090D01*
X147549562Y-66735438D01*
X147533910Y-66718168D01*
X147520026Y-66699448D01*
X147508044Y-66679457D01*
X147498079Y-66658387D01*
X147490227Y-66636443D01*
X147484563Y-66613834D01*
X147481144Y-66590779D01*
X147480000Y-66567500D01*
X147480000Y-65992500D01*
X147481144Y-65969221D01*
X147484563Y-65946166D01*
X147490227Y-65923557D01*
X147498079Y-65901613D01*
X147508044Y-65880543D01*
X147520026Y-65860552D01*
X147533910Y-65841832D01*
X147549562Y-65824562D01*
X147566832Y-65808910D01*
X147585552Y-65795026D01*
X147605543Y-65783044D01*
X147626613Y-65773079D01*
X147648557Y-65765227D01*
X147671166Y-65759563D01*
X147694221Y-65756144D01*
X147717500Y-65755000D01*
X148192500Y-65755000D01*
X148215779Y-65756144D01*
G37*
G36*
X148215779Y-64006144D02*
G01*
X148238834Y-64009563D01*
X148261443Y-64015227D01*
X148283387Y-64023079D01*
X148304457Y-64033044D01*
X148324448Y-64045026D01*
X148343168Y-64058910D01*
X148360438Y-64074562D01*
X148376090Y-64091832D01*
X148389974Y-64110552D01*
X148401956Y-64130543D01*
X148411921Y-64151613D01*
X148419773Y-64173557D01*
X148425437Y-64196166D01*
X148428856Y-64219221D01*
X148430000Y-64242500D01*
X148430000Y-64817500D01*
X148428856Y-64840779D01*
X148425437Y-64863834D01*
X148419773Y-64886443D01*
X148411921Y-64908387D01*
X148401956Y-64929457D01*
X148389974Y-64949448D01*
X148376090Y-64968168D01*
X148360438Y-64985438D01*
X148343168Y-65001090D01*
X148324448Y-65014974D01*
X148304457Y-65026956D01*
X148283387Y-65036921D01*
X148261443Y-65044773D01*
X148238834Y-65050437D01*
X148215779Y-65053856D01*
X148192500Y-65055000D01*
X147717500Y-65055000D01*
X147694221Y-65053856D01*
X147671166Y-65050437D01*
X147648557Y-65044773D01*
X147626613Y-65036921D01*
X147605543Y-65026956D01*
X147585552Y-65014974D01*
X147566832Y-65001090D01*
X147549562Y-64985438D01*
X147533910Y-64968168D01*
X147520026Y-64949448D01*
X147508044Y-64929457D01*
X147498079Y-64908387D01*
X147490227Y-64886443D01*
X147484563Y-64863834D01*
X147481144Y-64840779D01*
X147480000Y-64817500D01*
X147480000Y-64242500D01*
X147481144Y-64219221D01*
X147484563Y-64196166D01*
X147490227Y-64173557D01*
X147498079Y-64151613D01*
X147508044Y-64130543D01*
X147520026Y-64110552D01*
X147533910Y-64091832D01*
X147549562Y-64074562D01*
X147566832Y-64058910D01*
X147585552Y-64045026D01*
X147605543Y-64033044D01*
X147626613Y-64023079D01*
X147648557Y-64015227D01*
X147671166Y-64009563D01*
X147694221Y-64006144D01*
X147717500Y-64005000D01*
X148192500Y-64005000D01*
X148215779Y-64006144D01*
G37*
G36*
X132975779Y-73376144D02*
G01*
X132998834Y-73379563D01*
X133021443Y-73385227D01*
X133043387Y-73393079D01*
X133064457Y-73403044D01*
X133084448Y-73415026D01*
X133103168Y-73428910D01*
X133120438Y-73444562D01*
X133136090Y-73461832D01*
X133149974Y-73480552D01*
X133161956Y-73500543D01*
X133171921Y-73521613D01*
X133179773Y-73543557D01*
X133185437Y-73566166D01*
X133188856Y-73589221D01*
X133190000Y-73612500D01*
X133190000Y-74187500D01*
X133188856Y-74210779D01*
X133185437Y-74233834D01*
X133179773Y-74256443D01*
X133171921Y-74278387D01*
X133161956Y-74299457D01*
X133149974Y-74319448D01*
X133136090Y-74338168D01*
X133120438Y-74355438D01*
X133103168Y-74371090D01*
X133084448Y-74384974D01*
X133064457Y-74396956D01*
X133043387Y-74406921D01*
X133021443Y-74414773D01*
X132998834Y-74420437D01*
X132975779Y-74423856D01*
X132952500Y-74425000D01*
X132477500Y-74425000D01*
X132454221Y-74423856D01*
X132431166Y-74420437D01*
X132408557Y-74414773D01*
X132386613Y-74406921D01*
X132365543Y-74396956D01*
X132345552Y-74384974D01*
X132326832Y-74371090D01*
X132309562Y-74355438D01*
X132293910Y-74338168D01*
X132280026Y-74319448D01*
X132268044Y-74299457D01*
X132258079Y-74278387D01*
X132250227Y-74256443D01*
X132244563Y-74233834D01*
X132241144Y-74210779D01*
X132240000Y-74187500D01*
X132240000Y-73612500D01*
X132241144Y-73589221D01*
X132244563Y-73566166D01*
X132250227Y-73543557D01*
X132258079Y-73521613D01*
X132268044Y-73500543D01*
X132280026Y-73480552D01*
X132293910Y-73461832D01*
X132309562Y-73444562D01*
X132326832Y-73428910D01*
X132345552Y-73415026D01*
X132365543Y-73403044D01*
X132386613Y-73393079D01*
X132408557Y-73385227D01*
X132431166Y-73379563D01*
X132454221Y-73376144D01*
X132477500Y-73375000D01*
X132952500Y-73375000D01*
X132975779Y-73376144D01*
G37*
G36*
X132975779Y-71626144D02*
G01*
X132998834Y-71629563D01*
X133021443Y-71635227D01*
X133043387Y-71643079D01*
X133064457Y-71653044D01*
X133084448Y-71665026D01*
X133103168Y-71678910D01*
X133120438Y-71694562D01*
X133136090Y-71711832D01*
X133149974Y-71730552D01*
X133161956Y-71750543D01*
X133171921Y-71771613D01*
X133179773Y-71793557D01*
X133185437Y-71816166D01*
X133188856Y-71839221D01*
X133190000Y-71862500D01*
X133190000Y-72437500D01*
X133188856Y-72460779D01*
X133185437Y-72483834D01*
X133179773Y-72506443D01*
X133171921Y-72528387D01*
X133161956Y-72549457D01*
X133149974Y-72569448D01*
X133136090Y-72588168D01*
X133120438Y-72605438D01*
X133103168Y-72621090D01*
X133084448Y-72634974D01*
X133064457Y-72646956D01*
X133043387Y-72656921D01*
X133021443Y-72664773D01*
X132998834Y-72670437D01*
X132975779Y-72673856D01*
X132952500Y-72675000D01*
X132477500Y-72675000D01*
X132454221Y-72673856D01*
X132431166Y-72670437D01*
X132408557Y-72664773D01*
X132386613Y-72656921D01*
X132365543Y-72646956D01*
X132345552Y-72634974D01*
X132326832Y-72621090D01*
X132309562Y-72605438D01*
X132293910Y-72588168D01*
X132280026Y-72569448D01*
X132268044Y-72549457D01*
X132258079Y-72528387D01*
X132250227Y-72506443D01*
X132244563Y-72483834D01*
X132241144Y-72460779D01*
X132240000Y-72437500D01*
X132240000Y-71862500D01*
X132241144Y-71839221D01*
X132244563Y-71816166D01*
X132250227Y-71793557D01*
X132258079Y-71771613D01*
X132268044Y-71750543D01*
X132280026Y-71730552D01*
X132293910Y-71711832D01*
X132309562Y-71694562D01*
X132326832Y-71678910D01*
X132345552Y-71665026D01*
X132365543Y-71653044D01*
X132386613Y-71643079D01*
X132408557Y-71635227D01*
X132431166Y-71629563D01*
X132454221Y-71626144D01*
X132477500Y-71625000D01*
X132952500Y-71625000D01*
X132975779Y-71626144D01*
G37*
G36*
X132975779Y-61946144D02*
G01*
X132998834Y-61949563D01*
X133021443Y-61955227D01*
X133043387Y-61963079D01*
X133064457Y-61973044D01*
X133084448Y-61985026D01*
X133103168Y-61998910D01*
X133120438Y-62014562D01*
X133136090Y-62031832D01*
X133149974Y-62050552D01*
X133161956Y-62070543D01*
X133171921Y-62091613D01*
X133179773Y-62113557D01*
X133185437Y-62136166D01*
X133188856Y-62159221D01*
X133190000Y-62182500D01*
X133190000Y-62757500D01*
X133188856Y-62780779D01*
X133185437Y-62803834D01*
X133179773Y-62826443D01*
X133171921Y-62848387D01*
X133161956Y-62869457D01*
X133149974Y-62889448D01*
X133136090Y-62908168D01*
X133120438Y-62925438D01*
X133103168Y-62941090D01*
X133084448Y-62954974D01*
X133064457Y-62966956D01*
X133043387Y-62976921D01*
X133021443Y-62984773D01*
X132998834Y-62990437D01*
X132975779Y-62993856D01*
X132952500Y-62995000D01*
X132477500Y-62995000D01*
X132454221Y-62993856D01*
X132431166Y-62990437D01*
X132408557Y-62984773D01*
X132386613Y-62976921D01*
X132365543Y-62966956D01*
X132345552Y-62954974D01*
X132326832Y-62941090D01*
X132309562Y-62925438D01*
X132293910Y-62908168D01*
X132280026Y-62889448D01*
X132268044Y-62869457D01*
X132258079Y-62848387D01*
X132250227Y-62826443D01*
X132244563Y-62803834D01*
X132241144Y-62780779D01*
X132240000Y-62757500D01*
X132240000Y-62182500D01*
X132241144Y-62159221D01*
X132244563Y-62136166D01*
X132250227Y-62113557D01*
X132258079Y-62091613D01*
X132268044Y-62070543D01*
X132280026Y-62050552D01*
X132293910Y-62031832D01*
X132309562Y-62014562D01*
X132326832Y-61998910D01*
X132345552Y-61985026D01*
X132365543Y-61973044D01*
X132386613Y-61963079D01*
X132408557Y-61955227D01*
X132431166Y-61949563D01*
X132454221Y-61946144D01*
X132477500Y-61945000D01*
X132952500Y-61945000D01*
X132975779Y-61946144D01*
G37*
G36*
X132975779Y-60196144D02*
G01*
X132998834Y-60199563D01*
X133021443Y-60205227D01*
X133043387Y-60213079D01*
X133064457Y-60223044D01*
X133084448Y-60235026D01*
X133103168Y-60248910D01*
X133120438Y-60264562D01*
X133136090Y-60281832D01*
X133149974Y-60300552D01*
X133161956Y-60320543D01*
X133171921Y-60341613D01*
X133179773Y-60363557D01*
X133185437Y-60386166D01*
X133188856Y-60409221D01*
X133190000Y-60432500D01*
X133190000Y-61007500D01*
X133188856Y-61030779D01*
X133185437Y-61053834D01*
X133179773Y-61076443D01*
X133171921Y-61098387D01*
X133161956Y-61119457D01*
X133149974Y-61139448D01*
X133136090Y-61158168D01*
X133120438Y-61175438D01*
X133103168Y-61191090D01*
X133084448Y-61204974D01*
X133064457Y-61216956D01*
X133043387Y-61226921D01*
X133021443Y-61234773D01*
X132998834Y-61240437D01*
X132975779Y-61243856D01*
X132952500Y-61245000D01*
X132477500Y-61245000D01*
X132454221Y-61243856D01*
X132431166Y-61240437D01*
X132408557Y-61234773D01*
X132386613Y-61226921D01*
X132365543Y-61216956D01*
X132345552Y-61204974D01*
X132326832Y-61191090D01*
X132309562Y-61175438D01*
X132293910Y-61158168D01*
X132280026Y-61139448D01*
X132268044Y-61119457D01*
X132258079Y-61098387D01*
X132250227Y-61076443D01*
X132244563Y-61053834D01*
X132241144Y-61030779D01*
X132240000Y-61007500D01*
X132240000Y-60432500D01*
X132241144Y-60409221D01*
X132244563Y-60386166D01*
X132250227Y-60363557D01*
X132258079Y-60341613D01*
X132268044Y-60320543D01*
X132280026Y-60300552D01*
X132293910Y-60281832D01*
X132309562Y-60264562D01*
X132326832Y-60248910D01*
X132345552Y-60235026D01*
X132365543Y-60223044D01*
X132386613Y-60213079D01*
X132408557Y-60205227D01*
X132431166Y-60199563D01*
X132454221Y-60196144D01*
X132477500Y-60195000D01*
X132952500Y-60195000D01*
X132975779Y-60196144D01*
G37*
G36*
X125355779Y-73376144D02*
G01*
X125378834Y-73379563D01*
X125401443Y-73385227D01*
X125423387Y-73393079D01*
X125444457Y-73403044D01*
X125464448Y-73415026D01*
X125483168Y-73428910D01*
X125500438Y-73444562D01*
X125516090Y-73461832D01*
X125529974Y-73480552D01*
X125541956Y-73500543D01*
X125551921Y-73521613D01*
X125559773Y-73543557D01*
X125565437Y-73566166D01*
X125568856Y-73589221D01*
X125570000Y-73612500D01*
X125570000Y-74187500D01*
X125568856Y-74210779D01*
X125565437Y-74233834D01*
X125559773Y-74256443D01*
X125551921Y-74278387D01*
X125541956Y-74299457D01*
X125529974Y-74319448D01*
X125516090Y-74338168D01*
X125500438Y-74355438D01*
X125483168Y-74371090D01*
X125464448Y-74384974D01*
X125444457Y-74396956D01*
X125423387Y-74406921D01*
X125401443Y-74414773D01*
X125378834Y-74420437D01*
X125355779Y-74423856D01*
X125332500Y-74425000D01*
X124857500Y-74425000D01*
X124834221Y-74423856D01*
X124811166Y-74420437D01*
X124788557Y-74414773D01*
X124766613Y-74406921D01*
X124745543Y-74396956D01*
X124725552Y-74384974D01*
X124706832Y-74371090D01*
X124689562Y-74355438D01*
X124673910Y-74338168D01*
X124660026Y-74319448D01*
X124648044Y-74299457D01*
X124638079Y-74278387D01*
X124630227Y-74256443D01*
X124624563Y-74233834D01*
X124621144Y-74210779D01*
X124620000Y-74187500D01*
X124620000Y-73612500D01*
X124621144Y-73589221D01*
X124624563Y-73566166D01*
X124630227Y-73543557D01*
X124638079Y-73521613D01*
X124648044Y-73500543D01*
X124660026Y-73480552D01*
X124673910Y-73461832D01*
X124689562Y-73444562D01*
X124706832Y-73428910D01*
X124725552Y-73415026D01*
X124745543Y-73403044D01*
X124766613Y-73393079D01*
X124788557Y-73385227D01*
X124811166Y-73379563D01*
X124834221Y-73376144D01*
X124857500Y-73375000D01*
X125332500Y-73375000D01*
X125355779Y-73376144D01*
G37*
G36*
X125355779Y-71626144D02*
G01*
X125378834Y-71629563D01*
X125401443Y-71635227D01*
X125423387Y-71643079D01*
X125444457Y-71653044D01*
X125464448Y-71665026D01*
X125483168Y-71678910D01*
X125500438Y-71694562D01*
X125516090Y-71711832D01*
X125529974Y-71730552D01*
X125541956Y-71750543D01*
X125551921Y-71771613D01*
X125559773Y-71793557D01*
X125565437Y-71816166D01*
X125568856Y-71839221D01*
X125570000Y-71862500D01*
X125570000Y-72437500D01*
X125568856Y-72460779D01*
X125565437Y-72483834D01*
X125559773Y-72506443D01*
X125551921Y-72528387D01*
X125541956Y-72549457D01*
X125529974Y-72569448D01*
X125516090Y-72588168D01*
X125500438Y-72605438D01*
X125483168Y-72621090D01*
X125464448Y-72634974D01*
X125444457Y-72646956D01*
X125423387Y-72656921D01*
X125401443Y-72664773D01*
X125378834Y-72670437D01*
X125355779Y-72673856D01*
X125332500Y-72675000D01*
X124857500Y-72675000D01*
X124834221Y-72673856D01*
X124811166Y-72670437D01*
X124788557Y-72664773D01*
X124766613Y-72656921D01*
X124745543Y-72646956D01*
X124725552Y-72634974D01*
X124706832Y-72621090D01*
X124689562Y-72605438D01*
X124673910Y-72588168D01*
X124660026Y-72569448D01*
X124648044Y-72549457D01*
X124638079Y-72528387D01*
X124630227Y-72506443D01*
X124624563Y-72483834D01*
X124621144Y-72460779D01*
X124620000Y-72437500D01*
X124620000Y-71862500D01*
X124621144Y-71839221D01*
X124624563Y-71816166D01*
X124630227Y-71793557D01*
X124638079Y-71771613D01*
X124648044Y-71750543D01*
X124660026Y-71730552D01*
X124673910Y-71711832D01*
X124689562Y-71694562D01*
X124706832Y-71678910D01*
X124725552Y-71665026D01*
X124745543Y-71653044D01*
X124766613Y-71643079D01*
X124788557Y-71635227D01*
X124811166Y-71629563D01*
X124834221Y-71626144D01*
X124857500Y-71625000D01*
X125332500Y-71625000D01*
X125355779Y-71626144D01*
G37*
G36*
X125355779Y-61946144D02*
G01*
X125378834Y-61949563D01*
X125401443Y-61955227D01*
X125423387Y-61963079D01*
X125444457Y-61973044D01*
X125464448Y-61985026D01*
X125483168Y-61998910D01*
X125500438Y-62014562D01*
X125516090Y-62031832D01*
X125529974Y-62050552D01*
X125541956Y-62070543D01*
X125551921Y-62091613D01*
X125559773Y-62113557D01*
X125565437Y-62136166D01*
X125568856Y-62159221D01*
X125570000Y-62182500D01*
X125570000Y-62757500D01*
X125568856Y-62780779D01*
X125565437Y-62803834D01*
X125559773Y-62826443D01*
X125551921Y-62848387D01*
X125541956Y-62869457D01*
X125529974Y-62889448D01*
X125516090Y-62908168D01*
X125500438Y-62925438D01*
X125483168Y-62941090D01*
X125464448Y-62954974D01*
X125444457Y-62966956D01*
X125423387Y-62976921D01*
X125401443Y-62984773D01*
X125378834Y-62990437D01*
X125355779Y-62993856D01*
X125332500Y-62995000D01*
X124857500Y-62995000D01*
X124834221Y-62993856D01*
X124811166Y-62990437D01*
X124788557Y-62984773D01*
X124766613Y-62976921D01*
X124745543Y-62966956D01*
X124725552Y-62954974D01*
X124706832Y-62941090D01*
X124689562Y-62925438D01*
X124673910Y-62908168D01*
X124660026Y-62889448D01*
X124648044Y-62869457D01*
X124638079Y-62848387D01*
X124630227Y-62826443D01*
X124624563Y-62803834D01*
X124621144Y-62780779D01*
X124620000Y-62757500D01*
X124620000Y-62182500D01*
X124621144Y-62159221D01*
X124624563Y-62136166D01*
X124630227Y-62113557D01*
X124638079Y-62091613D01*
X124648044Y-62070543D01*
X124660026Y-62050552D01*
X124673910Y-62031832D01*
X124689562Y-62014562D01*
X124706832Y-61998910D01*
X124725552Y-61985026D01*
X124745543Y-61973044D01*
X124766613Y-61963079D01*
X124788557Y-61955227D01*
X124811166Y-61949563D01*
X124834221Y-61946144D01*
X124857500Y-61945000D01*
X125332500Y-61945000D01*
X125355779Y-61946144D01*
G37*
G36*
X125355779Y-60196144D02*
G01*
X125378834Y-60199563D01*
X125401443Y-60205227D01*
X125423387Y-60213079D01*
X125444457Y-60223044D01*
X125464448Y-60235026D01*
X125483168Y-60248910D01*
X125500438Y-60264562D01*
X125516090Y-60281832D01*
X125529974Y-60300552D01*
X125541956Y-60320543D01*
X125551921Y-60341613D01*
X125559773Y-60363557D01*
X125565437Y-60386166D01*
X125568856Y-60409221D01*
X125570000Y-60432500D01*
X125570000Y-61007500D01*
X125568856Y-61030779D01*
X125565437Y-61053834D01*
X125559773Y-61076443D01*
X125551921Y-61098387D01*
X125541956Y-61119457D01*
X125529974Y-61139448D01*
X125516090Y-61158168D01*
X125500438Y-61175438D01*
X125483168Y-61191090D01*
X125464448Y-61204974D01*
X125444457Y-61216956D01*
X125423387Y-61226921D01*
X125401443Y-61234773D01*
X125378834Y-61240437D01*
X125355779Y-61243856D01*
X125332500Y-61245000D01*
X124857500Y-61245000D01*
X124834221Y-61243856D01*
X124811166Y-61240437D01*
X124788557Y-61234773D01*
X124766613Y-61226921D01*
X124745543Y-61216956D01*
X124725552Y-61204974D01*
X124706832Y-61191090D01*
X124689562Y-61175438D01*
X124673910Y-61158168D01*
X124660026Y-61139448D01*
X124648044Y-61119457D01*
X124638079Y-61098387D01*
X124630227Y-61076443D01*
X124624563Y-61053834D01*
X124621144Y-61030779D01*
X124620000Y-61007500D01*
X124620000Y-60432500D01*
X124621144Y-60409221D01*
X124624563Y-60386166D01*
X124630227Y-60363557D01*
X124638079Y-60341613D01*
X124648044Y-60320543D01*
X124660026Y-60300552D01*
X124673910Y-60281832D01*
X124689562Y-60264562D01*
X124706832Y-60248910D01*
X124725552Y-60235026D01*
X124745543Y-60223044D01*
X124766613Y-60213079D01*
X124788557Y-60205227D01*
X124811166Y-60199563D01*
X124834221Y-60196144D01*
X124857500Y-60195000D01*
X125332500Y-60195000D01*
X125355779Y-60196144D01*
G37*
G36*
X110115779Y-77186144D02*
G01*
X110138834Y-77189563D01*
X110161443Y-77195227D01*
X110183387Y-77203079D01*
X110204457Y-77213044D01*
X110224448Y-77225026D01*
X110243168Y-77238910D01*
X110260438Y-77254562D01*
X110276090Y-77271832D01*
X110289974Y-77290552D01*
X110301956Y-77310543D01*
X110311921Y-77331613D01*
X110319773Y-77353557D01*
X110325437Y-77376166D01*
X110328856Y-77399221D01*
X110330000Y-77422500D01*
X110330000Y-77997500D01*
X110328856Y-78020779D01*
X110325437Y-78043834D01*
X110319773Y-78066443D01*
X110311921Y-78088387D01*
X110301956Y-78109457D01*
X110289974Y-78129448D01*
X110276090Y-78148168D01*
X110260438Y-78165438D01*
X110243168Y-78181090D01*
X110224448Y-78194974D01*
X110204457Y-78206956D01*
X110183387Y-78216921D01*
X110161443Y-78224773D01*
X110138834Y-78230437D01*
X110115779Y-78233856D01*
X110092500Y-78235000D01*
X109617500Y-78235000D01*
X109594221Y-78233856D01*
X109571166Y-78230437D01*
X109548557Y-78224773D01*
X109526613Y-78216921D01*
X109505543Y-78206956D01*
X109485552Y-78194974D01*
X109466832Y-78181090D01*
X109449562Y-78165438D01*
X109433910Y-78148168D01*
X109420026Y-78129448D01*
X109408044Y-78109457D01*
X109398079Y-78088387D01*
X109390227Y-78066443D01*
X109384563Y-78043834D01*
X109381144Y-78020779D01*
X109380000Y-77997500D01*
X109380000Y-77422500D01*
X109381144Y-77399221D01*
X109384563Y-77376166D01*
X109390227Y-77353557D01*
X109398079Y-77331613D01*
X109408044Y-77310543D01*
X109420026Y-77290552D01*
X109433910Y-77271832D01*
X109449562Y-77254562D01*
X109466832Y-77238910D01*
X109485552Y-77225026D01*
X109505543Y-77213044D01*
X109526613Y-77203079D01*
X109548557Y-77195227D01*
X109571166Y-77189563D01*
X109594221Y-77186144D01*
X109617500Y-77185000D01*
X110092500Y-77185000D01*
X110115779Y-77186144D01*
G37*
G36*
X110115779Y-75436144D02*
G01*
X110138834Y-75439563D01*
X110161443Y-75445227D01*
X110183387Y-75453079D01*
X110204457Y-75463044D01*
X110224448Y-75475026D01*
X110243168Y-75488910D01*
X110260438Y-75504562D01*
X110276090Y-75521832D01*
X110289974Y-75540552D01*
X110301956Y-75560543D01*
X110311921Y-75581613D01*
X110319773Y-75603557D01*
X110325437Y-75626166D01*
X110328856Y-75649221D01*
X110330000Y-75672500D01*
X110330000Y-76247500D01*
X110328856Y-76270779D01*
X110325437Y-76293834D01*
X110319773Y-76316443D01*
X110311921Y-76338387D01*
X110301956Y-76359457D01*
X110289974Y-76379448D01*
X110276090Y-76398168D01*
X110260438Y-76415438D01*
X110243168Y-76431090D01*
X110224448Y-76444974D01*
X110204457Y-76456956D01*
X110183387Y-76466921D01*
X110161443Y-76474773D01*
X110138834Y-76480437D01*
X110115779Y-76483856D01*
X110092500Y-76485000D01*
X109617500Y-76485000D01*
X109594221Y-76483856D01*
X109571166Y-76480437D01*
X109548557Y-76474773D01*
X109526613Y-76466921D01*
X109505543Y-76456956D01*
X109485552Y-76444974D01*
X109466832Y-76431090D01*
X109449562Y-76415438D01*
X109433910Y-76398168D01*
X109420026Y-76379448D01*
X109408044Y-76359457D01*
X109398079Y-76338387D01*
X109390227Y-76316443D01*
X109384563Y-76293834D01*
X109381144Y-76270779D01*
X109380000Y-76247500D01*
X109380000Y-75672500D01*
X109381144Y-75649221D01*
X109384563Y-75626166D01*
X109390227Y-75603557D01*
X109398079Y-75581613D01*
X109408044Y-75560543D01*
X109420026Y-75540552D01*
X109433910Y-75521832D01*
X109449562Y-75504562D01*
X109466832Y-75488910D01*
X109485552Y-75475026D01*
X109505543Y-75463044D01*
X109526613Y-75453079D01*
X109548557Y-75445227D01*
X109571166Y-75439563D01*
X109594221Y-75436144D01*
X109617500Y-75435000D01*
X110092500Y-75435000D01*
X110115779Y-75436144D01*
G37*
G36*
X144405779Y-77186144D02*
G01*
X144428834Y-77189563D01*
X144451443Y-77195227D01*
X144473387Y-77203079D01*
X144494457Y-77213044D01*
X144514448Y-77225026D01*
X144533168Y-77238910D01*
X144550438Y-77254562D01*
X144566090Y-77271832D01*
X144579974Y-77290552D01*
X144591956Y-77310543D01*
X144601921Y-77331613D01*
X144609773Y-77353557D01*
X144615437Y-77376166D01*
X144618856Y-77399221D01*
X144620000Y-77422500D01*
X144620000Y-77997500D01*
X144618856Y-78020779D01*
X144615437Y-78043834D01*
X144609773Y-78066443D01*
X144601921Y-78088387D01*
X144591956Y-78109457D01*
X144579974Y-78129448D01*
X144566090Y-78148168D01*
X144550438Y-78165438D01*
X144533168Y-78181090D01*
X144514448Y-78194974D01*
X144494457Y-78206956D01*
X144473387Y-78216921D01*
X144451443Y-78224773D01*
X144428834Y-78230437D01*
X144405779Y-78233856D01*
X144382500Y-78235000D01*
X143907500Y-78235000D01*
X143884221Y-78233856D01*
X143861166Y-78230437D01*
X143838557Y-78224773D01*
X143816613Y-78216921D01*
X143795543Y-78206956D01*
X143775552Y-78194974D01*
X143756832Y-78181090D01*
X143739562Y-78165438D01*
X143723910Y-78148168D01*
X143710026Y-78129448D01*
X143698044Y-78109457D01*
X143688079Y-78088387D01*
X143680227Y-78066443D01*
X143674563Y-78043834D01*
X143671144Y-78020779D01*
X143670000Y-77997500D01*
X143670000Y-77422500D01*
X143671144Y-77399221D01*
X143674563Y-77376166D01*
X143680227Y-77353557D01*
X143688079Y-77331613D01*
X143698044Y-77310543D01*
X143710026Y-77290552D01*
X143723910Y-77271832D01*
X143739562Y-77254562D01*
X143756832Y-77238910D01*
X143775552Y-77225026D01*
X143795543Y-77213044D01*
X143816613Y-77203079D01*
X143838557Y-77195227D01*
X143861166Y-77189563D01*
X143884221Y-77186144D01*
X143907500Y-77185000D01*
X144382500Y-77185000D01*
X144405779Y-77186144D01*
G37*
G36*
X144405779Y-75436144D02*
G01*
X144428834Y-75439563D01*
X144451443Y-75445227D01*
X144473387Y-75453079D01*
X144494457Y-75463044D01*
X144514448Y-75475026D01*
X144533168Y-75488910D01*
X144550438Y-75504562D01*
X144566090Y-75521832D01*
X144579974Y-75540552D01*
X144591956Y-75560543D01*
X144601921Y-75581613D01*
X144609773Y-75603557D01*
X144615437Y-75626166D01*
X144618856Y-75649221D01*
X144620000Y-75672500D01*
X144620000Y-76247500D01*
X144618856Y-76270779D01*
X144615437Y-76293834D01*
X144609773Y-76316443D01*
X144601921Y-76338387D01*
X144591956Y-76359457D01*
X144579974Y-76379448D01*
X144566090Y-76398168D01*
X144550438Y-76415438D01*
X144533168Y-76431090D01*
X144514448Y-76444974D01*
X144494457Y-76456956D01*
X144473387Y-76466921D01*
X144451443Y-76474773D01*
X144428834Y-76480437D01*
X144405779Y-76483856D01*
X144382500Y-76485000D01*
X143907500Y-76485000D01*
X143884221Y-76483856D01*
X143861166Y-76480437D01*
X143838557Y-76474773D01*
X143816613Y-76466921D01*
X143795543Y-76456956D01*
X143775552Y-76444974D01*
X143756832Y-76431090D01*
X143739562Y-76415438D01*
X143723910Y-76398168D01*
X143710026Y-76379448D01*
X143698044Y-76359457D01*
X143688079Y-76338387D01*
X143680227Y-76316443D01*
X143674563Y-76293834D01*
X143671144Y-76270779D01*
X143670000Y-76247500D01*
X143670000Y-75672500D01*
X143671144Y-75649221D01*
X143674563Y-75626166D01*
X143680227Y-75603557D01*
X143688079Y-75581613D01*
X143698044Y-75560543D01*
X143710026Y-75540552D01*
X143723910Y-75521832D01*
X143739562Y-75504562D01*
X143756832Y-75488910D01*
X143775552Y-75475026D01*
X143795543Y-75463044D01*
X143816613Y-75453079D01*
X143838557Y-75445227D01*
X143861166Y-75439563D01*
X143884221Y-75436144D01*
X143907500Y-75435000D01*
X144382500Y-75435000D01*
X144405779Y-75436144D01*
G37*
G36*
X144405779Y-65756144D02*
G01*
X144428834Y-65759563D01*
X144451443Y-65765227D01*
X144473387Y-65773079D01*
X144494457Y-65783044D01*
X144514448Y-65795026D01*
X144533168Y-65808910D01*
X144550438Y-65824562D01*
X144566090Y-65841832D01*
X144579974Y-65860552D01*
X144591956Y-65880543D01*
X144601921Y-65901613D01*
X144609773Y-65923557D01*
X144615437Y-65946166D01*
X144618856Y-65969221D01*
X144620000Y-65992500D01*
X144620000Y-66567500D01*
X144618856Y-66590779D01*
X144615437Y-66613834D01*
X144609773Y-66636443D01*
X144601921Y-66658387D01*
X144591956Y-66679457D01*
X144579974Y-66699448D01*
X144566090Y-66718168D01*
X144550438Y-66735438D01*
X144533168Y-66751090D01*
X144514448Y-66764974D01*
X144494457Y-66776956D01*
X144473387Y-66786921D01*
X144451443Y-66794773D01*
X144428834Y-66800437D01*
X144405779Y-66803856D01*
X144382500Y-66805000D01*
X143907500Y-66805000D01*
X143884221Y-66803856D01*
X143861166Y-66800437D01*
X143838557Y-66794773D01*
X143816613Y-66786921D01*
X143795543Y-66776956D01*
X143775552Y-66764974D01*
X143756832Y-66751090D01*
X143739562Y-66735438D01*
X143723910Y-66718168D01*
X143710026Y-66699448D01*
X143698044Y-66679457D01*
X143688079Y-66658387D01*
X143680227Y-66636443D01*
X143674563Y-66613834D01*
X143671144Y-66590779D01*
X143670000Y-66567500D01*
X143670000Y-65992500D01*
X143671144Y-65969221D01*
X143674563Y-65946166D01*
X143680227Y-65923557D01*
X143688079Y-65901613D01*
X143698044Y-65880543D01*
X143710026Y-65860552D01*
X143723910Y-65841832D01*
X143739562Y-65824562D01*
X143756832Y-65808910D01*
X143775552Y-65795026D01*
X143795543Y-65783044D01*
X143816613Y-65773079D01*
X143838557Y-65765227D01*
X143861166Y-65759563D01*
X143884221Y-65756144D01*
X143907500Y-65755000D01*
X144382500Y-65755000D01*
X144405779Y-65756144D01*
G37*
G36*
X144405779Y-64006144D02*
G01*
X144428834Y-64009563D01*
X144451443Y-64015227D01*
X144473387Y-64023079D01*
X144494457Y-64033044D01*
X144514448Y-64045026D01*
X144533168Y-64058910D01*
X144550438Y-64074562D01*
X144566090Y-64091832D01*
X144579974Y-64110552D01*
X144591956Y-64130543D01*
X144601921Y-64151613D01*
X144609773Y-64173557D01*
X144615437Y-64196166D01*
X144618856Y-64219221D01*
X144620000Y-64242500D01*
X144620000Y-64817500D01*
X144618856Y-64840779D01*
X144615437Y-64863834D01*
X144609773Y-64886443D01*
X144601921Y-64908387D01*
X144591956Y-64929457D01*
X144579974Y-64949448D01*
X144566090Y-64968168D01*
X144550438Y-64985438D01*
X144533168Y-65001090D01*
X144514448Y-65014974D01*
X144494457Y-65026956D01*
X144473387Y-65036921D01*
X144451443Y-65044773D01*
X144428834Y-65050437D01*
X144405779Y-65053856D01*
X144382500Y-65055000D01*
X143907500Y-65055000D01*
X143884221Y-65053856D01*
X143861166Y-65050437D01*
X143838557Y-65044773D01*
X143816613Y-65036921D01*
X143795543Y-65026956D01*
X143775552Y-65014974D01*
X143756832Y-65001090D01*
X143739562Y-64985438D01*
X143723910Y-64968168D01*
X143710026Y-64949448D01*
X143698044Y-64929457D01*
X143688079Y-64908387D01*
X143680227Y-64886443D01*
X143674563Y-64863834D01*
X143671144Y-64840779D01*
X143670000Y-64817500D01*
X143670000Y-64242500D01*
X143671144Y-64219221D01*
X143674563Y-64196166D01*
X143680227Y-64173557D01*
X143688079Y-64151613D01*
X143698044Y-64130543D01*
X143710026Y-64110552D01*
X143723910Y-64091832D01*
X143739562Y-64074562D01*
X143756832Y-64058910D01*
X143775552Y-64045026D01*
X143795543Y-64033044D01*
X143816613Y-64023079D01*
X143838557Y-64015227D01*
X143861166Y-64009563D01*
X143884221Y-64006144D01*
X143907500Y-64005000D01*
X144382500Y-64005000D01*
X144405779Y-64006144D01*
G37*
G36*
X140595779Y-74646144D02*
G01*
X140618834Y-74649563D01*
X140641443Y-74655227D01*
X140663387Y-74663079D01*
X140684457Y-74673044D01*
X140704448Y-74685026D01*
X140723168Y-74698910D01*
X140740438Y-74714562D01*
X140756090Y-74731832D01*
X140769974Y-74750552D01*
X140781956Y-74770543D01*
X140791921Y-74791613D01*
X140799773Y-74813557D01*
X140805437Y-74836166D01*
X140808856Y-74859221D01*
X140810000Y-74882500D01*
X140810000Y-75457500D01*
X140808856Y-75480779D01*
X140805437Y-75503834D01*
X140799773Y-75526443D01*
X140791921Y-75548387D01*
X140781956Y-75569457D01*
X140769974Y-75589448D01*
X140756090Y-75608168D01*
X140740438Y-75625438D01*
X140723168Y-75641090D01*
X140704448Y-75654974D01*
X140684457Y-75666956D01*
X140663387Y-75676921D01*
X140641443Y-75684773D01*
X140618834Y-75690437D01*
X140595779Y-75693856D01*
X140572500Y-75695000D01*
X140097500Y-75695000D01*
X140074221Y-75693856D01*
X140051166Y-75690437D01*
X140028557Y-75684773D01*
X140006613Y-75676921D01*
X139985543Y-75666956D01*
X139965552Y-75654974D01*
X139946832Y-75641090D01*
X139929562Y-75625438D01*
X139913910Y-75608168D01*
X139900026Y-75589448D01*
X139888044Y-75569457D01*
X139878079Y-75548387D01*
X139870227Y-75526443D01*
X139864563Y-75503834D01*
X139861144Y-75480779D01*
X139860000Y-75457500D01*
X139860000Y-74882500D01*
X139861144Y-74859221D01*
X139864563Y-74836166D01*
X139870227Y-74813557D01*
X139878079Y-74791613D01*
X139888044Y-74770543D01*
X139900026Y-74750552D01*
X139913910Y-74731832D01*
X139929562Y-74714562D01*
X139946832Y-74698910D01*
X139965552Y-74685026D01*
X139985543Y-74673044D01*
X140006613Y-74663079D01*
X140028557Y-74655227D01*
X140051166Y-74649563D01*
X140074221Y-74646144D01*
X140097500Y-74645000D01*
X140572500Y-74645000D01*
X140595779Y-74646144D01*
G37*
G36*
X140595779Y-72896144D02*
G01*
X140618834Y-72899563D01*
X140641443Y-72905227D01*
X140663387Y-72913079D01*
X140684457Y-72923044D01*
X140704448Y-72935026D01*
X140723168Y-72948910D01*
X140740438Y-72964562D01*
X140756090Y-72981832D01*
X140769974Y-73000552D01*
X140781956Y-73020543D01*
X140791921Y-73041613D01*
X140799773Y-73063557D01*
X140805437Y-73086166D01*
X140808856Y-73109221D01*
X140810000Y-73132500D01*
X140810000Y-73707500D01*
X140808856Y-73730779D01*
X140805437Y-73753834D01*
X140799773Y-73776443D01*
X140791921Y-73798387D01*
X140781956Y-73819457D01*
X140769974Y-73839448D01*
X140756090Y-73858168D01*
X140740438Y-73875438D01*
X140723168Y-73891090D01*
X140704448Y-73904974D01*
X140684457Y-73916956D01*
X140663387Y-73926921D01*
X140641443Y-73934773D01*
X140618834Y-73940437D01*
X140595779Y-73943856D01*
X140572500Y-73945000D01*
X140097500Y-73945000D01*
X140074221Y-73943856D01*
X140051166Y-73940437D01*
X140028557Y-73934773D01*
X140006613Y-73926921D01*
X139985543Y-73916956D01*
X139965552Y-73904974D01*
X139946832Y-73891090D01*
X139929562Y-73875438D01*
X139913910Y-73858168D01*
X139900026Y-73839448D01*
X139888044Y-73819457D01*
X139878079Y-73798387D01*
X139870227Y-73776443D01*
X139864563Y-73753834D01*
X139861144Y-73730779D01*
X139860000Y-73707500D01*
X139860000Y-73132500D01*
X139861144Y-73109221D01*
X139864563Y-73086166D01*
X139870227Y-73063557D01*
X139878079Y-73041613D01*
X139888044Y-73020543D01*
X139900026Y-73000552D01*
X139913910Y-72981832D01*
X139929562Y-72964562D01*
X139946832Y-72948910D01*
X139965552Y-72935026D01*
X139985543Y-72923044D01*
X140006613Y-72913079D01*
X140028557Y-72905227D01*
X140051166Y-72899563D01*
X140074221Y-72896144D01*
X140097500Y-72895000D01*
X140572500Y-72895000D01*
X140595779Y-72896144D01*
G37*
G36*
X140595779Y-63216144D02*
G01*
X140618834Y-63219563D01*
X140641443Y-63225227D01*
X140663387Y-63233079D01*
X140684457Y-63243044D01*
X140704448Y-63255026D01*
X140723168Y-63268910D01*
X140740438Y-63284562D01*
X140756090Y-63301832D01*
X140769974Y-63320552D01*
X140781956Y-63340543D01*
X140791921Y-63361613D01*
X140799773Y-63383557D01*
X140805437Y-63406166D01*
X140808856Y-63429221D01*
X140810000Y-63452500D01*
X140810000Y-64027500D01*
X140808856Y-64050779D01*
X140805437Y-64073834D01*
X140799773Y-64096443D01*
X140791921Y-64118387D01*
X140781956Y-64139457D01*
X140769974Y-64159448D01*
X140756090Y-64178168D01*
X140740438Y-64195438D01*
X140723168Y-64211090D01*
X140704448Y-64224974D01*
X140684457Y-64236956D01*
X140663387Y-64246921D01*
X140641443Y-64254773D01*
X140618834Y-64260437D01*
X140595779Y-64263856D01*
X140572500Y-64265000D01*
X140097500Y-64265000D01*
X140074221Y-64263856D01*
X140051166Y-64260437D01*
X140028557Y-64254773D01*
X140006613Y-64246921D01*
X139985543Y-64236956D01*
X139965552Y-64224974D01*
X139946832Y-64211090D01*
X139929562Y-64195438D01*
X139913910Y-64178168D01*
X139900026Y-64159448D01*
X139888044Y-64139457D01*
X139878079Y-64118387D01*
X139870227Y-64096443D01*
X139864563Y-64073834D01*
X139861144Y-64050779D01*
X139860000Y-64027500D01*
X139860000Y-63452500D01*
X139861144Y-63429221D01*
X139864563Y-63406166D01*
X139870227Y-63383557D01*
X139878079Y-63361613D01*
X139888044Y-63340543D01*
X139900026Y-63320552D01*
X139913910Y-63301832D01*
X139929562Y-63284562D01*
X139946832Y-63268910D01*
X139965552Y-63255026D01*
X139985543Y-63243044D01*
X140006613Y-63233079D01*
X140028557Y-63225227D01*
X140051166Y-63219563D01*
X140074221Y-63216144D01*
X140097500Y-63215000D01*
X140572500Y-63215000D01*
X140595779Y-63216144D01*
G37*
G36*
X140595779Y-61466144D02*
G01*
X140618834Y-61469563D01*
X140641443Y-61475227D01*
X140663387Y-61483079D01*
X140684457Y-61493044D01*
X140704448Y-61505026D01*
X140723168Y-61518910D01*
X140740438Y-61534562D01*
X140756090Y-61551832D01*
X140769974Y-61570552D01*
X140781956Y-61590543D01*
X140791921Y-61611613D01*
X140799773Y-61633557D01*
X140805437Y-61656166D01*
X140808856Y-61679221D01*
X140810000Y-61702500D01*
X140810000Y-62277500D01*
X140808856Y-62300779D01*
X140805437Y-62323834D01*
X140799773Y-62346443D01*
X140791921Y-62368387D01*
X140781956Y-62389457D01*
X140769974Y-62409448D01*
X140756090Y-62428168D01*
X140740438Y-62445438D01*
X140723168Y-62461090D01*
X140704448Y-62474974D01*
X140684457Y-62486956D01*
X140663387Y-62496921D01*
X140641443Y-62504773D01*
X140618834Y-62510437D01*
X140595779Y-62513856D01*
X140572500Y-62515000D01*
X140097500Y-62515000D01*
X140074221Y-62513856D01*
X140051166Y-62510437D01*
X140028557Y-62504773D01*
X140006613Y-62496921D01*
X139985543Y-62486956D01*
X139965552Y-62474974D01*
X139946832Y-62461090D01*
X139929562Y-62445438D01*
X139913910Y-62428168D01*
X139900026Y-62409448D01*
X139888044Y-62389457D01*
X139878079Y-62368387D01*
X139870227Y-62346443D01*
X139864563Y-62323834D01*
X139861144Y-62300779D01*
X139860000Y-62277500D01*
X139860000Y-61702500D01*
X139861144Y-61679221D01*
X139864563Y-61656166D01*
X139870227Y-61633557D01*
X139878079Y-61611613D01*
X139888044Y-61590543D01*
X139900026Y-61570552D01*
X139913910Y-61551832D01*
X139929562Y-61534562D01*
X139946832Y-61518910D01*
X139965552Y-61505026D01*
X139985543Y-61493044D01*
X140006613Y-61483079D01*
X140028557Y-61475227D01*
X140051166Y-61469563D01*
X140074221Y-61466144D01*
X140097500Y-61465000D01*
X140572500Y-61465000D01*
X140595779Y-61466144D01*
G37*
G36*
X136785779Y-74646144D02*
G01*
X136808834Y-74649563D01*
X136831443Y-74655227D01*
X136853387Y-74663079D01*
X136874457Y-74673044D01*
X136894448Y-74685026D01*
X136913168Y-74698910D01*
X136930438Y-74714562D01*
X136946090Y-74731832D01*
X136959974Y-74750552D01*
X136971956Y-74770543D01*
X136981921Y-74791613D01*
X136989773Y-74813557D01*
X136995437Y-74836166D01*
X136998856Y-74859221D01*
X137000000Y-74882500D01*
X137000000Y-75457500D01*
X136998856Y-75480779D01*
X136995437Y-75503834D01*
X136989773Y-75526443D01*
X136981921Y-75548387D01*
X136971956Y-75569457D01*
X136959974Y-75589448D01*
X136946090Y-75608168D01*
X136930438Y-75625438D01*
X136913168Y-75641090D01*
X136894448Y-75654974D01*
X136874457Y-75666956D01*
X136853387Y-75676921D01*
X136831443Y-75684773D01*
X136808834Y-75690437D01*
X136785779Y-75693856D01*
X136762500Y-75695000D01*
X136287500Y-75695000D01*
X136264221Y-75693856D01*
X136241166Y-75690437D01*
X136218557Y-75684773D01*
X136196613Y-75676921D01*
X136175543Y-75666956D01*
X136155552Y-75654974D01*
X136136832Y-75641090D01*
X136119562Y-75625438D01*
X136103910Y-75608168D01*
X136090026Y-75589448D01*
X136078044Y-75569457D01*
X136068079Y-75548387D01*
X136060227Y-75526443D01*
X136054563Y-75503834D01*
X136051144Y-75480779D01*
X136050000Y-75457500D01*
X136050000Y-74882500D01*
X136051144Y-74859221D01*
X136054563Y-74836166D01*
X136060227Y-74813557D01*
X136068079Y-74791613D01*
X136078044Y-74770543D01*
X136090026Y-74750552D01*
X136103910Y-74731832D01*
X136119562Y-74714562D01*
X136136832Y-74698910D01*
X136155552Y-74685026D01*
X136175543Y-74673044D01*
X136196613Y-74663079D01*
X136218557Y-74655227D01*
X136241166Y-74649563D01*
X136264221Y-74646144D01*
X136287500Y-74645000D01*
X136762500Y-74645000D01*
X136785779Y-74646144D01*
G37*
G36*
X136785779Y-72896144D02*
G01*
X136808834Y-72899563D01*
X136831443Y-72905227D01*
X136853387Y-72913079D01*
X136874457Y-72923044D01*
X136894448Y-72935026D01*
X136913168Y-72948910D01*
X136930438Y-72964562D01*
X136946090Y-72981832D01*
X136959974Y-73000552D01*
X136971956Y-73020543D01*
X136981921Y-73041613D01*
X136989773Y-73063557D01*
X136995437Y-73086166D01*
X136998856Y-73109221D01*
X137000000Y-73132500D01*
X137000000Y-73707500D01*
X136998856Y-73730779D01*
X136995437Y-73753834D01*
X136989773Y-73776443D01*
X136981921Y-73798387D01*
X136971956Y-73819457D01*
X136959974Y-73839448D01*
X136946090Y-73858168D01*
X136930438Y-73875438D01*
X136913168Y-73891090D01*
X136894448Y-73904974D01*
X136874457Y-73916956D01*
X136853387Y-73926921D01*
X136831443Y-73934773D01*
X136808834Y-73940437D01*
X136785779Y-73943856D01*
X136762500Y-73945000D01*
X136287500Y-73945000D01*
X136264221Y-73943856D01*
X136241166Y-73940437D01*
X136218557Y-73934773D01*
X136196613Y-73926921D01*
X136175543Y-73916956D01*
X136155552Y-73904974D01*
X136136832Y-73891090D01*
X136119562Y-73875438D01*
X136103910Y-73858168D01*
X136090026Y-73839448D01*
X136078044Y-73819457D01*
X136068079Y-73798387D01*
X136060227Y-73776443D01*
X136054563Y-73753834D01*
X136051144Y-73730779D01*
X136050000Y-73707500D01*
X136050000Y-73132500D01*
X136051144Y-73109221D01*
X136054563Y-73086166D01*
X136060227Y-73063557D01*
X136068079Y-73041613D01*
X136078044Y-73020543D01*
X136090026Y-73000552D01*
X136103910Y-72981832D01*
X136119562Y-72964562D01*
X136136832Y-72948910D01*
X136155552Y-72935026D01*
X136175543Y-72923044D01*
X136196613Y-72913079D01*
X136218557Y-72905227D01*
X136241166Y-72899563D01*
X136264221Y-72896144D01*
X136287500Y-72895000D01*
X136762500Y-72895000D01*
X136785779Y-72896144D01*
G37*
G36*
X136785779Y-63216144D02*
G01*
X136808834Y-63219563D01*
X136831443Y-63225227D01*
X136853387Y-63233079D01*
X136874457Y-63243044D01*
X136894448Y-63255026D01*
X136913168Y-63268910D01*
X136930438Y-63284562D01*
X136946090Y-63301832D01*
X136959974Y-63320552D01*
X136971956Y-63340543D01*
X136981921Y-63361613D01*
X136989773Y-63383557D01*
X136995437Y-63406166D01*
X136998856Y-63429221D01*
X137000000Y-63452500D01*
X137000000Y-64027500D01*
X136998856Y-64050779D01*
X136995437Y-64073834D01*
X136989773Y-64096443D01*
X136981921Y-64118387D01*
X136971956Y-64139457D01*
X136959974Y-64159448D01*
X136946090Y-64178168D01*
X136930438Y-64195438D01*
X136913168Y-64211090D01*
X136894448Y-64224974D01*
X136874457Y-64236956D01*
X136853387Y-64246921D01*
X136831443Y-64254773D01*
X136808834Y-64260437D01*
X136785779Y-64263856D01*
X136762500Y-64265000D01*
X136287500Y-64265000D01*
X136264221Y-64263856D01*
X136241166Y-64260437D01*
X136218557Y-64254773D01*
X136196613Y-64246921D01*
X136175543Y-64236956D01*
X136155552Y-64224974D01*
X136136832Y-64211090D01*
X136119562Y-64195438D01*
X136103910Y-64178168D01*
X136090026Y-64159448D01*
X136078044Y-64139457D01*
X136068079Y-64118387D01*
X136060227Y-64096443D01*
X136054563Y-64073834D01*
X136051144Y-64050779D01*
X136050000Y-64027500D01*
X136050000Y-63452500D01*
X136051144Y-63429221D01*
X136054563Y-63406166D01*
X136060227Y-63383557D01*
X136068079Y-63361613D01*
X136078044Y-63340543D01*
X136090026Y-63320552D01*
X136103910Y-63301832D01*
X136119562Y-63284562D01*
X136136832Y-63268910D01*
X136155552Y-63255026D01*
X136175543Y-63243044D01*
X136196613Y-63233079D01*
X136218557Y-63225227D01*
X136241166Y-63219563D01*
X136264221Y-63216144D01*
X136287500Y-63215000D01*
X136762500Y-63215000D01*
X136785779Y-63216144D01*
G37*
G36*
X136785779Y-61466144D02*
G01*
X136808834Y-61469563D01*
X136831443Y-61475227D01*
X136853387Y-61483079D01*
X136874457Y-61493044D01*
X136894448Y-61505026D01*
X136913168Y-61518910D01*
X136930438Y-61534562D01*
X136946090Y-61551832D01*
X136959974Y-61570552D01*
X136971956Y-61590543D01*
X136981921Y-61611613D01*
X136989773Y-61633557D01*
X136995437Y-61656166D01*
X136998856Y-61679221D01*
X137000000Y-61702500D01*
X137000000Y-62277500D01*
X136998856Y-62300779D01*
X136995437Y-62323834D01*
X136989773Y-62346443D01*
X136981921Y-62368387D01*
X136971956Y-62389457D01*
X136959974Y-62409448D01*
X136946090Y-62428168D01*
X136930438Y-62445438D01*
X136913168Y-62461090D01*
X136894448Y-62474974D01*
X136874457Y-62486956D01*
X136853387Y-62496921D01*
X136831443Y-62504773D01*
X136808834Y-62510437D01*
X136785779Y-62513856D01*
X136762500Y-62515000D01*
X136287500Y-62515000D01*
X136264221Y-62513856D01*
X136241166Y-62510437D01*
X136218557Y-62504773D01*
X136196613Y-62496921D01*
X136175543Y-62486956D01*
X136155552Y-62474974D01*
X136136832Y-62461090D01*
X136119562Y-62445438D01*
X136103910Y-62428168D01*
X136090026Y-62409448D01*
X136078044Y-62389457D01*
X136068079Y-62368387D01*
X136060227Y-62346443D01*
X136054563Y-62323834D01*
X136051144Y-62300779D01*
X136050000Y-62277500D01*
X136050000Y-61702500D01*
X136051144Y-61679221D01*
X136054563Y-61656166D01*
X136060227Y-61633557D01*
X136068079Y-61611613D01*
X136078044Y-61590543D01*
X136090026Y-61570552D01*
X136103910Y-61551832D01*
X136119562Y-61534562D01*
X136136832Y-61518910D01*
X136155552Y-61505026D01*
X136175543Y-61493044D01*
X136196613Y-61483079D01*
X136218557Y-61475227D01*
X136241166Y-61469563D01*
X136264221Y-61466144D01*
X136287500Y-61465000D01*
X136762500Y-61465000D01*
X136785779Y-61466144D01*
G37*
G36*
X165995779Y-84806144D02*
G01*
X166018834Y-84809563D01*
X166041443Y-84815227D01*
X166063387Y-84823079D01*
X166084457Y-84833044D01*
X166104448Y-84845026D01*
X166123168Y-84858910D01*
X166140438Y-84874562D01*
X166156090Y-84891832D01*
X166169974Y-84910552D01*
X166181956Y-84930543D01*
X166191921Y-84951613D01*
X166199773Y-84973557D01*
X166205437Y-84996166D01*
X166208856Y-85019221D01*
X166210000Y-85042500D01*
X166210000Y-85617500D01*
X166208856Y-85640779D01*
X166205437Y-85663834D01*
X166199773Y-85686443D01*
X166191921Y-85708387D01*
X166181956Y-85729457D01*
X166169974Y-85749448D01*
X166156090Y-85768168D01*
X166140438Y-85785438D01*
X166123168Y-85801090D01*
X166104448Y-85814974D01*
X166084457Y-85826956D01*
X166063387Y-85836921D01*
X166041443Y-85844773D01*
X166018834Y-85850437D01*
X165995779Y-85853856D01*
X165972500Y-85855000D01*
X165497500Y-85855000D01*
X165474221Y-85853856D01*
X165451166Y-85850437D01*
X165428557Y-85844773D01*
X165406613Y-85836921D01*
X165385543Y-85826956D01*
X165365552Y-85814974D01*
X165346832Y-85801090D01*
X165329562Y-85785438D01*
X165313910Y-85768168D01*
X165300026Y-85749448D01*
X165288044Y-85729457D01*
X165278079Y-85708387D01*
X165270227Y-85686443D01*
X165264563Y-85663834D01*
X165261144Y-85640779D01*
X165260000Y-85617500D01*
X165260000Y-85042500D01*
X165261144Y-85019221D01*
X165264563Y-84996166D01*
X165270227Y-84973557D01*
X165278079Y-84951613D01*
X165288044Y-84930543D01*
X165300026Y-84910552D01*
X165313910Y-84891832D01*
X165329562Y-84874562D01*
X165346832Y-84858910D01*
X165365552Y-84845026D01*
X165385543Y-84833044D01*
X165406613Y-84823079D01*
X165428557Y-84815227D01*
X165451166Y-84809563D01*
X165474221Y-84806144D01*
X165497500Y-84805000D01*
X165972500Y-84805000D01*
X165995779Y-84806144D01*
G37*
G36*
X165995779Y-83056144D02*
G01*
X166018834Y-83059563D01*
X166041443Y-83065227D01*
X166063387Y-83073079D01*
X166084457Y-83083044D01*
X166104448Y-83095026D01*
X166123168Y-83108910D01*
X166140438Y-83124562D01*
X166156090Y-83141832D01*
X166169974Y-83160552D01*
X166181956Y-83180543D01*
X166191921Y-83201613D01*
X166199773Y-83223557D01*
X166205437Y-83246166D01*
X166208856Y-83269221D01*
X166210000Y-83292500D01*
X166210000Y-83867500D01*
X166208856Y-83890779D01*
X166205437Y-83913834D01*
X166199773Y-83936443D01*
X166191921Y-83958387D01*
X166181956Y-83979457D01*
X166169974Y-83999448D01*
X166156090Y-84018168D01*
X166140438Y-84035438D01*
X166123168Y-84051090D01*
X166104448Y-84064974D01*
X166084457Y-84076956D01*
X166063387Y-84086921D01*
X166041443Y-84094773D01*
X166018834Y-84100437D01*
X165995779Y-84103856D01*
X165972500Y-84105000D01*
X165497500Y-84105000D01*
X165474221Y-84103856D01*
X165451166Y-84100437D01*
X165428557Y-84094773D01*
X165406613Y-84086921D01*
X165385543Y-84076956D01*
X165365552Y-84064974D01*
X165346832Y-84051090D01*
X165329562Y-84035438D01*
X165313910Y-84018168D01*
X165300026Y-83999448D01*
X165288044Y-83979457D01*
X165278079Y-83958387D01*
X165270227Y-83936443D01*
X165264563Y-83913834D01*
X165261144Y-83890779D01*
X165260000Y-83867500D01*
X165260000Y-83292500D01*
X165261144Y-83269221D01*
X165264563Y-83246166D01*
X165270227Y-83223557D01*
X165278079Y-83201613D01*
X165288044Y-83180543D01*
X165300026Y-83160552D01*
X165313910Y-83141832D01*
X165329562Y-83124562D01*
X165346832Y-83108910D01*
X165365552Y-83095026D01*
X165385543Y-83083044D01*
X165406613Y-83073079D01*
X165428557Y-83065227D01*
X165451166Y-83059563D01*
X165474221Y-83056144D01*
X165497500Y-83055000D01*
X165972500Y-83055000D01*
X165995779Y-83056144D01*
G37*
G36*
X92335779Y-73376144D02*
G01*
X92358834Y-73379563D01*
X92381443Y-73385227D01*
X92403387Y-73393079D01*
X92424457Y-73403044D01*
X92444448Y-73415026D01*
X92463168Y-73428910D01*
X92480438Y-73444562D01*
X92496090Y-73461832D01*
X92509974Y-73480552D01*
X92521956Y-73500543D01*
X92531921Y-73521613D01*
X92539773Y-73543557D01*
X92545437Y-73566166D01*
X92548856Y-73589221D01*
X92550000Y-73612500D01*
X92550000Y-74187500D01*
X92548856Y-74210779D01*
X92545437Y-74233834D01*
X92539773Y-74256443D01*
X92531921Y-74278387D01*
X92521956Y-74299457D01*
X92509974Y-74319448D01*
X92496090Y-74338168D01*
X92480438Y-74355438D01*
X92463168Y-74371090D01*
X92444448Y-74384974D01*
X92424457Y-74396956D01*
X92403387Y-74406921D01*
X92381443Y-74414773D01*
X92358834Y-74420437D01*
X92335779Y-74423856D01*
X92312500Y-74425000D01*
X91837500Y-74425000D01*
X91814221Y-74423856D01*
X91791166Y-74420437D01*
X91768557Y-74414773D01*
X91746613Y-74406921D01*
X91725543Y-74396956D01*
X91705552Y-74384974D01*
X91686832Y-74371090D01*
X91669562Y-74355438D01*
X91653910Y-74338168D01*
X91640026Y-74319448D01*
X91628044Y-74299457D01*
X91618079Y-74278387D01*
X91610227Y-74256443D01*
X91604563Y-74233834D01*
X91601144Y-74210779D01*
X91600000Y-74187500D01*
X91600000Y-73612500D01*
X91601144Y-73589221D01*
X91604563Y-73566166D01*
X91610227Y-73543557D01*
X91618079Y-73521613D01*
X91628044Y-73500543D01*
X91640026Y-73480552D01*
X91653910Y-73461832D01*
X91669562Y-73444562D01*
X91686832Y-73428910D01*
X91705552Y-73415026D01*
X91725543Y-73403044D01*
X91746613Y-73393079D01*
X91768557Y-73385227D01*
X91791166Y-73379563D01*
X91814221Y-73376144D01*
X91837500Y-73375000D01*
X92312500Y-73375000D01*
X92335779Y-73376144D01*
G37*
G36*
X92335779Y-71626144D02*
G01*
X92358834Y-71629563D01*
X92381443Y-71635227D01*
X92403387Y-71643079D01*
X92424457Y-71653044D01*
X92444448Y-71665026D01*
X92463168Y-71678910D01*
X92480438Y-71694562D01*
X92496090Y-71711832D01*
X92509974Y-71730552D01*
X92521956Y-71750543D01*
X92531921Y-71771613D01*
X92539773Y-71793557D01*
X92545437Y-71816166D01*
X92548856Y-71839221D01*
X92550000Y-71862500D01*
X92550000Y-72437500D01*
X92548856Y-72460779D01*
X92545437Y-72483834D01*
X92539773Y-72506443D01*
X92531921Y-72528387D01*
X92521956Y-72549457D01*
X92509974Y-72569448D01*
X92496090Y-72588168D01*
X92480438Y-72605438D01*
X92463168Y-72621090D01*
X92444448Y-72634974D01*
X92424457Y-72646956D01*
X92403387Y-72656921D01*
X92381443Y-72664773D01*
X92358834Y-72670437D01*
X92335779Y-72673856D01*
X92312500Y-72675000D01*
X91837500Y-72675000D01*
X91814221Y-72673856D01*
X91791166Y-72670437D01*
X91768557Y-72664773D01*
X91746613Y-72656921D01*
X91725543Y-72646956D01*
X91705552Y-72634974D01*
X91686832Y-72621090D01*
X91669562Y-72605438D01*
X91653910Y-72588168D01*
X91640026Y-72569448D01*
X91628044Y-72549457D01*
X91618079Y-72528387D01*
X91610227Y-72506443D01*
X91604563Y-72483834D01*
X91601144Y-72460779D01*
X91600000Y-72437500D01*
X91600000Y-71862500D01*
X91601144Y-71839221D01*
X91604563Y-71816166D01*
X91610227Y-71793557D01*
X91618079Y-71771613D01*
X91628044Y-71750543D01*
X91640026Y-71730552D01*
X91653910Y-71711832D01*
X91669562Y-71694562D01*
X91686832Y-71678910D01*
X91705552Y-71665026D01*
X91725543Y-71653044D01*
X91746613Y-71643079D01*
X91768557Y-71635227D01*
X91791166Y-71629563D01*
X91814221Y-71626144D01*
X91837500Y-71625000D01*
X92312500Y-71625000D01*
X92335779Y-71626144D01*
G37*
G36*
X129165779Y-73376144D02*
G01*
X129188834Y-73379563D01*
X129211443Y-73385227D01*
X129233387Y-73393079D01*
X129254457Y-73403044D01*
X129274448Y-73415026D01*
X129293168Y-73428910D01*
X129310438Y-73444562D01*
X129326090Y-73461832D01*
X129339974Y-73480552D01*
X129351956Y-73500543D01*
X129361921Y-73521613D01*
X129369773Y-73543557D01*
X129375437Y-73566166D01*
X129378856Y-73589221D01*
X129380000Y-73612500D01*
X129380000Y-74187500D01*
X129378856Y-74210779D01*
X129375437Y-74233834D01*
X129369773Y-74256443D01*
X129361921Y-74278387D01*
X129351956Y-74299457D01*
X129339974Y-74319448D01*
X129326090Y-74338168D01*
X129310438Y-74355438D01*
X129293168Y-74371090D01*
X129274448Y-74384974D01*
X129254457Y-74396956D01*
X129233387Y-74406921D01*
X129211443Y-74414773D01*
X129188834Y-74420437D01*
X129165779Y-74423856D01*
X129142500Y-74425000D01*
X128667500Y-74425000D01*
X128644221Y-74423856D01*
X128621166Y-74420437D01*
X128598557Y-74414773D01*
X128576613Y-74406921D01*
X128555543Y-74396956D01*
X128535552Y-74384974D01*
X128516832Y-74371090D01*
X128499562Y-74355438D01*
X128483910Y-74338168D01*
X128470026Y-74319448D01*
X128458044Y-74299457D01*
X128448079Y-74278387D01*
X128440227Y-74256443D01*
X128434563Y-74233834D01*
X128431144Y-74210779D01*
X128430000Y-74187500D01*
X128430000Y-73612500D01*
X128431144Y-73589221D01*
X128434563Y-73566166D01*
X128440227Y-73543557D01*
X128448079Y-73521613D01*
X128458044Y-73500543D01*
X128470026Y-73480552D01*
X128483910Y-73461832D01*
X128499562Y-73444562D01*
X128516832Y-73428910D01*
X128535552Y-73415026D01*
X128555543Y-73403044D01*
X128576613Y-73393079D01*
X128598557Y-73385227D01*
X128621166Y-73379563D01*
X128644221Y-73376144D01*
X128667500Y-73375000D01*
X129142500Y-73375000D01*
X129165779Y-73376144D01*
G37*
G36*
X129165779Y-71626144D02*
G01*
X129188834Y-71629563D01*
X129211443Y-71635227D01*
X129233387Y-71643079D01*
X129254457Y-71653044D01*
X129274448Y-71665026D01*
X129293168Y-71678910D01*
X129310438Y-71694562D01*
X129326090Y-71711832D01*
X129339974Y-71730552D01*
X129351956Y-71750543D01*
X129361921Y-71771613D01*
X129369773Y-71793557D01*
X129375437Y-71816166D01*
X129378856Y-71839221D01*
X129380000Y-71862500D01*
X129380000Y-72437500D01*
X129378856Y-72460779D01*
X129375437Y-72483834D01*
X129369773Y-72506443D01*
X129361921Y-72528387D01*
X129351956Y-72549457D01*
X129339974Y-72569448D01*
X129326090Y-72588168D01*
X129310438Y-72605438D01*
X129293168Y-72621090D01*
X129274448Y-72634974D01*
X129254457Y-72646956D01*
X129233387Y-72656921D01*
X129211443Y-72664773D01*
X129188834Y-72670437D01*
X129165779Y-72673856D01*
X129142500Y-72675000D01*
X128667500Y-72675000D01*
X128644221Y-72673856D01*
X128621166Y-72670437D01*
X128598557Y-72664773D01*
X128576613Y-72656921D01*
X128555543Y-72646956D01*
X128535552Y-72634974D01*
X128516832Y-72621090D01*
X128499562Y-72605438D01*
X128483910Y-72588168D01*
X128470026Y-72569448D01*
X128458044Y-72549457D01*
X128448079Y-72528387D01*
X128440227Y-72506443D01*
X128434563Y-72483834D01*
X128431144Y-72460779D01*
X128430000Y-72437500D01*
X128430000Y-71862500D01*
X128431144Y-71839221D01*
X128434563Y-71816166D01*
X128440227Y-71793557D01*
X128448079Y-71771613D01*
X128458044Y-71750543D01*
X128470026Y-71730552D01*
X128483910Y-71711832D01*
X128499562Y-71694562D01*
X128516832Y-71678910D01*
X128535552Y-71665026D01*
X128555543Y-71653044D01*
X128576613Y-71643079D01*
X128598557Y-71635227D01*
X128621166Y-71629563D01*
X128644221Y-71626144D01*
X128667500Y-71625000D01*
X129142500Y-71625000D01*
X129165779Y-71626144D01*
G37*
G36*
X129165779Y-61946144D02*
G01*
X129188834Y-61949563D01*
X129211443Y-61955227D01*
X129233387Y-61963079D01*
X129254457Y-61973044D01*
X129274448Y-61985026D01*
X129293168Y-61998910D01*
X129310438Y-62014562D01*
X129326090Y-62031832D01*
X129339974Y-62050552D01*
X129351956Y-62070543D01*
X129361921Y-62091613D01*
X129369773Y-62113557D01*
X129375437Y-62136166D01*
X129378856Y-62159221D01*
X129380000Y-62182500D01*
X129380000Y-62757500D01*
X129378856Y-62780779D01*
X129375437Y-62803834D01*
X129369773Y-62826443D01*
X129361921Y-62848387D01*
X129351956Y-62869457D01*
X129339974Y-62889448D01*
X129326090Y-62908168D01*
X129310438Y-62925438D01*
X129293168Y-62941090D01*
X129274448Y-62954974D01*
X129254457Y-62966956D01*
X129233387Y-62976921D01*
X129211443Y-62984773D01*
X129188834Y-62990437D01*
X129165779Y-62993856D01*
X129142500Y-62995000D01*
X128667500Y-62995000D01*
X128644221Y-62993856D01*
X128621166Y-62990437D01*
X128598557Y-62984773D01*
X128576613Y-62976921D01*
X128555543Y-62966956D01*
X128535552Y-62954974D01*
X128516832Y-62941090D01*
X128499562Y-62925438D01*
X128483910Y-62908168D01*
X128470026Y-62889448D01*
X128458044Y-62869457D01*
X128448079Y-62848387D01*
X128440227Y-62826443D01*
X128434563Y-62803834D01*
X128431144Y-62780779D01*
X128430000Y-62757500D01*
X128430000Y-62182500D01*
X128431144Y-62159221D01*
X128434563Y-62136166D01*
X128440227Y-62113557D01*
X128448079Y-62091613D01*
X128458044Y-62070543D01*
X128470026Y-62050552D01*
X128483910Y-62031832D01*
X128499562Y-62014562D01*
X128516832Y-61998910D01*
X128535552Y-61985026D01*
X128555543Y-61973044D01*
X128576613Y-61963079D01*
X128598557Y-61955227D01*
X128621166Y-61949563D01*
X128644221Y-61946144D01*
X128667500Y-61945000D01*
X129142500Y-61945000D01*
X129165779Y-61946144D01*
G37*
G36*
X129165779Y-60196144D02*
G01*
X129188834Y-60199563D01*
X129211443Y-60205227D01*
X129233387Y-60213079D01*
X129254457Y-60223044D01*
X129274448Y-60235026D01*
X129293168Y-60248910D01*
X129310438Y-60264562D01*
X129326090Y-60281832D01*
X129339974Y-60300552D01*
X129351956Y-60320543D01*
X129361921Y-60341613D01*
X129369773Y-60363557D01*
X129375437Y-60386166D01*
X129378856Y-60409221D01*
X129380000Y-60432500D01*
X129380000Y-61007500D01*
X129378856Y-61030779D01*
X129375437Y-61053834D01*
X129369773Y-61076443D01*
X129361921Y-61098387D01*
X129351956Y-61119457D01*
X129339974Y-61139448D01*
X129326090Y-61158168D01*
X129310438Y-61175438D01*
X129293168Y-61191090D01*
X129274448Y-61204974D01*
X129254457Y-61216956D01*
X129233387Y-61226921D01*
X129211443Y-61234773D01*
X129188834Y-61240437D01*
X129165779Y-61243856D01*
X129142500Y-61245000D01*
X128667500Y-61245000D01*
X128644221Y-61243856D01*
X128621166Y-61240437D01*
X128598557Y-61234773D01*
X128576613Y-61226921D01*
X128555543Y-61216956D01*
X128535552Y-61204974D01*
X128516832Y-61191090D01*
X128499562Y-61175438D01*
X128483910Y-61158168D01*
X128470026Y-61139448D01*
X128458044Y-61119457D01*
X128448079Y-61098387D01*
X128440227Y-61076443D01*
X128434563Y-61053834D01*
X128431144Y-61030779D01*
X128430000Y-61007500D01*
X128430000Y-60432500D01*
X128431144Y-60409221D01*
X128434563Y-60386166D01*
X128440227Y-60363557D01*
X128448079Y-60341613D01*
X128458044Y-60320543D01*
X128470026Y-60300552D01*
X128483910Y-60281832D01*
X128499562Y-60264562D01*
X128516832Y-60248910D01*
X128535552Y-60235026D01*
X128555543Y-60223044D01*
X128576613Y-60213079D01*
X128598557Y-60205227D01*
X128621166Y-60199563D01*
X128644221Y-60196144D01*
X128667500Y-60195000D01*
X129142500Y-60195000D01*
X129165779Y-60196144D01*
G37*
G36*
X162185779Y-84806144D02*
G01*
X162208834Y-84809563D01*
X162231443Y-84815227D01*
X162253387Y-84823079D01*
X162274457Y-84833044D01*
X162294448Y-84845026D01*
X162313168Y-84858910D01*
X162330438Y-84874562D01*
X162346090Y-84891832D01*
X162359974Y-84910552D01*
X162371956Y-84930543D01*
X162381921Y-84951613D01*
X162389773Y-84973557D01*
X162395437Y-84996166D01*
X162398856Y-85019221D01*
X162400000Y-85042500D01*
X162400000Y-85617500D01*
X162398856Y-85640779D01*
X162395437Y-85663834D01*
X162389773Y-85686443D01*
X162381921Y-85708387D01*
X162371956Y-85729457D01*
X162359974Y-85749448D01*
X162346090Y-85768168D01*
X162330438Y-85785438D01*
X162313168Y-85801090D01*
X162294448Y-85814974D01*
X162274457Y-85826956D01*
X162253387Y-85836921D01*
X162231443Y-85844773D01*
X162208834Y-85850437D01*
X162185779Y-85853856D01*
X162162500Y-85855000D01*
X161687500Y-85855000D01*
X161664221Y-85853856D01*
X161641166Y-85850437D01*
X161618557Y-85844773D01*
X161596613Y-85836921D01*
X161575543Y-85826956D01*
X161555552Y-85814974D01*
X161536832Y-85801090D01*
X161519562Y-85785438D01*
X161503910Y-85768168D01*
X161490026Y-85749448D01*
X161478044Y-85729457D01*
X161468079Y-85708387D01*
X161460227Y-85686443D01*
X161454563Y-85663834D01*
X161451144Y-85640779D01*
X161450000Y-85617500D01*
X161450000Y-85042500D01*
X161451144Y-85019221D01*
X161454563Y-84996166D01*
X161460227Y-84973557D01*
X161468079Y-84951613D01*
X161478044Y-84930543D01*
X161490026Y-84910552D01*
X161503910Y-84891832D01*
X161519562Y-84874562D01*
X161536832Y-84858910D01*
X161555552Y-84845026D01*
X161575543Y-84833044D01*
X161596613Y-84823079D01*
X161618557Y-84815227D01*
X161641166Y-84809563D01*
X161664221Y-84806144D01*
X161687500Y-84805000D01*
X162162500Y-84805000D01*
X162185779Y-84806144D01*
G37*
G36*
X162185779Y-83056144D02*
G01*
X162208834Y-83059563D01*
X162231443Y-83065227D01*
X162253387Y-83073079D01*
X162274457Y-83083044D01*
X162294448Y-83095026D01*
X162313168Y-83108910D01*
X162330438Y-83124562D01*
X162346090Y-83141832D01*
X162359974Y-83160552D01*
X162371956Y-83180543D01*
X162381921Y-83201613D01*
X162389773Y-83223557D01*
X162395437Y-83246166D01*
X162398856Y-83269221D01*
X162400000Y-83292500D01*
X162400000Y-83867500D01*
X162398856Y-83890779D01*
X162395437Y-83913834D01*
X162389773Y-83936443D01*
X162381921Y-83958387D01*
X162371956Y-83979457D01*
X162359974Y-83999448D01*
X162346090Y-84018168D01*
X162330438Y-84035438D01*
X162313168Y-84051090D01*
X162294448Y-84064974D01*
X162274457Y-84076956D01*
X162253387Y-84086921D01*
X162231443Y-84094773D01*
X162208834Y-84100437D01*
X162185779Y-84103856D01*
X162162500Y-84105000D01*
X161687500Y-84105000D01*
X161664221Y-84103856D01*
X161641166Y-84100437D01*
X161618557Y-84094773D01*
X161596613Y-84086921D01*
X161575543Y-84076956D01*
X161555552Y-84064974D01*
X161536832Y-84051090D01*
X161519562Y-84035438D01*
X161503910Y-84018168D01*
X161490026Y-83999448D01*
X161478044Y-83979457D01*
X161468079Y-83958387D01*
X161460227Y-83936443D01*
X161454563Y-83913834D01*
X161451144Y-83890779D01*
X161450000Y-83867500D01*
X161450000Y-83292500D01*
X161451144Y-83269221D01*
X161454563Y-83246166D01*
X161460227Y-83223557D01*
X161468079Y-83201613D01*
X161478044Y-83180543D01*
X161490026Y-83160552D01*
X161503910Y-83141832D01*
X161519562Y-83124562D01*
X161536832Y-83108910D01*
X161555552Y-83095026D01*
X161575543Y-83083044D01*
X161596613Y-83073079D01*
X161618557Y-83065227D01*
X161641166Y-83059563D01*
X161664221Y-83056144D01*
X161687500Y-83055000D01*
X162162500Y-83055000D01*
X162185779Y-83056144D01*
G37*
G36*
X88525779Y-73376144D02*
G01*
X88548834Y-73379563D01*
X88571443Y-73385227D01*
X88593387Y-73393079D01*
X88614457Y-73403044D01*
X88634448Y-73415026D01*
X88653168Y-73428910D01*
X88670438Y-73444562D01*
X88686090Y-73461832D01*
X88699974Y-73480552D01*
X88711956Y-73500543D01*
X88721921Y-73521613D01*
X88729773Y-73543557D01*
X88735437Y-73566166D01*
X88738856Y-73589221D01*
X88740000Y-73612500D01*
X88740000Y-74187500D01*
X88738856Y-74210779D01*
X88735437Y-74233834D01*
X88729773Y-74256443D01*
X88721921Y-74278387D01*
X88711956Y-74299457D01*
X88699974Y-74319448D01*
X88686090Y-74338168D01*
X88670438Y-74355438D01*
X88653168Y-74371090D01*
X88634448Y-74384974D01*
X88614457Y-74396956D01*
X88593387Y-74406921D01*
X88571443Y-74414773D01*
X88548834Y-74420437D01*
X88525779Y-74423856D01*
X88502500Y-74425000D01*
X88027500Y-74425000D01*
X88004221Y-74423856D01*
X87981166Y-74420437D01*
X87958557Y-74414773D01*
X87936613Y-74406921D01*
X87915543Y-74396956D01*
X87895552Y-74384974D01*
X87876832Y-74371090D01*
X87859562Y-74355438D01*
X87843910Y-74338168D01*
X87830026Y-74319448D01*
X87818044Y-74299457D01*
X87808079Y-74278387D01*
X87800227Y-74256443D01*
X87794563Y-74233834D01*
X87791144Y-74210779D01*
X87790000Y-74187500D01*
X87790000Y-73612500D01*
X87791144Y-73589221D01*
X87794563Y-73566166D01*
X87800227Y-73543557D01*
X87808079Y-73521613D01*
X87818044Y-73500543D01*
X87830026Y-73480552D01*
X87843910Y-73461832D01*
X87859562Y-73444562D01*
X87876832Y-73428910D01*
X87895552Y-73415026D01*
X87915543Y-73403044D01*
X87936613Y-73393079D01*
X87958557Y-73385227D01*
X87981166Y-73379563D01*
X88004221Y-73376144D01*
X88027500Y-73375000D01*
X88502500Y-73375000D01*
X88525779Y-73376144D01*
G37*
G36*
X88525779Y-71626144D02*
G01*
X88548834Y-71629563D01*
X88571443Y-71635227D01*
X88593387Y-71643079D01*
X88614457Y-71653044D01*
X88634448Y-71665026D01*
X88653168Y-71678910D01*
X88670438Y-71694562D01*
X88686090Y-71711832D01*
X88699974Y-71730552D01*
X88711956Y-71750543D01*
X88721921Y-71771613D01*
X88729773Y-71793557D01*
X88735437Y-71816166D01*
X88738856Y-71839221D01*
X88740000Y-71862500D01*
X88740000Y-72437500D01*
X88738856Y-72460779D01*
X88735437Y-72483834D01*
X88729773Y-72506443D01*
X88721921Y-72528387D01*
X88711956Y-72549457D01*
X88699974Y-72569448D01*
X88686090Y-72588168D01*
X88670438Y-72605438D01*
X88653168Y-72621090D01*
X88634448Y-72634974D01*
X88614457Y-72646956D01*
X88593387Y-72656921D01*
X88571443Y-72664773D01*
X88548834Y-72670437D01*
X88525779Y-72673856D01*
X88502500Y-72675000D01*
X88027500Y-72675000D01*
X88004221Y-72673856D01*
X87981166Y-72670437D01*
X87958557Y-72664773D01*
X87936613Y-72656921D01*
X87915543Y-72646956D01*
X87895552Y-72634974D01*
X87876832Y-72621090D01*
X87859562Y-72605438D01*
X87843910Y-72588168D01*
X87830026Y-72569448D01*
X87818044Y-72549457D01*
X87808079Y-72528387D01*
X87800227Y-72506443D01*
X87794563Y-72483834D01*
X87791144Y-72460779D01*
X87790000Y-72437500D01*
X87790000Y-71862500D01*
X87791144Y-71839221D01*
X87794563Y-71816166D01*
X87800227Y-71793557D01*
X87808079Y-71771613D01*
X87818044Y-71750543D01*
X87830026Y-71730552D01*
X87843910Y-71711832D01*
X87859562Y-71694562D01*
X87876832Y-71678910D01*
X87895552Y-71665026D01*
X87915543Y-71653044D01*
X87936613Y-71643079D01*
X87958557Y-71635227D01*
X87981166Y-71629563D01*
X88004221Y-71626144D01*
X88027500Y-71625000D01*
X88502500Y-71625000D01*
X88525779Y-71626144D01*
G37*
G36*
X157105779Y-79726144D02*
G01*
X157128834Y-79729563D01*
X157151443Y-79735227D01*
X157173387Y-79743079D01*
X157194457Y-79753044D01*
X157214448Y-79765026D01*
X157233168Y-79778910D01*
X157250438Y-79794562D01*
X157266090Y-79811832D01*
X157279974Y-79830552D01*
X157291956Y-79850543D01*
X157301921Y-79871613D01*
X157309773Y-79893557D01*
X157315437Y-79916166D01*
X157318856Y-79939221D01*
X157320000Y-79962500D01*
X157320000Y-80537500D01*
X157318856Y-80560779D01*
X157315437Y-80583834D01*
X157309773Y-80606443D01*
X157301921Y-80628387D01*
X157291956Y-80649457D01*
X157279974Y-80669448D01*
X157266090Y-80688168D01*
X157250438Y-80705438D01*
X157233168Y-80721090D01*
X157214448Y-80734974D01*
X157194457Y-80746956D01*
X157173387Y-80756921D01*
X157151443Y-80764773D01*
X157128834Y-80770437D01*
X157105779Y-80773856D01*
X157082500Y-80775000D01*
X156607500Y-80775000D01*
X156584221Y-80773856D01*
X156561166Y-80770437D01*
X156538557Y-80764773D01*
X156516613Y-80756921D01*
X156495543Y-80746956D01*
X156475552Y-80734974D01*
X156456832Y-80721090D01*
X156439562Y-80705438D01*
X156423910Y-80688168D01*
X156410026Y-80669448D01*
X156398044Y-80649457D01*
X156388079Y-80628387D01*
X156380227Y-80606443D01*
X156374563Y-80583834D01*
X156371144Y-80560779D01*
X156370000Y-80537500D01*
X156370000Y-79962500D01*
X156371144Y-79939221D01*
X156374563Y-79916166D01*
X156380227Y-79893557D01*
X156388079Y-79871613D01*
X156398044Y-79850543D01*
X156410026Y-79830552D01*
X156423910Y-79811832D01*
X156439562Y-79794562D01*
X156456832Y-79778910D01*
X156475552Y-79765026D01*
X156495543Y-79753044D01*
X156516613Y-79743079D01*
X156538557Y-79735227D01*
X156561166Y-79729563D01*
X156584221Y-79726144D01*
X156607500Y-79725000D01*
X157082500Y-79725000D01*
X157105779Y-79726144D01*
G37*
G36*
X157105779Y-77976144D02*
G01*
X157128834Y-77979563D01*
X157151443Y-77985227D01*
X157173387Y-77993079D01*
X157194457Y-78003044D01*
X157214448Y-78015026D01*
X157233168Y-78028910D01*
X157250438Y-78044562D01*
X157266090Y-78061832D01*
X157279974Y-78080552D01*
X157291956Y-78100543D01*
X157301921Y-78121613D01*
X157309773Y-78143557D01*
X157315437Y-78166166D01*
X157318856Y-78189221D01*
X157320000Y-78212500D01*
X157320000Y-78787500D01*
X157318856Y-78810779D01*
X157315437Y-78833834D01*
X157309773Y-78856443D01*
X157301921Y-78878387D01*
X157291956Y-78899457D01*
X157279974Y-78919448D01*
X157266090Y-78938168D01*
X157250438Y-78955438D01*
X157233168Y-78971090D01*
X157214448Y-78984974D01*
X157194457Y-78996956D01*
X157173387Y-79006921D01*
X157151443Y-79014773D01*
X157128834Y-79020437D01*
X157105779Y-79023856D01*
X157082500Y-79025000D01*
X156607500Y-79025000D01*
X156584221Y-79023856D01*
X156561166Y-79020437D01*
X156538557Y-79014773D01*
X156516613Y-79006921D01*
X156495543Y-78996956D01*
X156475552Y-78984974D01*
X156456832Y-78971090D01*
X156439562Y-78955438D01*
X156423910Y-78938168D01*
X156410026Y-78919448D01*
X156398044Y-78899457D01*
X156388079Y-78878387D01*
X156380227Y-78856443D01*
X156374563Y-78833834D01*
X156371144Y-78810779D01*
X156370000Y-78787500D01*
X156370000Y-78212500D01*
X156371144Y-78189221D01*
X156374563Y-78166166D01*
X156380227Y-78143557D01*
X156388079Y-78121613D01*
X156398044Y-78100543D01*
X156410026Y-78080552D01*
X156423910Y-78061832D01*
X156439562Y-78044562D01*
X156456832Y-78028910D01*
X156475552Y-78015026D01*
X156495543Y-78003044D01*
X156516613Y-77993079D01*
X156538557Y-77985227D01*
X156561166Y-77979563D01*
X156584221Y-77976144D01*
X156607500Y-77975000D01*
X157082500Y-77975000D01*
X157105779Y-77976144D01*
G37*
G36*
X101225779Y-68296144D02*
G01*
X101248834Y-68299563D01*
X101271443Y-68305227D01*
X101293387Y-68313079D01*
X101314457Y-68323044D01*
X101334448Y-68335026D01*
X101353168Y-68348910D01*
X101370438Y-68364562D01*
X101386090Y-68381832D01*
X101399974Y-68400552D01*
X101411956Y-68420543D01*
X101421921Y-68441613D01*
X101429773Y-68463557D01*
X101435437Y-68486166D01*
X101438856Y-68509221D01*
X101440000Y-68532500D01*
X101440000Y-69107500D01*
X101438856Y-69130779D01*
X101435437Y-69153834D01*
X101429773Y-69176443D01*
X101421921Y-69198387D01*
X101411956Y-69219457D01*
X101399974Y-69239448D01*
X101386090Y-69258168D01*
X101370438Y-69275438D01*
X101353168Y-69291090D01*
X101334448Y-69304974D01*
X101314457Y-69316956D01*
X101293387Y-69326921D01*
X101271443Y-69334773D01*
X101248834Y-69340437D01*
X101225779Y-69343856D01*
X101202500Y-69345000D01*
X100727500Y-69345000D01*
X100704221Y-69343856D01*
X100681166Y-69340437D01*
X100658557Y-69334773D01*
X100636613Y-69326921D01*
X100615543Y-69316956D01*
X100595552Y-69304974D01*
X100576832Y-69291090D01*
X100559562Y-69275438D01*
X100543910Y-69258168D01*
X100530026Y-69239448D01*
X100518044Y-69219457D01*
X100508079Y-69198387D01*
X100500227Y-69176443D01*
X100494563Y-69153834D01*
X100491144Y-69130779D01*
X100490000Y-69107500D01*
X100490000Y-68532500D01*
X100491144Y-68509221D01*
X100494563Y-68486166D01*
X100500227Y-68463557D01*
X100508079Y-68441613D01*
X100518044Y-68420543D01*
X100530026Y-68400552D01*
X100543910Y-68381832D01*
X100559562Y-68364562D01*
X100576832Y-68348910D01*
X100595552Y-68335026D01*
X100615543Y-68323044D01*
X100636613Y-68313079D01*
X100658557Y-68305227D01*
X100681166Y-68299563D01*
X100704221Y-68296144D01*
X100727500Y-68295000D01*
X101202500Y-68295000D01*
X101225779Y-68296144D01*
G37*
G36*
X101225779Y-66546144D02*
G01*
X101248834Y-66549563D01*
X101271443Y-66555227D01*
X101293387Y-66563079D01*
X101314457Y-66573044D01*
X101334448Y-66585026D01*
X101353168Y-66598910D01*
X101370438Y-66614562D01*
X101386090Y-66631832D01*
X101399974Y-66650552D01*
X101411956Y-66670543D01*
X101421921Y-66691613D01*
X101429773Y-66713557D01*
X101435437Y-66736166D01*
X101438856Y-66759221D01*
X101440000Y-66782500D01*
X101440000Y-67357500D01*
X101438856Y-67380779D01*
X101435437Y-67403834D01*
X101429773Y-67426443D01*
X101421921Y-67448387D01*
X101411956Y-67469457D01*
X101399974Y-67489448D01*
X101386090Y-67508168D01*
X101370438Y-67525438D01*
X101353168Y-67541090D01*
X101334448Y-67554974D01*
X101314457Y-67566956D01*
X101293387Y-67576921D01*
X101271443Y-67584773D01*
X101248834Y-67590437D01*
X101225779Y-67593856D01*
X101202500Y-67595000D01*
X100727500Y-67595000D01*
X100704221Y-67593856D01*
X100681166Y-67590437D01*
X100658557Y-67584773D01*
X100636613Y-67576921D01*
X100615543Y-67566956D01*
X100595552Y-67554974D01*
X100576832Y-67541090D01*
X100559562Y-67525438D01*
X100543910Y-67508168D01*
X100530026Y-67489448D01*
X100518044Y-67469457D01*
X100508079Y-67448387D01*
X100500227Y-67426443D01*
X100494563Y-67403834D01*
X100491144Y-67380779D01*
X100490000Y-67357500D01*
X100490000Y-66782500D01*
X100491144Y-66759221D01*
X100494563Y-66736166D01*
X100500227Y-66713557D01*
X100508079Y-66691613D01*
X100518044Y-66670543D01*
X100530026Y-66650552D01*
X100543910Y-66631832D01*
X100559562Y-66614562D01*
X100576832Y-66598910D01*
X100595552Y-66585026D01*
X100615543Y-66573044D01*
X100636613Y-66563079D01*
X100658557Y-66555227D01*
X100681166Y-66549563D01*
X100704221Y-66546144D01*
X100727500Y-66545000D01*
X101202500Y-66545000D01*
X101225779Y-66546144D01*
G37*
G36*
X121545779Y-73376144D02*
G01*
X121568834Y-73379563D01*
X121591443Y-73385227D01*
X121613387Y-73393079D01*
X121634457Y-73403044D01*
X121654448Y-73415026D01*
X121673168Y-73428910D01*
X121690438Y-73444562D01*
X121706090Y-73461832D01*
X121719974Y-73480552D01*
X121731956Y-73500543D01*
X121741921Y-73521613D01*
X121749773Y-73543557D01*
X121755437Y-73566166D01*
X121758856Y-73589221D01*
X121760000Y-73612500D01*
X121760000Y-74187500D01*
X121758856Y-74210779D01*
X121755437Y-74233834D01*
X121749773Y-74256443D01*
X121741921Y-74278387D01*
X121731956Y-74299457D01*
X121719974Y-74319448D01*
X121706090Y-74338168D01*
X121690438Y-74355438D01*
X121673168Y-74371090D01*
X121654448Y-74384974D01*
X121634457Y-74396956D01*
X121613387Y-74406921D01*
X121591443Y-74414773D01*
X121568834Y-74420437D01*
X121545779Y-74423856D01*
X121522500Y-74425000D01*
X121047500Y-74425000D01*
X121024221Y-74423856D01*
X121001166Y-74420437D01*
X120978557Y-74414773D01*
X120956613Y-74406921D01*
X120935543Y-74396956D01*
X120915552Y-74384974D01*
X120896832Y-74371090D01*
X120879562Y-74355438D01*
X120863910Y-74338168D01*
X120850026Y-74319448D01*
X120838044Y-74299457D01*
X120828079Y-74278387D01*
X120820227Y-74256443D01*
X120814563Y-74233834D01*
X120811144Y-74210779D01*
X120810000Y-74187500D01*
X120810000Y-73612500D01*
X120811144Y-73589221D01*
X120814563Y-73566166D01*
X120820227Y-73543557D01*
X120828079Y-73521613D01*
X120838044Y-73500543D01*
X120850026Y-73480552D01*
X120863910Y-73461832D01*
X120879562Y-73444562D01*
X120896832Y-73428910D01*
X120915552Y-73415026D01*
X120935543Y-73403044D01*
X120956613Y-73393079D01*
X120978557Y-73385227D01*
X121001166Y-73379563D01*
X121024221Y-73376144D01*
X121047500Y-73375000D01*
X121522500Y-73375000D01*
X121545779Y-73376144D01*
G37*
G36*
X121545779Y-71626144D02*
G01*
X121568834Y-71629563D01*
X121591443Y-71635227D01*
X121613387Y-71643079D01*
X121634457Y-71653044D01*
X121654448Y-71665026D01*
X121673168Y-71678910D01*
X121690438Y-71694562D01*
X121706090Y-71711832D01*
X121719974Y-71730552D01*
X121731956Y-71750543D01*
X121741921Y-71771613D01*
X121749773Y-71793557D01*
X121755437Y-71816166D01*
X121758856Y-71839221D01*
X121760000Y-71862500D01*
X121760000Y-72437500D01*
X121758856Y-72460779D01*
X121755437Y-72483834D01*
X121749773Y-72506443D01*
X121741921Y-72528387D01*
X121731956Y-72549457D01*
X121719974Y-72569448D01*
X121706090Y-72588168D01*
X121690438Y-72605438D01*
X121673168Y-72621090D01*
X121654448Y-72634974D01*
X121634457Y-72646956D01*
X121613387Y-72656921D01*
X121591443Y-72664773D01*
X121568834Y-72670437D01*
X121545779Y-72673856D01*
X121522500Y-72675000D01*
X121047500Y-72675000D01*
X121024221Y-72673856D01*
X121001166Y-72670437D01*
X120978557Y-72664773D01*
X120956613Y-72656921D01*
X120935543Y-72646956D01*
X120915552Y-72634974D01*
X120896832Y-72621090D01*
X120879562Y-72605438D01*
X120863910Y-72588168D01*
X120850026Y-72569448D01*
X120838044Y-72549457D01*
X120828079Y-72528387D01*
X120820227Y-72506443D01*
X120814563Y-72483834D01*
X120811144Y-72460779D01*
X120810000Y-72437500D01*
X120810000Y-71862500D01*
X120811144Y-71839221D01*
X120814563Y-71816166D01*
X120820227Y-71793557D01*
X120828079Y-71771613D01*
X120838044Y-71750543D01*
X120850026Y-71730552D01*
X120863910Y-71711832D01*
X120879562Y-71694562D01*
X120896832Y-71678910D01*
X120915552Y-71665026D01*
X120935543Y-71653044D01*
X120956613Y-71643079D01*
X120978557Y-71635227D01*
X121001166Y-71629563D01*
X121024221Y-71626144D01*
X121047500Y-71625000D01*
X121522500Y-71625000D01*
X121545779Y-71626144D01*
G37*
G36*
X121545779Y-61946144D02*
G01*
X121568834Y-61949563D01*
X121591443Y-61955227D01*
X121613387Y-61963079D01*
X121634457Y-61973044D01*
X121654448Y-61985026D01*
X121673168Y-61998910D01*
X121690438Y-62014562D01*
X121706090Y-62031832D01*
X121719974Y-62050552D01*
X121731956Y-62070543D01*
X121741921Y-62091613D01*
X121749773Y-62113557D01*
X121755437Y-62136166D01*
X121758856Y-62159221D01*
X121760000Y-62182500D01*
X121760000Y-62757500D01*
X121758856Y-62780779D01*
X121755437Y-62803834D01*
X121749773Y-62826443D01*
X121741921Y-62848387D01*
X121731956Y-62869457D01*
X121719974Y-62889448D01*
X121706090Y-62908168D01*
X121690438Y-62925438D01*
X121673168Y-62941090D01*
X121654448Y-62954974D01*
X121634457Y-62966956D01*
X121613387Y-62976921D01*
X121591443Y-62984773D01*
X121568834Y-62990437D01*
X121545779Y-62993856D01*
X121522500Y-62995000D01*
X121047500Y-62995000D01*
X121024221Y-62993856D01*
X121001166Y-62990437D01*
X120978557Y-62984773D01*
X120956613Y-62976921D01*
X120935543Y-62966956D01*
X120915552Y-62954974D01*
X120896832Y-62941090D01*
X120879562Y-62925438D01*
X120863910Y-62908168D01*
X120850026Y-62889448D01*
X120838044Y-62869457D01*
X120828079Y-62848387D01*
X120820227Y-62826443D01*
X120814563Y-62803834D01*
X120811144Y-62780779D01*
X120810000Y-62757500D01*
X120810000Y-62182500D01*
X120811144Y-62159221D01*
X120814563Y-62136166D01*
X120820227Y-62113557D01*
X120828079Y-62091613D01*
X120838044Y-62070543D01*
X120850026Y-62050552D01*
X120863910Y-62031832D01*
X120879562Y-62014562D01*
X120896832Y-61998910D01*
X120915552Y-61985026D01*
X120935543Y-61973044D01*
X120956613Y-61963079D01*
X120978557Y-61955227D01*
X121001166Y-61949563D01*
X121024221Y-61946144D01*
X121047500Y-61945000D01*
X121522500Y-61945000D01*
X121545779Y-61946144D01*
G37*
G36*
X121545779Y-60196144D02*
G01*
X121568834Y-60199563D01*
X121591443Y-60205227D01*
X121613387Y-60213079D01*
X121634457Y-60223044D01*
X121654448Y-60235026D01*
X121673168Y-60248910D01*
X121690438Y-60264562D01*
X121706090Y-60281832D01*
X121719974Y-60300552D01*
X121731956Y-60320543D01*
X121741921Y-60341613D01*
X121749773Y-60363557D01*
X121755437Y-60386166D01*
X121758856Y-60409221D01*
X121760000Y-60432500D01*
X121760000Y-61007500D01*
X121758856Y-61030779D01*
X121755437Y-61053834D01*
X121749773Y-61076443D01*
X121741921Y-61098387D01*
X121731956Y-61119457D01*
X121719974Y-61139448D01*
X121706090Y-61158168D01*
X121690438Y-61175438D01*
X121673168Y-61191090D01*
X121654448Y-61204974D01*
X121634457Y-61216956D01*
X121613387Y-61226921D01*
X121591443Y-61234773D01*
X121568834Y-61240437D01*
X121545779Y-61243856D01*
X121522500Y-61245000D01*
X121047500Y-61245000D01*
X121024221Y-61243856D01*
X121001166Y-61240437D01*
X120978557Y-61234773D01*
X120956613Y-61226921D01*
X120935543Y-61216956D01*
X120915552Y-61204974D01*
X120896832Y-61191090D01*
X120879562Y-61175438D01*
X120863910Y-61158168D01*
X120850026Y-61139448D01*
X120838044Y-61119457D01*
X120828079Y-61098387D01*
X120820227Y-61076443D01*
X120814563Y-61053834D01*
X120811144Y-61030779D01*
X120810000Y-61007500D01*
X120810000Y-60432500D01*
X120811144Y-60409221D01*
X120814563Y-60386166D01*
X120820227Y-60363557D01*
X120828079Y-60341613D01*
X120838044Y-60320543D01*
X120850026Y-60300552D01*
X120863910Y-60281832D01*
X120879562Y-60264562D01*
X120896832Y-60248910D01*
X120915552Y-60235026D01*
X120935543Y-60223044D01*
X120956613Y-60213079D01*
X120978557Y-60205227D01*
X121001166Y-60199563D01*
X121024221Y-60196144D01*
X121047500Y-60195000D01*
X121522500Y-60195000D01*
X121545779Y-60196144D01*
G37*
G36*
X153295779Y-79726144D02*
G01*
X153318834Y-79729563D01*
X153341443Y-79735227D01*
X153363387Y-79743079D01*
X153384457Y-79753044D01*
X153404448Y-79765026D01*
X153423168Y-79778910D01*
X153440438Y-79794562D01*
X153456090Y-79811832D01*
X153469974Y-79830552D01*
X153481956Y-79850543D01*
X153491921Y-79871613D01*
X153499773Y-79893557D01*
X153505437Y-79916166D01*
X153508856Y-79939221D01*
X153510000Y-79962500D01*
X153510000Y-80537500D01*
X153508856Y-80560779D01*
X153505437Y-80583834D01*
X153499773Y-80606443D01*
X153491921Y-80628387D01*
X153481956Y-80649457D01*
X153469974Y-80669448D01*
X153456090Y-80688168D01*
X153440438Y-80705438D01*
X153423168Y-80721090D01*
X153404448Y-80734974D01*
X153384457Y-80746956D01*
X153363387Y-80756921D01*
X153341443Y-80764773D01*
X153318834Y-80770437D01*
X153295779Y-80773856D01*
X153272500Y-80775000D01*
X152797500Y-80775000D01*
X152774221Y-80773856D01*
X152751166Y-80770437D01*
X152728557Y-80764773D01*
X152706613Y-80756921D01*
X152685543Y-80746956D01*
X152665552Y-80734974D01*
X152646832Y-80721090D01*
X152629562Y-80705438D01*
X152613910Y-80688168D01*
X152600026Y-80669448D01*
X152588044Y-80649457D01*
X152578079Y-80628387D01*
X152570227Y-80606443D01*
X152564563Y-80583834D01*
X152561144Y-80560779D01*
X152560000Y-80537500D01*
X152560000Y-79962500D01*
X152561144Y-79939221D01*
X152564563Y-79916166D01*
X152570227Y-79893557D01*
X152578079Y-79871613D01*
X152588044Y-79850543D01*
X152600026Y-79830552D01*
X152613910Y-79811832D01*
X152629562Y-79794562D01*
X152646832Y-79778910D01*
X152665552Y-79765026D01*
X152685543Y-79753044D01*
X152706613Y-79743079D01*
X152728557Y-79735227D01*
X152751166Y-79729563D01*
X152774221Y-79726144D01*
X152797500Y-79725000D01*
X153272500Y-79725000D01*
X153295779Y-79726144D01*
G37*
G36*
X153295779Y-77976144D02*
G01*
X153318834Y-77979563D01*
X153341443Y-77985227D01*
X153363387Y-77993079D01*
X153384457Y-78003044D01*
X153404448Y-78015026D01*
X153423168Y-78028910D01*
X153440438Y-78044562D01*
X153456090Y-78061832D01*
X153469974Y-78080552D01*
X153481956Y-78100543D01*
X153491921Y-78121613D01*
X153499773Y-78143557D01*
X153505437Y-78166166D01*
X153508856Y-78189221D01*
X153510000Y-78212500D01*
X153510000Y-78787500D01*
X153508856Y-78810779D01*
X153505437Y-78833834D01*
X153499773Y-78856443D01*
X153491921Y-78878387D01*
X153481956Y-78899457D01*
X153469974Y-78919448D01*
X153456090Y-78938168D01*
X153440438Y-78955438D01*
X153423168Y-78971090D01*
X153404448Y-78984974D01*
X153384457Y-78996956D01*
X153363387Y-79006921D01*
X153341443Y-79014773D01*
X153318834Y-79020437D01*
X153295779Y-79023856D01*
X153272500Y-79025000D01*
X152797500Y-79025000D01*
X152774221Y-79023856D01*
X152751166Y-79020437D01*
X152728557Y-79014773D01*
X152706613Y-79006921D01*
X152685543Y-78996956D01*
X152665552Y-78984974D01*
X152646832Y-78971090D01*
X152629562Y-78955438D01*
X152613910Y-78938168D01*
X152600026Y-78919448D01*
X152588044Y-78899457D01*
X152578079Y-78878387D01*
X152570227Y-78856443D01*
X152564563Y-78833834D01*
X152561144Y-78810779D01*
X152560000Y-78787500D01*
X152560000Y-78212500D01*
X152561144Y-78189221D01*
X152564563Y-78166166D01*
X152570227Y-78143557D01*
X152578079Y-78121613D01*
X152588044Y-78100543D01*
X152600026Y-78080552D01*
X152613910Y-78061832D01*
X152629562Y-78044562D01*
X152646832Y-78028910D01*
X152665552Y-78015026D01*
X152685543Y-78003044D01*
X152706613Y-77993079D01*
X152728557Y-77985227D01*
X152751166Y-77979563D01*
X152774221Y-77976144D01*
X152797500Y-77975000D01*
X153272500Y-77975000D01*
X153295779Y-77976144D01*
G37*
G36*
X97415779Y-68296144D02*
G01*
X97438834Y-68299563D01*
X97461443Y-68305227D01*
X97483387Y-68313079D01*
X97504457Y-68323044D01*
X97524448Y-68335026D01*
X97543168Y-68348910D01*
X97560438Y-68364562D01*
X97576090Y-68381832D01*
X97589974Y-68400552D01*
X97601956Y-68420543D01*
X97611921Y-68441613D01*
X97619773Y-68463557D01*
X97625437Y-68486166D01*
X97628856Y-68509221D01*
X97630000Y-68532500D01*
X97630000Y-69107500D01*
X97628856Y-69130779D01*
X97625437Y-69153834D01*
X97619773Y-69176443D01*
X97611921Y-69198387D01*
X97601956Y-69219457D01*
X97589974Y-69239448D01*
X97576090Y-69258168D01*
X97560438Y-69275438D01*
X97543168Y-69291090D01*
X97524448Y-69304974D01*
X97504457Y-69316956D01*
X97483387Y-69326921D01*
X97461443Y-69334773D01*
X97438834Y-69340437D01*
X97415779Y-69343856D01*
X97392500Y-69345000D01*
X96917500Y-69345000D01*
X96894221Y-69343856D01*
X96871166Y-69340437D01*
X96848557Y-69334773D01*
X96826613Y-69326921D01*
X96805543Y-69316956D01*
X96785552Y-69304974D01*
X96766832Y-69291090D01*
X96749562Y-69275438D01*
X96733910Y-69258168D01*
X96720026Y-69239448D01*
X96708044Y-69219457D01*
X96698079Y-69198387D01*
X96690227Y-69176443D01*
X96684563Y-69153834D01*
X96681144Y-69130779D01*
X96680000Y-69107500D01*
X96680000Y-68532500D01*
X96681144Y-68509221D01*
X96684563Y-68486166D01*
X96690227Y-68463557D01*
X96698079Y-68441613D01*
X96708044Y-68420543D01*
X96720026Y-68400552D01*
X96733910Y-68381832D01*
X96749562Y-68364562D01*
X96766832Y-68348910D01*
X96785552Y-68335026D01*
X96805543Y-68323044D01*
X96826613Y-68313079D01*
X96848557Y-68305227D01*
X96871166Y-68299563D01*
X96894221Y-68296144D01*
X96917500Y-68295000D01*
X97392500Y-68295000D01*
X97415779Y-68296144D01*
G37*
G36*
X97415779Y-66546144D02*
G01*
X97438834Y-66549563D01*
X97461443Y-66555227D01*
X97483387Y-66563079D01*
X97504457Y-66573044D01*
X97524448Y-66585026D01*
X97543168Y-66598910D01*
X97560438Y-66614562D01*
X97576090Y-66631832D01*
X97589974Y-66650552D01*
X97601956Y-66670543D01*
X97611921Y-66691613D01*
X97619773Y-66713557D01*
X97625437Y-66736166D01*
X97628856Y-66759221D01*
X97630000Y-66782500D01*
X97630000Y-67357500D01*
X97628856Y-67380779D01*
X97625437Y-67403834D01*
X97619773Y-67426443D01*
X97611921Y-67448387D01*
X97601956Y-67469457D01*
X97589974Y-67489448D01*
X97576090Y-67508168D01*
X97560438Y-67525438D01*
X97543168Y-67541090D01*
X97524448Y-67554974D01*
X97504457Y-67566956D01*
X97483387Y-67576921D01*
X97461443Y-67584773D01*
X97438834Y-67590437D01*
X97415779Y-67593856D01*
X97392500Y-67595000D01*
X96917500Y-67595000D01*
X96894221Y-67593856D01*
X96871166Y-67590437D01*
X96848557Y-67584773D01*
X96826613Y-67576921D01*
X96805543Y-67566956D01*
X96785552Y-67554974D01*
X96766832Y-67541090D01*
X96749562Y-67525438D01*
X96733910Y-67508168D01*
X96720026Y-67489448D01*
X96708044Y-67469457D01*
X96698079Y-67448387D01*
X96690227Y-67426443D01*
X96684563Y-67403834D01*
X96681144Y-67380779D01*
X96680000Y-67357500D01*
X96680000Y-66782500D01*
X96681144Y-66759221D01*
X96684563Y-66736166D01*
X96690227Y-66713557D01*
X96698079Y-66691613D01*
X96708044Y-66670543D01*
X96720026Y-66650552D01*
X96733910Y-66631832D01*
X96749562Y-66614562D01*
X96766832Y-66598910D01*
X96785552Y-66585026D01*
X96805543Y-66573044D01*
X96826613Y-66563079D01*
X96848557Y-66555227D01*
X96871166Y-66549563D01*
X96894221Y-66546144D01*
X96917500Y-66545000D01*
X97392500Y-66545000D01*
X97415779Y-66546144D01*
G37*
G36*
X101225779Y-79726144D02*
G01*
X101248834Y-79729563D01*
X101271443Y-79735227D01*
X101293387Y-79743079D01*
X101314457Y-79753044D01*
X101334448Y-79765026D01*
X101353168Y-79778910D01*
X101370438Y-79794562D01*
X101386090Y-79811832D01*
X101399974Y-79830552D01*
X101411956Y-79850543D01*
X101421921Y-79871613D01*
X101429773Y-79893557D01*
X101435437Y-79916166D01*
X101438856Y-79939221D01*
X101440000Y-79962500D01*
X101440000Y-80537500D01*
X101438856Y-80560779D01*
X101435437Y-80583834D01*
X101429773Y-80606443D01*
X101421921Y-80628387D01*
X101411956Y-80649457D01*
X101399974Y-80669448D01*
X101386090Y-80688168D01*
X101370438Y-80705438D01*
X101353168Y-80721090D01*
X101334448Y-80734974D01*
X101314457Y-80746956D01*
X101293387Y-80756921D01*
X101271443Y-80764773D01*
X101248834Y-80770437D01*
X101225779Y-80773856D01*
X101202500Y-80775000D01*
X100727500Y-80775000D01*
X100704221Y-80773856D01*
X100681166Y-80770437D01*
X100658557Y-80764773D01*
X100636613Y-80756921D01*
X100615543Y-80746956D01*
X100595552Y-80734974D01*
X100576832Y-80721090D01*
X100559562Y-80705438D01*
X100543910Y-80688168D01*
X100530026Y-80669448D01*
X100518044Y-80649457D01*
X100508079Y-80628387D01*
X100500227Y-80606443D01*
X100494563Y-80583834D01*
X100491144Y-80560779D01*
X100490000Y-80537500D01*
X100490000Y-79962500D01*
X100491144Y-79939221D01*
X100494563Y-79916166D01*
X100500227Y-79893557D01*
X100508079Y-79871613D01*
X100518044Y-79850543D01*
X100530026Y-79830552D01*
X100543910Y-79811832D01*
X100559562Y-79794562D01*
X100576832Y-79778910D01*
X100595552Y-79765026D01*
X100615543Y-79753044D01*
X100636613Y-79743079D01*
X100658557Y-79735227D01*
X100681166Y-79729563D01*
X100704221Y-79726144D01*
X100727500Y-79725000D01*
X101202500Y-79725000D01*
X101225779Y-79726144D01*
G37*
G36*
X101225779Y-77976144D02*
G01*
X101248834Y-77979563D01*
X101271443Y-77985227D01*
X101293387Y-77993079D01*
X101314457Y-78003044D01*
X101334448Y-78015026D01*
X101353168Y-78028910D01*
X101370438Y-78044562D01*
X101386090Y-78061832D01*
X101399974Y-78080552D01*
X101411956Y-78100543D01*
X101421921Y-78121613D01*
X101429773Y-78143557D01*
X101435437Y-78166166D01*
X101438856Y-78189221D01*
X101440000Y-78212500D01*
X101440000Y-78787500D01*
X101438856Y-78810779D01*
X101435437Y-78833834D01*
X101429773Y-78856443D01*
X101421921Y-78878387D01*
X101411956Y-78899457D01*
X101399974Y-78919448D01*
X101386090Y-78938168D01*
X101370438Y-78955438D01*
X101353168Y-78971090D01*
X101334448Y-78984974D01*
X101314457Y-78996956D01*
X101293387Y-79006921D01*
X101271443Y-79014773D01*
X101248834Y-79020437D01*
X101225779Y-79023856D01*
X101202500Y-79025000D01*
X100727500Y-79025000D01*
X100704221Y-79023856D01*
X100681166Y-79020437D01*
X100658557Y-79014773D01*
X100636613Y-79006921D01*
X100615543Y-78996956D01*
X100595552Y-78984974D01*
X100576832Y-78971090D01*
X100559562Y-78955438D01*
X100543910Y-78938168D01*
X100530026Y-78919448D01*
X100518044Y-78899457D01*
X100508079Y-78878387D01*
X100500227Y-78856443D01*
X100494563Y-78833834D01*
X100491144Y-78810779D01*
X100490000Y-78787500D01*
X100490000Y-78212500D01*
X100491144Y-78189221D01*
X100494563Y-78166166D01*
X100500227Y-78143557D01*
X100508079Y-78121613D01*
X100518044Y-78100543D01*
X100530026Y-78080552D01*
X100543910Y-78061832D01*
X100559562Y-78044562D01*
X100576832Y-78028910D01*
X100595552Y-78015026D01*
X100615543Y-78003044D01*
X100636613Y-77993079D01*
X100658557Y-77985227D01*
X100681166Y-77979563D01*
X100704221Y-77976144D01*
X100727500Y-77975000D01*
X101202500Y-77975000D01*
X101225779Y-77976144D01*
G37*
G36*
X157105779Y-68296144D02*
G01*
X157128834Y-68299563D01*
X157151443Y-68305227D01*
X157173387Y-68313079D01*
X157194457Y-68323044D01*
X157214448Y-68335026D01*
X157233168Y-68348910D01*
X157250438Y-68364562D01*
X157266090Y-68381832D01*
X157279974Y-68400552D01*
X157291956Y-68420543D01*
X157301921Y-68441613D01*
X157309773Y-68463557D01*
X157315437Y-68486166D01*
X157318856Y-68509221D01*
X157320000Y-68532500D01*
X157320000Y-69107500D01*
X157318856Y-69130779D01*
X157315437Y-69153834D01*
X157309773Y-69176443D01*
X157301921Y-69198387D01*
X157291956Y-69219457D01*
X157279974Y-69239448D01*
X157266090Y-69258168D01*
X157250438Y-69275438D01*
X157233168Y-69291090D01*
X157214448Y-69304974D01*
X157194457Y-69316956D01*
X157173387Y-69326921D01*
X157151443Y-69334773D01*
X157128834Y-69340437D01*
X157105779Y-69343856D01*
X157082500Y-69345000D01*
X156607500Y-69345000D01*
X156584221Y-69343856D01*
X156561166Y-69340437D01*
X156538557Y-69334773D01*
X156516613Y-69326921D01*
X156495543Y-69316956D01*
X156475552Y-69304974D01*
X156456832Y-69291090D01*
X156439562Y-69275438D01*
X156423910Y-69258168D01*
X156410026Y-69239448D01*
X156398044Y-69219457D01*
X156388079Y-69198387D01*
X156380227Y-69176443D01*
X156374563Y-69153834D01*
X156371144Y-69130779D01*
X156370000Y-69107500D01*
X156370000Y-68532500D01*
X156371144Y-68509221D01*
X156374563Y-68486166D01*
X156380227Y-68463557D01*
X156388079Y-68441613D01*
X156398044Y-68420543D01*
X156410026Y-68400552D01*
X156423910Y-68381832D01*
X156439562Y-68364562D01*
X156456832Y-68348910D01*
X156475552Y-68335026D01*
X156495543Y-68323044D01*
X156516613Y-68313079D01*
X156538557Y-68305227D01*
X156561166Y-68299563D01*
X156584221Y-68296144D01*
X156607500Y-68295000D01*
X157082500Y-68295000D01*
X157105779Y-68296144D01*
G37*
G36*
X157105779Y-66546144D02*
G01*
X157128834Y-66549563D01*
X157151443Y-66555227D01*
X157173387Y-66563079D01*
X157194457Y-66573044D01*
X157214448Y-66585026D01*
X157233168Y-66598910D01*
X157250438Y-66614562D01*
X157266090Y-66631832D01*
X157279974Y-66650552D01*
X157291956Y-66670543D01*
X157301921Y-66691613D01*
X157309773Y-66713557D01*
X157315437Y-66736166D01*
X157318856Y-66759221D01*
X157320000Y-66782500D01*
X157320000Y-67357500D01*
X157318856Y-67380779D01*
X157315437Y-67403834D01*
X157309773Y-67426443D01*
X157301921Y-67448387D01*
X157291956Y-67469457D01*
X157279974Y-67489448D01*
X157266090Y-67508168D01*
X157250438Y-67525438D01*
X157233168Y-67541090D01*
X157214448Y-67554974D01*
X157194457Y-67566956D01*
X157173387Y-67576921D01*
X157151443Y-67584773D01*
X157128834Y-67590437D01*
X157105779Y-67593856D01*
X157082500Y-67595000D01*
X156607500Y-67595000D01*
X156584221Y-67593856D01*
X156561166Y-67590437D01*
X156538557Y-67584773D01*
X156516613Y-67576921D01*
X156495543Y-67566956D01*
X156475552Y-67554974D01*
X156456832Y-67541090D01*
X156439562Y-67525438D01*
X156423910Y-67508168D01*
X156410026Y-67489448D01*
X156398044Y-67469457D01*
X156388079Y-67448387D01*
X156380227Y-67426443D01*
X156374563Y-67403834D01*
X156371144Y-67380779D01*
X156370000Y-67357500D01*
X156370000Y-66782500D01*
X156371144Y-66759221D01*
X156374563Y-66736166D01*
X156380227Y-66713557D01*
X156388079Y-66691613D01*
X156398044Y-66670543D01*
X156410026Y-66650552D01*
X156423910Y-66631832D01*
X156439562Y-66614562D01*
X156456832Y-66598910D01*
X156475552Y-66585026D01*
X156495543Y-66573044D01*
X156516613Y-66563079D01*
X156538557Y-66555227D01*
X156561166Y-66549563D01*
X156584221Y-66546144D01*
X156607500Y-66545000D01*
X157082500Y-66545000D01*
X157105779Y-66546144D01*
G37*
G36*
X117735779Y-74646144D02*
G01*
X117758834Y-74649563D01*
X117781443Y-74655227D01*
X117803387Y-74663079D01*
X117824457Y-74673044D01*
X117844448Y-74685026D01*
X117863168Y-74698910D01*
X117880438Y-74714562D01*
X117896090Y-74731832D01*
X117909974Y-74750552D01*
X117921956Y-74770543D01*
X117931921Y-74791613D01*
X117939773Y-74813557D01*
X117945437Y-74836166D01*
X117948856Y-74859221D01*
X117950000Y-74882500D01*
X117950000Y-75457500D01*
X117948856Y-75480779D01*
X117945437Y-75503834D01*
X117939773Y-75526443D01*
X117931921Y-75548387D01*
X117921956Y-75569457D01*
X117909974Y-75589448D01*
X117896090Y-75608168D01*
X117880438Y-75625438D01*
X117863168Y-75641090D01*
X117844448Y-75654974D01*
X117824457Y-75666956D01*
X117803387Y-75676921D01*
X117781443Y-75684773D01*
X117758834Y-75690437D01*
X117735779Y-75693856D01*
X117712500Y-75695000D01*
X117237500Y-75695000D01*
X117214221Y-75693856D01*
X117191166Y-75690437D01*
X117168557Y-75684773D01*
X117146613Y-75676921D01*
X117125543Y-75666956D01*
X117105552Y-75654974D01*
X117086832Y-75641090D01*
X117069562Y-75625438D01*
X117053910Y-75608168D01*
X117040026Y-75589448D01*
X117028044Y-75569457D01*
X117018079Y-75548387D01*
X117010227Y-75526443D01*
X117004563Y-75503834D01*
X117001144Y-75480779D01*
X117000000Y-75457500D01*
X117000000Y-74882500D01*
X117001144Y-74859221D01*
X117004563Y-74836166D01*
X117010227Y-74813557D01*
X117018079Y-74791613D01*
X117028044Y-74770543D01*
X117040026Y-74750552D01*
X117053910Y-74731832D01*
X117069562Y-74714562D01*
X117086832Y-74698910D01*
X117105552Y-74685026D01*
X117125543Y-74673044D01*
X117146613Y-74663079D01*
X117168557Y-74655227D01*
X117191166Y-74649563D01*
X117214221Y-74646144D01*
X117237500Y-74645000D01*
X117712500Y-74645000D01*
X117735779Y-74646144D01*
G37*
G36*
X117735779Y-72896144D02*
G01*
X117758834Y-72899563D01*
X117781443Y-72905227D01*
X117803387Y-72913079D01*
X117824457Y-72923044D01*
X117844448Y-72935026D01*
X117863168Y-72948910D01*
X117880438Y-72964562D01*
X117896090Y-72981832D01*
X117909974Y-73000552D01*
X117921956Y-73020543D01*
X117931921Y-73041613D01*
X117939773Y-73063557D01*
X117945437Y-73086166D01*
X117948856Y-73109221D01*
X117950000Y-73132500D01*
X117950000Y-73707500D01*
X117948856Y-73730779D01*
X117945437Y-73753834D01*
X117939773Y-73776443D01*
X117931921Y-73798387D01*
X117921956Y-73819457D01*
X117909974Y-73839448D01*
X117896090Y-73858168D01*
X117880438Y-73875438D01*
X117863168Y-73891090D01*
X117844448Y-73904974D01*
X117824457Y-73916956D01*
X117803387Y-73926921D01*
X117781443Y-73934773D01*
X117758834Y-73940437D01*
X117735779Y-73943856D01*
X117712500Y-73945000D01*
X117237500Y-73945000D01*
X117214221Y-73943856D01*
X117191166Y-73940437D01*
X117168557Y-73934773D01*
X117146613Y-73926921D01*
X117125543Y-73916956D01*
X117105552Y-73904974D01*
X117086832Y-73891090D01*
X117069562Y-73875438D01*
X117053910Y-73858168D01*
X117040026Y-73839448D01*
X117028044Y-73819457D01*
X117018079Y-73798387D01*
X117010227Y-73776443D01*
X117004563Y-73753834D01*
X117001144Y-73730779D01*
X117000000Y-73707500D01*
X117000000Y-73132500D01*
X117001144Y-73109221D01*
X117004563Y-73086166D01*
X117010227Y-73063557D01*
X117018079Y-73041613D01*
X117028044Y-73020543D01*
X117040026Y-73000552D01*
X117053910Y-72981832D01*
X117069562Y-72964562D01*
X117086832Y-72948910D01*
X117105552Y-72935026D01*
X117125543Y-72923044D01*
X117146613Y-72913079D01*
X117168557Y-72905227D01*
X117191166Y-72899563D01*
X117214221Y-72896144D01*
X117237500Y-72895000D01*
X117712500Y-72895000D01*
X117735779Y-72896144D01*
G37*
G36*
X117735779Y-63216144D02*
G01*
X117758834Y-63219563D01*
X117781443Y-63225227D01*
X117803387Y-63233079D01*
X117824457Y-63243044D01*
X117844448Y-63255026D01*
X117863168Y-63268910D01*
X117880438Y-63284562D01*
X117896090Y-63301832D01*
X117909974Y-63320552D01*
X117921956Y-63340543D01*
X117931921Y-63361613D01*
X117939773Y-63383557D01*
X117945437Y-63406166D01*
X117948856Y-63429221D01*
X117950000Y-63452500D01*
X117950000Y-64027500D01*
X117948856Y-64050779D01*
X117945437Y-64073834D01*
X117939773Y-64096443D01*
X117931921Y-64118387D01*
X117921956Y-64139457D01*
X117909974Y-64159448D01*
X117896090Y-64178168D01*
X117880438Y-64195438D01*
X117863168Y-64211090D01*
X117844448Y-64224974D01*
X117824457Y-64236956D01*
X117803387Y-64246921D01*
X117781443Y-64254773D01*
X117758834Y-64260437D01*
X117735779Y-64263856D01*
X117712500Y-64265000D01*
X117237500Y-64265000D01*
X117214221Y-64263856D01*
X117191166Y-64260437D01*
X117168557Y-64254773D01*
X117146613Y-64246921D01*
X117125543Y-64236956D01*
X117105552Y-64224974D01*
X117086832Y-64211090D01*
X117069562Y-64195438D01*
X117053910Y-64178168D01*
X117040026Y-64159448D01*
X117028044Y-64139457D01*
X117018079Y-64118387D01*
X117010227Y-64096443D01*
X117004563Y-64073834D01*
X117001144Y-64050779D01*
X117000000Y-64027500D01*
X117000000Y-63452500D01*
X117001144Y-63429221D01*
X117004563Y-63406166D01*
X117010227Y-63383557D01*
X117018079Y-63361613D01*
X117028044Y-63340543D01*
X117040026Y-63320552D01*
X117053910Y-63301832D01*
X117069562Y-63284562D01*
X117086832Y-63268910D01*
X117105552Y-63255026D01*
X117125543Y-63243044D01*
X117146613Y-63233079D01*
X117168557Y-63225227D01*
X117191166Y-63219563D01*
X117214221Y-63216144D01*
X117237500Y-63215000D01*
X117712500Y-63215000D01*
X117735779Y-63216144D01*
G37*
G36*
X117735779Y-61466144D02*
G01*
X117758834Y-61469563D01*
X117781443Y-61475227D01*
X117803387Y-61483079D01*
X117824457Y-61493044D01*
X117844448Y-61505026D01*
X117863168Y-61518910D01*
X117880438Y-61534562D01*
X117896090Y-61551832D01*
X117909974Y-61570552D01*
X117921956Y-61590543D01*
X117931921Y-61611613D01*
X117939773Y-61633557D01*
X117945437Y-61656166D01*
X117948856Y-61679221D01*
X117950000Y-61702500D01*
X117950000Y-62277500D01*
X117948856Y-62300779D01*
X117945437Y-62323834D01*
X117939773Y-62346443D01*
X117931921Y-62368387D01*
X117921956Y-62389457D01*
X117909974Y-62409448D01*
X117896090Y-62428168D01*
X117880438Y-62445438D01*
X117863168Y-62461090D01*
X117844448Y-62474974D01*
X117824457Y-62486956D01*
X117803387Y-62496921D01*
X117781443Y-62504773D01*
X117758834Y-62510437D01*
X117735779Y-62513856D01*
X117712500Y-62515000D01*
X117237500Y-62515000D01*
X117214221Y-62513856D01*
X117191166Y-62510437D01*
X117168557Y-62504773D01*
X117146613Y-62496921D01*
X117125543Y-62486956D01*
X117105552Y-62474974D01*
X117086832Y-62461090D01*
X117069562Y-62445438D01*
X117053910Y-62428168D01*
X117040026Y-62409448D01*
X117028044Y-62389457D01*
X117018079Y-62368387D01*
X117010227Y-62346443D01*
X117004563Y-62323834D01*
X117001144Y-62300779D01*
X117000000Y-62277500D01*
X117000000Y-61702500D01*
X117001144Y-61679221D01*
X117004563Y-61656166D01*
X117010227Y-61633557D01*
X117018079Y-61611613D01*
X117028044Y-61590543D01*
X117040026Y-61570552D01*
X117053910Y-61551832D01*
X117069562Y-61534562D01*
X117086832Y-61518910D01*
X117105552Y-61505026D01*
X117125543Y-61493044D01*
X117146613Y-61483079D01*
X117168557Y-61475227D01*
X117191166Y-61469563D01*
X117214221Y-61466144D01*
X117237500Y-61465000D01*
X117712500Y-61465000D01*
X117735779Y-61466144D01*
G37*
G36*
X97415779Y-79726144D02*
G01*
X97438834Y-79729563D01*
X97461443Y-79735227D01*
X97483387Y-79743079D01*
X97504457Y-79753044D01*
X97524448Y-79765026D01*
X97543168Y-79778910D01*
X97560438Y-79794562D01*
X97576090Y-79811832D01*
X97589974Y-79830552D01*
X97601956Y-79850543D01*
X97611921Y-79871613D01*
X97619773Y-79893557D01*
X97625437Y-79916166D01*
X97628856Y-79939221D01*
X97630000Y-79962500D01*
X97630000Y-80537500D01*
X97628856Y-80560779D01*
X97625437Y-80583834D01*
X97619773Y-80606443D01*
X97611921Y-80628387D01*
X97601956Y-80649457D01*
X97589974Y-80669448D01*
X97576090Y-80688168D01*
X97560438Y-80705438D01*
X97543168Y-80721090D01*
X97524448Y-80734974D01*
X97504457Y-80746956D01*
X97483387Y-80756921D01*
X97461443Y-80764773D01*
X97438834Y-80770437D01*
X97415779Y-80773856D01*
X97392500Y-80775000D01*
X96917500Y-80775000D01*
X96894221Y-80773856D01*
X96871166Y-80770437D01*
X96848557Y-80764773D01*
X96826613Y-80756921D01*
X96805543Y-80746956D01*
X96785552Y-80734974D01*
X96766832Y-80721090D01*
X96749562Y-80705438D01*
X96733910Y-80688168D01*
X96720026Y-80669448D01*
X96708044Y-80649457D01*
X96698079Y-80628387D01*
X96690227Y-80606443D01*
X96684563Y-80583834D01*
X96681144Y-80560779D01*
X96680000Y-80537500D01*
X96680000Y-79962500D01*
X96681144Y-79939221D01*
X96684563Y-79916166D01*
X96690227Y-79893557D01*
X96698079Y-79871613D01*
X96708044Y-79850543D01*
X96720026Y-79830552D01*
X96733910Y-79811832D01*
X96749562Y-79794562D01*
X96766832Y-79778910D01*
X96785552Y-79765026D01*
X96805543Y-79753044D01*
X96826613Y-79743079D01*
X96848557Y-79735227D01*
X96871166Y-79729563D01*
X96894221Y-79726144D01*
X96917500Y-79725000D01*
X97392500Y-79725000D01*
X97415779Y-79726144D01*
G37*
G36*
X97415779Y-77976144D02*
G01*
X97438834Y-77979563D01*
X97461443Y-77985227D01*
X97483387Y-77993079D01*
X97504457Y-78003044D01*
X97524448Y-78015026D01*
X97543168Y-78028910D01*
X97560438Y-78044562D01*
X97576090Y-78061832D01*
X97589974Y-78080552D01*
X97601956Y-78100543D01*
X97611921Y-78121613D01*
X97619773Y-78143557D01*
X97625437Y-78166166D01*
X97628856Y-78189221D01*
X97630000Y-78212500D01*
X97630000Y-78787500D01*
X97628856Y-78810779D01*
X97625437Y-78833834D01*
X97619773Y-78856443D01*
X97611921Y-78878387D01*
X97601956Y-78899457D01*
X97589974Y-78919448D01*
X97576090Y-78938168D01*
X97560438Y-78955438D01*
X97543168Y-78971090D01*
X97524448Y-78984974D01*
X97504457Y-78996956D01*
X97483387Y-79006921D01*
X97461443Y-79014773D01*
X97438834Y-79020437D01*
X97415779Y-79023856D01*
X97392500Y-79025000D01*
X96917500Y-79025000D01*
X96894221Y-79023856D01*
X96871166Y-79020437D01*
X96848557Y-79014773D01*
X96826613Y-79006921D01*
X96805543Y-78996956D01*
X96785552Y-78984974D01*
X96766832Y-78971090D01*
X96749562Y-78955438D01*
X96733910Y-78938168D01*
X96720026Y-78919448D01*
X96708044Y-78899457D01*
X96698079Y-78878387D01*
X96690227Y-78856443D01*
X96684563Y-78833834D01*
X96681144Y-78810779D01*
X96680000Y-78787500D01*
X96680000Y-78212500D01*
X96681144Y-78189221D01*
X96684563Y-78166166D01*
X96690227Y-78143557D01*
X96698079Y-78121613D01*
X96708044Y-78100543D01*
X96720026Y-78080552D01*
X96733910Y-78061832D01*
X96749562Y-78044562D01*
X96766832Y-78028910D01*
X96785552Y-78015026D01*
X96805543Y-78003044D01*
X96826613Y-77993079D01*
X96848557Y-77985227D01*
X96871166Y-77979563D01*
X96894221Y-77976144D01*
X96917500Y-77975000D01*
X97392500Y-77975000D01*
X97415779Y-77976144D01*
G37*
G36*
X153295779Y-68296144D02*
G01*
X153318834Y-68299563D01*
X153341443Y-68305227D01*
X153363387Y-68313079D01*
X153384457Y-68323044D01*
X153404448Y-68335026D01*
X153423168Y-68348910D01*
X153440438Y-68364562D01*
X153456090Y-68381832D01*
X153469974Y-68400552D01*
X153481956Y-68420543D01*
X153491921Y-68441613D01*
X153499773Y-68463557D01*
X153505437Y-68486166D01*
X153508856Y-68509221D01*
X153510000Y-68532500D01*
X153510000Y-69107500D01*
X153508856Y-69130779D01*
X153505437Y-69153834D01*
X153499773Y-69176443D01*
X153491921Y-69198387D01*
X153481956Y-69219457D01*
X153469974Y-69239448D01*
X153456090Y-69258168D01*
X153440438Y-69275438D01*
X153423168Y-69291090D01*
X153404448Y-69304974D01*
X153384457Y-69316956D01*
X153363387Y-69326921D01*
X153341443Y-69334773D01*
X153318834Y-69340437D01*
X153295779Y-69343856D01*
X153272500Y-69345000D01*
X152797500Y-69345000D01*
X152774221Y-69343856D01*
X152751166Y-69340437D01*
X152728557Y-69334773D01*
X152706613Y-69326921D01*
X152685543Y-69316956D01*
X152665552Y-69304974D01*
X152646832Y-69291090D01*
X152629562Y-69275438D01*
X152613910Y-69258168D01*
X152600026Y-69239448D01*
X152588044Y-69219457D01*
X152578079Y-69198387D01*
X152570227Y-69176443D01*
X152564563Y-69153834D01*
X152561144Y-69130779D01*
X152560000Y-69107500D01*
X152560000Y-68532500D01*
X152561144Y-68509221D01*
X152564563Y-68486166D01*
X152570227Y-68463557D01*
X152578079Y-68441613D01*
X152588044Y-68420543D01*
X152600026Y-68400552D01*
X152613910Y-68381832D01*
X152629562Y-68364562D01*
X152646832Y-68348910D01*
X152665552Y-68335026D01*
X152685543Y-68323044D01*
X152706613Y-68313079D01*
X152728557Y-68305227D01*
X152751166Y-68299563D01*
X152774221Y-68296144D01*
X152797500Y-68295000D01*
X153272500Y-68295000D01*
X153295779Y-68296144D01*
G37*
G36*
X153295779Y-66546144D02*
G01*
X153318834Y-66549563D01*
X153341443Y-66555227D01*
X153363387Y-66563079D01*
X153384457Y-66573044D01*
X153404448Y-66585026D01*
X153423168Y-66598910D01*
X153440438Y-66614562D01*
X153456090Y-66631832D01*
X153469974Y-66650552D01*
X153481956Y-66670543D01*
X153491921Y-66691613D01*
X153499773Y-66713557D01*
X153505437Y-66736166D01*
X153508856Y-66759221D01*
X153510000Y-66782500D01*
X153510000Y-67357500D01*
X153508856Y-67380779D01*
X153505437Y-67403834D01*
X153499773Y-67426443D01*
X153491921Y-67448387D01*
X153481956Y-67469457D01*
X153469974Y-67489448D01*
X153456090Y-67508168D01*
X153440438Y-67525438D01*
X153423168Y-67541090D01*
X153404448Y-67554974D01*
X153384457Y-67566956D01*
X153363387Y-67576921D01*
X153341443Y-67584773D01*
X153318834Y-67590437D01*
X153295779Y-67593856D01*
X153272500Y-67595000D01*
X152797500Y-67595000D01*
X152774221Y-67593856D01*
X152751166Y-67590437D01*
X152728557Y-67584773D01*
X152706613Y-67576921D01*
X152685543Y-67566956D01*
X152665552Y-67554974D01*
X152646832Y-67541090D01*
X152629562Y-67525438D01*
X152613910Y-67508168D01*
X152600026Y-67489448D01*
X152588044Y-67469457D01*
X152578079Y-67448387D01*
X152570227Y-67426443D01*
X152564563Y-67403834D01*
X152561144Y-67380779D01*
X152560000Y-67357500D01*
X152560000Y-66782500D01*
X152561144Y-66759221D01*
X152564563Y-66736166D01*
X152570227Y-66713557D01*
X152578079Y-66691613D01*
X152588044Y-66670543D01*
X152600026Y-66650552D01*
X152613910Y-66631832D01*
X152629562Y-66614562D01*
X152646832Y-66598910D01*
X152665552Y-66585026D01*
X152685543Y-66573044D01*
X152706613Y-66563079D01*
X152728557Y-66555227D01*
X152751166Y-66549563D01*
X152774221Y-66546144D01*
X152797500Y-66545000D01*
X153272500Y-66545000D01*
X153295779Y-66546144D01*
G37*
G36*
X113925779Y-74646144D02*
G01*
X113948834Y-74649563D01*
X113971443Y-74655227D01*
X113993387Y-74663079D01*
X114014457Y-74673044D01*
X114034448Y-74685026D01*
X114053168Y-74698910D01*
X114070438Y-74714562D01*
X114086090Y-74731832D01*
X114099974Y-74750552D01*
X114111956Y-74770543D01*
X114121921Y-74791613D01*
X114129773Y-74813557D01*
X114135437Y-74836166D01*
X114138856Y-74859221D01*
X114140000Y-74882500D01*
X114140000Y-75457500D01*
X114138856Y-75480779D01*
X114135437Y-75503834D01*
X114129773Y-75526443D01*
X114121921Y-75548387D01*
X114111956Y-75569457D01*
X114099974Y-75589448D01*
X114086090Y-75608168D01*
X114070438Y-75625438D01*
X114053168Y-75641090D01*
X114034448Y-75654974D01*
X114014457Y-75666956D01*
X113993387Y-75676921D01*
X113971443Y-75684773D01*
X113948834Y-75690437D01*
X113925779Y-75693856D01*
X113902500Y-75695000D01*
X113427500Y-75695000D01*
X113404221Y-75693856D01*
X113381166Y-75690437D01*
X113358557Y-75684773D01*
X113336613Y-75676921D01*
X113315543Y-75666956D01*
X113295552Y-75654974D01*
X113276832Y-75641090D01*
X113259562Y-75625438D01*
X113243910Y-75608168D01*
X113230026Y-75589448D01*
X113218044Y-75569457D01*
X113208079Y-75548387D01*
X113200227Y-75526443D01*
X113194563Y-75503834D01*
X113191144Y-75480779D01*
X113190000Y-75457500D01*
X113190000Y-74882500D01*
X113191144Y-74859221D01*
X113194563Y-74836166D01*
X113200227Y-74813557D01*
X113208079Y-74791613D01*
X113218044Y-74770543D01*
X113230026Y-74750552D01*
X113243910Y-74731832D01*
X113259562Y-74714562D01*
X113276832Y-74698910D01*
X113295552Y-74685026D01*
X113315543Y-74673044D01*
X113336613Y-74663079D01*
X113358557Y-74655227D01*
X113381166Y-74649563D01*
X113404221Y-74646144D01*
X113427500Y-74645000D01*
X113902500Y-74645000D01*
X113925779Y-74646144D01*
G37*
G36*
X113925779Y-72896144D02*
G01*
X113948834Y-72899563D01*
X113971443Y-72905227D01*
X113993387Y-72913079D01*
X114014457Y-72923044D01*
X114034448Y-72935026D01*
X114053168Y-72948910D01*
X114070438Y-72964562D01*
X114086090Y-72981832D01*
X114099974Y-73000552D01*
X114111956Y-73020543D01*
X114121921Y-73041613D01*
X114129773Y-73063557D01*
X114135437Y-73086166D01*
X114138856Y-73109221D01*
X114140000Y-73132500D01*
X114140000Y-73707500D01*
X114138856Y-73730779D01*
X114135437Y-73753834D01*
X114129773Y-73776443D01*
X114121921Y-73798387D01*
X114111956Y-73819457D01*
X114099974Y-73839448D01*
X114086090Y-73858168D01*
X114070438Y-73875438D01*
X114053168Y-73891090D01*
X114034448Y-73904974D01*
X114014457Y-73916956D01*
X113993387Y-73926921D01*
X113971443Y-73934773D01*
X113948834Y-73940437D01*
X113925779Y-73943856D01*
X113902500Y-73945000D01*
X113427500Y-73945000D01*
X113404221Y-73943856D01*
X113381166Y-73940437D01*
X113358557Y-73934773D01*
X113336613Y-73926921D01*
X113315543Y-73916956D01*
X113295552Y-73904974D01*
X113276832Y-73891090D01*
X113259562Y-73875438D01*
X113243910Y-73858168D01*
X113230026Y-73839448D01*
X113218044Y-73819457D01*
X113208079Y-73798387D01*
X113200227Y-73776443D01*
X113194563Y-73753834D01*
X113191144Y-73730779D01*
X113190000Y-73707500D01*
X113190000Y-73132500D01*
X113191144Y-73109221D01*
X113194563Y-73086166D01*
X113200227Y-73063557D01*
X113208079Y-73041613D01*
X113218044Y-73020543D01*
X113230026Y-73000552D01*
X113243910Y-72981832D01*
X113259562Y-72964562D01*
X113276832Y-72948910D01*
X113295552Y-72935026D01*
X113315543Y-72923044D01*
X113336613Y-72913079D01*
X113358557Y-72905227D01*
X113381166Y-72899563D01*
X113404221Y-72896144D01*
X113427500Y-72895000D01*
X113902500Y-72895000D01*
X113925779Y-72896144D01*
G37*
G36*
X113925779Y-63216144D02*
G01*
X113948834Y-63219563D01*
X113971443Y-63225227D01*
X113993387Y-63233079D01*
X114014457Y-63243044D01*
X114034448Y-63255026D01*
X114053168Y-63268910D01*
X114070438Y-63284562D01*
X114086090Y-63301832D01*
X114099974Y-63320552D01*
X114111956Y-63340543D01*
X114121921Y-63361613D01*
X114129773Y-63383557D01*
X114135437Y-63406166D01*
X114138856Y-63429221D01*
X114140000Y-63452500D01*
X114140000Y-64027500D01*
X114138856Y-64050779D01*
X114135437Y-64073834D01*
X114129773Y-64096443D01*
X114121921Y-64118387D01*
X114111956Y-64139457D01*
X114099974Y-64159448D01*
X114086090Y-64178168D01*
X114070438Y-64195438D01*
X114053168Y-64211090D01*
X114034448Y-64224974D01*
X114014457Y-64236956D01*
X113993387Y-64246921D01*
X113971443Y-64254773D01*
X113948834Y-64260437D01*
X113925779Y-64263856D01*
X113902500Y-64265000D01*
X113427500Y-64265000D01*
X113404221Y-64263856D01*
X113381166Y-64260437D01*
X113358557Y-64254773D01*
X113336613Y-64246921D01*
X113315543Y-64236956D01*
X113295552Y-64224974D01*
X113276832Y-64211090D01*
X113259562Y-64195438D01*
X113243910Y-64178168D01*
X113230026Y-64159448D01*
X113218044Y-64139457D01*
X113208079Y-64118387D01*
X113200227Y-64096443D01*
X113194563Y-64073834D01*
X113191144Y-64050779D01*
X113190000Y-64027500D01*
X113190000Y-63452500D01*
X113191144Y-63429221D01*
X113194563Y-63406166D01*
X113200227Y-63383557D01*
X113208079Y-63361613D01*
X113218044Y-63340543D01*
X113230026Y-63320552D01*
X113243910Y-63301832D01*
X113259562Y-63284562D01*
X113276832Y-63268910D01*
X113295552Y-63255026D01*
X113315543Y-63243044D01*
X113336613Y-63233079D01*
X113358557Y-63225227D01*
X113381166Y-63219563D01*
X113404221Y-63216144D01*
X113427500Y-63215000D01*
X113902500Y-63215000D01*
X113925779Y-63216144D01*
G37*
G36*
X113925779Y-61466144D02*
G01*
X113948834Y-61469563D01*
X113971443Y-61475227D01*
X113993387Y-61483079D01*
X114014457Y-61493044D01*
X114034448Y-61505026D01*
X114053168Y-61518910D01*
X114070438Y-61534562D01*
X114086090Y-61551832D01*
X114099974Y-61570552D01*
X114111956Y-61590543D01*
X114121921Y-61611613D01*
X114129773Y-61633557D01*
X114135437Y-61656166D01*
X114138856Y-61679221D01*
X114140000Y-61702500D01*
X114140000Y-62277500D01*
X114138856Y-62300779D01*
X114135437Y-62323834D01*
X114129773Y-62346443D01*
X114121921Y-62368387D01*
X114111956Y-62389457D01*
X114099974Y-62409448D01*
X114086090Y-62428168D01*
X114070438Y-62445438D01*
X114053168Y-62461090D01*
X114034448Y-62474974D01*
X114014457Y-62486956D01*
X113993387Y-62496921D01*
X113971443Y-62504773D01*
X113948834Y-62510437D01*
X113925779Y-62513856D01*
X113902500Y-62515000D01*
X113427500Y-62515000D01*
X113404221Y-62513856D01*
X113381166Y-62510437D01*
X113358557Y-62504773D01*
X113336613Y-62496921D01*
X113315543Y-62486956D01*
X113295552Y-62474974D01*
X113276832Y-62461090D01*
X113259562Y-62445438D01*
X113243910Y-62428168D01*
X113230026Y-62409448D01*
X113218044Y-62389457D01*
X113208079Y-62368387D01*
X113200227Y-62346443D01*
X113194563Y-62323834D01*
X113191144Y-62300779D01*
X113190000Y-62277500D01*
X113190000Y-61702500D01*
X113191144Y-61679221D01*
X113194563Y-61656166D01*
X113200227Y-61633557D01*
X113208079Y-61611613D01*
X113218044Y-61590543D01*
X113230026Y-61570552D01*
X113243910Y-61551832D01*
X113259562Y-61534562D01*
X113276832Y-61518910D01*
X113295552Y-61505026D01*
X113315543Y-61493044D01*
X113336613Y-61483079D01*
X113358557Y-61475227D01*
X113381166Y-61469563D01*
X113404221Y-61466144D01*
X113427500Y-61465000D01*
X113902500Y-61465000D01*
X113925779Y-61466144D01*
G37*
G36*
X92335779Y-84806144D02*
G01*
X92358834Y-84809563D01*
X92381443Y-84815227D01*
X92403387Y-84823079D01*
X92424457Y-84833044D01*
X92444448Y-84845026D01*
X92463168Y-84858910D01*
X92480438Y-84874562D01*
X92496090Y-84891832D01*
X92509974Y-84910552D01*
X92521956Y-84930543D01*
X92531921Y-84951613D01*
X92539773Y-84973557D01*
X92545437Y-84996166D01*
X92548856Y-85019221D01*
X92550000Y-85042500D01*
X92550000Y-85617500D01*
X92548856Y-85640779D01*
X92545437Y-85663834D01*
X92539773Y-85686443D01*
X92531921Y-85708387D01*
X92521956Y-85729457D01*
X92509974Y-85749448D01*
X92496090Y-85768168D01*
X92480438Y-85785438D01*
X92463168Y-85801090D01*
X92444448Y-85814974D01*
X92424457Y-85826956D01*
X92403387Y-85836921D01*
X92381443Y-85844773D01*
X92358834Y-85850437D01*
X92335779Y-85853856D01*
X92312500Y-85855000D01*
X91837500Y-85855000D01*
X91814221Y-85853856D01*
X91791166Y-85850437D01*
X91768557Y-85844773D01*
X91746613Y-85836921D01*
X91725543Y-85826956D01*
X91705552Y-85814974D01*
X91686832Y-85801090D01*
X91669562Y-85785438D01*
X91653910Y-85768168D01*
X91640026Y-85749448D01*
X91628044Y-85729457D01*
X91618079Y-85708387D01*
X91610227Y-85686443D01*
X91604563Y-85663834D01*
X91601144Y-85640779D01*
X91600000Y-85617500D01*
X91600000Y-85042500D01*
X91601144Y-85019221D01*
X91604563Y-84996166D01*
X91610227Y-84973557D01*
X91618079Y-84951613D01*
X91628044Y-84930543D01*
X91640026Y-84910552D01*
X91653910Y-84891832D01*
X91669562Y-84874562D01*
X91686832Y-84858910D01*
X91705552Y-84845026D01*
X91725543Y-84833044D01*
X91746613Y-84823079D01*
X91768557Y-84815227D01*
X91791166Y-84809563D01*
X91814221Y-84806144D01*
X91837500Y-84805000D01*
X92312500Y-84805000D01*
X92335779Y-84806144D01*
G37*
G36*
X92335779Y-83056144D02*
G01*
X92358834Y-83059563D01*
X92381443Y-83065227D01*
X92403387Y-83073079D01*
X92424457Y-83083044D01*
X92444448Y-83095026D01*
X92463168Y-83108910D01*
X92480438Y-83124562D01*
X92496090Y-83141832D01*
X92509974Y-83160552D01*
X92521956Y-83180543D01*
X92531921Y-83201613D01*
X92539773Y-83223557D01*
X92545437Y-83246166D01*
X92548856Y-83269221D01*
X92550000Y-83292500D01*
X92550000Y-83867500D01*
X92548856Y-83890779D01*
X92545437Y-83913834D01*
X92539773Y-83936443D01*
X92531921Y-83958387D01*
X92521956Y-83979457D01*
X92509974Y-83999448D01*
X92496090Y-84018168D01*
X92480438Y-84035438D01*
X92463168Y-84051090D01*
X92444448Y-84064974D01*
X92424457Y-84076956D01*
X92403387Y-84086921D01*
X92381443Y-84094773D01*
X92358834Y-84100437D01*
X92335779Y-84103856D01*
X92312500Y-84105000D01*
X91837500Y-84105000D01*
X91814221Y-84103856D01*
X91791166Y-84100437D01*
X91768557Y-84094773D01*
X91746613Y-84086921D01*
X91725543Y-84076956D01*
X91705552Y-84064974D01*
X91686832Y-84051090D01*
X91669562Y-84035438D01*
X91653910Y-84018168D01*
X91640026Y-83999448D01*
X91628044Y-83979457D01*
X91618079Y-83958387D01*
X91610227Y-83936443D01*
X91604563Y-83913834D01*
X91601144Y-83890779D01*
X91600000Y-83867500D01*
X91600000Y-83292500D01*
X91601144Y-83269221D01*
X91604563Y-83246166D01*
X91610227Y-83223557D01*
X91618079Y-83201613D01*
X91628044Y-83180543D01*
X91640026Y-83160552D01*
X91653910Y-83141832D01*
X91669562Y-83124562D01*
X91686832Y-83108910D01*
X91705552Y-83095026D01*
X91725543Y-83083044D01*
X91746613Y-83073079D01*
X91768557Y-83065227D01*
X91791166Y-83059563D01*
X91814221Y-83056144D01*
X91837500Y-83055000D01*
X92312500Y-83055000D01*
X92335779Y-83056144D01*
G37*
G36*
X165995779Y-73376144D02*
G01*
X166018834Y-73379563D01*
X166041443Y-73385227D01*
X166063387Y-73393079D01*
X166084457Y-73403044D01*
X166104448Y-73415026D01*
X166123168Y-73428910D01*
X166140438Y-73444562D01*
X166156090Y-73461832D01*
X166169974Y-73480552D01*
X166181956Y-73500543D01*
X166191921Y-73521613D01*
X166199773Y-73543557D01*
X166205437Y-73566166D01*
X166208856Y-73589221D01*
X166210000Y-73612500D01*
X166210000Y-74187500D01*
X166208856Y-74210779D01*
X166205437Y-74233834D01*
X166199773Y-74256443D01*
X166191921Y-74278387D01*
X166181956Y-74299457D01*
X166169974Y-74319448D01*
X166156090Y-74338168D01*
X166140438Y-74355438D01*
X166123168Y-74371090D01*
X166104448Y-74384974D01*
X166084457Y-74396956D01*
X166063387Y-74406921D01*
X166041443Y-74414773D01*
X166018834Y-74420437D01*
X165995779Y-74423856D01*
X165972500Y-74425000D01*
X165497500Y-74425000D01*
X165474221Y-74423856D01*
X165451166Y-74420437D01*
X165428557Y-74414773D01*
X165406613Y-74406921D01*
X165385543Y-74396956D01*
X165365552Y-74384974D01*
X165346832Y-74371090D01*
X165329562Y-74355438D01*
X165313910Y-74338168D01*
X165300026Y-74319448D01*
X165288044Y-74299457D01*
X165278079Y-74278387D01*
X165270227Y-74256443D01*
X165264563Y-74233834D01*
X165261144Y-74210779D01*
X165260000Y-74187500D01*
X165260000Y-73612500D01*
X165261144Y-73589221D01*
X165264563Y-73566166D01*
X165270227Y-73543557D01*
X165278079Y-73521613D01*
X165288044Y-73500543D01*
X165300026Y-73480552D01*
X165313910Y-73461832D01*
X165329562Y-73444562D01*
X165346832Y-73428910D01*
X165365552Y-73415026D01*
X165385543Y-73403044D01*
X165406613Y-73393079D01*
X165428557Y-73385227D01*
X165451166Y-73379563D01*
X165474221Y-73376144D01*
X165497500Y-73375000D01*
X165972500Y-73375000D01*
X165995779Y-73376144D01*
G37*
G36*
X165995779Y-71626144D02*
G01*
X166018834Y-71629563D01*
X166041443Y-71635227D01*
X166063387Y-71643079D01*
X166084457Y-71653044D01*
X166104448Y-71665026D01*
X166123168Y-71678910D01*
X166140438Y-71694562D01*
X166156090Y-71711832D01*
X166169974Y-71730552D01*
X166181956Y-71750543D01*
X166191921Y-71771613D01*
X166199773Y-71793557D01*
X166205437Y-71816166D01*
X166208856Y-71839221D01*
X166210000Y-71862500D01*
X166210000Y-72437500D01*
X166208856Y-72460779D01*
X166205437Y-72483834D01*
X166199773Y-72506443D01*
X166191921Y-72528387D01*
X166181956Y-72549457D01*
X166169974Y-72569448D01*
X166156090Y-72588168D01*
X166140438Y-72605438D01*
X166123168Y-72621090D01*
X166104448Y-72634974D01*
X166084457Y-72646956D01*
X166063387Y-72656921D01*
X166041443Y-72664773D01*
X166018834Y-72670437D01*
X165995779Y-72673856D01*
X165972500Y-72675000D01*
X165497500Y-72675000D01*
X165474221Y-72673856D01*
X165451166Y-72670437D01*
X165428557Y-72664773D01*
X165406613Y-72656921D01*
X165385543Y-72646956D01*
X165365552Y-72634974D01*
X165346832Y-72621090D01*
X165329562Y-72605438D01*
X165313910Y-72588168D01*
X165300026Y-72569448D01*
X165288044Y-72549457D01*
X165278079Y-72528387D01*
X165270227Y-72506443D01*
X165264563Y-72483834D01*
X165261144Y-72460779D01*
X165260000Y-72437500D01*
X165260000Y-71862500D01*
X165261144Y-71839221D01*
X165264563Y-71816166D01*
X165270227Y-71793557D01*
X165278079Y-71771613D01*
X165288044Y-71750543D01*
X165300026Y-71730552D01*
X165313910Y-71711832D01*
X165329562Y-71694562D01*
X165346832Y-71678910D01*
X165365552Y-71665026D01*
X165385543Y-71653044D01*
X165406613Y-71643079D01*
X165428557Y-71635227D01*
X165451166Y-71629563D01*
X165474221Y-71626144D01*
X165497500Y-71625000D01*
X165972500Y-71625000D01*
X165995779Y-71626144D01*
G37*
G36*
X110115779Y-65756144D02*
G01*
X110138834Y-65759563D01*
X110161443Y-65765227D01*
X110183387Y-65773079D01*
X110204457Y-65783044D01*
X110224448Y-65795026D01*
X110243168Y-65808910D01*
X110260438Y-65824562D01*
X110276090Y-65841832D01*
X110289974Y-65860552D01*
X110301956Y-65880543D01*
X110311921Y-65901613D01*
X110319773Y-65923557D01*
X110325437Y-65946166D01*
X110328856Y-65969221D01*
X110330000Y-65992500D01*
X110330000Y-66567500D01*
X110328856Y-66590779D01*
X110325437Y-66613834D01*
X110319773Y-66636443D01*
X110311921Y-66658387D01*
X110301956Y-66679457D01*
X110289974Y-66699448D01*
X110276090Y-66718168D01*
X110260438Y-66735438D01*
X110243168Y-66751090D01*
X110224448Y-66764974D01*
X110204457Y-66776956D01*
X110183387Y-66786921D01*
X110161443Y-66794773D01*
X110138834Y-66800437D01*
X110115779Y-66803856D01*
X110092500Y-66805000D01*
X109617500Y-66805000D01*
X109594221Y-66803856D01*
X109571166Y-66800437D01*
X109548557Y-66794773D01*
X109526613Y-66786921D01*
X109505543Y-66776956D01*
X109485552Y-66764974D01*
X109466832Y-66751090D01*
X109449562Y-66735438D01*
X109433910Y-66718168D01*
X109420026Y-66699448D01*
X109408044Y-66679457D01*
X109398079Y-66658387D01*
X109390227Y-66636443D01*
X109384563Y-66613834D01*
X109381144Y-66590779D01*
X109380000Y-66567500D01*
X109380000Y-65992500D01*
X109381144Y-65969221D01*
X109384563Y-65946166D01*
X109390227Y-65923557D01*
X109398079Y-65901613D01*
X109408044Y-65880543D01*
X109420026Y-65860552D01*
X109433910Y-65841832D01*
X109449562Y-65824562D01*
X109466832Y-65808910D01*
X109485552Y-65795026D01*
X109505543Y-65783044D01*
X109526613Y-65773079D01*
X109548557Y-65765227D01*
X109571166Y-65759563D01*
X109594221Y-65756144D01*
X109617500Y-65755000D01*
X110092500Y-65755000D01*
X110115779Y-65756144D01*
G37*
G36*
X110115779Y-64006144D02*
G01*
X110138834Y-64009563D01*
X110161443Y-64015227D01*
X110183387Y-64023079D01*
X110204457Y-64033044D01*
X110224448Y-64045026D01*
X110243168Y-64058910D01*
X110260438Y-64074562D01*
X110276090Y-64091832D01*
X110289974Y-64110552D01*
X110301956Y-64130543D01*
X110311921Y-64151613D01*
X110319773Y-64173557D01*
X110325437Y-64196166D01*
X110328856Y-64219221D01*
X110330000Y-64242500D01*
X110330000Y-64817500D01*
X110328856Y-64840779D01*
X110325437Y-64863834D01*
X110319773Y-64886443D01*
X110311921Y-64908387D01*
X110301956Y-64929457D01*
X110289974Y-64949448D01*
X110276090Y-64968168D01*
X110260438Y-64985438D01*
X110243168Y-65001090D01*
X110224448Y-65014974D01*
X110204457Y-65026956D01*
X110183387Y-65036921D01*
X110161443Y-65044773D01*
X110138834Y-65050437D01*
X110115779Y-65053856D01*
X110092500Y-65055000D01*
X109617500Y-65055000D01*
X109594221Y-65053856D01*
X109571166Y-65050437D01*
X109548557Y-65044773D01*
X109526613Y-65036921D01*
X109505543Y-65026956D01*
X109485552Y-65014974D01*
X109466832Y-65001090D01*
X109449562Y-64985438D01*
X109433910Y-64968168D01*
X109420026Y-64949448D01*
X109408044Y-64929457D01*
X109398079Y-64908387D01*
X109390227Y-64886443D01*
X109384563Y-64863834D01*
X109381144Y-64840779D01*
X109380000Y-64817500D01*
X109380000Y-64242500D01*
X109381144Y-64219221D01*
X109384563Y-64196166D01*
X109390227Y-64173557D01*
X109398079Y-64151613D01*
X109408044Y-64130543D01*
X109420026Y-64110552D01*
X109433910Y-64091832D01*
X109449562Y-64074562D01*
X109466832Y-64058910D01*
X109485552Y-64045026D01*
X109505543Y-64033044D01*
X109526613Y-64023079D01*
X109548557Y-64015227D01*
X109571166Y-64009563D01*
X109594221Y-64006144D01*
X109617500Y-64005000D01*
X110092500Y-64005000D01*
X110115779Y-64006144D01*
G37*
G36*
X88525779Y-84806144D02*
G01*
X88548834Y-84809563D01*
X88571443Y-84815227D01*
X88593387Y-84823079D01*
X88614457Y-84833044D01*
X88634448Y-84845026D01*
X88653168Y-84858910D01*
X88670438Y-84874562D01*
X88686090Y-84891832D01*
X88699974Y-84910552D01*
X88711956Y-84930543D01*
X88721921Y-84951613D01*
X88729773Y-84973557D01*
X88735437Y-84996166D01*
X88738856Y-85019221D01*
X88740000Y-85042500D01*
X88740000Y-85617500D01*
X88738856Y-85640779D01*
X88735437Y-85663834D01*
X88729773Y-85686443D01*
X88721921Y-85708387D01*
X88711956Y-85729457D01*
X88699974Y-85749448D01*
X88686090Y-85768168D01*
X88670438Y-85785438D01*
X88653168Y-85801090D01*
X88634448Y-85814974D01*
X88614457Y-85826956D01*
X88593387Y-85836921D01*
X88571443Y-85844773D01*
X88548834Y-85850437D01*
X88525779Y-85853856D01*
X88502500Y-85855000D01*
X88027500Y-85855000D01*
X88004221Y-85853856D01*
X87981166Y-85850437D01*
X87958557Y-85844773D01*
X87936613Y-85836921D01*
X87915543Y-85826956D01*
X87895552Y-85814974D01*
X87876832Y-85801090D01*
X87859562Y-85785438D01*
X87843910Y-85768168D01*
X87830026Y-85749448D01*
X87818044Y-85729457D01*
X87808079Y-85708387D01*
X87800227Y-85686443D01*
X87794563Y-85663834D01*
X87791144Y-85640779D01*
X87790000Y-85617500D01*
X87790000Y-85042500D01*
X87791144Y-85019221D01*
X87794563Y-84996166D01*
X87800227Y-84973557D01*
X87808079Y-84951613D01*
X87818044Y-84930543D01*
X87830026Y-84910552D01*
X87843910Y-84891832D01*
X87859562Y-84874562D01*
X87876832Y-84858910D01*
X87895552Y-84845026D01*
X87915543Y-84833044D01*
X87936613Y-84823079D01*
X87958557Y-84815227D01*
X87981166Y-84809563D01*
X88004221Y-84806144D01*
X88027500Y-84805000D01*
X88502500Y-84805000D01*
X88525779Y-84806144D01*
G37*
G36*
X88525779Y-83056144D02*
G01*
X88548834Y-83059563D01*
X88571443Y-83065227D01*
X88593387Y-83073079D01*
X88614457Y-83083044D01*
X88634448Y-83095026D01*
X88653168Y-83108910D01*
X88670438Y-83124562D01*
X88686090Y-83141832D01*
X88699974Y-83160552D01*
X88711956Y-83180543D01*
X88721921Y-83201613D01*
X88729773Y-83223557D01*
X88735437Y-83246166D01*
X88738856Y-83269221D01*
X88740000Y-83292500D01*
X88740000Y-83867500D01*
X88738856Y-83890779D01*
X88735437Y-83913834D01*
X88729773Y-83936443D01*
X88721921Y-83958387D01*
X88711956Y-83979457D01*
X88699974Y-83999448D01*
X88686090Y-84018168D01*
X88670438Y-84035438D01*
X88653168Y-84051090D01*
X88634448Y-84064974D01*
X88614457Y-84076956D01*
X88593387Y-84086921D01*
X88571443Y-84094773D01*
X88548834Y-84100437D01*
X88525779Y-84103856D01*
X88502500Y-84105000D01*
X88027500Y-84105000D01*
X88004221Y-84103856D01*
X87981166Y-84100437D01*
X87958557Y-84094773D01*
X87936613Y-84086921D01*
X87915543Y-84076956D01*
X87895552Y-84064974D01*
X87876832Y-84051090D01*
X87859562Y-84035438D01*
X87843910Y-84018168D01*
X87830026Y-83999448D01*
X87818044Y-83979457D01*
X87808079Y-83958387D01*
X87800227Y-83936443D01*
X87794563Y-83913834D01*
X87791144Y-83890779D01*
X87790000Y-83867500D01*
X87790000Y-83292500D01*
X87791144Y-83269221D01*
X87794563Y-83246166D01*
X87800227Y-83223557D01*
X87808079Y-83201613D01*
X87818044Y-83180543D01*
X87830026Y-83160552D01*
X87843910Y-83141832D01*
X87859562Y-83124562D01*
X87876832Y-83108910D01*
X87895552Y-83095026D01*
X87915543Y-83083044D01*
X87936613Y-83073079D01*
X87958557Y-83065227D01*
X87981166Y-83059563D01*
X88004221Y-83056144D01*
X88027500Y-83055000D01*
X88502500Y-83055000D01*
X88525779Y-83056144D01*
G37*
G36*
X162185779Y-73376144D02*
G01*
X162208834Y-73379563D01*
X162231443Y-73385227D01*
X162253387Y-73393079D01*
X162274457Y-73403044D01*
X162294448Y-73415026D01*
X162313168Y-73428910D01*
X162330438Y-73444562D01*
X162346090Y-73461832D01*
X162359974Y-73480552D01*
X162371956Y-73500543D01*
X162381921Y-73521613D01*
X162389773Y-73543557D01*
X162395437Y-73566166D01*
X162398856Y-73589221D01*
X162400000Y-73612500D01*
X162400000Y-74187500D01*
X162398856Y-74210779D01*
X162395437Y-74233834D01*
X162389773Y-74256443D01*
X162381921Y-74278387D01*
X162371956Y-74299457D01*
X162359974Y-74319448D01*
X162346090Y-74338168D01*
X162330438Y-74355438D01*
X162313168Y-74371090D01*
X162294448Y-74384974D01*
X162274457Y-74396956D01*
X162253387Y-74406921D01*
X162231443Y-74414773D01*
X162208834Y-74420437D01*
X162185779Y-74423856D01*
X162162500Y-74425000D01*
X161687500Y-74425000D01*
X161664221Y-74423856D01*
X161641166Y-74420437D01*
X161618557Y-74414773D01*
X161596613Y-74406921D01*
X161575543Y-74396956D01*
X161555552Y-74384974D01*
X161536832Y-74371090D01*
X161519562Y-74355438D01*
X161503910Y-74338168D01*
X161490026Y-74319448D01*
X161478044Y-74299457D01*
X161468079Y-74278387D01*
X161460227Y-74256443D01*
X161454563Y-74233834D01*
X161451144Y-74210779D01*
X161450000Y-74187500D01*
X161450000Y-73612500D01*
X161451144Y-73589221D01*
X161454563Y-73566166D01*
X161460227Y-73543557D01*
X161468079Y-73521613D01*
X161478044Y-73500543D01*
X161490026Y-73480552D01*
X161503910Y-73461832D01*
X161519562Y-73444562D01*
X161536832Y-73428910D01*
X161555552Y-73415026D01*
X161575543Y-73403044D01*
X161596613Y-73393079D01*
X161618557Y-73385227D01*
X161641166Y-73379563D01*
X161664221Y-73376144D01*
X161687500Y-73375000D01*
X162162500Y-73375000D01*
X162185779Y-73376144D01*
G37*
G36*
X162185779Y-71626144D02*
G01*
X162208834Y-71629563D01*
X162231443Y-71635227D01*
X162253387Y-71643079D01*
X162274457Y-71653044D01*
X162294448Y-71665026D01*
X162313168Y-71678910D01*
X162330438Y-71694562D01*
X162346090Y-71711832D01*
X162359974Y-71730552D01*
X162371956Y-71750543D01*
X162381921Y-71771613D01*
X162389773Y-71793557D01*
X162395437Y-71816166D01*
X162398856Y-71839221D01*
X162400000Y-71862500D01*
X162400000Y-72437500D01*
X162398856Y-72460779D01*
X162395437Y-72483834D01*
X162389773Y-72506443D01*
X162381921Y-72528387D01*
X162371956Y-72549457D01*
X162359974Y-72569448D01*
X162346090Y-72588168D01*
X162330438Y-72605438D01*
X162313168Y-72621090D01*
X162294448Y-72634974D01*
X162274457Y-72646956D01*
X162253387Y-72656921D01*
X162231443Y-72664773D01*
X162208834Y-72670437D01*
X162185779Y-72673856D01*
X162162500Y-72675000D01*
X161687500Y-72675000D01*
X161664221Y-72673856D01*
X161641166Y-72670437D01*
X161618557Y-72664773D01*
X161596613Y-72656921D01*
X161575543Y-72646956D01*
X161555552Y-72634974D01*
X161536832Y-72621090D01*
X161519562Y-72605438D01*
X161503910Y-72588168D01*
X161490026Y-72569448D01*
X161478044Y-72549457D01*
X161468079Y-72528387D01*
X161460227Y-72506443D01*
X161454563Y-72483834D01*
X161451144Y-72460779D01*
X161450000Y-72437500D01*
X161450000Y-71862500D01*
X161451144Y-71839221D01*
X161454563Y-71816166D01*
X161460227Y-71793557D01*
X161468079Y-71771613D01*
X161478044Y-71750543D01*
X161490026Y-71730552D01*
X161503910Y-71711832D01*
X161519562Y-71694562D01*
X161536832Y-71678910D01*
X161555552Y-71665026D01*
X161575543Y-71653044D01*
X161596613Y-71643079D01*
X161618557Y-71635227D01*
X161641166Y-71629563D01*
X161664221Y-71626144D01*
X161687500Y-71625000D01*
X162162500Y-71625000D01*
X162185779Y-71626144D01*
G37*
G36*
X106305779Y-77186144D02*
G01*
X106328834Y-77189563D01*
X106351443Y-77195227D01*
X106373387Y-77203079D01*
X106394457Y-77213044D01*
X106414448Y-77225026D01*
X106433168Y-77238910D01*
X106450438Y-77254562D01*
X106466090Y-77271832D01*
X106479974Y-77290552D01*
X106491956Y-77310543D01*
X106501921Y-77331613D01*
X106509773Y-77353557D01*
X106515437Y-77376166D01*
X106518856Y-77399221D01*
X106520000Y-77422500D01*
X106520000Y-77997500D01*
X106518856Y-78020779D01*
X106515437Y-78043834D01*
X106509773Y-78066443D01*
X106501921Y-78088387D01*
X106491956Y-78109457D01*
X106479974Y-78129448D01*
X106466090Y-78148168D01*
X106450438Y-78165438D01*
X106433168Y-78181090D01*
X106414448Y-78194974D01*
X106394457Y-78206956D01*
X106373387Y-78216921D01*
X106351443Y-78224773D01*
X106328834Y-78230437D01*
X106305779Y-78233856D01*
X106282500Y-78235000D01*
X105807500Y-78235000D01*
X105784221Y-78233856D01*
X105761166Y-78230437D01*
X105738557Y-78224773D01*
X105716613Y-78216921D01*
X105695543Y-78206956D01*
X105675552Y-78194974D01*
X105656832Y-78181090D01*
X105639562Y-78165438D01*
X105623910Y-78148168D01*
X105610026Y-78129448D01*
X105598044Y-78109457D01*
X105588079Y-78088387D01*
X105580227Y-78066443D01*
X105574563Y-78043834D01*
X105571144Y-78020779D01*
X105570000Y-77997500D01*
X105570000Y-77422500D01*
X105571144Y-77399221D01*
X105574563Y-77376166D01*
X105580227Y-77353557D01*
X105588079Y-77331613D01*
X105598044Y-77310543D01*
X105610026Y-77290552D01*
X105623910Y-77271832D01*
X105639562Y-77254562D01*
X105656832Y-77238910D01*
X105675552Y-77225026D01*
X105695543Y-77213044D01*
X105716613Y-77203079D01*
X105738557Y-77195227D01*
X105761166Y-77189563D01*
X105784221Y-77186144D01*
X105807500Y-77185000D01*
X106282500Y-77185000D01*
X106305779Y-77186144D01*
G37*
G36*
X106305779Y-75436144D02*
G01*
X106328834Y-75439563D01*
X106351443Y-75445227D01*
X106373387Y-75453079D01*
X106394457Y-75463044D01*
X106414448Y-75475026D01*
X106433168Y-75488910D01*
X106450438Y-75504562D01*
X106466090Y-75521832D01*
X106479974Y-75540552D01*
X106491956Y-75560543D01*
X106501921Y-75581613D01*
X106509773Y-75603557D01*
X106515437Y-75626166D01*
X106518856Y-75649221D01*
X106520000Y-75672500D01*
X106520000Y-76247500D01*
X106518856Y-76270779D01*
X106515437Y-76293834D01*
X106509773Y-76316443D01*
X106501921Y-76338387D01*
X106491956Y-76359457D01*
X106479974Y-76379448D01*
X106466090Y-76398168D01*
X106450438Y-76415438D01*
X106433168Y-76431090D01*
X106414448Y-76444974D01*
X106394457Y-76456956D01*
X106373387Y-76466921D01*
X106351443Y-76474773D01*
X106328834Y-76480437D01*
X106305779Y-76483856D01*
X106282500Y-76485000D01*
X105807500Y-76485000D01*
X105784221Y-76483856D01*
X105761166Y-76480437D01*
X105738557Y-76474773D01*
X105716613Y-76466921D01*
X105695543Y-76456956D01*
X105675552Y-76444974D01*
X105656832Y-76431090D01*
X105639562Y-76415438D01*
X105623910Y-76398168D01*
X105610026Y-76379448D01*
X105598044Y-76359457D01*
X105588079Y-76338387D01*
X105580227Y-76316443D01*
X105574563Y-76293834D01*
X105571144Y-76270779D01*
X105570000Y-76247500D01*
X105570000Y-75672500D01*
X105571144Y-75649221D01*
X105574563Y-75626166D01*
X105580227Y-75603557D01*
X105588079Y-75581613D01*
X105598044Y-75560543D01*
X105610026Y-75540552D01*
X105623910Y-75521832D01*
X105639562Y-75504562D01*
X105656832Y-75488910D01*
X105675552Y-75475026D01*
X105695543Y-75463044D01*
X105716613Y-75453079D01*
X105738557Y-75445227D01*
X105761166Y-75439563D01*
X105784221Y-75436144D01*
X105807500Y-75435000D01*
X106282500Y-75435000D01*
X106305779Y-75436144D01*
G37*
G36*
X106305779Y-65756144D02*
G01*
X106328834Y-65759563D01*
X106351443Y-65765227D01*
X106373387Y-65773079D01*
X106394457Y-65783044D01*
X106414448Y-65795026D01*
X106433168Y-65808910D01*
X106450438Y-65824562D01*
X106466090Y-65841832D01*
X106479974Y-65860552D01*
X106491956Y-65880543D01*
X106501921Y-65901613D01*
X106509773Y-65923557D01*
X106515437Y-65946166D01*
X106518856Y-65969221D01*
X106520000Y-65992500D01*
X106520000Y-66567500D01*
X106518856Y-66590779D01*
X106515437Y-66613834D01*
X106509773Y-66636443D01*
X106501921Y-66658387D01*
X106491956Y-66679457D01*
X106479974Y-66699448D01*
X106466090Y-66718168D01*
X106450438Y-66735438D01*
X106433168Y-66751090D01*
X106414448Y-66764974D01*
X106394457Y-66776956D01*
X106373387Y-66786921D01*
X106351443Y-66794773D01*
X106328834Y-66800437D01*
X106305779Y-66803856D01*
X106282500Y-66805000D01*
X105807500Y-66805000D01*
X105784221Y-66803856D01*
X105761166Y-66800437D01*
X105738557Y-66794773D01*
X105716613Y-66786921D01*
X105695543Y-66776956D01*
X105675552Y-66764974D01*
X105656832Y-66751090D01*
X105639562Y-66735438D01*
X105623910Y-66718168D01*
X105610026Y-66699448D01*
X105598044Y-66679457D01*
X105588079Y-66658387D01*
X105580227Y-66636443D01*
X105574563Y-66613834D01*
X105571144Y-66590779D01*
X105570000Y-66567500D01*
X105570000Y-65992500D01*
X105571144Y-65969221D01*
X105574563Y-65946166D01*
X105580227Y-65923557D01*
X105588079Y-65901613D01*
X105598044Y-65880543D01*
X105610026Y-65860552D01*
X105623910Y-65841832D01*
X105639562Y-65824562D01*
X105656832Y-65808910D01*
X105675552Y-65795026D01*
X105695543Y-65783044D01*
X105716613Y-65773079D01*
X105738557Y-65765227D01*
X105761166Y-65759563D01*
X105784221Y-65756144D01*
X105807500Y-65755000D01*
X106282500Y-65755000D01*
X106305779Y-65756144D01*
G37*
G36*
X106305779Y-64006144D02*
G01*
X106328834Y-64009563D01*
X106351443Y-64015227D01*
X106373387Y-64023079D01*
X106394457Y-64033044D01*
X106414448Y-64045026D01*
X106433168Y-64058910D01*
X106450438Y-64074562D01*
X106466090Y-64091832D01*
X106479974Y-64110552D01*
X106491956Y-64130543D01*
X106501921Y-64151613D01*
X106509773Y-64173557D01*
X106515437Y-64196166D01*
X106518856Y-64219221D01*
X106520000Y-64242500D01*
X106520000Y-64817500D01*
X106518856Y-64840779D01*
X106515437Y-64863834D01*
X106509773Y-64886443D01*
X106501921Y-64908387D01*
X106491956Y-64929457D01*
X106479974Y-64949448D01*
X106466090Y-64968168D01*
X106450438Y-64985438D01*
X106433168Y-65001090D01*
X106414448Y-65014974D01*
X106394457Y-65026956D01*
X106373387Y-65036921D01*
X106351443Y-65044773D01*
X106328834Y-65050437D01*
X106305779Y-65053856D01*
X106282500Y-65055000D01*
X105807500Y-65055000D01*
X105784221Y-65053856D01*
X105761166Y-65050437D01*
X105738557Y-65044773D01*
X105716613Y-65036921D01*
X105695543Y-65026956D01*
X105675552Y-65014974D01*
X105656832Y-65001090D01*
X105639562Y-64985438D01*
X105623910Y-64968168D01*
X105610026Y-64949448D01*
X105598044Y-64929457D01*
X105588079Y-64908387D01*
X105580227Y-64886443D01*
X105574563Y-64863834D01*
X105571144Y-64840779D01*
X105570000Y-64817500D01*
X105570000Y-64242500D01*
X105571144Y-64219221D01*
X105574563Y-64196166D01*
X105580227Y-64173557D01*
X105588079Y-64151613D01*
X105598044Y-64130543D01*
X105610026Y-64110552D01*
X105623910Y-64091832D01*
X105639562Y-64074562D01*
X105656832Y-64058910D01*
X105675552Y-64045026D01*
X105695543Y-64033044D01*
X105716613Y-64023079D01*
X105738557Y-64015227D01*
X105761166Y-64009563D01*
X105784221Y-64006144D01*
X105807500Y-64005000D01*
X106282500Y-64005000D01*
X106305779Y-64006144D01*
G37*
M02*
